<svg width="166" height="164" viewBox="0 0 166 164" fill="none" xmlns="http://www.w3.org/2000/svg">
<path d="M101.367 115.435L89.6483 94.1636L60.7201 105.269C60.7201 105.269 59.3099 107.084 59.6094 110.264C59.7342 111.679 60.3707 115.672 60.3707 115.672L54.9794 116.499C54.9794 116.499 47.2544 122.959 49.7129 133.062C51.5849 140.737 53.5817 144.818 53.5817 144.818L52.5334 152.343C52.5334 152.343 69.7555 159.854 86.5034 159.391C107.944 158.803 116.018 147.41 116.018 147.41L110.165 120.856L101.367 115.435Z" fill="#6CA0CE"/>
<path d="M51.7097 117.913C49.2262 120.255 48.8144 123.96 49.0141 125.263C49.4883 128.317 54.1682 136.718 59.3224 136.367C64.4765 136.017 62.018 125.676 60.3707 121.92C58.7233 118.164 55.6908 114.145 51.7097 117.913ZM37.7698 158.44C37.5951 161.006 40.4654 160.906 45.8567 160.906C51.248 160.906 64.2394 159.967 64.2394 159.967L63.1911 152.793C63.1911 152.793 59.9339 153.019 55.4661 150.565C53.6565 149.563 53.07 148.274 53.07 148.274C53.07 148.274 38.1192 153.282 37.7698 158.44Z" fill="#A7E2FF"/>
<path d="M76.6069 110.264C76.6069 110.264 70.8662 110.039 66.5856 115.034C63.865 118.201 58.2741 133.425 62.3674 135.541C66.4608 137.657 69.2688 130.195 70.8038 126.727C72.214 123.56 74.7848 119.917 77.0062 118.74C79.2276 117.563 81.0996 116.273 81.0996 116.273L76.6069 110.264ZM67.0598 151.391C67.0598 151.391 65.0631 151.391 63.0788 152.092C61.082 152.793 49.9625 158.202 50.0749 161.144C50.1872 164.086 56.9887 164.086 65.4125 163.961C73.8488 163.848 76.0703 162.196 76.7691 161.494C77.468 160.793 80.1636 157.15 79.2276 156.674C78.3041 156.211 67.0598 151.391 67.0598 151.391Z" fill="#FFE4BE"/>
<path d="M98.3217 97.4563C98.3217 97.4563 104.886 91.6972 107.457 86.1761C110.028 80.6549 109.915 75.3716 109.915 75.3716C109.915 75.3716 122.358 72.0789 119.225 56.6421C116.58 43.5716 106.047 46.3509 106.047 46.3509C106.047 46.3509 98.8958 31.4275 79.6894 27.321C60.483 23.2146 43.6602 32.7295 36.5842 42.3572C28.385 53.5247 29.7952 67.8598 29.7952 67.8598C29.7952 67.8598 23.4679 67.2713 20.5477 72.9177C17.5151 78.7644 18.5509 88.3044 24.1793 92.6613C29.7952 97.0056 38.581 95.8287 38.581 95.8287C38.581 95.8287 44.6711 102.414 51.6972 105.344C58.9105 108.361 65.7495 108.749 74.0735 107.923C82.3975 107.096 89.0617 102.752 89.0617 102.752C89.0617 102.752 88.7123 105.106 90.2348 108.161C91.1833 110.051 94.453 113.682 94.453 113.682C94.453 113.682 89.1241 110.865 84.8435 110.101C80.201 109.275 77.2309 109.575 75.4712 110.627C74.1359 111.428 75.8581 117.801 77.8174 118.151C79.8142 118.502 83.0839 117.563 88.8246 119.791C94.5653 122.02 101.941 127.316 103.813 128.493C105.685 129.669 109.491 131.66 109.791 134.252C110.015 136.242 106.808 138.834 101.18 133.075C95.7883 127.554 90.5842 122.27 84.7187 121.557C78.8657 120.856 75.2341 122.383 72.5385 128.255C69.0816 135.804 66.2112 144.943 65.6247 147.285C65.0381 149.638 63.4033 150.928 64.6887 153.156C65.5872 154.709 75.5087 160.505 77.8049 160.33C80.7377 160.092 83.0714 154.108 83.7828 153.044C84.4816 151.992 86.0042 149.751 86.0042 149.751C86.0042 149.751 91.1583 161.97 102.053 160.919C112.948 159.867 114.471 153.044 114.471 153.044C114.471 153.044 122.944 153.469 131.917 150.903C143.948 147.46 152.172 136.43 154.755 118.74C156.627 105.932 154.281 87.2528 148.316 71.6157C146.119 65.8817 143.536 59.0835 141.876 54.3385C137.621 42.2445 136.135 33.5058 143.049 30.9517C146.569 29.6497 148.827 31.1896 149.851 33.2053C151.248 35.9721 151.486 39.4025 155.928 41.1678C159.098 42.4198 163.079 41.4057 164.826 38.4635C167.023 34.7828 166.249 29.3993 161.544 23.3022C153.457 12.8483 139.992 13.8373 132.616 19.4211C124.729 25.3805 121.372 33.318 125.241 48.2039C128.872 62.1883 136.859 79.9913 138.594 88.6299C140.94 100.261 143.062 128.856 128.635 134.69C121.958 137.394 117.041 136.33 117.041 136.33C117.041 136.33 115.868 122.959 111.65 113.294C106.845 102.264 98.3217 97.4563 98.3217 97.4563Z" fill="#A7E2FF"/>
<path d="M101.254 53.7C101.055 53.9504 102.39 57.6187 102.889 61.4497C103.451 65.6939 103.626 69.8003 103.988 69.9255C104.686 70.1634 115.07 67.5593 113.784 57.9191C112.499 48.279 101.729 53.1116 101.254 53.7ZM30.3942 73.7315C29.4707 73.0304 23.4679 74.7206 24.1918 81.6064C25.1278 90.5329 33.9135 90.5329 34.7372 89.9445C35.1615 89.644 33.4892 85.5751 32.391 81.6064C31.3302 77.7879 30.856 74.0695 30.3942 73.7315ZM63.6529 55.0396C58.037 56.9176 50.1872 47.8658 43.3857 55.0396C35.0617 63.8159 44.9581 71.7033 45.7319 77.838C46.2061 81.5939 44.097 84.4233 46.2061 90.7583C47.9658 96.0416 57.7374 103.904 75.5087 100.286C92.1442 96.8929 96.0504 86.3263 95.6136 79.6783C95.1269 72.2667 91.6575 71.841 90.9586 68.0851C90.2598 64.3292 94.1909 49.5309 82.7594 46.4636C70.9161 43.2961 69.7056 53.0239 63.6529 55.0396Z" fill="#FFE4BE"/>
<path d="M83.1837 64.0913C83.8826 68.323 83.4458 71.1399 80.4631 71.841C76.8939 72.6798 74.5727 70.251 73.8738 65.9317C73.0127 60.6609 74.0735 58.182 76.8066 57.6687C80.1761 57.0428 82.3101 58.7705 83.1837 64.0913ZM59.4721 68.2354C60.2708 72.2667 60.4081 75.8724 57.1883 76.6987C54.1058 77.4874 51.5475 75.5093 50.4243 71.1524C49.1014 66.0444 49.5382 63.0898 52.446 62.2509C55.4412 61.3746 58.2366 61.9755 59.4721 68.2354ZM63.6903 75.2965C63.7652 77.3246 67.1971 79.7785 69.2064 79.4655C71.3779 79.115 73.4245 74.8082 72.7132 73.5312C71.7897 71.8786 63.6279 73.4435 63.6903 75.2965Z" fill="#8D6E63"/>
<path d="M55.4786 88.2418C55.828 91.0587 61.8059 95.3154 72.7007 93.1746C83.945 90.9711 85.6173 84.0978 85.4426 82.4202C85.2679 80.7425 79.5521 79.8661 69.8054 81.5438C62.1553 82.8583 55.1916 85.9883 55.4786 88.2418Z" fill="#CE4D5E"/>
<path d="M107.868 34.6116C107.645 29.0983 98.4588 30.3044 89.6302 26.9421C80.7386 23.5557 74.7273 16.5616 70.9139 20.5378C66.8569 24.2041 71.0207 35.127 84.5789 40.2905C98.1371 45.4541 108.477 40.0551 107.868 34.6116Z" fill="#3E4347"/>
<path d="M98.9429 2.33277C90.0904 -0.9663 82.2609 0.467061 82.3298 2.95424C81.7336 11.7747 79.9112 19.2597 76.162 26.8794C83.3895 31.8033 91.1939 34.6309 99.7948 35.7351C102.031 27.539 105.571 20.853 110.96 13.8578C112.656 12.0431 107.811 5.78238 98.9429 2.33277Z" fill="#3E4347"/>
<path d="M78.0988 22.3332C77.6264 23.9628 75.6575 26.6872 75.6575 26.6872C80.3152 36.4953 90.2789 40.29 100.251 36.0537C100.251 36.0537 100.683 32.8162 101.305 31.1713C91.3025 35.1065 82.9784 31.9363 78.0988 22.3332Z" fill="#ED4C5C"/>
<path d="M111.412 13.2339C110.287 16.2073 102.906 16.0743 94.8971 13.0242C86.8883 9.9741 81.3027 5.09639 82.4039 2.18629C83.5291 -0.787067 90.9341 -0.717346 98.9429 2.33277C106.952 5.38288 112.537 10.2606 111.412 13.2339Z" fill="#656D72"/>
<path d="M40.6615 139.757C40.6615 138.693 39.8018 137.832 38.7417 137.832H37.304C36.8042 137.846 36.3294 138.055 35.9807 138.415C35.6321 138.774 35.437 139.256 35.437 139.758C35.437 140.259 35.6321 140.741 35.9807 141.101C36.3294 141.46 36.8042 141.669 37.304 141.683H38.7417C39.8018 141.683 40.6615 140.82 40.6615 139.757Z" fill="#F3AD61"/>
<path d="M14.8371 127.474H1.13566C0.126386 127.474 -0.38188 126.198 0.336956 125.446L3.49983 122.137C4.07607 121.522 4.7715 121.033 5.54332 120.698C6.31515 120.364 7.14705 120.191 7.98783 120.191C8.82862 120.191 9.66052 120.364 10.4323 120.698C11.2042 121.033 11.8996 121.522 12.4758 122.137L15.6402 125.446C16.3547 126.195 15.8464 127.474 14.8371 127.474ZM36.62 127.474H22.92C21.9107 127.474 21.4025 126.195 22.117 125.446L25.2827 122.137C25.8589 121.522 26.5544 121.032 27.3263 120.697C28.0983 120.362 28.9304 120.19 29.7715 120.19C30.6125 120.19 31.4446 120.362 32.2166 120.697C32.9886 121.032 33.684 121.522 34.2602 122.137L37.4231 125.446C38.1375 126.195 37.6293 127.474 36.62 127.474Z" fill="#F9C23C"/>
<path d="M19.3142 104.207C12.1694 103.176 7.75476 121.539 10.9714 128.959C14.188 136.38 21.1324 138.006 28.4993 140.911C29.2882 141.221 30.1279 141.382 30.9753 141.384C33.7693 141.384 35.2883 143.689 36.3484 140.838C37.7164 137.145 35.923 133.006 32.3404 131.596C28.4427 130.062 26.3704 127.113 24.8108 123.12C23.2192 119.048 23.1117 117.378 23.1175 112.939C23.1248 109.389 23.3571 104.79 19.3142 104.207Z" fill="#FFD863"/>
<path d="M10.9714 128.959L24.7091 122.632C26.2862 126.271 29.1427 129.058 32.7543 130.484C36.938 132.133 39.735 136.647 37.4449 141.244C32.869 150.428 10.9714 141.148 10.9714 128.959Z" fill="#FCD53F"/>
<path fill-rule="evenodd" clip-rule="evenodd" d="M17.0778 125.263C16.803 125.351 16.5742 125.545 16.4419 125.803C16.3096 126.06 16.2845 126.359 16.3721 126.635C19.2474 135.669 27.6353 139.841 35.1315 140.227C35.419 140.241 35.7001 140.139 35.9133 139.945C36.1265 139.751 36.2544 139.48 36.2692 139.192C36.284 138.904 36.1844 138.621 35.9921 138.406C35.7999 138.191 35.5307 138.062 35.2433 138.045C28.3628 137.691 20.9683 133.89 18.4473 125.971C18.4037 125.834 18.3337 125.707 18.2413 125.598C18.1489 125.488 18.0359 125.398 17.9088 125.332C17.7816 125.267 17.6428 125.227 17.5002 125.215C17.3576 125.203 17.2141 125.219 17.0778 125.263Z" fill="#F9C23C"/>
<path d="M9.81687 139.809L24.6249 122.648H11.5493C8.46198 122.804 6.03972 125.43 6.03972 128.617V139.619C6.03972 141.556 7.77945 142.148 9.81687 139.809Z" fill="#FFF478"/>
</svg>
