<svg width="61" height="61" viewBox="0 0 61 61" fill="none" xmlns="http://www.w3.org/2000/svg">
<circle cx="30.5" cy="30.5" r="30.5" fill="#FFF1AC"/>
<path d="M36.1428 41.207L32.5425 34.7195L23.655 38.1064C23.655 38.1064 23.2217 38.6601 23.3137 39.63C23.3521 40.0615 23.5476 41.2795 23.5476 41.2795L21.8913 41.5316C21.8913 41.5316 19.5179 43.5019 20.2733 46.5834C20.8484 48.9241 21.4618 50.1689 21.4618 50.1689L21.1398 52.4638C21.1398 52.4638 26.4309 54.7548 31.5763 54.6136C38.1634 54.4341 40.6441 50.9593 40.6441 50.9593L38.8459 42.8604L36.1428 41.207Z" fill="#6CA0CE"/>
<path d="M20.8867 41.963C20.1237 42.6771 19.9972 43.8074 20.0585 44.2045C20.2042 45.1362 21.642 47.6983 23.2255 47.5914C24.8091 47.4845 24.0537 44.3305 23.5476 43.1849C23.0415 42.0394 22.1098 40.8137 20.8867 41.963ZM16.604 54.3234C16.5503 55.1061 17.4321 55.0756 19.0885 55.0756C20.7449 55.0756 24.7362 54.7892 24.7362 54.7892L24.4141 52.6012C24.4141 52.6012 23.4134 52.67 22.0408 51.9216C21.4848 51.6161 21.3046 51.2228 21.3046 51.2228C21.3046 51.2228 16.7113 52.7502 16.604 54.3234Z" fill="#A7E2FF"/>
<path d="M28.5358 39.63C28.5358 39.63 26.7721 39.5612 25.457 41.0848C24.6212 42.0509 22.9035 46.6941 24.1611 47.3394C25.4187 47.9847 26.2814 45.7089 26.753 44.6512C27.1862 43.6852 27.9761 42.574 28.6585 42.2151C29.341 41.8561 29.9161 41.4628 29.9161 41.4628L28.5358 39.63ZM25.6027 52.1736C25.6027 52.1736 24.9893 52.1736 24.3796 52.3874C23.7662 52.6012 20.3499 54.2508 20.3844 55.1481C20.4189 56.0455 22.5086 56.0455 25.0966 56.0073C27.6885 55.9729 28.371 55.4689 28.5857 55.2551C28.8004 55.0412 29.6286 53.93 29.341 53.785C29.0573 53.6437 25.6027 52.1736 25.6027 52.1736Z" fill="#FFE4BE"/>
<path d="M35.2073 35.7237C35.2073 35.7237 37.224 33.9672 38.0139 32.2833C38.8037 30.5994 38.7692 28.988 38.7692 28.988C38.7692 28.988 42.5918 27.9837 41.6295 23.2756C40.8166 19.2891 37.5806 20.1368 37.5806 20.1368C37.5806 20.1368 35.3836 15.5852 29.4829 14.3328C23.5821 13.0803 18.4137 15.9824 16.2397 18.9187C13.7207 22.3248 14.1539 26.6969 14.1539 26.6969C14.1539 26.6969 12.21 26.5174 11.3128 28.2396C10.3811 30.0228 10.6994 32.9324 12.4286 34.2612C14.1539 35.5862 16.8532 35.2273 16.8532 35.2273C16.8532 35.2273 18.7243 37.2358 20.8829 38.1293C23.099 39.0496 25.2001 39.1679 27.7575 38.9159C30.3149 38.6639 32.3623 37.3389 32.3623 37.3389C32.3623 37.3389 32.255 38.0568 32.7227 38.9885C33.0141 39.5651 34.0187 40.6724 34.0187 40.6724C34.0187 40.6724 32.3815 39.8133 31.0664 39.5803C29.6401 39.3283 28.7276 39.42 28.1869 39.7407C27.7767 39.9851 28.3058 41.9287 28.9078 42.0356C29.5212 42.1425 30.5258 41.8561 32.2895 42.5358C34.0532 43.2155 36.3192 44.8307 36.8943 45.1896C37.4694 45.5486 38.6388 46.1557 38.7309 46.9461C38.7999 47.5532 37.8145 48.3437 36.0853 46.5872C34.4289 44.9033 32.8301 43.2919 31.028 43.0742C29.2298 42.8604 28.1141 43.3262 27.2859 45.1171C26.2239 47.4196 25.342 50.2071 25.1618 50.9211C24.9816 51.639 24.4793 52.0323 24.8742 52.712C25.1503 53.1855 28.1984 54.9534 28.9039 54.8999C29.805 54.8274 30.5219 53.0022 30.7405 52.6776C30.9552 52.3568 31.423 51.6734 31.423 51.6734C31.423 51.6734 33.0065 55.4002 36.3537 55.0794C39.7009 54.7587 40.1687 52.6776 40.1687 52.6776C40.1687 52.6776 42.772 52.8074 45.5288 52.0246C49.2249 50.9746 51.7516 47.6105 52.5453 42.2151C53.1204 38.3088 52.3996 32.6117 50.5669 27.8424C49.8921 26.0936 49.0984 24.0202 48.5885 22.573C47.281 18.8844 46.8247 16.2191 48.9489 15.4401C50.0301 15.043 50.7241 15.5127 51.0385 16.1275C51.4679 16.9713 51.5408 18.0176 52.9057 18.556C53.8796 18.9378 55.1027 18.6285 55.6395 17.7312C56.3143 16.6086 56.0766 14.9666 54.6311 13.1071C52.1465 9.91866 48.0095 10.2203 45.7435 11.9233C43.3203 13.7409 42.2889 16.1618 43.4775 20.702C44.5933 24.9672 47.0471 30.397 47.5801 33.0317C48.3009 36.579 48.9527 45.3004 44.5204 47.0798C42.4692 47.9045 40.9585 47.58 40.9585 47.58C40.9585 47.58 40.5981 43.5019 39.3021 40.554C37.826 37.19 35.2073 35.7237 35.2073 35.7237Z" fill="#A7E2FF"/>
<path d="M36.1083 22.3782C36.0469 22.4546 36.4572 23.5734 36.6106 24.7419C36.7831 26.0363 36.8368 27.2888 36.948 27.327C37.1627 27.3995 40.3527 26.6053 39.9578 23.6651C39.5629 20.7249 36.254 22.1988 36.1083 22.3782ZM14.338 28.4878C14.0543 28.2739 12.21 28.7894 12.4324 30.8896C12.72 33.6121 15.4192 33.6121 15.6723 33.4326C15.8026 33.341 15.2889 32.1 14.9514 30.8896C14.6255 29.7249 14.4798 28.5909 14.338 28.4878ZM24.556 22.7868C22.8306 23.3596 20.419 20.5989 18.3293 22.7868C15.772 25.4636 18.8124 27.8692 19.0502 29.7402C19.1959 30.8857 18.5479 31.7487 19.1959 33.6808C19.7365 35.2922 22.7386 37.6902 28.1984 36.5867C33.3094 35.5519 34.5095 32.3291 34.3753 30.3015C34.2257 28.041 33.1598 27.9112 32.9451 26.7656C32.7304 25.6201 33.9382 21.1067 30.4261 20.1712C26.7875 19.2051 26.4156 22.1721 24.556 22.7868Z" fill="#FFE4BE"/>
<path d="M30.5564 25.5476C30.7712 26.8382 30.637 27.6973 29.7206 27.9112C28.624 28.167 27.9109 27.4262 27.6962 26.1089C27.4316 24.5013 27.7575 23.7453 28.5972 23.5887C29.6324 23.3978 30.2881 23.9247 30.5564 25.5476ZM23.2716 26.8115C23.5169 28.041 23.5591 29.1407 22.5699 29.3927C21.6229 29.6333 20.8369 29.03 20.4918 27.7012C20.0854 26.1432 20.2196 25.2421 21.1129 24.9862C22.0331 24.719 22.892 24.9022 23.2716 26.8115ZM24.5675 28.9651C24.5905 29.5837 25.6449 30.3321 26.2622 30.2366C26.9293 30.1297 27.5581 28.8161 27.3396 28.4267C27.0559 27.9226 24.5483 28.3999 24.5675 28.9651Z" fill="#8D6E63"/>
<path d="M22.0446 32.9133C22.152 33.7725 23.9885 35.0708 27.3358 34.4178C30.7903 33.7458 31.3041 31.6494 31.2504 31.1378C31.1967 30.6261 29.4407 30.3588 26.4462 30.8705C24.0959 31.2714 21.9564 32.226 22.0446 32.9133Z" fill="#CE4D5E"/>
<path d="M38.1401 16.5564C38.0718 14.8748 35.2494 15.2427 32.537 14.2172C29.8052 13.1844 27.9584 11.0512 26.7868 12.2639C25.5404 13.3821 26.8196 16.7136 30.9851 18.2884C35.1505 19.8633 38.3274 18.2166 38.1401 16.5564Z" fill="#3E4347"/>
<path d="M35.3981 6.71148C32.6784 5.70528 30.2729 6.14245 30.2941 6.90103C30.1109 9.59124 29.551 11.8741 28.3992 14.1981C30.6197 15.6999 33.0174 16.5623 35.6598 16.899C36.3467 14.3993 37.4344 12.3601 39.09 10.2266C39.6113 9.67308 38.1226 7.7636 35.3981 6.71148Z" fill="#3E4347"/>
<path d="M28.9942 12.8115C28.8491 13.3085 28.2442 14.1395 28.2442 14.1395C29.6752 17.1309 32.7363 18.2883 35.8001 16.9962C35.8001 16.9962 35.9327 16.0088 36.1239 15.5071C33.0508 16.7073 30.4934 15.7404 28.9942 12.8115Z" fill="#ED4C5C"/>
<path d="M39.229 10.0363C38.8833 10.9432 36.6157 10.9026 34.1551 9.97232C31.6946 9.04205 29.9785 7.55437 30.3169 6.66681C30.6626 5.75995 32.9376 5.78121 35.3981 6.71148C37.8587 7.64175 39.5747 9.12943 39.229 10.0363Z" fill="#656D72"/>
<path d="M17.4924 48.6252C17.4924 48.3008 17.2283 48.0382 16.9026 48.0382H16.4609C16.3073 48.0425 16.1614 48.1062 16.0543 48.2158C15.9472 48.3255 15.8873 48.4724 15.8873 48.6254C15.8873 48.7784 15.9472 48.9254 16.0543 49.035C16.1614 49.1447 16.3073 49.2084 16.4609 49.2126H16.9026C17.2283 49.2126 17.4924 48.9496 17.4924 48.6252Z" fill="#F3AD61"/>
<path d="M9.55839 44.8791H5.34891C5.03883 44.8791 4.88268 44.4898 5.10352 44.2606L6.07525 43.2511C6.25229 43.0637 6.46594 42.9144 6.70307 42.8124C6.9402 42.7104 7.19578 42.6577 7.45409 42.6577C7.71241 42.6577 7.96799 42.7104 8.20512 42.8124C8.44224 42.9144 8.6559 43.0637 8.83294 43.2511L9.80511 44.2606C10.0246 44.489 9.86847 44.8791 9.55839 44.8791ZM16.2507 44.8791H12.0417C11.7316 44.8791 11.5755 44.489 11.795 44.2606L12.7676 43.2511C12.9446 43.0636 13.1583 42.9142 13.3954 42.8121C13.6326 42.71 13.8883 42.6573 14.1467 42.6573C14.405 42.6573 14.6607 42.71 14.8979 42.8121C15.135 42.9142 15.3487 43.0636 15.5257 43.2511L16.4974 44.2606C16.717 44.489 16.5608 44.8791 16.2507 44.8791Z" fill="#F9C23C"/>
<path d="M10.9339 37.7827C8.7388 37.4681 7.38249 43.0689 8.37072 45.3318C9.35896 47.5953 11.4925 48.0911 13.7558 48.9771C13.9982 49.0719 14.2561 49.1208 14.5165 49.1215C15.3749 49.1215 15.8416 49.8244 16.1673 48.9549C16.5876 47.8285 16.0366 46.5662 14.9359 46.1361C13.7384 45.6682 13.1018 44.7689 12.6226 43.551C12.1336 42.3091 12.1006 41.7999 12.1024 40.446C12.1046 39.3632 12.176 37.9604 10.9339 37.7827Z" fill="#FFD863"/>
<path d="M8.37072 45.3318L12.5914 43.4021C13.0759 44.5121 13.9535 45.3621 15.0631 45.7971C16.3484 46.3 17.2077 47.6766 16.5041 49.0789C15.0983 51.8799 8.37072 49.0495 8.37072 45.3318Z" fill="#FCD53F"/>
<path fill-rule="evenodd" clip-rule="evenodd" d="M10.2468 44.2046C10.1624 44.2315 10.0921 44.2907 10.0514 44.3692C10.0108 44.4477 10.0031 44.539 10.03 44.6231C10.9134 47.3784 13.4904 48.651 15.7934 48.7687C15.8818 48.7728 15.9681 48.7418 16.0336 48.6826C16.0991 48.6235 16.1384 48.5409 16.1429 48.4529C16.1475 48.365 16.1169 48.2788 16.0578 48.2133C15.9988 48.1477 15.9161 48.1081 15.8278 48.1031C13.7139 47.9952 11.4421 46.8359 10.6675 44.4205C10.6542 44.3788 10.6327 44.3402 10.6043 44.3068C10.5759 44.2733 10.5412 44.2458 10.5021 44.2258C10.463 44.2057 10.4204 44.1935 10.3766 44.1899C10.3328 44.1862 10.2887 44.1912 10.2468 44.2046Z" fill="#F9C23C"/>
<path d="M8.01603 48.6412L12.5655 43.407H8.54829C7.59976 43.4546 6.85558 44.2557 6.85558 45.2274V48.583C6.85558 49.174 7.39007 49.3544 8.01603 48.6412Z" fill="#FFF478"/>
</svg>
