<svg width="212" height="166" viewBox="0 0 212 166" fill="none" xmlns="http://www.w3.org/2000/svg">
<path d="M137.169 117.46L125.402 96.2009L96.3526 107.3C96.3526 107.3 94.9365 109.114 95.2373 112.293C95.3626 113.707 96.0017 117.698 96.0017 117.698L90.5879 118.524C90.5879 118.524 82.8306 124.981 85.2994 135.079C87.1792 142.749 89.1843 146.828 89.1843 146.828L88.1316 154.349C88.1316 154.349 105.426 161.857 122.244 161.394C143.774 160.805 151.882 149.419 151.882 149.419L146.004 122.879L137.169 117.46Z" fill="#F79329"/>
<path d="M87.3045 119.938C84.8106 122.278 84.3971 125.982 84.5976 127.283C85.0738 130.336 89.7733 138.733 94.949 138.382C100.125 138.032 97.6559 127.696 96.0017 123.942C94.3475 120.188 91.3022 116.172 87.3045 119.938ZM73.3063 160.443C73.1308 163.008 76.0132 162.908 81.427 162.908C86.8408 162.908 99.8866 161.969 99.8866 161.969L98.8339 154.799C98.8339 154.799 95.5631 155.024 91.0766 152.572C89.2595 151.571 88.6705 150.282 88.6705 150.282C88.6705 150.282 73.6572 155.287 73.3063 160.443Z" fill="#FCC21B"/>
<path d="M112.306 112.293C112.306 112.293 106.541 112.067 102.243 117.06C99.5107 120.226 93.8963 135.442 98.0068 137.556C102.117 139.671 104.937 132.213 106.478 128.747C107.895 125.581 110.476 121.94 112.707 120.764C114.938 119.588 116.817 118.299 116.817 118.299L112.306 112.293ZM102.719 153.398C102.719 153.398 100.714 153.398 98.7211 154.099C96.716 154.799 85.55 160.205 85.6628 163.145C85.7756 166.086 92.6055 166.086 101.065 165.961C109.536 165.848 111.767 164.197 112.469 163.496C113.171 162.795 115.877 159.154 114.938 158.678C114.01 158.215 102.719 153.398 102.719 153.398Z" fill="#FFE4BE"/>
<path d="M134.111 99.4918C134.111 99.4918 140.703 93.7358 143.285 88.2176C145.866 82.6993 145.754 77.4189 145.754 77.4189C145.754 77.4189 158.248 74.1279 155.103 58.6994C152.446 45.6358 141.869 48.4137 141.869 48.4137C141.869 48.4137 134.688 33.4982 115.401 29.394C96.1145 25.2897 79.2214 34.7996 72.1157 44.4221C63.8822 55.5837 65.2983 69.911 65.2983 69.911C65.2983 69.911 58.9446 69.3229 56.0121 74.9663C52.9669 80.8099 54.007 90.3448 59.6589 94.6993C65.2983 99.0413 74.1209 97.8651 74.1209 97.8651C74.1209 97.8651 80.2365 104.447 87.292 107.375C94.5355 110.391 101.403 110.779 109.762 109.953C118.121 109.127 124.813 104.785 124.813 104.785C124.813 104.785 124.462 107.137 125.991 110.19C126.943 112.08 130.227 115.709 130.227 115.709C130.227 115.709 124.875 112.893 120.577 112.13C115.915 111.304 112.932 111.604 111.165 112.655C109.824 113.456 111.554 119.825 113.521 120.176C115.527 120.526 118.81 119.588 124.575 121.815C130.339 124.042 137.746 129.335 139.626 130.512C141.505 131.688 145.328 133.677 145.628 136.268C145.854 138.257 142.633 140.847 136.981 135.091C131.567 129.573 126.342 124.293 120.452 123.579C114.574 122.879 110.927 124.405 108.22 130.274C104.749 137.819 101.867 146.954 101.278 149.294C100.689 151.646 99.047 152.935 100.338 155.162C101.24 156.714 111.203 162.507 113.509 162.332C116.454 162.094 118.797 156.113 119.512 155.05C120.214 153.998 121.742 151.759 121.742 151.759C121.742 151.759 126.918 163.971 137.859 162.92C148.799 161.869 150.328 155.05 150.328 155.05C150.328 155.05 158.837 155.475 167.848 152.91C179.928 149.469 188.187 138.445 190.781 120.764C192.661 107.963 190.305 89.2937 184.315 73.6649C182.109 67.934 179.515 61.1394 177.848 56.397C173.575 44.3095 172.083 35.5754 179.026 33.0227C182.56 31.7214 184.828 33.2605 185.856 35.2751C187.26 38.0404 187.498 41.469 191.959 43.2333C195.142 44.4846 199.14 43.4711 200.894 40.5305C203.1 36.8517 202.323 31.4711 197.599 25.3773C189.478 14.9289 175.956 15.9174 168.549 21.4982C160.629 27.4544 157.258 35.3877 161.143 50.2656C164.79 64.2427 172.81 82.0362 174.552 90.6701C176.908 102.295 179.039 130.874 164.552 136.705C157.847 139.408 152.909 138.345 152.909 138.345C152.909 138.345 151.731 124.981 147.496 115.321C142.671 104.297 134.111 99.4918 134.111 99.4918Z" fill="#FCC21B"/>
<path d="M137.056 55.7589C136.856 56.0091 138.197 59.6754 138.698 63.5044C139.262 67.7463 139.438 71.8506 139.801 71.9757C140.503 72.2134 150.929 69.6107 149.639 59.9757C148.348 50.3407 137.533 55.1707 137.056 55.7589ZM65.8999 75.7796C64.9725 75.0789 58.9446 76.7682 59.6715 83.6503C60.6114 92.5721 69.4339 92.5721 70.261 91.984C70.6871 91.6837 69.0078 87.617 67.905 83.6503C66.8398 79.8339 66.3636 76.1175 65.8999 75.7796ZM99.2976 57.0977C93.6582 58.9747 85.7756 49.9278 78.9457 57.0977C70.5868 65.8694 80.5247 73.7525 81.3017 79.8839C81.7779 83.6378 79.66 86.4658 81.7779 92.7973C83.5449 98.0778 93.3575 105.936 111.203 102.32C127.908 98.9287 131.831 88.3677 131.392 81.7233C130.903 74.3156 127.419 73.8902 126.718 70.1363C126.016 66.3824 129.963 51.592 118.484 48.5263C106.591 45.3605 105.376 55.0831 99.2976 57.0977Z" fill="#FFE4BE"/>
<path d="M118.91 66.1446C119.612 70.374 119.173 73.1895 116.178 73.8902C112.594 74.7286 110.263 72.301 109.561 67.9841C108.697 62.7161 109.762 60.2385 112.506 59.7255C115.89 59.0998 118.033 60.8266 118.91 66.1446ZM95.0994 70.2864C95.9015 74.3156 96.0393 77.9194 92.806 78.7452C89.7106 79.5336 87.1416 77.5565 86.0137 73.202C84.6853 68.0967 85.1239 65.1436 88.0439 64.3052C91.0516 63.4293 93.8587 64.0299 95.0994 70.2864ZM99.3352 77.3438C99.4104 79.3709 102.857 81.8234 104.874 81.5106C107.055 81.1602 109.11 76.8558 108.396 75.5794C107.468 73.9277 99.2726 75.4919 99.3352 77.3438Z" fill="#89CBCC"/>
<path d="M91.0892 90.2822C91.4401 93.0976 97.4429 97.3521 108.383 95.2123C119.675 93.01 121.354 86.1404 121.178 84.4637C121.003 82.7869 115.263 81.911 105.476 83.5878C97.7938 84.9016 90.8009 88.0299 91.0892 90.2822Z" fill="#CE4D5E"/>
<path d="M20.0041 81.6198C19.7417 81.0456 19.2522 80.8837 18.8453 80.866C18.2261 80.8366 17.5774 81.2635 16.967 81.767C16.5335 82.2557 16.0145 82.6326 15.413 82.8976C14.9972 83.0448 14.5844 83.0742 14.1657 83.0536C13.576 83.0242 12.9774 82.8946 12.3847 82.8652L12.3523 82.8622L12.0839 82.8387C11.4057 82.8063 10.7659 82.9653 10.1584 83.3157C9.60111 83.8221 9.35637 84.4521 9.43304 85.2117C9.56278 85.8389 9.45073 86.413 9.09983 86.9341C8.49535 87.3581 7.86138 87.7291 7.19497 88.0441C6.50497 88.421 6.07152 88.9892 5.8828 89.7459C5.81498 90.5467 6.18651 91.059 6.98856 91.2798C8.0324 91.5418 9.43598 91.5418 10.6184 92.4546C12.3464 93.8943 12.8889 95.3458 13.6408 95.5666C14.0094 95.1485 16.3094 93.3732 20.1663 92.5223C20.8563 90.1463 21.275 84.4109 20.0041 81.6198Z" fill="#FCC21B"/>
<path d="M16.1118 92.0159C15.4336 90.6615 13.5022 88.2796 13.0393 88.7507C12.5823 89.263 13.6349 91.9246 14.3751 93.2289C14.6375 92.9521 15.4838 92.3721 15.8524 92.275" fill="#D19B15"/>
<path d="M12.7002 96.3527C13.0983 96.3527 13.4875 96.1496 13.7087 95.7845C15.7374 92.4516 20.3314 92.802 20.3757 92.8079C21.0244 92.8609 21.5964 92.3839 21.6525 91.7391C21.6799 91.4289 21.5833 91.1206 21.3839 90.8812C21.1845 90.6418 20.8984 90.4909 20.588 90.4613C20.3403 90.4378 14.493 89.9578 11.6917 94.5656C11.3526 95.122 11.5325 95.8463 12.0869 96.182C12.2815 96.2968 12.4908 96.3527 12.7002 96.3527Z" fill="#8D6E63"/>
<path d="M11.8569 115.976C16.908 117.219 23.9289 117.13 28.9446 116.141C33.6389 115.214 37.2334 112.449 36.8206 107.008C36.4019 101.502 32.7484 96.3174 27.7238 94.0327C22.8614 91.8215 16.3359 90.744 12.8978 95.7609C12.0426 97.0093 10.4091 99.7798 10.3324 101.14C10.3265 101.249 10.3206 101.346 10.297 101.44C10.2911 101.782 10.1525 102.126 9.81637 102.38C7.65497 104.014 6.08036 106.181 5.79139 109.151C5.44934 112.693 8.80496 115.225 11.8569 115.976Z" fill="#FCC21B"/>
<path d="M16.3359 106.867C16.9493 105.871 18.0786 104.791 19.1461 103.863L18.3175 101.573C17.5803 102.147 16.9316 102.686 16.4244 103.151C16.3418 103.23 16.2121 103.236 16.1177 103.169L14.2188 101.758C14.1657 101.717 14.1333 101.658 14.1244 101.591C14.1213 101.557 14.1252 101.524 14.1358 101.493C14.1465 101.461 14.1637 101.432 14.1863 101.408C14.7495 100.781 15.9703 99.6827 17.3061 98.7788L16.8195 97.4362C16.7635 97.2831 16.8402 97.1153 16.9965 97.0564L19.2286 96.2497C19.382 96.1937 19.553 96.2732 19.609 96.4263L19.9717 97.4303C22.0741 96.7796 23.7431 96.9887 25.0523 98.081C26.0785 98.9407 26.5208 100.168 26.2082 101.281C25.8897 102.468 24.958 103.281 23.7785 104.308L23.6281 104.441C23.3539 104.676 23.0619 104.92 22.7759 105.165L23.7844 107.95C25.1083 107.084 26.2171 105.886 26.4058 105.624C26.4411 105.575 26.4937 105.542 26.5528 105.531C26.6119 105.519 26.6732 105.53 26.7242 105.562L28.9122 106.958C28.9652 106.99 29.0036 107.046 29.0183 107.111C29.0301 107.173 29.0183 107.238 28.9829 107.291C28.3254 108.28 27.2491 109.387 26.1021 110.252C25.8278 110.459 25.415 110.747 24.9078 111.05L25.2882 112.096C25.3413 112.249 25.2646 112.416 25.1113 112.472L22.8762 113.282C22.7228 113.338 22.5518 113.259 22.4958 113.105L22.1803 112.234C20.1398 112.787 18.347 112.467 16.9611 111.283C15.6224 110.138 15.3924 108.53 16.3359 106.867ZM20.9625 100.174L21.5728 101.861C22.1419 101.42 22.4457 101.087 22.2304 100.61C22.0063 100.121 21.449 100.089 20.9625 100.174ZM20.358 107.211C19.9658 107.591 19.6886 107.941 19.6621 108.262C19.6503 108.445 19.7181 108.621 19.8773 108.804C20.1545 109.125 20.5968 109.187 21.0539 109.131L20.358 107.211Z" fill="#424242"/>
<path d="M3.67676 132.47L0.248721 135.328L0.190408 135.383C0.10598 135.471 0.0466605 135.581 0.0185084 135.7C-0.00964367 135.819 -0.00562038 135.944 0.0301678 136.061C0.065956 136.178 0.132227 136.284 0.222213 136.367C0.312198 136.45 0.422675 136.508 0.54236 136.534L4.90295 137.509L6.56767 141.647L6.59995 141.717C6.65802 141.825 6.7438 141.915 6.8485 141.98C6.9532 142.044 7.07307 142.079 7.19582 142.081C7.31858 142.084 7.43981 142.054 7.5471 141.994C7.6544 141.935 7.74391 141.848 7.80646 141.742L10.0833 137.906L14.5314 137.609L14.6071 137.6C14.7281 137.578 14.8412 137.525 14.9347 137.445C15.0283 137.366 15.0989 137.263 15.1395 137.147C15.18 137.031 15.1889 136.906 15.1654 136.786C15.1418 136.666 15.0865 136.554 15.0053 136.461L12.0539 133.114L13.1477 128.786L13.1628 128.708C13.1787 128.587 13.1622 128.463 13.1148 128.35C13.0675 128.238 12.991 128.139 12.8933 128.066C12.7955 127.992 12.68 127.946 12.5584 127.931C12.4368 127.917 12.3135 127.934 12.2011 127.983L8.10088 129.751L4.31934 127.38C4.20984 127.311 4.08326 127.275 3.95392 127.274C3.82459 127.273 3.69766 127.309 3.58752 127.377C3.47738 127.444 3.38841 127.542 3.3307 127.657C3.27298 127.773 3.24882 127.902 3.26095 128.031L3.67676 132.47Z" fill="#CE4D5E"/>
<path d="M202.182 68.9763L197.719 68.8164L197.639 68.8181C197.517 68.8278 197.4 68.8698 197.299 68.9397C197.198 69.0095 197.118 69.1048 197.066 69.2158C197.015 69.3268 196.993 69.4496 197.005 69.5715C197.016 69.6934 197.06 69.8101 197.131 69.9097L199.724 73.5435L198.193 77.7336L198.171 77.8068C198.142 77.9259 198.145 78.0506 198.18 78.1681C198.215 78.2856 198.281 78.3916 198.37 78.4754C198.46 78.5592 198.57 78.6177 198.69 78.645C198.81 78.6722 198.934 78.6672 199.051 78.6304L203.312 77.2948L206.821 80.0409L206.883 80.0846C206.988 80.1493 207.108 80.185 207.231 80.1882C207.353 80.1914 207.475 80.1619 207.583 80.1027C207.69 80.0435 207.78 79.9568 207.843 79.8515C207.906 79.7462 207.94 79.626 207.941 79.5033L207.985 75.0433L211.695 72.5529L211.758 72.5047C211.851 72.4251 211.921 72.3223 211.962 72.2068C212.002 72.0913 212.011 71.9673 211.987 71.8473C211.964 71.7273 211.909 71.6156 211.828 71.5237C211.747 71.4317 211.644 71.3628 211.528 71.3239L207.294 69.9043L206.066 65.6177C206.031 65.4935 205.961 65.3817 205.865 65.295C205.769 65.2083 205.651 65.1501 205.524 65.127C205.397 65.1039 205.265 65.1168 205.145 65.1643C205.025 65.2118 204.92 65.292 204.843 65.3957L202.182 68.9763Z" fill="#CE4D5E"/>
<path d="M132.251 17.0319L132.779 34.9926L119.944 29.4449L132.251 17.0319Z" fill="#F79329"/>
<path d="M132.655 35.4246C132.637 35.4193 132.618 35.414 132.601 35.4051L119.762 29.8564C119.625 29.7971 119.529 29.6745 119.5 29.5275C119.471 29.3804 119.517 29.2314 119.619 29.1258L131.929 16.7139C132.057 16.588 132.251 16.5485 132.415 16.6115C132.583 16.6756 132.696 16.8348 132.7 17.0142L133.222 34.8462C133.253 34.9305 133.257 35.0267 133.231 35.1183C133.163 35.3562 132.913 35.4945 132.674 35.4262C132.673 35.4298 132.662 35.4267 132.655 35.4246ZM120.723 29.2917L132.308 34.2987L131.834 18.0934L120.723 29.2917ZM115.046 5.96679C114.893 6.49691 114.536 6.94482 114.053 7.212C113.57 7.47918 113 7.54373 112.469 7.39145C111.365 7.07494 110.725 5.92041 111.042 4.8185C111.36 3.71293 112.512 3.07627 113.619 3.39384C114.726 3.71141 115.364 4.86123 115.046 5.96679Z" fill="#F79329"/>
<path d="M112.346 7.81977C111.701 7.63371 111.156 7.19986 110.83 6.61332C110.505 6.02679 110.426 5.33542 110.611 4.69076C110.797 4.04665 111.231 3.50259 111.819 3.17782C112.406 2.85305 113.099 2.77408 113.744 2.9582C114.389 3.14427 114.934 3.57812 115.26 4.16465C115.585 4.75118 115.664 5.44255 115.479 6.08722C115.293 6.73133 114.859 7.27539 114.271 7.60016C113.684 7.92492 112.991 8.0039 112.346 7.81977ZM113.495 3.82582C112.629 3.57765 111.723 4.07863 111.475 4.94258C111.226 5.80654 111.728 6.71131 112.593 6.95948C113.458 7.20764 114.368 6.70772 114.617 5.84376C114.865 4.97981 114.36 4.07398 113.495 3.82582ZM135.196 9.58222C136.28 9.96463 136.851 11.1546 136.468 12.2376C136.088 13.3216 134.894 13.8866 133.812 13.5089C133.554 13.4186 133.316 13.2784 133.112 13.0961C132.908 12.9139 132.742 12.6933 132.624 12.4469C132.506 12.2006 132.437 11.9333 132.423 11.6605C132.408 11.3877 132.447 11.1147 132.539 10.8571C132.923 9.77049 134.111 9.19981 135.196 9.58222Z" fill="#F79329"/>
<path d="M133.805 13.9745L133.663 13.9298C133.025 13.7071 132.51 13.2465 132.22 12.6402C132.076 12.341 131.992 12.0162 131.974 11.6845C131.955 11.3528 132.003 11.0207 132.113 10.7074C132.329 10.0993 132.768 9.59604 133.342 9.3004C133.916 9.00475 134.582 8.93901 135.203 9.11659L135.344 9.16126C136.663 9.62667 137.357 11.0779 136.892 12.391C136.676 12.9977 136.236 13.4993 135.663 13.7936C135.089 14.0878 134.425 14.1525 133.805 13.9745ZM135.039 10.0011C134.123 9.73818 133.251 10.1895 132.965 11.0032C132.819 11.4132 132.843 11.8558 133.031 12.2506C133.219 12.6453 133.548 12.9377 133.962 13.0843L134.052 13.1142C134.881 13.3519 135.757 12.9016 136.042 12.0879C136.342 11.2387 135.892 10.3052 135.043 10.0021L135.039 10.0011ZM112.038 11.2347L102.048 26.1785L115.875 28.2777L112.038 11.2347Z" fill="#F79329"/>
<path d="M101.923 26.6105C101.799 26.5747 101.69 26.484 101.634 26.361C101.571 26.2202 101.586 26.058 101.67 25.9315L111.661 10.9877C111.759 10.8377 111.94 10.7626 112.116 10.7974C112.308 10.8327 112.433 10.9637 112.474 11.1417L116.31 28.1846C116.34 28.328 116.301 28.4792 116.198 28.5884C116.099 28.6986 115.95 28.7471 115.801 28.728L101.974 26.6288C101.96 26.621 101.942 26.6157 101.923 26.6105ZM111.831 12.3561L102.811 25.8426L115.292 27.738L111.831 12.3561Z" fill="#F79329"/>
<path d="M127.419 7.07825C126.944 8.72928 125.216 9.68427 123.563 9.21002C121.909 8.73577 120.949 7.00999 121.424 5.35897C121.9 3.70428 123.626 2.75295 125.284 3.22825C126.941 3.70355 127.895 5.42356 127.419 7.07825ZM105.242 3.15495C104.865 4.46552 103.496 5.22221 102.18 4.8447C100.867 4.46825 100.11 3.10166 100.487 1.79109C100.865 0.476853 102.233 -0.279834 103.546 0.0966209C104.862 0.474128 105.62 1.84071 105.242 3.15495ZM142.305 13.7851C141.928 15.0956 142.686 16.4622 144.002 16.8397C145.315 17.2162 146.687 16.4606 147.064 15.15C147.245 14.5199 147.169 13.8437 146.851 13.2701C146.533 12.6966 145.999 12.2727 145.368 12.0917C144.737 11.9107 144.06 11.9874 143.486 12.305C142.911 12.6225 142.487 13.155 142.305 13.7851Z" fill="#FCC21B"/>
<path d="M127.419 7.07825C126.944 8.72928 125.216 9.68427 123.563 9.21002C121.909 8.73577 120.949 7.00999 121.424 5.35897C121.9 3.70428 123.626 2.75295 125.284 3.22825C126.941 3.70355 127.895 5.42356 127.419 7.07825ZM105.242 3.15495C104.865 4.46552 103.496 5.22221 102.18 4.8447C100.867 4.46825 100.11 3.10166 100.487 1.79109C100.865 0.476853 102.233 -0.279834 103.546 0.0966209C104.862 0.474128 105.62 1.84071 105.242 3.15495ZM142.305 13.7851C141.928 15.0956 142.686 16.4622 144.002 16.8397C145.315 17.2162 146.687 16.4606 147.064 15.15C147.245 14.5199 147.169 13.8437 146.851 13.2701C146.533 12.6966 145.999 12.2727 145.368 12.0917C144.737 11.9107 144.06 11.9874 143.486 12.305C142.911 12.6225 142.487 13.155 142.305 13.7851Z" fill="#FCC21B"/>
<path d="M142.173 21.0865C142.105 21.0294 142.022 20.9938 141.934 20.984C141.845 20.9742 141.756 20.9906 141.677 21.0314L127.266 28.4141L122.641 14.0142C122.595 13.8702 122.483 13.7628 122.336 13.7208C122.193 13.6798 122.038 13.7104 121.923 13.8044L110.312 23.5517L102.026 9.65518C101.981 9.57885 101.914 9.5176 101.834 9.47913C101.754 9.44066 101.665 9.42669 101.577 9.43899C101.399 9.46333 101.25 9.59497 101.208 9.76913L96.6689 27.2989C95.581 31.0805 103.549 36.5758 114.812 39.8062C126.075 43.0365 135.75 42.6013 136.835 38.8307L142.308 21.557C142.364 21.3907 142.311 21.2013 142.173 21.0865Z" fill="#FCC21B"/>
<path d="M142.173 21.0865C142.105 21.0294 142.022 20.9938 141.934 20.984C141.845 20.9742 141.756 20.9906 141.677 21.0314L127.266 28.4141L122.641 14.0142C122.595 13.8702 122.483 13.7628 122.336 13.7208C122.193 13.6798 122.038 13.7104 121.923 13.8044L110.312 23.5517L102.026 9.65518C101.981 9.57885 101.914 9.5176 101.834 9.47913C101.754 9.44066 101.665 9.42669 101.577 9.43899C101.399 9.46333 101.25 9.59497 101.208 9.76913L96.6689 27.2989C95.581 31.0805 103.549 36.5758 114.812 39.8062C126.075 43.0365 135.75 42.6013 136.835 38.8307L142.308 21.557C142.364 21.3907 142.311 21.2013 142.173 21.0865Z" fill="#FCC21B"/>
<path d="M139.73 30.1462L139.732 30.1509L137.531 36.9895L137.527 36.9884C136.001 36.4992 135.261 34.5749 135.868 32.6845C136.477 30.7903 138.204 29.6569 139.73 30.1462ZM98.8351 18.4172L98.8304 18.4198L97.0578 25.3814L97.0652 25.3835C98.6151 25.7765 100.269 24.5389 100.755 22.6138C101.246 20.686 100.385 18.8102 98.8351 18.4172Z" fill="#D7598B"/>
<path d="M120.51 31.9612C119.923 34.0039 118.023 35.2543 116.267 34.7506C114.514 34.2479 113.569 32.1816 114.156 30.1388C114.745 28.0924 116.644 26.8458 118.396 27.3484C120.153 27.8484 121.099 29.9148 120.51 31.9612Z" fill="#D7598B"/>
<path d="M126.191 35.8057C125.859 36.7805 124.909 37.3363 124.07 37.0521C123.235 36.7689 122.827 35.7445 123.162 34.7744C123.499 33.7971 124.448 33.2412 125.283 33.5281C126.119 33.8076 126.523 34.831 126.191 35.8057Z" fill="#ED6C30"/>
<path d="M132.857 36.5446C133.192 35.5721 132.786 34.5504 131.95 34.2626C131.113 33.9747 130.163 34.5298 129.827 35.5023C129.491 36.4748 129.898 37.4965 130.734 37.7844C131.571 38.0722 132.521 37.5172 132.857 36.5446Z" fill="#ED6C30"/>
<path d="M107.298 30.3871C107.062 31.3892 107.571 32.3635 108.433 32.5672C109.292 32.7699 110.182 32.1177 110.414 31.1182C110.652 30.1124 110.142 29.1381 109.282 28.9391C108.421 28.7317 107.531 29.3839 107.298 30.3871Z" fill="#ED6C30"/>
<path d="M102.396 29.6521C103.256 29.851 104.141 29.1998 104.374 28.1977C104.606 27.1955 104.097 26.2219 103.237 26.0231C102.377 25.8242 101.492 26.4754 101.259 27.4775C101.027 28.4796 101.536 29.4532 102.396 29.6521Z" fill="#ED6C30"/>
<path d="M33.1834 64.9768L29.2094 68.2902L29.1418 68.3534C29.0439 68.4564 28.9752 68.5834 28.9425 68.7215C28.9099 68.8596 28.9146 69.0039 28.9561 69.1397C28.9976 69.2754 29.0744 69.3977 29.1787 69.4941C29.283 69.5905 29.4111 69.6575 29.5498 69.6884L34.6048 70.8178L36.5347 75.6157L36.5721 75.6962C36.6394 75.8214 36.7388 75.9266 36.8602 76.0008C36.9816 76.075 37.1205 76.1157 37.2628 76.1187C37.4051 76.1217 37.5457 76.0868 37.6701 76.0177C37.7944 75.9486 37.8982 75.8478 37.9707 75.7255L40.6102 71.2784L45.7666 70.9341L45.8544 70.9235C45.9946 70.8985 46.1257 70.8367 46.2342 70.7444C46.3426 70.6522 46.4245 70.5328 46.4715 70.3985C46.5185 70.2642 46.5288 70.1198 46.5015 69.9802C46.4742 69.8406 46.4101 69.7107 46.3159 69.604L42.8945 65.7229L44.1625 60.7063L44.1801 60.6155C44.1985 60.475 44.1793 60.332 44.1244 60.2013C44.0695 60.0706 43.9809 59.9567 43.8676 59.8714C43.7543 59.786 43.6203 59.7321 43.4794 59.7152C43.3384 59.6983 43.1955 59.7191 43.0652 59.7753L38.312 61.8247L33.9283 59.0765C33.8013 58.9968 33.6546 58.9542 33.5047 58.9535C33.3547 58.9528 33.2076 58.9941 33.0799 59.0725C32.9522 59.151 32.8491 59.2636 32.7822 59.3976C32.7153 59.5315 32.6873 59.6815 32.7013 59.8306L33.1834 64.9768Z" fill="#CE4D5E"/>
<path d="M49.273 106.032C49.6776 105.147 50.4322 104.897 51.0595 104.87C52.0142 104.824 53.0143 105.482 53.9553 106.259C54.6235 107.012 55.4236 107.593 56.351 108.002C56.992 108.229 57.6284 108.274 58.2739 108.242C59.1831 108.197 60.1059 107.997 61.0196 107.952L61.0696 107.947L61.4833 107.911C62.5289 107.861 63.5153 108.106 64.4518 108.646C65.311 109.427 65.6883 110.398 65.5701 111.569C65.3701 112.536 65.5428 113.421 66.0838 114.225C67.0157 114.878 67.9931 115.45 69.0204 115.936C70.0842 116.517 70.7524 117.393 71.0434 118.559C71.1479 119.794 70.5751 120.584 69.3387 120.924C67.7294 121.328 65.5656 121.328 63.7426 122.735C61.0787 124.955 60.2423 127.193 59.0831 127.533C58.5148 126.888 54.969 124.151 49.023 122.84C47.9592 119.177 47.3137 110.335 49.273 106.032Z" fill="#FCC21B"/>
<path d="M55.2736 122.059C56.3192 119.971 59.2967 116.299 60.0104 117.025C60.7151 117.815 59.0922 121.918 57.9511 123.929C57.5466 123.502 56.2419 122.608 55.6736 122.458" fill="#D19B15"/>
<path d="M60.5332 128.745C59.9195 128.745 59.3195 128.432 58.9785 127.869C55.8509 122.731 48.7684 123.271 48.7002 123.28C47.7001 123.362 46.8182 122.626 46.7318 121.632C46.6896 121.154 46.8384 120.679 47.1458 120.31C47.4532 119.941 47.8943 119.708 48.3729 119.662C48.7548 119.626 57.7693 118.886 62.0879 125.99C62.6107 126.848 62.3334 127.964 61.4788 128.482C61.1787 128.659 60.856 128.745 60.5332 128.745Z" fill="#8D6E63"/>
<path d="M61.8334 158.998C54.0462 160.913 43.2224 160.777 35.4898 159.252C28.2527 157.822 22.7112 153.56 23.3476 145.172C23.9931 136.684 29.6255 128.69 37.3718 125.168C44.868 121.759 54.9281 120.098 60.2286 127.833C61.547 129.757 64.0654 134.028 64.1836 136.125C64.1927 136.293 64.2018 136.443 64.2382 136.588C64.2472 137.115 64.4609 137.646 64.9791 138.036C68.3113 140.555 70.7388 143.896 71.1843 148.476C71.7116 153.937 66.5384 157.84 61.8334 158.998Z" fill="#FCC21B"/>
<path d="M54.9281 144.954C53.9826 143.42 52.2415 141.754 50.5958 140.324L51.8732 136.793C53.0097 137.678 54.0098 138.508 54.7917 139.226C54.919 139.348 55.119 139.357 55.2645 139.253L58.1921 137.079C58.2739 137.015 58.3239 136.924 58.3375 136.82C58.3424 136.769 58.3364 136.717 58.32 136.669C58.3035 136.62 58.277 136.576 58.2421 136.538C57.3738 135.572 55.4918 133.879 53.4325 132.485L54.1826 130.415C54.269 130.179 54.1508 129.921 53.9098 129.83L50.4686 128.586C50.2322 128.5 49.9685 128.622 49.8821 128.858L49.323 130.406C46.0818 129.403 43.5088 129.725 41.4904 131.409C39.9084 132.735 39.2265 134.628 39.7084 136.343C40.1993 138.173 41.6358 139.425 43.4542 141.009L43.6861 141.214C44.1088 141.577 44.5589 141.954 44.9998 142.33L43.4451 146.624C41.404 145.29 39.6947 143.442 39.4038 143.038C39.3493 142.963 39.2683 142.912 39.1771 142.894C39.086 142.876 38.9915 142.894 38.9128 142.943L35.5398 145.095C35.458 145.144 35.3988 145.231 35.3761 145.331C35.3579 145.426 35.3761 145.526 35.4307 145.607C36.4444 147.133 38.1037 148.839 39.872 150.174C40.2948 150.491 40.9312 150.936 41.7131 151.404L41.1267 153.015C41.0449 153.251 41.1631 153.51 41.3995 153.596L44.8453 154.844C45.0817 154.931 45.3453 154.808 45.4317 154.572L45.9181 153.228C49.0639 154.082 51.8278 153.587 53.9644 151.762C56.0282 149.997 56.3828 147.518 54.9281 144.954ZM47.7956 134.637L46.8546 137.237C45.9772 136.557 45.509 136.044 45.8408 135.308C46.1863 134.555 47.0455 134.505 47.7956 134.637ZM48.7275 145.485C49.3321 146.07 49.7594 146.611 49.8003 147.105C49.8185 147.387 49.7139 147.659 49.4685 147.94C49.0411 148.435 48.3593 148.531 47.6546 148.444L48.7275 145.485Z" fill="#424242"/>
</svg>
