<svg width="65" height="61" viewBox="0 0 65 61" fill="none" xmlns="http://www.w3.org/2000/svg">
<circle cx="31.5" cy="30.5" r="30.5" fill="#FFF1AC"/>
<path d="M41.8371 41.0872L38.248 34.5557L29.3879 37.9656C29.3879 37.9656 28.9559 38.5231 29.0477 39.4995C29.0859 39.9339 29.2808 41.1603 29.2808 41.1603L27.6296 41.414C27.6296 41.414 25.2636 43.3977 26.0166 46.5001C26.5899 48.8567 27.2015 50.11 27.2015 50.11L26.8804 52.4204C26.8804 52.4204 32.1552 54.727 37.2847 54.5848C43.8514 54.4041 46.3245 50.9057 46.3245 50.9057L44.5318 42.7519L41.8371 41.0872Z" fill="#F79329"/>
<path d="M26.6282 41.8484C25.8675 42.5673 25.7414 43.7053 25.8026 44.1051C25.9478 45.0431 27.3812 47.6227 28.9598 47.515C30.5384 47.4074 29.7854 44.2319 29.2808 43.0786C28.7763 41.9253 27.8475 40.6913 26.6282 41.8484ZM22.3587 54.2926C22.3052 55.0807 23.1843 55.05 24.8355 55.05C26.4867 55.05 30.4658 54.7616 30.4658 54.7616L30.1447 52.5588C30.1447 52.5588 29.1471 52.628 27.7787 51.8745C27.2244 51.567 27.0448 51.171 27.0448 51.171C27.0448 51.171 22.4657 52.7087 22.3587 54.2926Z" fill="#FCC21B"/>
<path d="M34.2537 39.4995C34.2537 39.4995 32.4954 39.4303 31.1843 40.9642C30.3511 41.9369 28.6387 46.6116 29.8924 47.2613C31.1461 47.911 32.0061 45.6197 32.4763 44.5549C32.9082 43.5822 33.6956 42.4635 34.376 42.1022C35.0563 41.7408 35.6297 41.3448 35.6297 41.3448L34.2537 39.4995ZM31.3296 52.1282C31.3296 52.1282 30.718 52.1282 30.1103 52.3435C29.4987 52.5588 26.093 54.2196 26.1274 55.123C26.1618 56.0264 28.245 56.0264 30.8251 55.988C33.4089 55.9534 34.0893 55.4459 34.3033 55.2306C34.5174 55.0154 35.343 53.8966 35.0563 53.7506C34.7735 53.6083 31.3296 52.1282 31.3296 52.1282Z" fill="#FFE4BE"/>
<path d="M40.9045 35.5668C40.9045 35.5668 42.915 33.7984 43.7024 32.103C44.4898 30.4076 44.4554 28.7853 44.4554 28.7853C44.4554 28.7853 48.2662 27.7742 47.3068 23.0342C46.4965 19.0206 43.2705 19.8741 43.2705 19.8741C43.2705 19.8741 41.0803 15.2916 35.1978 14.0307C29.3152 12.7697 24.1628 15.6914 21.9955 18.6477C19.4843 22.0769 19.9162 26.4787 19.9162 26.4787C19.9162 26.4787 17.9783 26.298 17.0839 28.0318C16.1551 29.8271 16.4723 32.7565 18.1962 34.0944C19.9162 35.4284 22.6071 35.067 22.6071 35.067C22.6071 35.067 24.4724 37.0891 26.6243 37.9887C28.8336 38.9152 30.9283 39.0344 33.4777 38.7806C36.0272 38.5269 38.0683 37.1929 38.0683 37.1929C38.0683 37.1929 37.9613 37.9157 38.4276 38.8537C38.7181 39.4342 39.7195 40.549 39.7195 40.549C39.7195 40.549 38.0874 39.6841 36.7764 39.4496C35.3545 39.1958 34.4448 39.2881 33.9058 39.611C33.4968 39.8571 34.0243 41.8138 34.6244 41.9215C35.236 42.0291 36.2374 41.7408 37.9957 42.4251C39.7539 43.1094 42.0129 44.7355 42.5863 45.0969C43.1596 45.4583 44.3254 46.0695 44.4171 46.8653C44.4859 47.4766 43.5036 48.2724 41.7798 46.504C40.1285 44.8086 38.5346 43.1863 36.7381 42.9671C34.9455 42.7519 33.8332 43.2209 33.0076 45.0239C31.9488 47.342 31.0697 50.1484 30.89 50.8673C30.7104 51.59 30.2097 51.986 30.6034 52.6703C30.8786 53.147 33.9173 54.9269 34.6206 54.8731C35.5188 54.8001 36.2336 52.9625 36.4515 52.6357C36.6655 52.3128 37.1318 51.6246 37.1318 51.6246C37.1318 51.6246 38.7105 55.3767 42.0473 55.0538C45.3842 54.7309 45.8505 52.6357 45.8505 52.6357C45.8505 52.6357 48.4458 52.7664 51.1941 51.9783C54.8788 50.9211 57.3977 47.5342 58.1889 42.1022C58.7622 38.1694 58.0436 32.4336 56.2166 27.632C55.5439 25.8713 54.7526 23.7838 54.2443 22.3268C52.9409 18.6131 52.486 15.9298 54.6036 15.1455C55.6815 14.7457 56.3733 15.2186 56.6867 15.8375C57.1148 16.6871 57.1874 17.7405 58.5482 18.2825C59.519 18.667 60.7384 18.3556 61.2735 17.4522C61.9462 16.3219 61.7092 14.6688 60.2682 12.7966C57.7914 9.5866 53.6671 9.8903 51.4081 11.6049C48.9924 13.4348 47.9642 15.8721 49.1492 20.4431C50.2614 24.7372 52.7077 30.2039 53.239 32.8565C53.9576 36.4279 54.6074 45.2084 50.1888 46.9999C48.1439 47.8303 46.6379 47.5035 46.6379 47.5035C46.6379 47.5035 46.2786 43.3977 44.9867 40.4299C43.5151 37.043 40.9045 35.5668 40.9045 35.5668Z" fill="#FCC21B"/>
<path d="M41.8027 22.1307C41.7415 22.2076 42.1505 23.334 42.3034 24.5104C42.4754 25.8136 42.5289 27.0746 42.6398 27.113C42.8538 27.1861 46.034 26.3864 45.6403 23.4263C45.2466 20.4661 41.9479 21.95 41.8027 22.1307ZM20.0997 28.2817C19.8168 28.0664 17.9783 28.5854 18.2 30.6998C18.4867 33.4408 21.1776 33.4408 21.4298 33.2601C21.5598 33.1679 21.0476 31.9185 20.7113 30.6998C20.3864 29.5273 20.2411 28.3855 20.0997 28.2817ZM30.2861 22.5421C28.5661 23.1187 26.1618 20.3393 24.0787 22.5421C21.5292 25.237 24.5603 27.6589 24.7973 29.5427C24.9425 30.696 24.2966 31.5648 24.9425 33.51C25.4815 35.1323 28.4743 37.5466 33.9173 36.4356C39.0124 35.3938 40.2088 32.1491 40.075 30.1078C39.9259 27.8319 38.8633 27.7012 38.6493 26.5479C38.4352 25.3946 39.6393 20.8506 36.138 19.9087C32.5107 18.9361 32.1399 21.9231 30.2861 22.5421Z" fill="#FFE4BE"/>
<path d="M36.268 25.3215C36.4821 26.6209 36.3483 27.4859 35.4347 27.7012C34.3416 27.9588 33.6306 27.213 33.4166 25.8867C33.1528 24.2682 33.4777 23.507 34.3148 23.3494C35.3468 23.1572 36.0004 23.6877 36.268 25.3215ZM29.0056 26.594C29.2503 27.8319 29.2923 28.9391 28.3062 29.1928C27.362 29.435 26.5785 28.8276 26.2345 27.4898C25.8293 25.9213 25.9631 25.014 26.8537 24.7564C27.771 24.4873 28.6272 24.6719 29.0056 26.594ZM30.2976 28.7622C30.3205 29.385 31.3716 30.1385 31.987 30.0424C32.6521 29.9348 33.279 28.6123 33.0611 28.2202C32.7782 27.7127 30.2785 28.1933 30.2976 28.7622Z" fill="#89CBCC"/>
<path d="M27.7825 32.7373C27.8895 33.6023 29.7204 34.9094 33.0573 34.252C36.5012 33.5754 37.0134 31.4648 36.9598 30.9497C36.9063 30.4345 35.1557 30.1654 32.1705 30.6806C29.8274 31.0842 27.6946 32.0453 27.7825 32.7373Z" fill="#CE4D5E"/>
<path d="M6.10133 30.076C6.02129 29.8996 5.87199 29.8498 5.74788 29.8444C5.55901 29.8353 5.36115 29.9665 5.17498 30.1212C5.04278 30.2713 4.88449 30.3871 4.70102 30.4685C4.57421 30.5138 4.4483 30.5228 4.32059 30.5165C4.14071 30.5074 3.95814 30.4676 3.77737 30.4586L3.76748 30.4577L3.68564 30.4504C3.47878 30.4405 3.28362 30.4893 3.09835 30.597C2.92837 30.7526 2.85372 30.9461 2.87711 31.1795C2.91668 31.3722 2.8825 31.5486 2.77548 31.7087C2.59111 31.8389 2.39775 31.9529 2.19449 32.0497C1.98404 32.1655 1.85183 32.3401 1.79427 32.5725C1.77359 32.8186 1.88691 32.976 2.13154 33.0438C2.44991 33.1243 2.87801 33.1243 3.23865 33.4047C3.76568 33.847 3.93116 34.293 4.1605 34.3608C4.27292 34.2324 4.97443 33.6869 6.15079 33.4255C6.36125 32.6955 6.48895 30.9335 6.10133 30.076Z" fill="#FCC21B"/>
<path d="M4.91417 33.2699C4.70731 32.8538 4.11823 32.1221 3.97703 32.2668C3.83763 32.4242 4.1587 33.2419 4.38444 33.6426C4.46449 33.5576 4.7226 33.3794 4.83502 33.3495" fill="#D19B15"/>
<path d="M3.8736 34.6023C3.99502 34.6023 4.11373 34.5399 4.18119 34.4278C4.79995 33.4038 6.20116 33.5115 6.21465 33.5133C6.41251 33.5295 6.58699 33.383 6.60407 33.1849C6.61243 33.0896 6.58299 32.9949 6.52217 32.9213C6.46135 32.8478 6.37408 32.8014 6.2794 32.7923C6.20386 32.7851 4.42042 32.6377 3.56602 34.0533C3.46259 34.2242 3.51746 34.4468 3.68654 34.5499C3.74589 34.5852 3.80975 34.6023 3.8736 34.6023Z" fill="#8D6E63"/>
<path d="M3.61639 40.6312C5.157 41.0129 7.29838 40.9858 8.8282 40.6819C10.26 40.3969 11.3563 39.5475 11.2304 37.8759C11.1027 36.1844 9.98838 34.5915 8.45586 33.8896C6.97281 33.2102 4.98252 32.8792 3.93386 34.4205C3.67305 34.8041 3.1748 35.6552 3.15141 36.0731C3.14962 36.1066 3.14782 36.1365 3.14062 36.1654C3.13882 36.2703 3.09655 36.3762 2.99403 36.454C2.33479 36.956 1.85453 37.6217 1.76639 38.5344C1.66207 39.6226 2.68554 40.4005 3.61639 40.6312Z" fill="#FCC21B"/>
<path d="M4.98252 37.8325C5.16959 37.5268 5.51404 37.1948 5.83961 36.9099L5.58689 36.2061C5.36205 36.3825 5.16419 36.548 5.0095 36.691C4.98432 36.7154 4.94475 36.7172 4.91597 36.6964L4.33677 36.2631C4.32059 36.2504 4.31069 36.2324 4.308 36.2115C4.30703 36.2014 4.30822 36.1911 4.31147 36.1815C4.31473 36.1718 4.31998 36.1629 4.32688 36.1555C4.49866 35.9628 4.871 35.6254 5.27841 35.3477L5.13001 34.9352C5.11293 34.8882 5.13631 34.8366 5.18398 34.8185L5.8648 34.5707C5.91156 34.5535 5.96373 34.5779 5.98081 34.625L6.09144 34.9334C6.73268 34.7335 7.24172 34.7977 7.64104 35.1333C7.95402 35.3974 8.08892 35.7746 7.99359 36.1166C7.89646 36.4811 7.61226 36.7308 7.25251 37.0465L7.20665 37.0872C7.12301 37.1595 7.03397 37.2346 6.94673 37.3097L7.25431 38.1654C7.65813 37.8994 7.99629 37.5313 8.05385 37.4508C8.06463 37.4358 8.08066 37.4256 8.09869 37.422C8.11672 37.4185 8.13541 37.422 8.15098 37.4318L8.81831 37.8605C8.8345 37.8705 8.84619 37.8877 8.85068 37.9076C8.85428 37.9266 8.85069 37.9465 8.83989 37.9628C8.63933 38.2667 8.31107 38.6068 7.96121 38.8727C7.87757 38.9361 7.75166 39.0247 7.59697 39.1179L7.71299 39.439C7.72918 39.486 7.70579 39.5376 7.65903 39.5548L6.97731 39.8035C6.93054 39.8207 6.87838 39.7963 6.86129 39.7493L6.76506 39.4815C6.1427 39.6516 5.59589 39.553 5.17318 39.1893C4.76487 38.8375 4.69472 38.3436 4.98252 37.8325ZM6.39362 35.7765L6.57979 36.2948C6.75337 36.1591 6.846 36.0569 6.78035 35.9103C6.712 35.7602 6.54202 35.7502 6.39362 35.7765ZM6.20925 37.9383C6.08964 38.055 6.0051 38.1627 5.997 38.2613C5.9934 38.3173 6.01409 38.3716 6.06266 38.4277C6.1472 38.5263 6.2821 38.5453 6.4215 38.5281L6.20925 37.9383Z" fill="#424242"/>
<path d="M1.12143 45.6986L0.0758608 46.5767L0.0580751 46.5935C0.0323241 46.6208 0.0142316 46.6544 0.00564514 46.691C-0.00294135 46.7276 -0.00171423 46.7659 0.00920129 46.8019C0.0201168 46.8378 0.0403297 46.8702 0.0677756 46.8958C0.0952215 46.9213 0.128917 46.9391 0.165422 46.9473L1.49542 47.2466L2.00316 48.5181L2.01301 48.5395C2.03072 48.5727 2.05688 48.6005 2.08882 48.6202C2.12075 48.6399 2.15731 48.6507 2.19475 48.6515C2.23219 48.6522 2.26917 48.643 2.30189 48.6247C2.33462 48.6064 2.36192 48.5797 2.381 48.5473L3.07545 47.3687L4.43213 47.2774L4.45522 47.2746C4.49213 47.268 4.52661 47.2516 4.55515 47.2272C4.58368 47.2027 4.60523 47.1711 4.61759 47.1355C4.62995 47.0999 4.63268 47.0616 4.62548 47.0246C4.61829 46.9876 4.60144 46.9532 4.57667 46.9249L3.67647 45.8963L4.01009 44.5668L4.01471 44.5427C4.01956 44.5055 4.01451 44.4676 4.00006 44.433C3.98562 44.3983 3.96231 44.3682 3.93249 44.3455C3.90268 44.3229 3.86744 44.3086 3.83035 44.3041C3.79327 44.2997 3.75566 44.3052 3.72138 44.3201L2.4708 44.8632L1.31741 44.1349C1.28402 44.1138 1.24541 44.1025 1.20596 44.1023C1.16651 44.1021 1.1278 44.113 1.09421 44.1338C1.06061 44.1546 1.03348 44.1845 1.01587 44.22C0.998271 44.2555 0.990902 44.2952 0.994601 44.3347L1.12143 45.6986Z" fill="#CE4D5E"/>
<path d="M61.6663 26.1915L60.305 26.1424L60.2807 26.1429C60.2434 26.1459 60.2076 26.1588 60.1769 26.1803C60.1462 26.2017 60.1217 26.231 60.1059 26.2651C60.0901 26.2992 60.0837 26.3369 60.0871 26.3744C60.0906 26.4118 60.1038 26.4477 60.1256 26.4783L60.9164 27.5947L60.4496 28.882L60.4427 28.9045C60.4338 28.9411 60.4348 28.9794 60.4455 29.0155C60.4562 29.0516 60.4762 29.0842 60.5036 29.1099C60.5309 29.1357 60.5646 29.1536 60.6011 29.162C60.6376 29.1704 60.6757 29.1688 60.7114 29.1575L62.011 28.7472L63.0811 29.5909L63.1001 29.6043C63.132 29.6242 63.1685 29.6352 63.206 29.6361C63.2435 29.6371 63.2805 29.628 63.3134 29.6099C63.3462 29.5917 63.3737 29.5651 63.3929 29.5327C63.4121 29.5003 63.4224 29.4634 63.4228 29.4257L63.4362 28.0555L64.5676 27.2904L64.587 27.2756C64.6153 27.2511 64.6367 27.2195 64.649 27.184C64.6613 27.1485 64.664 27.1104 64.6568 27.0736C64.6497 27.0367 64.6329 27.0024 64.6083 26.9741C64.5837 26.9459 64.552 26.9247 64.5166 26.9128L63.2253 26.4766L62.8509 25.1597C62.84 25.1215 62.8188 25.0872 62.7896 25.0605C62.7604 25.0339 62.7243 25.016 62.6855 25.0089C62.6467 25.0018 62.6067 25.0058 62.57 25.0204C62.5333 25.0349 62.5014 25.0596 62.4779 25.0915L61.6663 26.1915Z" fill="#CE4D5E"/>
<path d="M40.3369 10.2327L40.4981 15.7507L36.5834 14.0463L40.3369 10.2327Z" fill="#F79329"/>
<path d="M40.4602 15.8835C40.4546 15.8818 40.449 15.8802 40.4437 15.8775L36.5279 14.1727C36.4859 14.1545 36.4567 14.1169 36.4478 14.0717C36.4389 14.0265 36.4532 13.9807 36.4843 13.9483L40.2389 10.135C40.2778 10.0963 40.337 10.0842 40.3871 10.1035C40.4384 10.1232 40.4728 10.1721 40.474 10.2273L40.6332 15.7058C40.6427 15.7317 40.644 15.7612 40.6359 15.7893C40.6151 15.8625 40.5388 15.9049 40.4661 15.8839C40.4658 15.8851 40.4624 15.8841 40.4602 15.8835ZM36.8208 13.9992L40.3544 15.5376L40.2099 10.5588L36.8208 13.9992ZM35.0894 6.83317C35.0428 6.99604 34.9339 7.13365 34.7865 7.21573C34.6391 7.29782 34.4653 7.31765 34.3034 7.27087C33.9668 7.17363 33.7715 6.81892 33.8682 6.48038C33.9652 6.14072 34.3165 5.94512 34.6542 6.04269C34.9919 6.14025 35.1864 6.49351 35.0894 6.83317Z" fill="#F79329"/>
<path d="M34.2658 7.40246C34.0691 7.3453 33.9029 7.212 33.8037 7.0318C33.7045 6.8516 33.6803 6.6392 33.7366 6.44114C33.7934 6.24325 33.9259 6.0761 34.1051 5.97632C34.2843 5.87654 34.4955 5.85228 34.6924 5.90885C34.8891 5.96601 35.0553 6.0993 35.1545 6.2795C35.2537 6.4597 35.2779 6.67211 35.2216 6.87017C35.1648 7.06806 35.0323 7.23521 34.8531 7.33499C34.6739 7.43477 34.4627 7.45903 34.2658 7.40246ZM34.6163 6.1754C34.3524 6.09916 34.076 6.25307 34.0002 6.5185C33.9244 6.78394 34.0774 7.06191 34.3413 7.13815C34.6052 7.2144 34.8827 7.0608 34.9585 6.79537C35.0343 6.52994 34.8802 6.25165 34.6163 6.1754ZM41.2351 7.94393C41.5659 8.06142 41.7399 8.42703 41.6231 8.75975C41.5074 9.09279 41.1431 9.26636 40.8131 9.15032C40.7343 9.12259 40.6618 9.0795 40.5996 9.02351C40.5374 8.96753 40.4868 8.89974 40.4508 8.82406C40.4147 8.74837 40.3938 8.66626 40.3894 8.58245C40.3849 8.49863 40.3969 8.41475 40.4248 8.33563C40.5419 8.00178 40.9043 7.82645 41.2351 7.94393Z" fill="#F79329"/>
<path d="M40.811 9.29337L40.7677 9.27964C40.573 9.21122 40.4161 9.0697 40.3276 8.88344C40.2836 8.7915 40.258 8.69171 40.2524 8.58981C40.2468 8.4879 40.2613 8.38589 40.2951 8.28963C40.3607 8.10279 40.4947 7.94818 40.6698 7.85735C40.8449 7.76652 41.0478 7.74632 41.2372 7.80088L41.2805 7.8146C41.6827 7.95759 41.8943 8.40346 41.7525 8.80687C41.6866 8.99327 41.5525 9.14738 41.3776 9.23778C41.2026 9.32818 41 9.34806 40.811 9.29337ZM41.1875 8.07262C40.9079 7.99185 40.6419 8.13051 40.5548 8.3805C40.5103 8.50645 40.5175 8.64245 40.5749 8.76372C40.6322 8.885 40.7325 8.97484 40.8588 9.01986L40.8865 9.02906C41.1392 9.10208 41.4063 8.96374 41.4934 8.71375C41.5849 8.45285 41.4477 8.16606 41.1886 8.07294L41.1875 8.07262ZM34.172 8.45162L31.1249 13.0428L35.3421 13.6877L34.172 8.45162Z" fill="#F79329"/>
<path d="M31.087 13.1755C31.0489 13.1645 31.0157 13.1367 30.9987 13.0989C30.9796 13.0556 30.9841 13.0058 31.0097 12.9669L34.0569 8.37575C34.087 8.32966 34.142 8.3066 34.1958 8.31728C34.2545 8.32813 34.2926 8.36837 34.3048 8.42304L35.475 13.6591C35.4842 13.7032 35.4721 13.7496 35.4408 13.7832C35.4105 13.8171 35.3651 13.8319 35.3196 13.8261L31.1023 13.1812C31.0981 13.1787 31.0926 13.1771 31.087 13.1755ZM34.1087 8.79616L31.3577 12.9396L35.1643 13.5219L34.1087 8.79616Z" fill="#F79329"/>
<path d="M38.8631 7.17464C38.7182 7.68189 38.1914 7.97529 37.687 7.82959C37.1827 7.68388 36.8899 7.15367 37.0347 6.64643C37.1799 6.13806 37.7064 5.84578 38.2119 5.99181C38.7174 6.13784 39.0083 6.66628 38.8631 7.17464ZM32.0991 5.96929C31.9841 6.37194 31.5667 6.60441 31.1652 6.48843C30.7649 6.37277 30.5338 5.95292 30.6488 5.55027C30.7641 5.1465 31.1815 4.91403 31.5819 5.02968C31.9833 5.14567 32.2145 5.56552 32.0991 5.96929ZM43.4036 9.23517C43.2886 9.63782 43.5197 10.0577 43.9212 10.1737C44.3215 10.2893 44.7401 10.0572 44.8551 9.65451C44.9104 9.46092 44.8869 9.25317 44.7899 9.07696C44.6929 8.90075 44.5303 8.77052 44.3378 8.71491C44.1453 8.6593 43.9388 8.68287 43.7636 8.78044C43.5884 8.87801 43.4589 9.04158 43.4036 9.23517Z" fill="#FCC21B"/>
<path d="M38.8631 7.17464C38.7182 7.68189 38.1914 7.97529 37.687 7.82959C37.1827 7.68388 36.8899 7.15367 37.0347 6.64643C37.1799 6.13806 37.7064 5.84578 38.2119 5.99181C38.7174 6.13784 39.0083 6.66628 38.8631 7.17464ZM32.0991 5.96929C31.9841 6.37194 31.5667 6.60441 31.1652 6.48843C30.7649 6.37277 30.5338 5.95292 30.6488 5.55027C30.7641 5.1465 31.1815 4.91403 31.5819 5.02968C31.9833 5.14567 32.2145 5.56552 32.0991 5.96929ZM43.4036 9.23517C43.2886 9.63782 43.5197 10.0577 43.9212 10.1737C44.3215 10.2893 44.7401 10.0572 44.8551 9.65451C44.9104 9.46092 44.8869 9.25317 44.7899 9.07696C44.6929 8.90075 44.5303 8.77052 44.3378 8.71491C44.1453 8.6593 43.9388 8.68287 43.7636 8.78044C43.5884 8.87801 43.4589 9.04158 43.4036 9.23517Z" fill="#FCC21B"/>
<path d="M43.3634 11.4784C43.3426 11.4609 43.3172 11.4499 43.2902 11.4469C43.2633 11.4439 43.2361 11.4489 43.212 11.4614L38.8165 13.7296L37.4059 9.30556C37.3919 9.26134 37.3578 9.22834 37.313 9.21542C37.2694 9.20282 37.2219 9.21223 37.1871 9.24112L33.6457 12.2358L31.1184 7.96635C31.1046 7.9429 31.0842 7.92408 31.0598 7.91226C31.0354 7.90044 31.0081 7.89615 30.9812 7.89993C30.927 7.90741 30.8816 7.94785 30.8687 8.00136L29.4844 13.387C29.1525 14.5488 31.5829 16.2371 35.0182 17.2296C38.4534 18.2221 41.4041 18.0883 41.735 16.9299L43.4044 11.6229C43.4214 11.5718 43.4053 11.5136 43.3634 11.4784Z" fill="#FCC21B"/>
<path d="M43.3634 11.4784C43.3426 11.4609 43.3172 11.4499 43.2902 11.4469C43.2633 11.4439 43.2361 11.4489 43.212 11.4614L38.8165 13.7296L37.4059 9.30556C37.3919 9.26134 37.3578 9.22834 37.313 9.21542C37.2694 9.20282 37.2219 9.21223 37.1871 9.24112L33.6457 12.2358L31.1184 7.96635C31.1046 7.9429 31.0842 7.92408 31.0598 7.91226C31.0354 7.90044 31.0081 7.89615 30.9812 7.89993C30.927 7.90741 30.8816 7.94785 30.8687 8.00136L29.4844 13.387C29.1525 14.5488 31.5829 16.2371 35.0182 17.2296C38.4534 18.2221 41.4041 18.0883 41.735 16.9299L43.4044 11.6229C43.4214 11.5718 43.4053 11.5136 43.3634 11.4784Z" fill="#FCC21B"/>
<path d="M42.6181 14.2618L42.6189 14.2632L41.9474 16.3642L41.9463 16.3639C41.4808 16.2136 41.255 15.6224 41.4402 15.0416C41.6258 14.4597 42.1526 14.1115 42.6181 14.2618ZM30.145 10.6583L30.1436 10.6591L29.603 12.7979L29.6052 12.7986C30.0779 12.9193 30.5824 12.5391 30.7307 11.9476C30.8805 11.3553 30.6178 10.779 30.145 10.6583Z" fill="#D7598B"/>
<path d="M36.756 14.8194C36.5768 15.447 35.9974 15.8311 35.4618 15.6764C34.9272 15.522 34.6389 14.8871 34.8181 14.2595C34.9977 13.6308 35.5767 13.2478 36.1112 13.4022C36.6472 13.5558 36.9356 14.1907 36.756 14.8194Z" fill="#D7598B"/>
<path d="M38.4887 16.0006C38.3874 16.3 38.0978 16.4708 37.8419 16.3835C37.5871 16.2965 37.4627 15.9817 37.5648 15.6837C37.6675 15.3834 37.9571 15.2127 38.2116 15.3008C38.4667 15.3867 38.59 15.7011 38.4887 16.0006Z" fill="#ED6C30"/>
<path d="M40.5217 16.2276C40.6241 15.9288 40.5002 15.6149 40.2451 15.5264C39.9899 15.438 39.7001 15.6085 39.5977 15.9073C39.4953 16.2061 39.6192 16.52 39.8743 16.6085C40.1295 16.6969 40.4193 16.5264 40.5217 16.2276Z" fill="#ED6C30"/>
<path d="M32.7263 14.3358C32.6541 14.6437 32.8095 14.943 33.0725 15.0056C33.3343 15.0679 33.6058 14.8675 33.6766 14.5604C33.7491 14.2514 33.5937 13.9521 33.3315 13.8909C33.0689 13.8272 32.7974 14.0276 32.7263 14.3358Z" fill="#ED6C30"/>
<path d="M31.231 14.11C31.4933 14.1711 31.7634 13.971 31.8343 13.6631C31.9052 13.3553 31.75 13.0561 31.4877 12.995C31.2254 12.9339 30.9553 13.134 30.8844 13.4419C30.8135 13.7498 30.9687 14.0489 31.231 14.11Z" fill="#ED6C30"/>
<path d="M10.121 24.9628L8.90897 25.9807L8.88835 26.0002C8.8585 26.0318 8.83753 26.0708 8.82757 26.1132C8.81762 26.1557 8.81904 26.2 8.8317 26.2417C8.84435 26.2834 8.86778 26.321 8.8996 26.3506C8.93142 26.3802 8.97048 26.4008 9.0128 26.4103L10.5546 26.7573L11.1432 28.2313L11.1546 28.2561C11.1751 28.2945 11.2055 28.3268 11.2425 28.3496C11.2795 28.3724 11.3219 28.3849 11.3653 28.3859C11.4087 28.3868 11.4516 28.3761 11.4895 28.3548C11.5274 28.3336 11.5591 28.3026 11.5812 28.2651L12.3862 26.8988L13.959 26.793L13.9857 26.7897C14.0285 26.7821 14.0685 26.7631 14.1016 26.7347C14.1347 26.7064 14.1596 26.6697 14.174 26.6284C14.1883 26.5872 14.1915 26.5428 14.1831 26.4999C14.1748 26.457 14.1552 26.4172 14.1265 26.3844L13.083 25.192L13.4697 23.6507L13.4751 23.6228C13.4807 23.5797 13.4748 23.5358 13.4581 23.4956C13.4414 23.4554 13.4143 23.4204 13.3798 23.3942C13.3452 23.368 13.3043 23.3514 13.2614 23.3462C13.2184 23.3411 13.1748 23.3474 13.135 23.3647L11.6853 23.9943L10.3482 23.15C10.3095 23.1255 10.2648 23.1124 10.219 23.1122C10.1733 23.112 10.1284 23.1247 10.0895 23.1488C10.0505 23.1729 10.0191 23.2075 9.99868 23.2487C9.97827 23.2898 9.96973 23.3359 9.97402 23.3817L10.121 24.9628Z" fill="#CE4D5E"/>
<path d="M15.0284 37.576C15.1518 37.3041 15.382 37.2274 15.5733 37.219C15.8645 37.205 16.1695 37.4072 16.4565 37.6457C16.6604 37.8772 16.9044 38.0557 17.1872 38.1812C17.3827 38.2509 17.5769 38.2649 17.7737 38.2551C18.051 38.2412 18.3325 38.1798 18.6112 38.1659L18.6264 38.1645L18.7526 38.1533C19.0715 38.138 19.3724 38.2133 19.658 38.3792C19.9201 38.6191 20.0352 38.9175 19.9991 39.2773C19.9381 39.5743 19.9908 39.8463 20.1558 40.0931C20.44 40.2939 20.7381 40.4696 21.0515 40.6188C21.3759 40.7973 21.5797 41.0665 21.6685 41.4249C21.7004 41.8042 21.5257 42.0468 21.1485 42.1514C20.6577 42.2755 19.9977 42.2755 19.4417 42.7078C18.6292 43.3897 18.3741 44.0772 18.0205 44.1818C17.8472 43.9838 16.7657 43.1429 14.9522 42.7399C14.6277 41.6145 14.4308 38.898 15.0284 37.576Z" fill="#FCC21B"/>
<path d="M16.8586 42.5C17.1775 41.8586 18.0857 40.7304 18.3034 40.9535C18.5183 41.1962 18.0233 42.4568 17.6753 43.0746C17.5519 42.9435 17.154 42.6688 16.9806 42.6228" fill="#D19B15"/>
<path d="M18.4628 44.5542C18.2757 44.5542 18.0926 44.4579 17.9886 44.285C17.0347 42.7064 14.8745 42.8724 14.8537 42.8752C14.5487 42.9003 14.2797 42.6744 14.2534 42.369C14.2405 42.222 14.2859 42.076 14.3796 41.9626C14.4734 41.8492 14.6079 41.7777 14.7539 41.7637C14.8704 41.7526 17.6198 41.5253 18.937 43.7077C19.0965 43.9713 19.0119 44.3143 18.7512 44.4733C18.6597 44.5277 18.5613 44.5542 18.4628 44.5542Z" fill="#8D6E63"/>
<path d="M18.8594 53.8487C16.4843 54.4371 13.183 54.3953 10.8245 53.9267C8.61716 53.4875 6.92699 52.178 7.1211 49.6009C7.31799 46.9932 9.03589 44.5374 11.3985 43.4553C13.6849 42.408 16.7533 41.8976 18.3699 44.2739C18.772 44.8651 19.5402 46.1774 19.5762 46.8217C19.579 46.8733 19.5818 46.9193 19.5929 46.9639C19.5956 47.1257 19.6608 47.2888 19.8189 47.4088C20.8352 48.1827 21.5756 49.2091 21.7115 50.6161C21.8723 52.2938 20.2944 53.493 18.8594 53.8487Z" fill="#FCC21B"/>
<path d="M16.7533 49.534C16.4649 49.0627 15.9338 48.5509 15.4319 48.1116L15.8215 47.0267C16.1681 47.2986 16.4732 47.5538 16.7117 47.7741C16.7505 47.8118 16.8115 47.8146 16.8559 47.7825L17.7488 47.1145C17.7737 47.095 17.789 47.0671 17.7931 47.035C17.7946 47.0194 17.7928 47.0036 17.7878 46.9887C17.7828 46.9738 17.7747 46.9601 17.764 46.9486C17.4992 46.6515 16.9252 46.1314 16.2971 45.7033L16.5259 45.0674C16.5522 44.9948 16.5162 44.9153 16.4427 44.8875L15.3931 44.5054C15.321 44.4789 15.2406 44.5165 15.2142 44.589L15.0437 45.0646C14.0551 44.7564 13.2703 44.8554 12.6547 45.3728C12.1722 45.78 11.9642 46.3615 12.1112 46.8886C12.2609 47.4506 12.6991 47.8355 13.2537 48.3222L13.3244 48.3849C13.4533 48.4965 13.5906 48.6122 13.7251 48.728L13.2509 50.0472C12.6284 49.6372 12.107 49.0696 12.0183 48.9455C12.0017 48.9225 11.977 48.9066 11.9492 48.9012C11.9214 48.8957 11.8926 48.9011 11.8685 48.9162L10.8398 49.5772C10.8148 49.5926 10.7968 49.6191 10.7898 49.6497C10.7843 49.679 10.7898 49.7097 10.8065 49.7348C11.1157 50.2034 11.6217 50.7277 12.1611 51.1377C12.2901 51.2353 12.4842 51.372 12.7226 51.5156L12.5438 52.0107C12.5188 52.0832 12.5549 52.1627 12.627 52.1892L13.678 52.5727C13.7501 52.5992 13.8305 52.5615 13.8568 52.489L14.0052 52.0762C14.9646 52.3384 15.8077 52.1864 16.4593 51.6258C17.0888 51.0833 17.1969 50.3219 16.7533 49.534ZM14.5778 46.3643L14.2908 47.1633C14.0232 46.9541 13.8804 46.7966 13.9816 46.5706C14.087 46.3392 14.349 46.3238 14.5778 46.3643ZM14.862 49.6972C15.0465 49.8771 15.1768 50.043 15.1893 50.195C15.1948 50.2815 15.1629 50.3651 15.088 50.4516C14.9577 50.6036 14.7497 50.6329 14.5348 50.6064L14.862 49.6972Z" fill="#424242"/>
</svg>
