<svg width="83" height="126" viewBox="0 0 83 126" fill="none" xmlns="http://www.w3.org/2000/svg">
<path d="M10.0834 77.276C10.0834 67.6094 -1.99994 70.026 0.416727 79.6927C2.83339 89.3594 7.66673 91.776 7.66673 91.776L10.0834 77.276ZM72.9167 77.276C72.9167 67.6094 85.0001 70.026 82.5834 79.6927C80.1667 89.3594 75.3334 91.776 75.3334 91.776L72.9167 77.276Z" fill="#31373D"/>
<path d="M76.9042 91.138C76.9042 117.46 65.5676 125.182 41.5001 125.182C17.4325 125.182 6.09348 117.46 6.09348 91.138C6.09348 64.8157 17.4349 39.39 41.5001 39.39C65.5652 39.39 76.9042 64.8157 76.9042 91.138Z" fill="#31373D"/>
<path d="M64.6203 94.1927C68.2211 83.4192 69.6663 76.522 63.5497 76.522H19.4504C13.3314 76.522 14.779 83.4192 18.3774 94.1927C6.46806 121.262 39.4846 122.765 41.5001 122.765C43.5156 122.765 76.0656 120.206 64.6203 94.1927Z" fill="#FCDD45"/>
<path d="M34.2501 82.1166C34.2501 83.3985 33.7408 84.6279 32.8344 85.5343C31.928 86.4407 30.6986 86.95 29.4167 86.95C28.1348 86.95 26.9055 86.4407 25.999 85.5343C25.0926 84.6279 24.5834 83.3985 24.5834 82.1166C24.5834 79.4486 26.7487 79.7 29.4167 79.7C32.0847 79.7 34.2501 79.4462 34.2501 82.1166ZM58.4167 82.1166C58.4167 83.3985 57.9075 84.6279 57.0011 85.5343C56.0946 86.4407 54.8653 86.95 53.5834 86.95C52.3015 86.95 51.0721 86.4407 50.1657 85.5343C49.2593 84.6279 48.7501 83.3985 48.7501 82.1166C48.7501 79.4486 50.9154 79.7 53.5834 79.7C56.2514 79.7 58.4167 79.4462 58.4167 82.1166Z" fill="#31373D"/>
<path d="M35.6324 98.1923C37.5383 98.1923 39.0834 97.1103 39.0834 95.7756C39.0834 94.4409 37.5383 93.359 35.6324 93.359C33.7265 93.359 32.1814 94.4409 32.1814 95.7756C32.1814 97.1103 33.7265 98.1923 35.6324 98.1923Z" fill="#31373D"/>
<path d="M50.8187 95.7756C50.8187 97.112 49.2745 98.1923 47.3677 98.1923C45.4586 98.1923 43.9143 97.112 43.9143 95.7756C43.9143 94.4392 45.4586 93.359 47.3677 93.359C49.2769 93.359 50.8187 94.4416 50.8187 95.7756Z" fill="#31373D"/>
<path d="M48.7984 89.456C44.0496 88.8277 41.5001 91.4715 41.5001 91.4715C41.5001 91.4715 38.9505 88.8277 34.1993 89.456C26.5723 90.4638 26.2606 97.3996 29.5134 96.9598C31.3646 96.7085 29.8396 94.693 33.6531 93.1995C37.4691 91.7108 41.5001 94.7945 41.5001 94.7945C41.5001 94.7945 45.5286 91.7108 49.3446 93.2019C53.1605 94.693 51.6331 96.7109 53.4867 96.9622C56.7396 97.3996 56.4302 90.4638 48.7984 89.456Z" fill="#FFF1AC"/>
<path d="M58.018 111.16C55.0962 111.941 50.275 112.6 41.5001 112.6C32.7251 112.6 27.9063 111.943 24.9821 111.16C17.2367 109.096 20.3349 106.967 24.9821 107.591C29.6294 108.217 33.7571 108.594 41.5001 108.594C49.2431 108.594 53.3756 108.217 58.018 107.591C62.6652 106.967 65.761 109.096 58.018 111.16Z" fill="#31373D"/>
<path d="M8.27814 78.7865C11.6687 75.826 5.67298 69.6853 2.97114 72.6385C2.14706 73.5399 5.19689 72.1841 6.19981 75.263C6.94414 77.5395 6.20223 80.599 8.27814 78.7865ZM74.7196 78.7865C71.3314 75.826 77.3247 69.6853 80.0266 72.6385C80.8506 73.5399 77.8008 72.1841 76.7955 75.263C76.056 77.5395 76.7955 80.599 74.7196 78.7865Z" fill="#FCDD45"/>
<path d="M70.4337 17.2568C70.2216 17.1442 69.984 17.0884 69.7439 17.0948C68.8808 17.0948 67.662 17.6529 65.9736 18.4807C65.2976 18.8156 64.614 19.1351 63.9233 19.4387C63.7347 21.6738 63.1665 24.1545 62.1894 26.8793C63.3588 27.4071 64.422 28.0526 65.2471 28.8132C63.5664 29.5574 61.7047 29.1397 61.3224 29.1106C60.3405 31.4555 59.2027 33.7319 57.9166 35.9248H63.3247C63.3247 35.9248 68.458 28.1412 69.849 25.2935C70.5704 23.8203 71.0804 22.4965 71.3588 21.3612C71.6322 20.2589 71.6955 19.3172 71.5297 18.6401C71.3854 18.0187 71.0576 17.6074 70.4337 17.2568ZM66.3685 26.4427C66.0121 26.1601 65.6407 25.8969 65.256 25.6542C65.7243 24.0912 66.0635 22.5838 66.2736 21.1473C66.5596 21.0119 68.4302 20.0956 69.0693 19.8412C69.0478 20.0703 66.7975 25.696 66.3685 26.4427ZM17.9393 28.8132C18.7253 28.0868 19.7264 27.4653 20.8313 26.9477C19.8391 24.1937 19.2619 21.6915 19.0721 19.4375C18.3821 19.1342 17.6993 18.8148 17.0243 18.4794C15.3347 17.6529 14.1159 17.0935 13.2527 17.0935C13.0131 17.0874 12.776 17.1432 12.5642 17.2555C11.9403 17.6061 11.6138 18.0187 11.4657 18.6376C11.3049 19.3147 11.3632 20.2563 11.6378 21.3587C11.9188 22.494 12.425 23.8178 13.1502 25.291C14.5386 28.1386 19.6733 35.9222 19.6733 35.9222H25.08C23.7962 33.7338 22.6601 31.462 21.6793 29.122C21.3654 29.1435 19.21 29.3992 17.9393 28.8132ZM16.6889 26.5465C16.2396 25.7656 13.9526 20.0791 13.9286 19.8387C14.5614 20.0931 16.4472 21.0144 16.7231 21.1461C16.9382 22.6117 17.2863 24.1532 17.7698 25.7555C17.385 26.0077 17.0247 26.2714 16.6889 26.5465Z" fill="black"/>
<path d="M79.1652 16.805C78.5147 14.0877 74.4039 5.96489 64.6333 10.425C63.9436 9.18717 60.1669 2.86284 51.4366 5.61305C51.4392 5.53838 51.4404 2.86284 51.4404 2.86284H47.3715L45.1895 0H37.5451L35.5176 2.86411H31.5587C31.5587 2.86411 31.56 5.53964 31.5625 5.61305C21.9577 2.86411 18.5532 10.1136 18.3646 10.4262C7.60173 5.84719 4.49588 14.0345 3.83649 16.8062C3.04421 20.112 3.78587 24.0228 6.10196 28.7601C7.0208 30.6345 12.8984 40.1266 13.4742 41.0885C13.1988 41.4159 12.9927 41.7958 12.8685 42.2052C12.7443 42.6146 12.7045 43.0449 12.7516 43.4702C12.7987 43.8954 12.9317 44.3066 13.1425 44.6789C13.3533 45.0512 13.6375 45.3768 13.9779 45.6359V52.5298C13.5907 52.825 13.2769 53.2057 13.0609 53.6421C12.8449 54.0785 12.7325 54.5589 12.7326 55.0458C12.7359 55.8857 13.0712 56.6903 13.6654 57.2839C14.2595 57.8776 15.0643 58.2123 15.9042 58.215L15.9093 58.2175H67.0975C67.9404 58.2182 68.7492 57.8847 69.3468 57.2903C69.9443 56.6958 70.2819 55.8887 70.2856 55.0458C70.2856 54.0131 69.7857 53.0942 69.0174 52.5146V45.6511C69.3631 45.3928 69.6521 45.0665 69.8667 44.6922C70.0813 44.3178 70.2168 43.9035 70.265 43.4747C70.3131 43.046 70.2729 42.6119 70.1467 42.1993C70.0205 41.7867 69.811 41.4043 69.5313 41.0759C70.1084 40.1153 75.9784 30.6345 76.8934 28.7613C79.2133 24.0228 79.955 20.1133 79.1652 16.805ZM67.0886 55.6875H15.9106C15.7389 55.6889 15.5736 55.6223 15.4508 55.5023C15.328 55.3824 15.2576 55.2187 15.255 55.0471C15.255 54.6915 15.5486 54.4054 15.9106 54.4054H67.0886C67.4506 54.4054 67.743 54.6915 67.743 55.0471C67.7403 55.2185 67.6701 55.382 67.5475 55.5019C67.425 55.6218 67.2601 55.6885 67.0886 55.6875ZM67.0886 43.7628H15.9207C15.8356 43.764 15.7511 43.7483 15.6721 43.7167C15.5931 43.6851 15.5211 43.6382 15.4603 43.5787C15.3995 43.5192 15.3511 43.4482 15.3178 43.3699C15.2845 43.2916 15.267 43.2075 15.2663 43.1224C15.2663 42.768 15.5574 42.4807 15.9207 42.4807H67.0886C67.4506 42.4807 67.743 42.768 67.743 43.1224C67.7423 43.2075 67.7248 43.2916 67.6915 43.3699C67.6582 43.4482 67.6098 43.5192 67.549 43.5787C67.4882 43.6382 67.4162 43.6851 67.3372 43.7167C67.2582 43.7483 67.1737 43.764 67.0886 43.7628ZM67.2354 39.9836H15.765C13.9931 37.0069 9.63558 30.2181 8.37629 27.6488C6.3323 23.4622 5.6514 20.1082 6.2994 17.3922C6.79172 15.3242 10.133 8.41641 19.6036 13.8016C21.8489 7.86333 28.0099 5.56875 35.6252 10.1933C34.7291 8.33541 34.09 6.59391 34.09 5.39409H48.9079C48.9079 6.59391 48.2701 8.33541 47.3753 10.1933C54.845 5.72695 60.4808 7.42669 63.3955 13.8016C73.494 8.29744 76.2075 15.3242 76.7023 17.3922C77.3491 20.1082 76.6682 23.4622 74.6229 27.6488C73.3661 30.2168 69.0086 37.0056 67.2354 39.9836Z" fill="black"/>
<path d="M46.6564 8.65688C45.259 9.96514 43.4145 10.69 41.5002 10.6831C39.5947 10.6884 37.7581 9.97113 36.3605 8.67586C36.5159 9.93211 37.1245 11.0885 38.0719 11.9278C39.0194 12.7672 40.2407 13.2319 41.5066 13.2346C42.7759 13.2322 44.0005 12.7653 44.9492 11.922C45.898 11.0786 46.5052 9.91721 46.6564 8.65688ZM57.0231 25.5302C57.0231 25.5302 59.5987 20.4538 58.4583 15.814C57.4003 11.5096 54.1413 12.755 50.9481 14.394C48.9446 15.4229 46.6716 16.4797 44.1618 16.786V24.5101C45.511 24.7404 46.788 25.1277 47.8359 25.7188C46.7829 26.3136 45.5072 26.6996 44.1618 26.9274V35.9248H47.8246C46.9057 34.4756 45.7097 32.3848 45.7097 31.3078C45.7097 29.5599 47.1196 28.1437 48.8586 28.1437C50.5975 28.1437 52.0074 29.5599 52.0074 31.3078C52.0074 32.3861 50.8114 34.4769 49.8926 35.9248H51.6872C51.9594 35.4628 55.0639 30.175 56.0967 27.8146C54.8867 27.2818 53.7831 26.6224 52.9301 25.8276C54.1932 25.1745 57.0231 25.5302 57.0231 25.5302ZM46.6893 19.7134V18.8553C48.7231 18.3009 55.2436 15.3318 55.2892 15.3242C56.5396 17.553 55.8246 21.0727 55.2361 22.9483C55.2361 22.9483 50.8076 20.593 46.6893 19.7134ZM24.5421 15.814C23.5271 19.7425 25.9837 25.5441 25.9837 25.5441C25.9837 25.5441 28.458 25.253 30.2602 25.8263C29.3692 26.6541 28.2074 27.3362 26.9329 27.8805C27.9606 30.2155 31.0411 35.4615 31.3119 35.9235H33.1079C32.189 34.4744 30.9943 32.3835 30.9943 31.3065C30.9943 29.5587 32.4029 28.1424 34.1431 28.1424C35.8834 28.1424 37.292 29.5587 37.292 31.3065C37.292 32.3848 36.0947 34.4756 35.1772 35.9235H38.8462V26.916C37.4971 26.6832 36.2213 26.2984 35.1632 25.7175C36.2162 25.129 37.4945 24.7417 38.8462 24.5114V16.7847C36.3352 16.481 34.0381 15.4533 32.0511 14.394C29.1718 12.86 25.6495 11.5223 24.5421 15.814ZM36.3137 19.7121C32.2004 20.5905 27.7631 22.9407 27.7631 22.9407C27.1746 21.0676 26.1646 17.0948 27.71 15.3242C27.7568 15.3318 34.276 18.3022 36.3137 18.8553V19.7121Z" fill="black"/>
</svg>
