<svg width="61" height="61" viewBox="0 0 61 61" fill="none" xmlns="http://www.w3.org/2000/svg">
<circle cx="30.5" cy="30.5" r="30.5" fill="#FFF1AC"/>
<path d="M35.9433 38.9766L32.3068 32.3966L23.3299 35.8318C23.3299 35.8318 22.8923 36.3934 22.9853 37.3771C23.024 37.8147 23.2215 39.0502 23.2215 39.0502L21.5485 39.3058C21.5485 39.3058 19.1513 41.3042 19.9142 44.4296C20.4951 46.8037 21.1148 48.0662 21.1148 48.0662L20.7895 50.3938C20.7895 50.3938 26.1338 52.7176 31.3309 52.5743C37.9842 52.3923 40.4898 48.8679 40.4898 48.8679L38.6735 40.6536L35.9433 38.9766Z" fill="#845A54"/>
<path d="M20.5339 39.7434C19.7632 40.4677 19.6354 41.614 19.6974 42.0168C19.8445 42.9618 21.2968 45.5605 22.8962 45.452C24.4956 45.3436 23.7327 42.1446 23.2215 40.9827C22.7103 39.8209 21.7693 38.5777 20.5339 39.7434ZM16.2081 52.2799C16.1539 53.0739 17.0446 53.0429 18.7176 53.0429C20.3906 53.0429 24.422 52.7524 24.422 52.7524L24.0967 50.5333C24.0967 50.5333 23.086 50.603 21.6995 49.8439C21.138 49.5341 20.956 49.1352 20.956 49.1352C20.956 49.1352 16.3165 50.6843 16.2081 52.2799Z" fill="#B5885E"/>
<path d="M28.2599 37.3771C28.2599 37.3771 26.4784 37.3074 25.1501 38.8527C24.3059 39.8325 22.5709 44.5419 23.8411 45.1964C25.1114 45.851 25.9827 43.5427 26.4591 42.4699C26.8967 41.4901 27.6945 40.3631 28.3838 39.999C29.0731 39.635 29.654 39.2361 29.654 39.2361L28.2599 37.3771ZM25.2973 50.0995C25.2973 50.0995 24.6776 50.0995 24.0619 50.3164C23.4422 50.5333 19.9917 52.2064 20.0265 53.1165C20.0614 54.0266 22.172 54.0266 24.7861 53.9879C27.404 53.953 28.0933 53.4418 28.3102 53.2249C28.5271 53.008 29.3636 51.881 29.0731 51.7339C28.7865 51.5906 25.2973 50.0995 25.2973 50.0995Z" fill="#FFE4BE"/>
<path d="M34.9983 33.4151C34.9983 33.4151 37.0354 31.6336 37.8331 29.9257C38.6309 28.2177 38.596 26.5834 38.596 26.5834C38.596 26.5834 42.4571 25.5648 41.4851 20.7895C40.6641 16.7463 37.3955 17.606 37.3955 17.606C37.3955 17.606 35.1765 12.9896 29.2164 11.7193C23.2564 10.4489 18.036 13.3923 15.8402 16.3706C13.2958 19.8252 13.7334 24.2596 13.7334 24.2596C13.7334 24.2596 11.77 24.0776 10.8638 25.8243C9.92272 27.6329 10.2442 30.5841 11.9907 31.9318C13.7334 33.2757 16.4598 32.9117 16.4598 32.9117C16.4598 32.9117 18.3497 34.9488 20.53 35.8551C22.7684 36.7884 24.8906 36.9085 27.4737 36.6529C30.0568 36.3973 32.1248 35.0534 32.1248 35.0534C32.1248 35.0534 32.0164 35.7815 32.4888 36.7264C32.7832 37.3113 33.7978 38.4344 33.7978 38.4344C33.7978 38.4344 32.1442 37.563 30.8158 37.3267C29.3752 37.0711 28.4535 37.1641 27.9074 37.4894C27.4931 37.7373 28.0275 39.7086 28.6355 39.817C29.2551 39.9255 30.2698 39.635 32.0512 40.3244C33.8327 41.0137 36.1214 42.652 36.7023 43.016C37.2832 43.3801 38.4644 43.9959 38.5573 44.7975C38.627 45.4133 37.6318 46.215 35.8852 44.4335C34.2122 42.7255 32.5973 41.0912 30.7771 40.8704C28.9608 40.6536 27.8339 41.126 26.9974 42.9424C25.9246 45.2778 25.0339 48.105 24.8519 48.8292C24.6699 49.5573 24.1626 49.9562 24.5615 50.6456C24.8403 51.1258 27.9191 52.919 28.6316 52.8647C29.5417 52.7912 30.2659 50.9399 30.4867 50.6107C30.7035 50.2854 31.176 49.5922 31.176 49.5922C31.176 49.5922 32.7754 53.3721 36.1563 53.0468C39.5371 52.7215 40.0096 50.6107 40.0096 50.6107C40.0096 50.6107 42.6391 50.7424 45.4236 49.9485C49.1568 48.8834 51.7089 45.4714 52.5106 39.999C53.0915 36.0371 52.3634 30.2587 50.5123 25.4215C49.8307 23.6477 49.029 21.5448 48.514 20.0769C47.1934 16.3357 46.7325 13.6325 48.878 12.8424C49.9701 12.4396 50.6711 12.916 50.9886 13.5395C51.4224 14.3954 51.4959 15.4566 52.8746 16.0027C53.8583 16.3899 55.0937 16.0762 55.6358 15.1661C56.3174 14.0275 56.0773 12.3622 54.6173 10.4761C52.1078 7.2422 47.9292 7.54816 45.6404 9.27546C43.1929 11.119 42.1512 13.5744 43.3517 18.1792C44.4786 22.5052 46.9572 28.0125 47.4955 30.6848C48.2235 34.2827 48.8819 43.1283 44.4051 44.9331C42.3332 45.7696 40.8073 45.4404 40.8073 45.4404C40.8073 45.4404 40.4433 41.3042 39.1343 38.3143C37.6434 34.9023 34.9983 33.4151 34.9983 33.4151Z" fill="#B5885D"/>
<path d="M35.9084 19.8794C35.8464 19.9569 36.2608 21.0916 36.4157 22.2767C36.59 23.5896 36.6442 24.8599 36.7565 24.8987C36.9734 24.9723 40.1955 24.1667 39.7966 21.1846C39.3977 18.2025 36.0556 19.6974 35.9084 19.8794ZM13.9193 26.076C13.6328 25.8591 11.77 26.382 11.9946 28.5121C12.2851 31.2734 15.0114 31.2734 15.267 31.0914C15.3987 30.9985 14.8798 29.7398 14.539 28.5121C14.2098 27.3308 14.0626 26.1806 13.9193 26.076ZM24.24 20.2938C22.4973 20.8747 20.0614 18.0747 17.9508 20.2938C15.3677 23.0087 18.4387 25.4486 18.6789 27.3463C18.826 28.5082 18.1715 29.3835 18.826 31.3431C19.3721 32.9775 22.4044 35.4097 27.9191 34.2904C33.0814 33.2409 34.2935 29.9721 34.158 27.9156C34.0069 25.6229 32.9303 25.4912 32.7134 24.3294C32.4966 23.1675 33.7165 18.5897 30.1691 17.6409C26.4939 16.661 26.1183 19.6703 24.24 20.2938Z" fill="#FFE4BE"/>
<path d="M30.3008 23.0939C30.5176 24.4029 30.3821 25.2743 29.4565 25.4912C28.3489 25.7507 27.6286 24.9994 27.4117 23.6632C27.1445 22.0327 27.4737 21.2659 28.3218 21.1071C29.3675 20.9135 30.0297 21.4479 30.3008 23.0939ZM22.9427 24.3758C23.1905 25.6229 23.2331 26.7383 22.234 26.9939C21.2774 27.2379 20.4835 26.626 20.135 25.2782C19.7245 23.6981 19.86 22.7841 20.7624 22.5246C21.6918 22.2535 22.5593 22.4394 22.9427 24.3758ZM24.2516 26.5601C24.2749 27.1875 25.3399 27.9466 25.9634 27.8498C26.6372 27.7414 27.2723 26.4091 27.0516 26.0141C26.765 25.5028 24.2323 25.9869 24.2516 26.5601Z" fill="#000504"/>
<path d="M21.7034 30.5647C21.8119 31.4361 23.6669 32.7529 27.0477 32.0906C30.537 31.409 31.0559 29.2828 31.0017 28.7638C30.9475 28.2448 29.1738 27.9737 26.1493 28.4927C23.7753 28.8994 21.6143 29.8676 21.7034 30.5647Z" fill="#CE4D5E"/>
<path d="M11.791 38.2962C11.791 38.2962 10.8911 38.1148 10.248 38.5265C9.60487 38.9383 8.78449 39.9746 8.20614 40.5015C7.62778 41.0283 5.34389 41.8506 5.07006 43.2173C4.79622 44.5839 5.33594 45.8261 6.50061 47.0845C7.65846 48.3349 9.34694 48.9443 10.4241 48.6152C11.5013 48.286 12.0808 46.6891 12.9807 45.8005C13.8806 44.9119 14.5771 44.3687 14.9885 43.5069C15.4827 42.4706 15.185 41.8018 15.185 41.8018L11.791 38.2962Z" fill="#BBCED4"/>
<path d="M13.0296 40.1235C12.7887 39.8769 12.2751 38.9673 11.8888 38.8848C11.5024 38.8022 10.6605 38.9045 9.97416 39.5966C9.41512 40.1607 8.83221 40.8143 8.28567 41.2261C7.73913 41.6378 6.69718 42.2042 6.38812 42.4438C6.16314 42.6194 5.64159 43.03 5.59614 43.8558C5.55978 44.506 5.78931 45.4202 6.88694 46.624C8.00502 47.851 9.17082 48.0662 9.86621 48.0138C10.8411 47.9417 11.2752 47.0648 11.4536 46.7949C11.6797 46.4541 12.3853 45.4388 12.7557 45.1422C13.125 44.8456 14.042 44.0314 14.3794 43.3487C14.8748 42.3473 14.6669 41.7855 14.6669 41.7855L13.0296 40.1235Z" fill="#F5F3E7"/>
<path d="M9.1515 41.6366C9.29581 41.8448 9.62305 41.8634 10.0401 41.504C10.4559 41.1446 10.882 40.8132 11.1684 40.6515C11.4547 40.491 12.0478 40.1118 11.6308 39.5908C11.215 39.0697 10.6866 39.5524 10.4468 39.799C10.206 40.0455 9.9128 40.5212 9.63214 40.8597C9.37307 41.1726 8.94811 41.3435 9.1515 41.6366Z" fill="white"/>
<path d="M12.4887 37.1762C11.8206 37.7496 11.624 38.0497 11.5945 38.3463C11.5661 38.6428 11.8263 39.5919 12.85 40.7573C13.8738 41.9228 14.9067 42.5066 15.3316 42.438C15.7566 42.3694 16.0338 42.0449 16.4247 41.6366C16.5872 41.4668 17.0656 40.926 17.0849 40.6585C17.1042 40.3921 16.9156 39.3593 15.9452 38.2218C14.7851 36.8598 13.8624 36.654 13.6227 36.6365C13.1955 36.6051 12.8466 36.8703 12.4887 37.1762Z" fill="#37B4E5"/>
<path d="M13.3716 37.168C13.3568 37.7042 13.7761 38.5963 14.5578 39.4675C15.5146 40.5329 16.1031 40.8364 16.5554 40.9434C16.786 40.9981 16.9974 40.9213 16.9883 40.7794C16.9792 40.6375 16.8576 40.7027 16.3724 40.5212C16.1486 40.4375 15.5396 40.1072 14.801 39.2546C14.0624 38.4009 13.7647 37.7438 13.7204 37.2925C13.675 36.8331 13.8034 36.7656 13.6375 36.704C13.4727 36.64 13.3807 36.8482 13.3716 37.168ZM13.1807 37.239C13.2591 37.4065 12.9546 37.6752 12.6944 37.9322C12.3808 38.2427 12.1569 38.4626 12.0512 38.3148C11.9388 38.1543 12.3114 37.8612 12.4944 37.6752C12.7728 37.3902 13.0943 37.0529 13.1807 37.239ZM12.8659 38.801C12.4648 39.1767 12.2819 39.3 12.4183 39.4512C12.5557 39.6024 12.8932 39.2372 13.0387 39.0953C13.1852 38.9522 13.659 38.587 13.5409 38.4265C13.392 38.2241 13.1034 38.5777 12.8659 38.801ZM13.6522 39.8862C13.3193 40.2212 13.0137 40.4817 13.1795 40.6317C13.3261 40.7632 13.6704 40.3619 13.8829 40.1479C14.0954 39.9339 14.4351 39.6582 14.2999 39.5059C14.1431 39.3279 13.9113 39.6257 13.6522 39.8862ZM14.1511 41.5273C14.3022 41.6762 14.534 41.4156 14.801 41.1272C15.0464 40.862 15.3816 40.6364 15.2191 40.4666C15.068 40.3084 14.7817 40.6317 14.551 40.8574C14.284 41.1191 14.0079 41.3889 14.1511 41.5273ZM15.6043 41.5087C15.235 41.8867 15.0726 42.0239 15.2282 42.1472C15.3839 42.2705 15.6895 41.8786 15.902 41.6901C16.1145 41.5017 16.3554 41.2842 16.2213 41.1528C16.0872 41.0225 15.8532 41.254 15.6043 41.5087Z" fill="#1E88FE"/>
<path d="M18.3029 37.1099C18.5904 36.8249 18.7961 36.2073 18.3404 35.7944C17.9553 35.4443 17.3689 35.5514 17.0622 35.9259C16.7588 36.2981 16.7894 36.6028 16.452 36.6691C16.0884 36.74 15.7043 36.3004 14.8464 36.4597C14.5385 36.5167 14.2522 36.7575 14.0431 36.9878C14.0783 37.1366 14.0227 37.8566 15.0112 39.0162C15.8657 40.0188 16.7122 40.3189 16.9372 40.2677C17.169 40.0479 17.453 39.6966 17.5337 39.2523C17.7087 38.2904 17.2508 37.9729 17.403 37.7089C17.6019 37.3623 17.928 37.4821 18.3029 37.1099Z" fill="#FFA828"/>
<path d="M17.169 36.5179C17.3178 36.7191 17.5428 36.5632 17.7166 36.3725C17.8564 36.2178 18.0484 36.0515 17.9462 35.9259C17.8007 35.7468 17.5473 35.8247 17.3905 35.948C17.2326 36.0713 17.0587 36.369 17.169 36.5179ZM14.751 37.0459C14.6896 37.3727 15.1294 37.4251 15.3112 37.4484C15.493 37.4716 15.9077 37.4879 15.9236 37.1925C15.9384 36.9215 15.635 36.8052 15.3714 36.7749C15.1066 36.7447 14.7964 36.8063 14.751 37.0459Z" fill="#FFCC8A"/>
</svg>
