<svg width="61" height="61" viewBox="0 0 61 61" fill="none" xmlns="http://www.w3.org/2000/svg">
<circle cx="30.5" cy="30.5" r="30.5" fill="#FFF1AC"/>
<path d="M37.0317 39.8318L33.4261 33.2789L24.5254 36.7C24.5254 36.7 24.0915 37.2592 24.1836 38.2389C24.222 38.6747 24.4179 39.9051 24.4179 39.9051L22.759 40.1596C22.759 40.1596 20.3822 42.1498 21.1386 45.2623C21.7146 47.6266 22.329 48.884 22.329 48.884L22.0064 51.202C22.0064 51.202 27.3054 53.5162 32.4585 53.3735C39.0553 53.1922 41.5397 49.6824 41.5397 49.6824L39.7388 41.5018L37.0317 39.8318Z" fill="#CE4D5E"/>
<path d="M21.753 40.5955C20.9889 41.3167 20.8622 42.4584 20.9236 42.8595C21.0695 43.8006 22.5095 46.3886 24.0953 46.2806C25.6812 46.1726 24.9247 42.9868 24.4179 41.8297C23.911 40.6726 22.9779 39.4345 21.753 40.5955ZM17.4639 53.0803C17.4102 53.871 18.2933 53.8401 19.9521 53.8401C21.6109 53.8401 25.6082 53.5509 25.6082 53.5509L25.2857 51.3409C25.2857 51.3409 24.2835 51.4103 22.9088 50.6543C22.352 50.3458 22.1716 49.9485 22.1716 49.9485C22.1716 49.9485 17.5714 51.4913 17.4639 53.0803Z" fill="#FFB0D7"/>
<path d="M29.4135 38.2389C29.4135 38.2389 27.6472 38.1695 26.3301 39.7084C25.493 40.6842 23.7728 45.3742 25.0322 46.026C26.2917 46.6778 27.1557 44.3791 27.628 43.3107C28.0619 42.3349 28.8529 41.2126 29.5364 40.85C30.2199 40.4875 30.7958 40.0902 30.7958 40.0902L29.4135 38.2389ZM26.476 50.9089C26.476 50.9089 25.8616 50.9089 25.2511 51.1249C24.6367 51.3409 21.2154 53.007 21.25 53.9134C21.2846 54.8198 23.3773 54.8198 25.9692 54.7812C28.5649 54.7465 29.2484 54.2374 29.4634 54.0214C29.6784 53.8054 30.5078 52.6831 30.2199 52.5365C29.9357 52.3938 26.476 50.9089 26.476 50.9089Z" fill="#FFE4BE"/>
<path d="M36.0948 34.2933C36.0948 34.2933 38.1146 32.5191 38.9056 30.8182C39.6966 29.1173 39.662 27.4896 39.662 27.4896C39.662 27.4896 43.4903 26.4753 42.5265 21.7197C41.7125 17.6931 38.4717 18.5493 38.4717 18.5493C38.4717 18.5493 36.2714 13.9518 30.3619 12.6868C24.4524 11.4217 19.2763 14.353 17.0991 17.3189C14.5764 20.7593 15.0103 25.1755 15.0103 25.1755C15.0103 25.1755 13.0635 24.9942 12.1649 26.7337C11.2319 28.5349 11.5506 31.4738 13.2823 32.8161C15.0103 34.1544 17.7135 33.7919 17.7135 33.7919C17.7135 33.7919 19.5873 35.8206 21.7492 36.7231C23.9686 37.6526 26.0728 37.7722 28.634 37.5176C31.1952 37.2631 33.2456 35.9247 33.2456 35.9247C33.2456 35.9247 33.1381 36.6498 33.6066 37.5909C33.8984 38.1733 34.9045 39.2918 34.9045 39.2918C34.9045 39.2918 33.2648 38.424 31.9478 38.1888C30.5194 37.9342 29.6055 38.0268 29.0641 38.3507C28.6532 38.5976 29.1831 40.5608 29.7859 40.6688C30.4003 40.7767 31.4064 40.4875 33.1727 41.174C34.939 41.8605 37.2084 43.492 37.7843 43.8546C38.3603 44.2171 39.5315 44.8304 39.6236 45.6288C39.6927 46.242 38.7059 47.0404 36.9741 45.2662C35.3153 43.5653 33.7141 41.9377 31.9094 41.7178C30.1085 41.5019 28.9911 41.9724 28.1617 43.7813C27.0981 46.107 26.2149 48.9226 26.0344 49.6438C25.854 50.3689 25.3509 50.7662 25.7464 51.4527C26.0229 51.931 29.0756 53.7167 29.7821 53.6627C30.6845 53.5894 31.4025 51.7458 31.6214 51.418C31.8364 51.094 32.3049 50.4036 32.3049 50.4036C32.3049 50.4036 33.8907 54.168 37.2429 53.844C40.5951 53.52 41.0635 51.418 41.0635 51.418C41.0635 51.418 43.6708 51.5491 46.4316 50.7585C50.1332 49.6978 52.6637 46.2999 53.4585 40.85C54.0345 36.9044 53.3126 31.1499 51.4772 26.3326C50.8014 24.5661 50.0065 22.4718 49.4958 21.01C48.1864 17.2842 47.7295 14.5921 49.8568 13.8053C50.9396 13.4042 51.6346 13.8786 51.9495 14.4995C52.3796 15.3519 52.4525 16.4087 53.8195 16.9525C54.7948 17.3382 56.0197 17.0258 56.5573 16.1194C57.2331 14.9855 56.995 13.327 55.5474 11.4487C53.0592 8.22817 48.916 8.53287 46.6467 10.2531C44.2199 12.089 43.187 14.5342 44.3773 19.1201C45.4947 23.4283 47.9522 28.9129 48.486 31.5741C49.2078 35.1572 49.8606 43.9664 45.4218 45.7637C43.3675 46.5968 41.8546 46.269 41.8546 46.269C41.8546 46.269 41.4936 42.1498 40.1957 39.1723C38.7174 35.7743 36.0948 34.2933 36.0948 34.2933Z" fill="#FFB0D7"/>
<path d="M36.9972 20.8133C36.9357 20.8904 37.3466 22.0205 37.5002 23.2007C37.673 24.5082 37.7267 25.7733 37.8381 25.8119C38.0531 25.8852 41.2479 25.0829 40.8524 22.1131C40.4569 19.1433 37.1431 20.632 36.9972 20.8133ZM15.1946 26.9844C14.9104 26.7684 13.0635 27.2891 13.2862 29.4104C13.5742 32.1604 16.2774 32.1604 16.5308 31.9791C16.6614 31.8865 16.1469 30.633 15.8089 29.4104C15.4826 28.234 15.3366 27.0885 15.1946 26.9844ZM25.4277 21.226C23.6998 21.8045 21.2846 19.016 19.1918 21.226C16.6307 23.9297 19.6757 26.3596 19.9137 28.2495C20.0596 29.4065 19.4107 30.2782 20.0596 32.2298C20.6011 33.8574 23.6077 36.2796 29.0756 35.1649C34.1941 34.1197 35.396 30.8645 35.2616 28.8164C35.1118 26.5331 34.0443 26.402 33.8293 25.2449C33.6143 24.0878 34.8238 19.529 31.3065 18.584C27.6625 17.6082 27.2901 20.605 25.4277 21.226Z" fill="#FFE4BE"/>
<path d="M31.4371 24.0146C31.6521 25.3182 31.5177 26.186 30.6 26.402C29.5018 26.6604 28.7876 25.9122 28.5726 24.5815C28.3076 22.9578 28.634 22.1941 29.4749 22.036C30.5117 21.8431 31.1683 22.3754 31.4371 24.0146ZM24.1414 25.2912C24.3871 26.5331 24.4294 27.6439 23.4387 27.8985C22.4903 28.1415 21.7031 27.5321 21.3575 26.1899C20.9505 24.6162 21.0849 23.706 21.9796 23.4476C22.9011 23.1776 23.7612 23.3627 24.1414 25.2912ZM25.4393 27.4665C25.4623 28.0913 26.5182 28.8473 27.1365 28.7509C27.8046 28.6429 28.4343 27.3161 28.2155 26.9227C27.9313 26.4136 25.4201 26.8957 25.4393 27.4665Z" fill="#976E6E"/>
<path d="M22.9126 31.4546C23.0202 32.3224 24.8594 33.6337 28.2116 32.9742C31.6713 32.2954 32.1858 30.1779 32.1321 29.6611C32.0783 29.1443 30.3197 28.8743 27.3208 29.3911C24.967 29.7961 22.8243 30.7603 22.9126 31.4546Z" fill="#CE4D5E"/>
<path d="M24.0821 12.4801C24.0821 12.4801 23.0465 13.0848 22.272 13.9437C21.6343 14.6495 21.1369 15.5999 21.1369 15.5999L21.8183 17.4348L22.4749 17.7103L24.2476 15.0301C24.2476 15.0301 24.3552 14.0852 24.3218 13.4655C24.3054 13.1459 24.261 12.8403 24.261 12.8403L24.0821 12.4801ZM25.0898 12.4713C25.0898 12.4713 25.5504 13.2978 25.7259 13.6272C25.9249 13.9993 26.2772 14.5967 26.2772 14.5967L28.9897 15.6424L29.4205 13.714C29.4205 13.714 28.7777 13.2323 28.4342 12.9824C28.0907 12.7326 26.3365 12.0838 26.3365 12.0838L25.0898 12.4713Z" fill="#9071ED"/>
<path d="M20.4274 18.8627C20.4274 18.8627 20.3201 18.1125 20.6496 16.9157C20.9791 15.7188 21.2255 15.4615 21.2255 15.4615C21.2255 15.4615 21.5495 15.2918 21.8456 15.1758C22.1652 15.0503 22.4479 15.0101 22.4479 15.0101C22.4479 15.0101 22.1623 15.625 22.0528 16.1752C21.9434 16.7254 21.917 17.2259 22.1125 17.2717C22.3068 17.3177 22.3393 16.647 22.5634 15.9857C22.7988 15.2886 23.0198 14.9191 23.0198 14.9191C23.0198 14.9191 23.3183 14.8522 23.6507 14.8649C24.0183 14.8787 24.2522 15.004 24.2522 15.004C24.2522 15.004 24.0641 16.8064 23.9737 17.8453C23.8833 18.8842 23.7245 20.2725 23.6189 20.3485C23.5132 20.4245 23.2154 20.1107 23.0143 19.8536C22.8132 19.5964 21.9862 18.1659 21.9658 18.2006C21.9453 18.2353 20.4274 18.8627 20.4274 18.8627ZM26.2743 14.5896C26.2743 14.5896 26.4937 14.3416 26.6917 14.2123C26.89 14.0842 27.2581 13.9235 27.2581 13.9235C27.2581 13.9235 27.6044 14.3164 27.8632 14.5791C28.1228 14.8404 28.5792 15.3996 28.7451 15.2594C28.9113 15.1203 28.504 14.5416 28.2908 14.2943C28.0968 14.0693 27.7833 13.7777 27.7833 13.7777C27.7833 13.7777 28.0542 13.6693 28.5936 13.6365C29.1341 13.6034 29.4213 13.7126 29.4213 13.7126C29.4213 13.7126 30.0787 14.2993 30.4454 14.6665C30.9337 15.1564 31.612 16.0275 31.612 16.0275L29.7643 16.6698L29.3495 19.0005C29.3495 19.0005 29.2206 19.0428 29.1362 19.0171C29.0526 18.99 28.4701 18.1361 28.1437 17.6316C27.6299 16.8347 26.2743 14.5896 26.2743 14.5896Z" fill="#BCABEF"/>
<path d="M29.6092 16.5173C29.5536 16.6041 29.2986 18.546 29.2908 18.6035C29.2509 18.9014 29.1176 19.0015 29.1176 19.0015C29.1176 19.0015 29.2928 19.1533 29.4933 19.0336C29.6478 18.9416 29.959 16.8448 29.959 16.8448C29.959 16.8448 31.3995 16.4877 31.5854 16.3423C31.7941 16.1797 31.6074 16.023 31.6074 16.023C31.6074 16.023 29.6831 16.4009 29.6092 16.5173ZM20.4203 18.8215C20.4203 18.8215 20.8255 18.6342 21.1901 18.4291C21.5547 18.2241 22.0181 17.9471 22.0181 17.9471C22.0181 17.9471 22.6913 18.9304 22.9029 19.2641C23.1145 19.5978 23.6317 20.3327 23.6317 20.3327C23.6317 20.3327 23.5347 20.5129 23.3105 20.4428C23.1009 20.3769 22.5094 19.5061 22.3533 19.2747C22.1544 18.9818 21.8806 18.5419 21.8806 18.5419C21.8806 18.5419 21.5054 18.7848 21.1799 18.9356C20.8544 19.0864 20.6346 19.1919 20.5202 19.124C20.4062 19.0572 20.4203 18.8215 20.4203 18.8215ZM22.0312 10.5752L19.9405 10.576L18.844 12.066L18.9753 14.9759L19.4252 15.4258C19.4252 15.4258 19.8325 15.5992 20.7356 15.1374C21.6384 14.6745 23.5876 13.2791 23.5876 13.2791C23.5876 13.2791 23.893 13.3226 24.1491 13.2927C24.4052 13.2628 24.8042 13.0647 24.8042 13.0647C24.8042 13.0647 25.3573 13.0148 25.6678 12.9108C25.9771 12.8072 26.1038 12.7383 26.1038 12.7383C26.1038 12.7383 27.2829 13.0249 28.3944 13.0516C29.5059 13.0783 30.3234 12.9386 30.4988 12.8707C30.7714 12.7641 30.785 12.2533 30.785 12.2533L30.4052 11.2406L28.0611 8.3699L25.1483 10.0876L25.0121 10.3526L24.1308 10.3401L23.0697 10.8495L22.8867 10.7201L22.0312 10.5752Z" fill="#9071ED"/>
<path d="M23.021 10.8179C23.021 10.8179 23.0463 10.397 23.9863 10.1543C24.8629 9.92804 25.0704 10.2458 25.0704 10.2458C25.0704 10.2458 25.3803 10.981 25.4462 11.6705C25.5059 12.2869 25.3376 12.9904 25.3376 12.9904C25.3376 12.9904 25.1347 13.1005 24.8019 13.1966C24.488 13.2867 24.1313 13.2939 24.1313 13.2939C24.1313 13.2939 23.6981 12.843 23.4027 12.2128C23.118 11.6024 23.021 10.8179 23.021 10.8179Z" fill="#BCABEF"/>
<path d="M23.9004 11.9156C24.0894 11.9053 24.0678 11.3934 24.1469 11.2315C24.2716 10.9785 24.7028 10.9102 24.6244 10.635C24.5632 10.4175 23.7359 10.5235 23.551 11.0038C23.4227 11.3392 23.5992 11.9322 23.9004 11.9156Z" fill="white"/>
<path d="M25.1472 10.0879C25.1472 10.0879 25.3042 10.2036 25.4773 10.4397C25.605 10.6128 25.7619 10.8735 25.7619 10.8735C25.7619 10.8735 26.0638 10.4321 26.3496 10.1613C26.6343 9.8908 28.0766 8.91502 28.3154 9.67649C28.5087 10.2957 27.336 10.5849 26.8446 10.9506C26.4989 11.2074 26.0495 11.6405 26.0495 11.6405L26.2131 12.2798C26.2131 12.2798 26.5364 12.4862 27.1434 12.3827C27.7504 12.2792 29.2694 11.8679 29.573 11.8031C30.2047 11.6683 30.4956 11.8933 30.5812 12.2278C30.6665 12.5613 30.5842 12.7286 30.6344 12.762C30.6999 12.8063 30.9075 12.5296 30.9109 11.9525C30.9142 11.3753 30.7647 10.3372 30.501 9.48252C30.1896 8.47258 29.6384 7.15545 29.1185 7.01792C28.5986 6.8804 27.3597 7.56254 26.667 8.09799C25.5021 8.99879 25.1472 10.0879 25.1472 10.0879ZM22.7479 11.6096C22.7479 11.6096 22.7321 11.3454 22.7731 11.1219C22.805 10.9473 22.888 10.7209 22.888 10.7209C22.888 10.7209 22.4713 10.1322 21.4169 9.83938C20.3624 9.54661 18.3342 9.62864 17.7818 10.0203C17.5069 10.2147 17.4127 11.0757 17.6277 12.2906C17.8152 13.3449 18.2336 14.5571 18.7144 15.084C19.0763 15.4808 19.7834 15.6628 19.9233 15.4252C19.9916 15.3091 19.2075 15.1696 19.7686 14.5741C20.0942 14.2296 20.8419 14.0593 21.4749 13.8505C22.108 13.6418 22.3911 13.6027 22.7077 13.4304C23.0243 13.2581 23.2021 13.0763 23.2021 13.0763C23.2021 13.0763 23.0549 12.8313 23.0064 12.7079C22.9396 12.5395 22.8895 12.4007 22.8895 12.4007C22.8895 12.4007 22.634 12.3319 22.0232 12.3854C21.4244 12.437 20.4866 12.7017 20.3104 12.0702C20.0862 11.2687 21.064 11.2314 21.5424 11.2992C22.0208 11.3671 22.6815 11.5702 22.7479 11.6096Z" fill="#BCABEF"/>
<path d="M15.6576 51.226C15.6564 51.2054 15.6565 51.1866 15.6537 51.1698L15.6454 51.1259C15.6352 51.0733 15.6275 51.0439 15.6275 51.0439C15.6241 51.0313 15.6182 51.0195 15.61 51.0093C15.6018 50.9991 15.5916 50.9907 15.5801 50.9847C15.5685 50.9787 15.5558 50.9752 15.5428 50.9744C15.5298 50.9737 15.5168 50.9756 15.5045 50.9802C15.5045 50.9802 15.4763 50.9908 15.4276 51.0129C15.3772 51.0397 15.3124 51.0571 15.2318 51.0853C15.1416 51.115 15.0494 51.1386 14.956 51.1558C14.8557 51.1743 14.7497 51.1848 14.6407 51.1882C14.5314 51.1916 14.4196 51.1893 14.3003 51.185C14.1729 51.1798 14.0454 51.1756 13.9179 51.1725C13.771 51.1684 13.6239 51.1684 13.477 51.1723C13.3201 51.1769 13.1516 51.186 12.9749 51.2052C12.7977 51.2237 12.6111 51.2524 12.4168 51.2985C12.2225 51.3454 12.0204 51.4091 11.8149 51.5023C11.616 51.5925 11.4123 51.7126 11.2267 51.8711V49.0522C11.2267 48.6822 10.9281 48.3823 10.5598 48.3823C10.1914 48.3823 9.89281 48.6822 9.89281 49.0522V51.8886C9.70389 51.7225 9.49368 51.5969 9.28943 51.5036C9.08422 51.41 8.8825 51.346 8.68873 51.2989C8.49499 51.2526 8.30908 51.2238 8.13263 51.2053C7.95669 51.1861 7.78897 51.1769 7.63315 51.1722C7.48714 51.1683 7.34106 51.1684 7.19505 51.1724C7.05877 51.1757 6.93457 51.18 6.81531 51.1849C6.69696 51.189 6.58562 51.1914 6.47674 51.1879C6.36821 51.1845 6.26247 51.1739 6.16245 51.1553C6.06925 51.138 5.9773 51.1145 5.88722 51.0849C5.80693 51.0568 5.742 51.0394 5.69173 51.0128C5.64315 50.9908 5.61493 50.9803 5.61493 50.9803C5.60273 50.9757 5.58971 50.9738 5.57672 50.9746C5.56372 50.9754 5.55103 50.9789 5.53946 50.9849C5.52789 50.9909 5.5177 50.9992 5.50953 51.0094C5.50136 51.0196 5.4954 51.0314 5.49203 51.044C5.49203 51.044 5.48423 51.0732 5.4739 51.1257L5.46553 51.1695C5.46267 51.1862 5.46276 51.2049 5.46146 51.2254L5.45932 51.2926C5.45914 51.3173 5.46071 51.34 5.46179 51.3664C5.46432 51.4718 5.48574 51.5976 5.53214 51.7401C5.57892 51.8819 5.65526 52.0377 5.76431 52.1898C5.87285 52.342 6.0134 52.4901 6.17429 52.62C6.33472 52.7496 6.51541 52.8627 6.70099 52.955C6.88672 53.0488 7.07877 53.1225 7.26682 53.1815C7.45571 53.2407 7.64023 53.2846 7.81635 53.3189C7.90131 53.3356 7.98664 53.3504 8.07228 53.3632C8.15414 53.3755 8.23412 53.3858 8.30954 53.3939C8.46048 53.4101 8.59658 53.4192 8.71096 53.4228C8.82612 53.4263 8.91801 53.4234 8.99276 53.4139C9.06732 53.4052 9.12798 53.387 9.19758 53.3824C9.26769 53.3764 9.34518 53.3928 9.42282 53.4299C9.49992 53.4667 9.57349 53.5209 9.63469 53.5745C9.69642 53.6275 9.74678 53.6785 9.78262 53.7146C9.81791 53.7508 9.84011 53.7717 9.84011 53.7717L9.85779 53.7883L9.86128 53.7915C9.87125 53.8004 9.88185 53.808 9.89278 53.8149V54.3301C9.89278 54.7 10.1914 55 10.5597 55C10.9281 55 11.2267 54.7001 11.2267 54.3301V53.7948C11.2295 53.7924 11.2325 53.7902 11.2352 53.7876L11.2521 53.7717C11.2521 53.7717 11.2743 53.7508 11.3096 53.7145C11.3455 53.6783 11.3958 53.6271 11.4577 53.574C11.519 53.5205 11.5926 53.4663 11.67 53.43C11.7476 53.3931 11.8253 53.3777 11.8955 53.3838C11.9652 53.3885 12.0265 53.4064 12.1024 53.4147C12.1783 53.4239 12.2718 53.4265 12.3883 53.423C12.5039 53.4193 12.6412 53.4102 12.7932 53.394C12.8691 53.3859 12.9496 53.3757 13.0319 53.3633C13.1153 53.3511 13.2007 53.3363 13.289 53.3191C13.4659 53.285 13.6512 53.2412 13.8406 53.1821C14.0293 53.1232 14.2219 53.0498 14.4082 52.9562C14.5943 52.8644 14.7758 52.7514 14.937 52.6222C15.0986 52.4929 15.2402 52.3447 15.3497 52.1926C15.4598 52.0405 15.5372 51.8845 15.5847 51.7424C15.632 51.5996 15.6539 51.4733 15.6568 51.3676C15.658 51.3411 15.6596 51.3183 15.6596 51.2935C15.6592 51.271 15.6586 51.2485 15.6576 51.226Z" fill="#89C98B"/>
<path d="M15.9332 44.9341C15.9332 44.9341 15.8912 44.8995 15.8125 44.8437C15.765 44.8095 15.7167 44.7765 15.6675 44.7448C15.6032 44.7018 15.5378 44.6604 15.4714 44.6206C15.3466 44.5453 15.1988 44.4626 15.0318 44.3776C15.1502 44.2318 15.2518 44.096 15.3355 43.9763C15.3801 43.9129 15.4232 43.8484 15.4646 43.7829C15.4967 43.7339 15.5276 43.684 15.5572 43.6334C15.6066 43.5503 15.631 43.5016 15.631 43.5016C15.6452 43.4729 15.6582 43.4398 15.667 43.4077C15.7418 43.1354 15.5826 42.8538 15.3116 42.7787C15.3116 42.7787 15.2592 42.7642 15.1647 42.7453C15.1075 42.7333 15.05 42.7229 14.9923 42.7139C14.9161 42.7008 14.8396 42.6896 14.7629 42.6803C14.6677 42.6685 14.5619 42.6578 14.4476 42.6491C14.4781 42.5475 14.5062 42.4452 14.5319 42.3423C14.5509 42.2671 14.5679 42.1914 14.5832 42.1152C14.5956 42.0579 14.6066 42.0002 14.616 41.9423C14.6324 41.847 14.6378 41.7927 14.6378 41.7927C14.6407 41.7607 14.641 41.7252 14.6378 41.6921C14.6101 41.411 14.3608 41.2056 14.081 41.2334C14.081 41.2334 14.0269 41.2388 13.932 41.2553C13.8744 41.2648 13.8169 41.2758 13.7598 41.2883C13.6927 41.3019 13.6167 41.3187 13.5338 41.3398C13.3924 41.3751 13.2298 41.4216 13.0518 41.4802C13.0329 41.2931 13.0092 41.1248 12.984 40.9808C12.9696 40.8961 12.9541 40.8195 12.9392 40.7523C12.9274 40.6948 12.9141 40.6377 12.8994 40.5809C12.8759 40.487 12.8588 40.4353 12.8588 40.4353C12.8481 40.4034 12.8345 40.3727 12.8182 40.3433C12.6794 40.0977 12.3686 40.0116 12.1241 40.151C12.1241 40.151 12.0769 40.1779 11.9967 40.2316C11.9479 40.2638 11.8998 40.2973 11.8527 40.332C11.7896 40.3768 11.7277 40.4232 11.6668 40.4711C11.5836 40.5365 11.502 40.6038 11.4219 40.673C11.372 40.5795 11.3199 40.4872 11.2656 40.3962C11.226 40.3295 11.1848 40.2638 11.142 40.1992C11.1104 40.1498 11.0775 40.1013 11.0434 40.0536C10.9879 39.9745 10.9535 39.9323 10.9535 39.9323C10.9321 39.9065 10.9084 39.8827 10.8826 39.8612C10.6652 39.6821 10.3444 39.7139 10.1661 39.9323C10.1661 39.9323 10.1317 39.9745 10.0761 40.0536C10.042 40.1013 10.0092 40.1498 9.97762 40.1992C9.93482 40.2638 9.89359 40.3295 9.85399 40.3962C9.77888 40.5217 9.69652 40.6702 9.61183 40.8382C9.4667 40.7192 9.3315 40.617 9.21227 40.5329C9.14918 40.4881 9.08502 40.4448 9.01983 40.4031C8.97104 40.3709 8.92143 40.3399 8.87106 40.3101C8.78842 40.2605 8.73996 40.236 8.73996 40.236C8.70983 40.2209 8.67837 40.2088 8.646 40.1996C8.37501 40.1247 8.09484 40.2846 8.02024 40.5568C8.02024 40.5568 8.00584 40.6093 7.98705 40.7042C7.97747 40.7517 7.96597 40.8102 7.95591 40.8774C7.94291 40.9539 7.9318 41.0307 7.92257 41.1078C7.90971 41.2132 7.89937 41.319 7.89155 41.425C7.79026 41.3942 7.68826 41.3659 7.58563 41.34C7.51072 41.321 7.43536 41.3038 7.35961 41.2884C7.30254 41.2759 7.24516 41.2649 7.18752 41.2554C7.09262 41.2389 7.03863 41.2335 7.03863 41.2335C7.00514 41.2303 6.97143 41.2303 6.93795 41.2335C6.65826 41.2614 6.45404 41.5118 6.48186 41.7927C6.48186 41.7927 6.48722 41.847 6.50367 41.9423C6.51174 41.9901 6.52192 42.0488 6.53659 42.1151C6.55014 42.1826 6.56691 42.2589 6.58793 42.3422C6.62323 42.4843 6.66964 42.6479 6.7281 42.8269C6.54149 42.8458 6.37381 42.8696 6.23018 42.8948C6.14589 42.9093 6.06963 42.9249 6.00277 42.9398C5.93646 42.9532 5.8789 42.9677 5.83213 42.9797C5.73874 43.0032 5.68721 43.0203 5.68721 43.0203C5.65533 43.0311 5.62452 43.0448 5.59518 43.0614C5.35081 43.2008 5.26528 43.5129 5.40415 43.7584C5.40415 43.7584 5.43095 43.8058 5.48447 43.8862C5.51652 43.9353 5.54983 43.9835 5.58437 44.0308C5.62904 44.0941 5.67525 44.1563 5.72296 44.2174C5.78202 44.2935 5.84945 44.3763 5.92435 44.4637C5.83108 44.5139 5.73901 44.5663 5.64821 44.6209C5.58185 44.6607 5.51646 44.702 5.4521 44.745C5.40294 44.7767 5.35461 44.8096 5.30715 44.8438C5.22842 44.8996 5.18644 44.9341 5.18644 44.9341C5.16055 44.9557 5.13672 44.9796 5.11524 45.0056C4.93714 45.224 4.969 45.5461 5.18644 45.725C5.18644 45.725 5.22842 45.7595 5.30715 45.8153C5.34651 45.8433 5.39505 45.8776 5.4521 45.9141C5.51645 45.9571 5.58184 45.9984 5.64821 46.0382C5.77323 46.1136 5.92122 46.1963 6.08857 46.2814C5.96998 46.4273 5.86809 46.5632 5.78431 46.6831C5.73969 46.7465 5.69662 46.8109 5.65514 46.8764C5.62301 46.9254 5.59214 46.9752 5.56256 47.0258C5.51311 47.1089 5.48872 47.1575 5.48872 47.1575C5.47376 47.1878 5.46164 47.2194 5.45252 47.2519C5.37792 47.5241 5.53711 47.8055 5.80813 47.8805C5.80813 47.8805 5.86044 47.8949 5.95489 47.9138C6.0022 47.9234 6.06042 47.935 6.1273 47.9451C6.19482 47.9567 6.27177 47.9684 6.35667 47.9786C6.46168 47.9915 6.56699 48.0019 6.6725 48.0097C6.64187 48.1115 6.61367 48.2139 6.5879 48.317C6.56893 48.3922 6.55181 48.4679 6.53656 48.544C6.52411 48.6013 6.51313 48.659 6.50364 48.7168C6.48722 48.8122 6.48183 48.8664 6.48183 48.8664C6.47871 48.9 6.47871 48.9339 6.48183 48.9675C6.50963 49.2485 6.7589 49.4536 7.03863 49.4257C7.03863 49.4257 7.09262 49.4203 7.18752 49.4038C7.2351 49.3957 7.29356 49.3854 7.35961 49.3707C7.42676 49.3571 7.50275 49.3402 7.58563 49.3191C7.72712 49.2837 7.88999 49.2371 8.06821 49.1783C8.08707 49.3658 8.11074 49.5342 8.13586 49.6785C8.14891 49.755 8.16383 49.8312 8.18061 49.907C8.19401 49.9736 8.20841 50.0314 8.22033 50.0784C8.24379 50.1722 8.26081 50.2239 8.26081 50.2239C8.27154 50.2559 8.28521 50.2869 8.30165 50.3164C8.44051 50.5618 8.75119 50.6477 8.99559 50.5082C8.99559 50.5082 9.04278 50.4813 9.12283 50.4276C9.17166 50.3954 9.21966 50.3619 9.26678 50.3272C9.32983 50.2823 9.39177 50.2359 9.45254 50.188C9.53589 50.1225 9.61768 50.055 9.69784 49.9857C9.7478 50.0793 9.79997 50.1718 9.85429 50.263C9.89387 50.3297 9.93505 50.3953 9.9778 50.46C10.0093 50.5094 10.0422 50.5579 10.0762 50.6056C10.1317 50.6847 10.1661 50.7268 10.1661 50.7268C10.1876 50.7528 10.2114 50.7767 10.2373 50.7983C10.4547 50.9772 10.7754 50.9452 10.9535 50.7268C10.9535 50.7268 10.9879 50.6846 11.0433 50.6056C11.0774 50.5579 11.1102 50.5094 11.1418 50.46C11.1845 50.3954 11.2257 50.3297 11.2653 50.263C11.3403 50.1376 11.4226 49.989 11.5072 49.8211C11.6524 49.9401 11.7877 50.0424 11.9071 50.1265C11.9702 50.1713 12.0344 50.2145 12.0996 50.2562C12.1484 50.2884 12.1981 50.3194 12.2485 50.3491C12.3311 50.3988 12.3796 50.4233 12.3796 50.4233C12.4083 50.4375 12.4411 50.4506 12.4731 50.4594C12.7442 50.5346 13.0246 50.3747 13.0994 50.1024C13.0994 50.1024 13.1138 50.0499 13.1326 49.955C13.1422 49.9074 13.1537 49.849 13.1638 49.7817C13.1754 49.7139 13.1871 49.6366 13.1973 49.5513C13.2091 49.4557 13.2197 49.3494 13.2284 49.2346C13.3295 49.2653 13.4313 49.2935 13.5337 49.3193C13.6166 49.3404 13.6926 49.3572 13.7598 49.3708C13.8259 49.3855 13.8843 49.3957 13.932 49.4038C14.0269 49.4202 14.0809 49.4256 14.0809 49.4256C14.1127 49.4285 14.1481 49.4289 14.1811 49.4256C14.4609 49.3978 14.6654 49.1474 14.6377 48.8663C14.6377 48.8663 14.6323 48.8121 14.6159 48.7167C14.6065 48.6588 14.5955 48.6011 14.5831 48.5438C14.5679 48.4677 14.5508 48.392 14.5318 48.3167C14.4966 48.1747 14.4503 48.0113 14.392 47.8326C14.5783 47.8136 14.7458 47.7898 14.8893 47.7646C14.9736 47.75 15.0499 47.7345 15.1168 47.7195C15.1831 47.706 15.2407 47.6915 15.2874 47.6795C15.3809 47.6559 15.4324 47.6388 15.4324 47.6388C15.4641 47.628 15.4947 47.6144 15.5239 47.5979C15.7685 47.4585 15.8542 47.1464 15.7154 46.9007C15.7154 46.9007 15.6886 46.8533 15.6351 46.7728C15.6031 46.7237 15.5698 46.6755 15.5353 46.6281C15.4906 46.5648 15.4444 46.5025 15.3967 46.4415C15.3317 46.3579 15.2647 46.2758 15.1957 46.1954C15.2888 46.1453 15.3807 46.093 15.4713 46.0384C15.5377 45.9987 15.6031 45.9573 15.6674 45.9143C15.7166 45.8826 15.7649 45.8496 15.8124 45.8153C15.8911 45.7595 15.9331 45.725 15.9331 45.725C15.9588 45.7035 15.9825 45.6797 16.0039 45.6538C16.1823 45.4354 16.1506 45.1132 15.9332 44.9341Z" fill="#FCAE41"/>
<path d="M10.5597 48.1938C12.1346 48.1938 13.4113 46.9115 13.4113 45.3296C13.4113 43.7477 12.1346 42.4654 10.5597 42.4654C8.98488 42.4654 7.7082 43.7477 7.7082 45.3296C7.7082 46.9115 8.98488 48.1938 10.5597 48.1938Z" fill="#AC8561"/>
<path d="M11.7868 17.0569C10.0443 16.2136 9.00004 18.3372 9.4783 19.1353C8.61654 18.6307 6.55993 19.6106 7.30212 21.3531C8.13 23.2943 11.939 22.0988 12.3224 22.1307C12.3456 21.7832 13.656 17.9562 11.7868 17.0569Z" fill="#CE4D5E"/>
</svg>
