<svg width="174" height="160" viewBox="0 0 174 160" fill="none" xmlns="http://www.w3.org/2000/svg">
<path d="M107.352 109.439L95.2677 87.5963L65.4376 98.9999C65.4376 98.9999 63.9835 100.864 64.2923 104.13C64.421 105.582 65.0773 109.684 65.0773 109.684L59.5179 110.532C59.5179 110.532 51.5521 117.166 54.0873 127.541C56.0176 135.422 58.0766 139.613 58.0766 139.613L56.9956 147.34C56.9956 147.34 74.7547 155.054 92.0248 154.578C114.134 153.974 122.46 142.275 122.46 142.275L116.424 115.006L107.352 109.439Z" fill="#CE4D5E"/>
<path d="M56.1463 111.985C53.5854 114.389 53.1607 118.195 53.3666 119.532C53.8556 122.669 58.6815 131.295 63.9963 130.935C69.3112 130.575 66.776 119.956 65.0773 116.099C63.3786 112.242 60.2515 108.115 56.1463 111.985ZM41.7718 153.601C41.5916 156.237 44.5514 156.134 50.1108 156.134C55.6702 156.134 69.0667 155.17 69.0667 155.17L67.9857 147.803C67.9857 147.803 64.6269 148.034 60.0198 145.514C58.1538 144.486 57.549 143.162 57.549 143.162C57.549 143.162 42.1321 148.304 41.7718 153.601Z" fill="#FFB0D7"/>
<path d="M81.8197 104.13C81.8197 104.13 75.9 103.898 71.486 109.028C68.6806 112.281 62.9153 127.914 67.1363 130.087C71.3573 132.259 74.2528 124.597 75.8357 121.036C77.2899 117.783 79.9409 114.042 82.2315 112.833C84.5222 111.625 86.4525 110.301 86.4525 110.301L81.8197 104.13ZM71.975 146.363C71.975 146.363 69.916 146.363 67.8699 147.083C65.8108 147.803 54.3447 153.357 54.4605 156.378C54.5763 159.399 61.5898 159.399 70.2763 159.271C78.9757 159.155 81.2664 157.458 81.987 156.738C82.7077 156.018 85.4874 152.277 84.5222 151.788C83.5699 151.313 71.975 146.363 71.975 146.363Z" fill="#FFE4BE"/>
<path d="M104.212 90.9775C104.212 90.9775 110.981 85.0636 113.632 79.3939C116.283 73.7242 116.167 68.2988 116.167 68.2988C116.167 68.2988 128.997 64.9176 125.767 49.0656C123.039 35.6435 112.177 38.4977 112.177 38.4977C112.177 38.4977 104.804 23.1728 84.9983 18.9559C65.1931 14.739 47.8459 24.5099 40.5492 34.3965C32.0944 45.8644 33.5485 60.585 33.5485 60.585C33.5485 60.585 27.024 59.9807 24.0127 65.779C20.8855 71.7829 21.9537 81.5795 27.7575 86.0535C33.5485 90.5147 42.6082 89.3062 42.6082 89.3062C42.6082 89.3062 48.8882 96.0687 56.1334 99.0771C63.5716 102.175 70.6238 102.574 79.2073 101.725C87.7909 100.877 94.6629 96.4158 94.6629 96.4158C94.6629 96.4158 94.3026 98.8328 95.8726 101.97C96.8506 103.911 100.222 107.639 100.222 107.639C100.222 107.639 94.7272 104.747 90.3132 103.963C85.526 103.114 82.4632 103.423 80.6487 104.502C79.2717 105.325 81.0476 111.869 83.068 112.229C85.127 112.589 88.4987 111.625 94.4184 113.913C100.338 116.202 107.944 121.64 109.874 122.849C111.804 124.057 115.729 126.101 116.038 128.763C116.27 130.807 112.962 133.468 107.159 127.554C101.599 121.884 96.2329 116.459 90.1845 115.726C84.149 115.006 80.4042 116.575 77.6245 122.604C74.0598 130.357 71.0999 139.742 70.4951 142.146C69.8903 144.563 68.2044 145.887 69.5299 148.176C70.4565 149.77 80.6873 155.722 83.0551 155.542C86.0793 155.298 88.4858 149.153 89.2193 148.06C89.94 146.98 91.51 144.679 91.51 144.679C91.51 144.679 96.8249 157.227 108.059 156.147C119.294 155.067 120.864 148.06 120.864 148.06C120.864 148.06 129.602 148.497 138.855 145.862C151.26 142.326 159.741 131 162.405 112.833C164.335 99.6813 161.916 80.4995 155.764 64.4419C153.499 58.5537 150.836 51.5726 149.124 46.7C144.736 34.2808 143.204 25.307 150.334 22.6843C153.963 21.3472 156.292 22.9285 157.347 24.9984C158.789 27.8397 159.033 31.3623 163.614 33.1751C166.883 34.4607 170.988 33.4194 172.79 30.3981C175.055 26.6183 174.257 21.0901 169.405 14.829C161.066 4.0939 147.181 5.10956 139.575 10.8435C131.442 16.9632 127.98 25.1141 131.97 40.4004C135.715 54.761 143.951 73.0428 145.739 81.9138C148.159 93.8574 150.347 123.221 135.47 129.212C128.585 131.989 123.515 130.897 123.515 130.897C123.515 130.897 122.305 117.166 117.956 107.241C113.001 95.9144 104.212 90.9775 104.212 90.9775Z" fill="#FFB0D7"/>
<path d="M107.236 46.0444C107.03 46.3015 108.407 50.0684 108.922 54.0025C109.501 58.3608 109.681 62.5777 110.054 62.7063C110.775 62.9506 121.482 60.2764 120.156 50.377C118.831 40.4775 107.725 45.4401 107.236 46.0444ZM34.1662 66.6146C33.2139 65.8947 27.024 67.6303 27.7704 74.7013C28.7356 83.8679 37.7953 83.8679 38.6446 83.2637C39.0822 82.9551 37.3577 78.7768 36.2253 74.7013C35.1314 70.7801 34.6424 66.9617 34.1662 66.6146ZM68.4618 47.42C62.6708 49.3485 54.5763 40.0533 47.5628 47.42C38.9792 56.4323 49.1842 64.5319 49.9821 70.8315C50.4711 74.6885 48.2963 77.594 50.4711 84.0993C52.2856 89.5247 62.362 97.5986 80.6873 93.8831C97.8415 90.399 101.869 79.5482 101.419 72.7214C100.917 65.1104 97.3396 64.6733 96.6189 60.8164C95.8983 56.9595 99.952 41.7632 88.1641 38.6134C75.9515 35.3607 74.7032 45.3501 68.4618 47.42Z" fill="#FFE4BE"/>
<path d="M88.6016 56.7152C89.3223 61.0607 88.8719 63.9534 85.7962 64.6733C82.1157 65.5347 79.7221 63.0405 79.0014 58.6051C78.1135 53.1925 79.2074 50.647 82.0256 50.1199C85.5002 49.477 87.7008 51.2512 88.6016 56.7152ZM64.1507 60.9707C64.9744 65.1104 65.1159 68.8131 61.7957 69.6616C58.6171 70.4715 55.979 68.4402 54.8208 63.9662C53.4567 58.7208 53.9071 55.6867 56.9056 54.8253C59.9941 53.9254 62.8767 54.5425 64.1507 60.9707ZM68.5004 68.2217C68.5776 70.3044 72.1166 72.8243 74.1885 72.5029C76.4277 72.1429 78.5382 67.7203 77.8046 66.4089C76.8523 64.7119 68.4361 66.3189 68.5004 68.2217Z" fill="#976E6E"/>
<path d="M60.0327 81.5152C60.393 84.4079 66.5572 88.7791 77.7918 86.5806C89.3866 84.3179 91.1111 77.2597 90.9309 75.537C90.7507 73.8142 84.8568 72.9143 74.8062 74.637C66.9176 75.987 59.7367 79.201 60.0327 81.5152Z" fill="#CE4D5E"/>
<path d="M63.9519 18.2669C63.9519 18.2669 60.4812 20.2827 57.8857 23.1456C55.7484 25.4984 54.0814 28.6663 54.0814 28.6663L56.3651 34.7827L58.5657 35.7009L64.5066 26.7671C64.5066 26.7671 64.8674 23.6174 64.7553 21.5516C64.7004 20.4864 64.5517 19.4678 64.5517 19.4678L63.9519 18.2669ZM67.3292 18.2376C67.3292 18.2376 68.8728 20.9926 69.4612 22.0908C70.1279 23.3311 71.3088 25.3225 71.3088 25.3225L80.3993 28.808L81.8434 22.3799C81.8434 22.3799 79.6888 20.7744 78.5377 19.9415C77.3866 19.1086 71.5074 16.946 71.5074 16.946L67.3292 18.2376Z" fill="#9071ED"/>
<path d="M51.7038 39.5422C51.7038 39.5422 51.3439 37.0418 52.4482 33.0522C53.5524 29.0625 54.3783 28.2051 54.3783 28.2051C54.3783 28.2051 55.4643 27.6395 56.4566 27.2526C57.5276 26.8342 58.4753 26.7003 58.4753 26.7003C58.4753 26.7003 57.518 28.7501 57.1511 30.5841C56.7843 32.4182 56.6959 34.0863 57.3509 34.239C58.0024 34.3925 58.111 32.1568 58.8624 29.9523C59.651 27.6288 60.3919 26.3969 60.3919 26.3969C60.3919 26.3969 61.3923 26.174 62.5063 26.2164C63.7383 26.2624 64.522 26.6801 64.522 26.6801C64.522 26.6801 63.8916 32.6879 63.5887 36.151C63.2858 39.6141 62.7537 44.2418 62.3995 44.495C62.0453 44.7483 61.0472 43.7025 60.3733 42.8452C59.6995 41.9879 56.9277 37.2197 56.8593 37.3354C56.7908 37.4511 51.7038 39.5422 51.7038 39.5422ZM71.2989 25.2986C71.2989 25.2986 72.0344 24.4719 72.6981 24.0412C73.3626 23.6139 74.5961 23.0783 74.5961 23.0783C74.5961 23.0783 75.7566 24.3881 76.624 25.2636C77.4941 26.1347 79.0238 27.9988 79.5798 27.5315C80.1367 27.0677 78.7716 25.1387 78.0571 24.3144C77.4071 23.5643 76.3562 22.5924 76.3562 22.5924C76.3562 22.5924 77.2643 22.2309 79.0721 22.1215C80.8834 22.0112 81.846 22.3755 81.846 22.3755C81.846 22.3755 84.049 24.3309 85.2782 25.5551C86.9147 27.188 89.1878 30.0916 89.1878 30.0916L82.9954 32.2325L81.6054 40.0016C81.6054 40.0016 81.1733 40.1428 80.8905 40.0569C80.6104 39.9665 78.658 37.1202 77.5642 35.4385C75.842 32.7822 71.2989 25.2986 71.2989 25.2986Z" fill="#BCABEF"/>
<path d="M82.4755 31.7244C82.2893 32.0138 81.4348 38.4868 81.4085 38.6784C81.2749 39.6714 80.828 40.005 80.828 40.005C80.828 40.005 81.4153 40.5109 82.0871 40.112C82.6051 39.8054 83.6479 32.816 83.6479 32.816C83.6479 32.816 88.4756 31.6256 89.0989 31.141C89.7981 30.5991 89.1726 30.0766 89.1726 30.0766C89.1726 30.0766 82.7232 31.3363 82.4755 31.7244ZM51.6798 39.4049C51.6798 39.4049 53.0379 38.7807 54.2598 38.0971C55.4817 37.4136 57.0348 36.4902 57.0348 36.4902C57.0348 36.4902 59.2908 39.768 60.0001 40.8804C60.7094 41.9928 62.4426 44.4425 62.4426 44.4425C62.4426 44.4425 62.1174 45.043 61.366 44.8095C60.6635 44.5898 58.6814 41.687 58.1581 40.9156C57.4914 39.9394 56.5739 38.4729 56.5739 38.4729C56.5739 38.4729 55.3165 39.2826 54.2256 39.7854C53.1348 40.2881 52.3979 40.6396 52.0148 40.4134C51.6326 40.1907 51.6798 39.4049 51.6798 39.4049ZM57.0788 11.9175L50.0718 11.9201L46.3969 16.8867L46.8371 26.5862L48.3449 28.0861C48.3449 28.0861 49.71 28.664 52.7366 27.1246C55.7622 25.5816 62.2949 20.9304 62.2949 20.9304C62.2949 20.9304 63.3181 21.0753 64.1765 20.9756C65.0348 20.876 66.3722 20.2156 66.3722 20.2156C66.3722 20.2156 68.2258 20.0492 69.2663 19.7028C70.3031 19.3573 70.7276 19.1276 70.7276 19.1276C70.7276 19.1276 74.6793 20.083 78.4043 20.172C82.1294 20.261 84.8693 19.7953 85.457 19.5689C86.3705 19.2136 86.4161 17.5111 86.4161 17.5111L85.1435 14.1355L77.2872 4.56632L67.5253 10.292L67.0688 11.1753L64.1152 11.1336L60.559 12.8317L59.9456 12.4004L57.0788 11.9175Z" fill="#9071ED"/>
<path d="M60.3959 12.7263C60.3959 12.7263 60.4807 11.3233 63.631 10.5144C66.5687 9.76015 67.2643 10.8194 67.2643 10.8194C67.2643 10.8194 68.3028 13.2701 68.5238 15.5684C68.7237 17.623 68.1596 19.968 68.1596 19.968C68.1596 19.968 67.4796 20.3351 66.3645 20.6554C65.3122 20.9558 64.1171 20.9796 64.1171 20.9796C64.1171 20.9796 62.6651 19.4767 61.6751 17.3759C60.7211 15.3413 60.3959 12.7263 60.3959 12.7263Z" fill="#BCABEF"/>
<path d="M63.3431 16.3853C63.9765 16.3509 63.9041 14.6448 64.1694 14.1049C64.5871 13.2617 66.0321 13.0342 65.7696 12.1165C65.5643 11.3918 62.7917 11.7451 62.1722 13.3459C61.742 14.464 62.3336 16.4407 63.3431 16.3853Z" fill="white"/>
<path d="M67.5218 10.2929C67.5218 10.2929 68.0479 10.6786 68.6281 11.4656C69.0561 12.0426 69.5818 12.9115 69.5818 12.9115C69.5818 12.9115 70.5935 11.4403 71.5513 10.5377C72.5055 9.63601 77.3391 6.3834 78.1394 8.92165C78.7875 10.9857 74.8573 11.9495 73.2104 13.1687C72.0517 14.0247 70.5455 15.4682 70.5455 15.4682L71.0938 17.5994C71.0938 17.5994 72.1774 18.2873 74.2117 17.9424C76.2461 17.5974 81.337 16.2262 82.3543 16.0103C84.4714 15.561 85.4462 16.3109 85.7331 17.426C86.0191 18.5377 85.7432 19.0953 85.9117 19.2068C86.131 19.3543 86.8268 18.4322 86.8381 16.5083C86.8494 14.5844 86.3483 11.1239 85.4643 8.27507C84.4207 4.90862 82.5735 0.51816 80.8311 0.0597438C79.0888 -0.398672 74.9365 1.87514 72.6153 3.65995C68.7109 6.66265 67.5218 10.2929 67.5218 10.2929ZM59.4806 15.3654C59.4806 15.3654 59.4278 14.4845 59.5649 13.7398C59.672 13.1575 59.9501 12.403 59.9501 12.403C59.9501 12.403 58.5537 10.4405 55.0198 9.46461C51.4859 8.4887 44.6884 8.76212 42.837 10.0678C41.9157 10.7157 41.6 13.5857 42.3207 17.6352C42.949 21.1498 44.3511 25.1903 45.9627 26.9466C47.1756 28.2693 49.5455 28.8761 50.0141 28.084C50.2432 27.6969 47.6152 27.2318 49.4958 25.2469C50.5869 24.0988 53.0927 23.5308 55.2144 22.8351C57.336 22.1394 58.2847 22.0091 59.3458 21.4347C60.4069 20.8603 61.0028 20.2545 61.0028 20.2545C61.0028 20.2545 60.5093 19.4377 60.3469 19.0265C60.1231 18.465 59.955 18.0024 59.955 18.0024C59.955 18.0024 59.0989 17.7731 57.052 17.9515C55.0449 18.1234 51.9022 19.0058 51.3115 16.9005C50.56 14.229 53.8373 14.1046 55.4405 14.3308C57.0438 14.5569 59.2579 15.2339 59.4806 15.3654Z" fill="#BCABEF"/>
<path d="M35.7181 147.42C35.7141 147.351 35.7143 147.289 35.7051 147.233L35.6773 147.086C35.643 146.911 35.617 146.813 35.617 146.813C35.6058 146.771 35.5858 146.732 35.5585 146.698C35.5311 146.664 35.497 146.636 35.4582 146.616C35.4194 146.596 35.3768 146.584 35.3332 146.581C35.2896 146.579 35.246 146.585 35.2051 146.601C35.2051 146.601 35.1104 146.636 34.9473 146.71C34.7785 146.799 34.561 146.857 34.2911 146.951C33.9886 147.05 33.6797 147.129 33.3666 147.186C33.0305 147.248 32.6752 147.283 32.3101 147.294C31.9436 147.305 31.569 147.298 31.1692 147.283C30.7422 147.266 30.315 147.252 29.8877 147.242C29.3951 147.228 28.9024 147.228 28.4098 147.241C27.8842 147.256 27.3195 147.287 26.7271 147.351C26.1332 147.412 25.5078 147.508 24.8567 147.662C24.2055 147.818 23.5284 148.03 22.8396 148.341C22.1728 148.642 21.4902 149.042 20.8684 149.57V140.174C20.8684 138.941 19.8676 137.941 18.6331 137.941C17.3986 137.941 16.3979 138.941 16.3979 140.174V149.629L16.3955 149.626C15.7624 149.073 15.0602 148.656 14.3757 148.345C13.6879 148.033 13.0119 147.82 12.3625 147.663C11.7132 147.509 11.0901 147.413 10.4988 147.351C9.9091 147.287 9.34701 147.256 8.82479 147.241C8.33545 147.228 7.84585 147.228 7.35652 147.241C6.8998 147.252 6.48356 147.267 6.08387 147.283C5.6872 147.297 5.31405 147.305 4.94918 147.293C4.58542 147.282 4.23105 147.246 3.89585 147.184C3.58351 147.127 3.27536 147.048 2.97343 146.95C2.70434 146.856 2.48674 146.798 2.31828 146.709C2.15547 146.636 2.0609 146.601 2.0609 146.601C2.01999 146.586 1.97637 146.579 1.93282 146.582C1.88926 146.585 1.84674 146.596 1.80797 146.616C1.76919 146.636 1.73503 146.664 1.70765 146.698C1.68028 146.732 1.6603 146.771 1.649 146.813C1.649 146.813 1.62285 146.911 1.58823 147.086L1.56017 147.232C1.55059 147.287 1.55089 147.35 1.54655 147.418L1.53938 147.642C1.53878 147.724 1.54403 147.8 1.54766 147.888C1.55614 148.239 1.6279 148.659 1.78344 149.134C1.94019 149.606 2.19605 150.126 2.56153 150.633C2.92529 151.14 3.39634 151.634 3.93552 152.067C4.47319 152.499 5.07878 152.876 5.70073 153.183C6.32318 153.496 6.96682 153.742 7.59705 153.938C8.23009 154.136 8.84851 154.282 9.43876 154.396C9.72349 154.452 10.0095 154.501 10.2965 154.544C10.5708 154.585 10.8389 154.619 11.0916 154.646C11.5975 154.7 12.0536 154.731 12.437 154.743C12.8229 154.754 13.1309 154.745 13.3814 154.713C13.6313 154.684 13.8346 154.623 14.0678 154.608C14.3028 154.588 14.5625 154.643 14.8227 154.766C15.0811 154.889 15.3277 155.07 15.5328 155.248C15.7397 155.425 15.9084 155.595 16.0285 155.715C16.1468 155.836 16.2212 155.906 16.2212 155.906L16.2805 155.961L16.2922 155.972C16.3256 156.001 16.3611 156.027 16.3977 156.05V157.767C16.3977 159 17.3985 160 18.633 160C19.8675 160 20.8682 159 20.8682 157.767V155.983C20.8777 155.975 20.8875 155.967 20.8966 155.959L20.9534 155.906C20.9534 155.906 21.0278 155.836 21.1461 155.715C21.2663 155.594 21.4351 155.424 21.6425 155.247C21.848 155.068 22.0947 154.888 22.3538 154.767C22.6139 154.644 22.8744 154.592 23.1096 154.613C23.3432 154.628 23.5486 154.688 23.8032 154.716C24.0573 154.746 24.3707 154.755 24.7611 154.743C25.1488 154.731 25.6089 154.701 26.1183 154.647C26.3726 154.62 26.6424 154.586 26.9181 154.544C27.1977 154.504 27.4839 154.454 27.78 154.397C28.3727 154.283 28.9936 154.137 29.6286 153.94C30.261 153.744 30.9063 153.499 31.5309 153.187C32.1546 152.881 32.7626 152.505 33.3029 152.074C33.8447 151.643 34.3191 151.149 34.6862 150.642C35.0551 150.135 35.3144 149.615 35.4738 149.141C35.6323 148.665 35.7056 148.244 35.7155 147.892C35.7195 147.804 35.7249 147.728 35.7247 147.645C35.7235 147.57 35.7213 147.495 35.7181 147.42Z" fill="#89C98B"/>
<path d="M36.6417 126.447C36.6417 126.447 36.501 126.332 36.2371 126.146C36.0781 126.032 35.9161 125.922 35.7513 125.816C35.5357 125.673 35.3165 125.535 35.0941 125.402C34.6757 125.151 34.1805 124.875 33.6207 124.592C34.0174 124.106 34.3582 123.653 34.6386 123.254C34.7881 123.043 34.9324 122.828 35.0713 122.61C35.1789 122.446 35.2823 122.28 35.3814 122.111C35.5471 121.834 35.6288 121.672 35.6288 121.672C35.6763 121.576 35.72 121.466 35.7495 121.359C36.0001 120.451 35.4668 119.513 34.5583 119.262C34.5583 119.262 34.3829 119.214 34.0663 119.151C33.8745 119.111 33.6818 119.076 33.4882 119.046C33.2329 119.003 32.9766 118.965 32.7194 118.934C32.4005 118.895 32.0459 118.859 31.6628 118.83C31.765 118.492 31.8593 118.151 31.9454 117.808C32.0089 117.557 32.0662 117.305 32.1172 117.051C32.1588 116.86 32.1955 116.667 32.2273 116.474C32.2822 116.157 32.3002 115.976 32.3002 115.976C32.3101 115.869 32.3111 115.751 32.3002 115.64C32.2074 114.703 31.372 114.019 30.4341 114.111C30.4341 114.111 30.2531 114.129 29.9349 114.184C29.7416 114.216 29.5492 114.253 29.3579 114.294C29.1328 114.34 28.878 114.396 28.6002 114.466C28.1265 114.584 27.5814 114.739 26.9849 114.934C26.9215 114.31 26.8421 113.749 26.7579 113.269C26.7094 112.987 26.6574 112.732 26.6076 112.508C26.5681 112.316 26.5236 112.126 26.4741 111.936C26.3953 111.623 26.3382 111.451 26.3382 111.451C26.3024 111.345 26.2568 111.242 26.202 111.144C25.7368 110.326 24.6953 110.039 23.8757 110.503C23.8757 110.503 23.7175 110.593 23.449 110.772C23.2852 110.879 23.1242 110.991 22.9662 111.107C22.7549 111.256 22.5472 111.411 22.3434 111.57C22.0644 111.788 21.7907 112.013 21.5225 112.243C21.3552 111.932 21.1805 111.624 20.9986 111.321C20.8659 111.098 20.7277 110.879 20.5842 110.664C20.4784 110.499 20.3683 110.338 20.2541 110.179C20.068 109.915 19.9526 109.774 19.9526 109.774C19.881 109.688 19.8015 109.609 19.7152 109.537C18.9865 108.94 17.9113 109.046 17.3137 109.774C17.3137 109.774 17.1983 109.915 17.0122 110.179C16.898 110.338 16.7879 110.499 16.6821 110.664C16.5386 110.879 16.4005 111.098 16.2677 111.321C16.016 111.739 15.74 112.234 15.4562 112.794C14.9698 112.397 14.5167 112.057 14.1171 111.776C13.9056 111.627 13.6906 111.483 13.4721 111.344C13.3086 111.236 13.1424 111.133 12.9735 111.034C12.6966 110.868 12.5342 110.787 12.5342 110.787C12.4332 110.736 12.3278 110.696 12.2192 110.665C11.3111 110.416 10.3721 110.949 10.1221 111.856C10.1221 111.856 10.0738 112.031 10.0108 112.347C9.97875 112.506 9.94019 112.701 9.90648 112.925C9.86292 113.18 9.82567 113.436 9.79475 113.693C9.75165 114.044 9.71699 114.397 9.69079 114.75C9.35133 114.647 9.00948 114.553 8.66552 114.467C8.41447 114.403 8.16189 114.346 7.90802 114.295C7.71675 114.253 7.52445 114.216 7.33129 114.185C7.01325 114.13 6.83228 114.112 6.83228 114.112C6.72005 114.101 6.60709 114.101 6.49486 114.112C5.5575 114.205 4.87308 115.039 4.96634 115.976C4.96634 115.976 4.98431 116.157 5.03942 116.474C5.06647 116.634 5.10058 116.829 5.14974 117.05C5.19516 117.275 5.25137 117.53 5.32183 117.807C5.44012 118.281 5.59566 118.826 5.79157 119.423C5.16619 119.486 4.6042 119.565 4.12285 119.649C3.84034 119.698 3.58478 119.75 3.36071 119.799C3.13846 119.844 2.94557 119.892 2.78883 119.932C2.47583 120.011 2.30314 120.068 2.30314 120.068C2.1963 120.104 2.09304 120.149 1.99469 120.205C1.17572 120.669 0.889074 121.71 1.35447 122.528C1.35447 122.528 1.4443 122.686 1.62366 122.954C1.73106 123.118 1.8427 123.278 1.95845 123.436C2.10817 123.647 2.26305 123.854 2.42295 124.058C2.62087 124.312 2.84686 124.588 3.09788 124.879C2.78529 125.046 2.47672 125.221 2.17243 125.403C1.95001 125.536 1.73086 125.673 1.51516 125.817C1.35043 125.922 1.18844 126.032 1.02937 126.146C0.765533 126.332 0.624834 126.447 0.624834 126.447C0.538069 126.519 0.45819 126.599 0.38623 126.685C-0.210685 127.413 -0.103899 128.487 0.624834 129.083C0.624834 129.083 0.765533 129.198 1.02937 129.384C1.16129 129.478 1.32399 129.592 1.51516 129.714C1.73083 129.857 1.94999 129.995 2.17243 130.127C2.5914 130.379 3.08738 130.654 3.64827 130.938C3.25079 131.424 2.90934 131.877 2.62854 132.277C2.47899 132.488 2.33465 132.703 2.19565 132.921C2.08796 133.085 1.9845 133.251 1.88538 133.419C1.71965 133.696 1.63789 133.858 1.63789 133.858C1.58777 133.959 1.54715 134.065 1.51657 134.173C1.26656 135.08 1.80009 136.018 2.70838 136.268C2.70838 136.268 2.8837 136.316 3.20023 136.379C3.35879 136.411 3.55389 136.45 3.77806 136.484C4.00435 136.522 4.26224 136.561 4.54677 136.595C4.89871 136.638 5.25164 136.673 5.60524 136.699C5.5026 137.038 5.40807 137.38 5.32172 137.723C5.25814 137.974 5.20076 138.226 5.14964 138.48C5.10792 138.671 5.07113 138.863 5.03932 139.056C4.98431 139.374 4.96624 139.555 4.96624 139.555C4.95577 139.667 4.95577 139.78 4.96624 139.892C5.0594 140.828 5.89482 141.512 6.83228 141.419C6.83228 141.419 7.01325 141.401 7.33129 141.346C7.49076 141.319 7.68667 141.285 7.90802 141.236C8.1331 141.19 8.38775 141.134 8.66552 141.064C9.1397 140.946 9.68554 140.79 10.2829 140.594C10.346 141.219 10.4254 141.781 10.5096 142.262C10.5533 142.517 10.6033 142.771 10.6595 143.023C10.7045 143.245 10.7527 143.438 10.7927 143.595C10.8713 143.907 10.9283 144.08 10.9283 144.08C10.9643 144.186 11.0101 144.29 11.0652 144.388C11.5306 145.206 12.5718 145.492 13.3909 145.027C13.3909 145.027 13.549 144.938 13.8173 144.759C13.981 144.651 14.1418 144.54 14.2998 144.424C14.5111 144.274 14.7187 144.12 14.9223 143.96C15.2017 143.742 15.4758 143.517 15.7444 143.286C15.9118 143.598 16.0867 143.906 16.2688 144.21C16.4014 144.432 16.5394 144.651 16.6827 144.867C16.7884 145.031 16.8984 145.193 17.0125 145.352C17.1984 145.616 17.3137 145.756 17.3137 145.756C17.3857 145.843 17.4655 145.922 17.5523 145.994C18.281 146.591 19.3557 146.484 19.9526 145.756C19.9526 145.756 20.0679 145.615 20.2538 145.352C20.3679 145.193 20.4779 145.031 20.5836 144.867C20.7269 144.651 20.865 144.432 20.9975 144.21C21.249 143.792 21.5247 143.297 21.8082 142.737C22.295 143.134 22.7485 143.475 23.1484 143.755C23.3599 143.904 23.5751 144.048 23.7938 144.187C23.9574 144.295 24.1237 144.398 24.2926 144.497C24.5696 144.663 24.7322 144.744 24.7322 144.744C24.8283 144.792 24.9383 144.835 25.0455 144.865C25.954 145.115 26.8937 144.582 27.1443 143.675C27.1443 143.675 27.1927 143.5 27.2558 143.183C27.288 143.025 27.3265 142.83 27.3604 142.606C27.3991 142.38 27.4382 142.122 27.4725 141.838C27.512 141.519 27.5477 141.165 27.5766 140.782C27.9154 140.884 28.2567 140.978 28.6 141.064C28.8778 141.135 29.1326 141.191 29.3577 141.236C29.5791 141.285 29.775 141.319 29.9347 141.346C30.2528 141.401 30.4339 141.419 30.4339 141.419C30.5406 141.428 30.6591 141.43 30.7696 141.419C31.7075 141.326 32.3926 140.491 32.2999 139.554C32.2999 139.554 32.282 139.374 32.227 139.056C32.1953 138.863 32.1586 138.67 32.1169 138.479C32.0658 138.226 32.0086 137.973 31.9451 137.722C31.8271 137.249 31.672 136.704 31.4766 136.109C32.101 136.045 32.6623 135.966 33.1431 135.882C33.4257 135.833 33.6813 135.782 33.9055 135.732C34.1278 135.687 34.3207 135.638 34.4775 135.598C34.7906 135.52 34.9633 135.463 34.9633 135.463C35.0695 135.427 35.1722 135.381 35.2701 135.326C36.0897 134.862 36.377 133.821 35.9118 133.002C35.9118 133.002 35.822 132.844 35.6427 132.576C35.5354 132.412 35.4238 132.252 35.308 132.094C35.1584 131.883 35.0035 131.675 34.8437 131.472C34.6257 131.193 34.4011 130.919 34.1701 130.651C34.4821 130.484 34.79 130.31 35.0937 130.128C35.3161 129.996 35.5353 129.858 35.7509 129.714C35.9157 129.609 36.0777 129.499 36.2367 129.384C36.5006 129.198 36.6413 129.083 36.6413 129.083C36.7276 129.012 36.807 128.932 36.8787 128.846C37.4767 128.118 37.3704 127.044 36.6417 126.447Z" fill="#FCAE41"/>
<path d="M18.633 137.313C23.911 137.313 28.1897 133.038 28.1897 127.765C28.1897 122.492 23.911 118.218 18.633 118.218C13.355 118.218 9.07631 122.492 9.07631 127.765C9.07631 133.038 13.355 137.313 18.633 137.313Z" fill="#AC8561"/>
<path d="M22.7452 33.5231C16.9054 30.7119 13.4058 37.7906 15.0086 40.4511C12.1205 38.7689 5.22798 42.0353 7.71536 47.8435C10.4899 54.3142 23.2555 50.3295 24.5403 50.4355C24.6182 49.2774 29.0097 36.5208 22.7452 33.5231Z" fill="#CE4D5E"/>
</svg>
