<svg width="94" height="93" viewBox="0 0 94 93" fill="none" xmlns="http://www.w3.org/2000/svg">
<path d="M80.9891 53.4219C78.7001 53.3281 81.8719 28.5703 81.8719 28.5703C81.8719 28.5703 82.4891 28.5391 83.4422 28.625C79.5985 12.5234 66.6844 0 46.7157 0C26.3094 0 15.4891 12.5391 11.6532 28.0547C11.9969 28.0391 12.1922 28.0469 12.1922 28.0469C12.1922 28.0469 16.075 53.8594 13.3172 53.5C12.8875 53.4453 12.2704 53.3594 11.5204 53.2031C15.3407 66.2344 26.6454 73.8906 47.6688 73.9531C66.8641 74.0156 78.2313 66.2031 82.5985 53.2969C81.9032 53.4062 81.3485 53.4375 80.9891 53.4219ZM70.3563 54.8047C67.161 60.9297 58.0985 65.2734 47.2235 65.0781C33.2391 64.8203 24.6766 60.6797 22.3485 53.7734C20.075 47.0469 24.9579 43.3281 24.7001 38.1562C24.4422 32.9766 19.4344 24.7812 26.1063 19.8594C35.8016 12.7031 40.0204 22.3984 46.7547 22.1875C53.0985 21.9922 59.9735 13.2813 67.5985 20.2422C74.5907 26.625 69.0672 32.5391 69.2391 38.5781C69.3797 43.5859 74.3172 47.2031 70.3563 54.8047Z" fill="#678EB4"/>
<path d="M67.5907 20.2422C59.9735 13.2812 53.0907 21.9922 46.7469 22.1875C40.0126 22.3906 35.7938 12.7031 26.0985 19.8594C19.4344 24.7812 24.4344 32.9766 24.6922 38.1562C24.95 43.3359 20.0672 47.0469 22.3407 53.7734C24.6688 60.6797 33.2391 64.8203 47.2157 65.0781C58.0907 65.2812 67.1532 60.9375 70.3485 54.8047C74.3094 47.2031 69.3719 43.5859 69.2235 38.5781C69.0594 32.5391 74.5829 26.625 67.5907 20.2422ZM53.5204 33.6406C53.7391 30.7656 55.6532 28.0391 58.7079 28.3359C61.1141 28.5703 62.6219 30.4453 62.536 33.8125C62.4266 38.1719 59.7313 39.5625 57.3251 39.3828C54.9188 39.2031 53.3094 36.5156 53.5204 33.6406ZM47.1063 39.1719C50.4032 39.2344 51.6141 39.2422 51.5047 40.8906C51.4422 41.9297 49.3016 43.9922 47.2313 44.0312C45.4813 44.0625 42.8954 42.3125 42.7313 40.7969C42.5594 39.0781 43.8719 39.1094 47.1063 39.1719ZM34.7704 28.5938C37.3172 28.3906 39.6454 29.8125 40.0047 33.3984C40.3876 37.1797 38.2938 39.7188 35.7469 39.9766C33.2079 40.2344 30.8875 37.9609 30.575 34.8984C30.2704 31.8359 31.536 28.8516 34.7704 28.5938ZM63.0204 51.1797C62.8485 54.4609 57.2391 58.3828 47.0126 58.2969C36.3094 58.2031 30.9188 54.5391 30.786 51.3906C30.661 48.2812 37.8172 46.3672 46.6219 46.4688C60.7313 46.6484 63.1454 48.8516 63.0204 51.1797Z" fill="#FFE4BE"/>
<path d="M35.7547 39.9766C38.2938 39.7188 40.3954 37.1797 40.0126 33.3984C39.6454 29.8125 37.3251 28.3906 34.7782 28.5938C31.5438 28.8516 30.2782 31.8359 30.5907 34.8984C30.8954 37.9609 33.2079 40.2344 35.7547 39.9766ZM57.3172 39.3906C59.7235 39.5703 62.4188 38.1797 62.5282 33.8203C62.6141 30.4453 61.1063 28.5703 58.7079 28.3359C55.6532 28.0391 53.7391 30.7656 53.5204 33.6406C53.3094 36.5156 54.911 39.2109 57.3172 39.3906ZM47.2391 44.0313C49.3094 43.9922 51.4501 41.9297 51.5126 40.8906C51.6141 39.2422 50.411 39.2422 47.1141 39.1719C43.8797 39.1094 42.5594 39.0781 42.7469 40.7891C42.9032 42.3125 45.4891 44.0625 47.2391 44.0313Z" fill="#393531"/>
<path d="M46.6219 46.4766C37.8172 46.3672 30.661 48.2891 30.786 51.3984C30.9188 54.5469 36.3094 58.2109 47.0126 58.3047C57.2391 58.3906 62.8485 54.4609 63.0204 51.1875C63.1454 48.8516 60.7313 46.6484 46.6219 46.4766Z" fill="#CE4D5E"/>
<path d="M93.825 39.9453C93.9579 30.6328 86.7079 28.9219 83.4344 28.625C83.8172 30.2266 84.1141 31.8594 84.3094 33.5156C86.5438 33.9062 89.9266 35.4687 89.7704 40.3906C89.6219 45.0703 86.0438 47.3203 83.9422 47.9297C83.6063 49.8047 83.1532 51.6016 82.5751 53.3047C86.2704 52.7734 93.6766 50.0859 93.825 39.9453Z" fill="#678EB4"/>
<path d="M82.5282 48.0312C82.1219 47.7656 82.5438 45.0078 82.6141 41.1719C82.6766 37.6016 82.1922 33.6562 82.4422 33.4922C82.5829 33.3984 83.3407 33.3516 84.3172 33.5234C84.1184 31.878 83.8263 30.2451 83.4422 28.6328C82.4891 28.5469 81.8719 28.5781 81.8719 28.5781C81.8719 28.5781 78.7079 53.3359 80.9891 53.4297C81.3485 53.4453 81.9032 53.4219 82.5907 53.3203C83.1688 51.6172 83.6219 49.8203 83.9579 47.9453C83.2547 48.1328 82.7157 48.1562 82.5282 48.0312ZM3.98911 39.9609C3.98911 33.5781 9.43442 32.8125 10.6532 33.1172C10.9032 31.4062 11.2391 29.7188 11.6454 28.0625C9.34067 28.1641 0.387549 29.2266 0.0125487 39.5781C-0.354639 49.625 7.42661 52.3828 11.5047 53.2188C11.0125 51.5391 10.6454 49.7734 10.3954 47.9141C8.2938 47.4688 3.98911 45.5156 3.98911 39.9609Z" fill="#678EB4"/>
<path d="M12.1844 28.0469C12.1844 28.0469 11.9891 28.0391 11.6454 28.0547C11.2343 29.7228 10.9032 31.4096 10.6532 33.1094C10.7704 33.1406 10.8641 33.1719 10.8954 33.2188C10.9891 33.3594 10.8719 36.7812 11.0672 40.2969C11.2782 44.0312 11.8016 47.8672 11.4969 47.9766C11.3563 48.0312 10.95 48.0078 10.4032 47.8984C10.6532 49.75 11.0204 51.5234 11.5125 53.2031C12.2625 53.3516 12.8797 53.4453 13.3094 53.5C16.0672 53.8672 12.1844 28.0469 12.1844 28.0469Z" fill="#678EB4"/>
<path d="M3.98911 39.9609C3.98911 45.5156 8.2938 47.4688 10.4032 47.9062C10.0047 44.9219 9.91099 41.7188 10.1141 38.3203C10.2157 36.5703 10.3954 34.8359 10.6532 33.1172C9.43442 32.8125 3.98911 33.5781 3.98911 39.9609Z" fill="#FFE4BE"/>
<path d="M10.4032 47.9062C10.95 48.0156 11.3563 48.0391 11.4969 47.9844C11.8016 47.8672 11.2782 44.0391 11.0672 40.3047C10.8641 36.7891 10.9891 33.3672 10.8954 33.2266C10.8641 33.1797 10.7704 33.1484 10.6532 33.1172C10.4032 34.8359 10.2157 36.5703 10.1141 38.3203C9.91099 41.7266 10.0047 44.9219 10.4032 47.9062ZM83.95 47.9375C86.0516 47.3281 89.6297 45.0781 89.7782 40.3984C89.9344 35.4766 86.5438 33.9141 84.3172 33.5234C84.4501 34.625 84.5516 35.7344 84.5985 36.8594C84.7782 40.7969 84.5594 44.5 83.95 47.9375Z" fill="#FFE4BE"/>
<path d="M82.4422 33.4844C82.1922 33.6484 82.6766 37.5937 82.6141 41.1641C82.5438 45.0078 82.1219 47.7578 82.5282 48.0234C82.7235 48.1484 83.2547 48.1328 83.9501 47.9297C84.5594 44.5 84.7782 40.7969 84.5985 36.8516C84.5438 35.7266 84.4501 34.6172 84.3172 33.5156C83.3329 33.3438 82.5751 33.3906 82.4422 33.4844Z" fill="#FFE4BE"/>
<path d="M46.3799 75.1742C46.3799 75.1742 43.8032 75.9761 41.6773 77.46C39.9273 78.6789 38.3668 80.4991 38.3668 80.4991L38.9697 84.827L40.2812 85.7514L45.4967 80.8016C45.4967 80.8016 46.1962 78.8001 46.4258 77.4359C46.546 76.7328 46.5978 76.0463 46.5978 76.0463L46.3799 75.1742ZM48.6037 75.6544C48.6037 75.6544 49.2137 77.68 49.4392 78.4834C49.6953 79.3912 50.1791 80.8649 50.1791 80.8649L55.6415 84.483L57.5341 80.5029C57.5341 80.5029 56.3538 79.1369 55.7196 78.4233C55.0853 77.7098 51.5391 75.4296 51.5391 75.4296L48.6037 75.6544Z" fill="#AF3747"/>
<path d="M35.2078 87.2428C35.2078 87.2428 35.3383 85.5584 36.6497 83.1189C37.961 80.6794 38.6296 80.2421 38.6296 80.2421C38.6296 80.2421 39.4263 80.0337 40.1352 79.928C40.9004 79.8134 41.5429 79.8662 41.5429 79.8662C41.5429 79.8662 40.6129 81.0619 40.1026 82.2042C39.5924 83.3464 39.2894 84.4216 39.6975 84.6181C40.1031 84.8146 40.5026 83.3721 41.3199 82.045C42.1793 80.6458 42.847 79.9517 42.847 79.9517C42.847 79.9517 43.5372 79.9542 44.263 80.1465C45.0659 80.3587 45.5196 80.7471 45.5196 80.7471C45.5196 80.7471 44.2235 84.5733 43.5161 86.7878C42.8087 89.0023 41.7797 91.9427 41.5098 92.0555C41.2399 92.1683 40.7374 91.3385 40.4204 90.6796C40.1034 90.0207 38.9818 86.5001 38.9199 86.5654C38.8579 86.6308 35.2078 87.2428 35.2078 87.2428ZM50.176 80.8479C50.176 80.8479 50.7808 80.4174 51.2801 80.2344C51.7795 80.054 52.6688 79.8869 52.6688 79.8869C52.6688 79.8869 53.2392 80.913 53.6807 81.6125C54.1246 82.3094 54.8563 83.7517 55.2903 83.529C55.7244 83.3088 55.1104 81.8485 54.7619 81.2051C54.4448 80.6196 53.8968 79.8302 53.8968 79.8302C53.8968 79.8302 54.5466 79.7287 55.7507 79.9246C56.9573 80.1205 57.5364 80.5004 57.5364 80.5004C57.5364 80.5004 58.6972 82.1019 59.3252 83.0823C60.161 84.3895 61.2287 86.6199 61.2287 86.6199L56.8449 87.101L54.791 91.9639C54.791 91.9639 54.4863 91.9921 54.3131 91.8942C54.1423 91.7939 53.277 89.6483 52.8051 88.3895C52.0632 86.4019 50.176 80.8479 50.176 80.8479Z" fill="#CE4D5E"/>
<path d="M56.5778 86.6926C56.413 86.8539 54.9013 90.9504 54.8559 91.0716C54.6223 91.6996 54.2797 91.8512 54.2797 91.8512C54.2797 91.8512 54.5913 92.268 55.0914 92.1071C55.4768 91.9837 57.1881 87.5781 57.1881 87.5781C57.1881 87.5781 60.5354 87.5153 61.0162 87.2914C61.5552 87.0413 61.2209 86.6079 61.2209 86.6079C61.2209 86.6079 56.7976 86.476 56.5778 86.6926ZM35.2122 87.1497C35.2122 87.1497 36.1963 86.9433 37.0997 86.678C38.003 86.4127 39.1592 86.04 39.1592 86.04C39.1592 86.04 40.1607 88.512 40.4636 89.3426C40.7664 90.1732 41.5459 92.0276 41.5459 92.0276C41.5459 92.0276 41.244 92.3713 40.7844 92.1078C40.355 91.8606 39.4785 89.6738 39.2479 89.0931C38.953 88.3577 38.5653 87.2654 38.5653 87.2654C38.5653 87.2654 37.6201 87.6077 36.8294 87.7744C36.0388 87.941 35.5029 88.0614 35.2844 87.8572C35.0659 87.6554 35.2122 87.1497 35.2122 87.1497ZM42.7951 70.0156L38.1899 68.9812L35.0458 71.678L33.9113 78.0709L34.6821 79.2724C34.6821 79.2724 35.4943 79.8512 37.7093 79.2945C39.9242 78.7352 44.9 76.6668 44.9 76.6668C44.9 76.6668 45.5512 76.9126 46.1299 76.9745C46.7086 77.0364 47.6845 76.8034 47.6845 76.8034C47.6845 76.8034 48.927 76.9688 49.6616 76.8967C50.3938 76.8246 50.7064 76.7375 50.7064 76.7375C50.7064 76.7375 53.1631 77.9451 55.5981 78.554C58.033 79.1628 59.902 79.2641 60.3215 79.2034C60.9739 79.1066 61.2538 78.0027 61.2538 78.0027L60.913 75.6123L57.1546 68.2079L49.8989 70.4998L49.4692 71.0086L47.5343 70.5446L44.948 71.1266L44.6082 70.7545L42.7951 70.0156Z" fill="#B73B4C"/>
<path d="M44.8563 71.0338C44.8563 71.0338 45.118 70.131 47.307 70.0691C49.3483 70.0114 49.65 70.8053 49.65 70.8053C49.65 70.8053 49.9727 72.5577 49.7806 74.0897C49.6103 75.4596 48.8954 76.9061 48.8954 76.9061C48.8954 76.9061 48.3947 77.0451 47.6148 77.0891C46.8792 77.1295 46.0903 76.9683 46.0903 76.9683C46.0903 76.9683 45.3567 75.7731 45.0145 74.2562C44.6861 72.7878 44.8563 71.0338 44.8563 71.0338Z" fill="#CE4D5E"/>
<path d="M46.2561 73.8566C46.6773 73.9278 46.8802 72.8041 47.1338 72.4911C47.5321 72.0028 48.5151 72.068 48.4773 71.4305C48.4487 70.9273 46.5748 70.7479 45.9327 71.7006C45.4859 72.3664 45.5845 73.7434 46.2561 73.8566Z" fill="#FCB4B9"/>
<path d="M49.8964 70.4999C49.8964 70.4999 50.1855 70.8293 50.4513 71.4285C50.6479 71.8682 50.8659 72.5128 50.8659 72.5128C50.8659 72.5128 51.7467 71.7026 52.5086 71.2554C53.2681 70.8082 56.922 69.401 57.0754 71.1752C57.1983 72.6176 54.474 72.6653 53.2127 73.2171C52.3256 73.6043 51.1239 74.3233 51.1239 74.3233L51.1714 75.7947C51.1714 75.7947 51.7825 76.4037 53.1701 76.4795C54.5576 76.5553 58.1045 76.4134 58.8048 76.423C60.262 76.443 60.7926 77.0763 60.8174 77.8462C60.8422 78.6137 60.5791 78.9368 60.6734 79.0344C60.7958 79.163 61.3885 78.6643 61.6783 77.4109C61.9681 76.1574 62.1468 73.8258 61.984 71.8365C61.7923 69.486 61.2229 66.3486 60.1451 65.7919C59.0674 65.2352 56.0048 66.1046 54.2174 66.9258C51.2108 68.3074 49.8964 70.4999 49.8964 70.4999ZM43.8674 72.6201C43.8674 72.6201 43.962 72.0376 44.1614 71.5721C44.3172 71.208 44.6108 70.7569 44.6108 70.7569C44.6108 70.7569 43.9812 69.2701 41.802 68.1109C39.6229 66.9517 35.1156 66.125 33.7072 66.703C33.0067 66.9895 32.378 68.8152 32.2571 71.5636C32.1542 73.9493 32.4825 76.7926 33.2838 78.1767C33.8867 79.219 35.3551 79.9653 35.7793 79.5178C35.9867 79.2991 34.3279 78.6072 35.8552 77.5903C36.7407 77.0026 38.4709 77.0026 39.9673 76.8624C41.4637 76.7223 42.1063 76.7775 42.8879 76.5597C43.6696 76.3419 44.1501 76.0348 44.1501 76.0348C44.1501 76.0348 43.9457 75.4289 43.8993 75.1366C43.8347 74.7372 43.7921 74.4106 43.7921 74.4106C43.7921 74.4106 43.2631 74.1344 41.8918 73.9481C40.5475 73.7635 38.3527 73.8745 38.2735 72.4137C38.1718 70.5597 40.3438 70.9631 41.3642 71.3477C42.3847 71.7324 43.7404 72.5014 43.8674 72.6201Z" fill="#CE4D5E"/>
</svg>
