<svg width="95" height="82" viewBox="0 0 95 82" fill="none" xmlns="http://www.w3.org/2000/svg">
<path d="M80.9891 53.4219C78.7001 53.3281 81.8719 28.5703 81.8719 28.5703C81.8719 28.5703 82.4891 28.5391 83.4422 28.625C79.5985 12.5234 66.6844 0 46.7157 0C26.3094 0 15.4891 12.5391 11.6532 28.0547C11.9969 28.0391 12.1922 28.0469 12.1922 28.0469C12.1922 28.0469 16.075 53.8594 13.3172 53.5C12.8875 53.4453 12.2704 53.3594 11.5204 53.2031C15.3407 66.2344 26.6454 73.8906 47.6688 73.9531C66.8641 74.0156 78.2313 66.2031 82.5985 53.2969C81.9032 53.4062 81.3485 53.4375 80.9891 53.4219ZM70.3563 54.8047C67.161 60.9297 58.0985 65.2734 47.2235 65.0781C33.2391 64.8203 24.6766 60.6797 22.3485 53.7734C20.075 47.0469 24.9579 43.3281 24.7001 38.1562C24.4422 32.9766 19.4344 24.7812 26.1063 19.8594C35.8016 12.7031 40.0204 22.3984 46.7547 22.1875C53.0985 21.9922 59.9735 13.2813 67.5985 20.2422C74.5907 26.625 69.0672 32.5391 69.2391 38.5781C69.3797 43.5859 74.3172 47.2031 70.3563 54.8047Z" fill="#69DEC7" fill-opacity="0.87"/>
<path d="M67.5907 20.2422C59.9735 13.2812 53.0907 21.9922 46.7469 22.1875C40.0126 22.3906 35.7938 12.7031 26.0985 19.8594C19.4344 24.7812 24.4344 32.9766 24.6922 38.1562C24.95 43.3359 20.0672 47.0469 22.3407 53.7734C24.6688 60.6797 33.2391 64.8203 47.2157 65.0781C58.0907 65.2812 67.1532 60.9375 70.3485 54.8047C74.3094 47.2031 69.3719 43.5859 69.2235 38.5781C69.0594 32.5391 74.5829 26.625 67.5907 20.2422ZM53.5204 33.6406C53.7391 30.7656 55.6532 28.0391 58.7079 28.3359C61.1141 28.5703 62.6219 30.4453 62.536 33.8125C62.4266 38.1719 59.7313 39.5625 57.3251 39.3828C54.9188 39.2031 53.3094 36.5156 53.5204 33.6406ZM47.1063 39.1719C50.4032 39.2344 51.6141 39.2422 51.5047 40.8906C51.4422 41.9297 49.3016 43.9922 47.2313 44.0312C45.4813 44.0625 42.8954 42.3125 42.7313 40.7969C42.5594 39.0781 43.8719 39.1094 47.1063 39.1719ZM34.7704 28.5938C37.3172 28.3906 39.6454 29.8125 40.0047 33.3984C40.3876 37.1797 38.2938 39.7188 35.7469 39.9766C33.2079 40.2344 30.8875 37.9609 30.575 34.8984C30.2704 31.8359 31.536 28.8516 34.7704 28.5938ZM63.0204 51.1797C62.8485 54.4609 57.2391 58.3828 47.0126 58.2969C36.3094 58.2031 30.9188 54.5391 30.786 51.3906C30.661 48.2812 37.8172 46.3672 46.6219 46.4688C60.7313 46.6484 63.1454 48.8516 63.0204 51.1797Z" fill="#FFE4BE"/>
<path d="M35.7547 39.9766C38.2938 39.7188 40.3954 37.1797 40.0126 33.3984C39.6454 29.8125 37.325 28.3906 34.7782 28.5938C31.5438 28.8516 30.2782 31.8359 30.5907 34.8984C30.8954 37.9609 33.2079 40.2344 35.7547 39.9766ZM57.3172 39.3906C59.7235 39.5703 62.4188 38.1797 62.5282 33.8203C62.6141 30.4453 61.1063 28.5703 58.7079 28.3359C55.6532 28.0391 53.7391 30.7656 53.5204 33.6406C53.3094 36.5156 54.911 39.2109 57.3172 39.3906ZM47.2391 44.0313C49.3094 43.9922 51.4501 41.9297 51.5126 40.8906C51.6141 39.2422 50.411 39.2422 47.1141 39.1719C43.8797 39.1094 42.5594 39.0781 42.7469 40.7891C42.9032 42.3125 45.4891 44.0625 47.2391 44.0313Z" fill="#393531"/>
<path d="M46.6219 46.4766C37.8172 46.3672 30.661 48.2891 30.786 51.3984C30.9188 54.5469 36.3094 58.2109 47.0126 58.3047C57.2391 58.3906 62.8485 54.4609 63.0204 51.1875C63.1454 48.8516 60.7313 46.6484 46.6219 46.4766Z" fill="#CE4D5E"/>
<path d="M93.825 39.9453C93.9579 30.6328 86.7079 28.9219 83.4344 28.625C83.8172 30.2266 84.1141 31.8594 84.3094 33.5156C86.5438 33.9062 89.9266 35.4687 89.7704 40.3906C89.6219 45.0703 86.0438 47.3203 83.9422 47.9297C83.6063 49.8047 83.1532 51.6016 82.5751 53.3047C86.2704 52.7734 93.6766 50.0859 93.825 39.9453Z" fill="#69DEC7" fill-opacity="0.87"/>
<path d="M82.5282 48.0312C82.1219 47.7656 82.5438 45.0078 82.6141 41.1719C82.6766 37.6016 82.1922 33.6562 82.4422 33.4922C82.5829 33.3984 83.3407 33.3516 84.3172 33.5234C84.1184 31.878 83.8263 30.2451 83.4422 28.6328C82.4891 28.5469 81.8719 28.5781 81.8719 28.5781C81.8719 28.5781 78.7079 53.3359 80.9891 53.4297C81.3485 53.4453 81.9032 53.4219 82.5907 53.3203C83.1688 51.6172 83.6219 49.8203 83.9579 47.9453C83.2547 48.1328 82.7157 48.1562 82.5282 48.0312ZM3.98911 39.9609C3.98911 33.5781 9.43442 32.8125 10.6532 33.1172C10.9032 31.4062 11.2391 29.7188 11.6454 28.0625C9.34067 28.1641 0.387549 29.2266 0.0125487 39.5781C-0.354639 49.625 7.42661 52.3828 11.5047 53.2188C11.0125 51.5391 10.6454 49.7734 10.3954 47.9141C8.2938 47.4688 3.98911 45.5156 3.98911 39.9609Z" fill="#69DEC7" fill-opacity="0.87"/>
<path d="M12.1844 28.0469C12.1844 28.0469 11.9891 28.0391 11.6454 28.0547C11.2343 29.7228 10.9032 31.4096 10.6532 33.1094C10.7704 33.1406 10.8641 33.1719 10.8954 33.2188C10.9891 33.3594 10.8719 36.7812 11.0672 40.2969C11.2782 44.0312 11.8016 47.8672 11.4969 47.9766C11.3563 48.0312 10.95 48.0078 10.4032 47.8984C10.6532 49.75 11.0204 51.5234 11.5125 53.2031C12.2625 53.3516 12.8797 53.4453 13.3094 53.5C16.0672 53.8672 12.1844 28.0469 12.1844 28.0469Z" fill="#69DEC7" fill-opacity="0.87"/>
<path d="M3.98911 39.9609C3.98911 45.5156 8.2938 47.4688 10.4032 47.9062C10.0047 44.9219 9.91099 41.7188 10.1141 38.3203C10.2157 36.5703 10.3954 34.8359 10.6532 33.1172C9.43442 32.8125 3.98911 33.5781 3.98911 39.9609Z" fill="#FFE4BE"/>
<path d="M10.4032 47.9062C10.95 48.0156 11.3563 48.0391 11.4969 47.9844C11.8016 47.8672 11.2782 44.0391 11.0672 40.3047C10.8641 36.7891 10.9891 33.3672 10.8954 33.2266C10.8641 33.1797 10.7704 33.1484 10.6532 33.1172C10.4032 34.8359 10.2157 36.5703 10.1141 38.3203C9.91099 41.7266 10.0047 44.9219 10.4032 47.9062ZM83.95 47.9375C86.0516 47.3281 89.6297 45.0781 89.7782 40.3984C89.9344 35.4766 86.5438 33.9141 84.3172 33.5234C84.4501 34.625 84.5516 35.7344 84.5985 36.8594C84.7782 40.7969 84.5594 44.5 83.95 47.9375Z" fill="#FFE4BE"/>
<path d="M82.4422 33.4844C82.1922 33.6484 82.6766 37.5937 82.6141 41.1641C82.5438 45.0078 82.1219 47.7578 82.5282 48.0234C82.7235 48.1484 83.2547 48.1328 83.9501 47.9297C84.5594 44.5 84.7782 40.7969 84.5985 36.8516C84.5438 35.7266 84.4501 34.6172 84.3172 33.5156C83.3329 33.3438 82.5751 33.3906 82.4422 33.4844Z" fill="#FFE4BE"/>
<path d="M91.8863 48.6812L74.4035 42.206C72.7001 41.5751 70.8078 42.4445 70.177 44.1479L60.194 71.1017C59.5631 72.805 60.4326 74.6973 62.1359 75.3282L79.6187 81.8033C81.3221 82.4342 83.2144 81.5648 83.8453 79.8614L93.8282 52.9077C94.4591 51.2043 93.5897 49.312 91.8863 48.6812Z" fill="url(#paint0_linear_111_335)"/>
<path d="M91.8863 48.6812L74.4035 42.206C72.7001 41.5751 70.8078 42.4445 70.177 44.1479L60.194 71.1017C59.5631 72.805 60.4326 74.6973 62.1359 75.3282L79.6187 81.8033C81.3221 82.4342 83.2144 81.5648 83.8453 79.8614L93.8282 52.9077C94.4591 51.2043 93.5897 49.312 91.8863 48.6812Z" fill="url(#paint1_linear_111_335)"/>
<path d="M71.9869 50.8144C72.0568 50.6256 72.1988 50.4724 72.3818 50.3883C72.5647 50.3043 72.7735 50.2964 72.9622 50.3663L75.4688 51.2946C75.6575 51.3645 75.8108 51.5066 75.8948 51.6895C75.9789 51.8724 75.9868 52.0812 75.9169 52.27L74.9886 54.7765C74.9186 54.9653 74.7766 55.1185 74.5937 55.2026C74.4108 55.2866 74.202 55.2945 74.0132 55.2246L71.5067 54.2963C71.3179 54.2264 71.1646 54.0843 71.0806 53.9014C70.9966 53.7185 70.9886 53.5097 71.0585 53.3209L71.9869 50.8144Z" fill="#FF9544"/>
<path d="M71.9869 50.8144C72.0568 50.6256 72.1988 50.4724 72.3818 50.3883C72.5647 50.3043 72.7735 50.2964 72.9622 50.3663L75.4688 51.2946C75.6575 51.3645 75.8108 51.5066 75.8948 51.6895C75.9789 51.8724 75.9868 52.0812 75.9169 52.27L74.9886 54.7765C74.9186 54.9653 74.7766 55.1185 74.5937 55.2026C74.4108 55.2866 74.202 55.2945 74.0132 55.2246L71.5067 54.2963C71.3179 54.2264 71.1646 54.0843 71.0806 53.9014C70.9966 53.7185 70.9886 53.5097 71.0585 53.3209L71.9869 50.8144Z" fill="url(#paint2_linear_111_335)"/>
<path d="M78.0854 53.0731C78.1553 52.8843 78.2973 52.7311 78.4802 52.647C78.6631 52.563 78.8719 52.5551 79.0607 52.625L81.566 53.5529C81.7548 53.6228 81.9081 53.7648 81.9921 53.9478C82.0762 54.1307 82.0841 54.3395 82.0142 54.5282L81.0858 57.0348C81.0159 57.2235 80.8739 57.3768 80.691 57.4608C80.508 57.5449 80.2992 57.5528 80.1105 57.4829L77.6051 56.555C77.4164 56.4851 77.2631 56.343 77.1791 56.1601C77.095 55.9772 77.0871 55.7684 77.157 55.5796L78.0854 53.0731Z" fill="#38C6FF"/>
<path d="M84.1826 55.3314C84.2525 55.1426 84.3946 54.9893 84.5775 54.9053C84.7604 54.8213 84.9692 54.8133 85.158 54.8832L87.6645 55.8116C87.8533 55.8815 88.0065 56.0235 88.0906 56.2065C88.1746 56.3894 88.1825 56.5982 88.1126 56.7869L87.1843 59.2935C87.1144 59.4822 86.9723 59.6355 86.7894 59.7195C86.6065 59.8036 86.3977 59.8115 86.2089 59.7416L83.7024 58.8133C83.5136 58.7433 83.3604 58.6013 83.2763 58.4184C83.1923 58.2355 83.1843 58.0267 83.2543 57.8379L84.1826 55.3314Z" fill="#FFEC58"/>
<path d="M69.4123 57.7658C69.4822 57.577 69.6242 57.4237 69.8072 57.3397C69.9901 57.2557 70.1989 57.2477 70.3876 57.3176L72.8942 58.246C73.0829 58.3159 73.2362 58.4579 73.3202 58.6409C73.4043 58.8238 73.4122 59.0326 73.3423 59.2213L72.4144 61.7267C72.3445 61.9154 72.2024 62.0687 72.0195 62.1527C71.8366 62.2368 71.6278 62.2447 71.439 62.1748L68.9325 61.2465C68.7438 61.1765 68.5905 61.0345 68.5064 60.8516C68.4224 60.6687 68.4145 60.4599 68.4844 60.2711L69.4123 57.7658Z" fill="#38C6FF"/>
<path d="M66.8381 64.7159C66.9081 64.5272 67.0501 64.3739 67.233 64.2899C67.4159 64.2058 67.6247 64.1979 67.8135 64.2678L70.32 65.1962C70.5088 65.2661 70.662 65.4081 70.7461 65.591C70.8301 65.7739 70.8381 65.9827 70.7681 66.1715L69.8402 68.6768C69.7703 68.8656 69.6283 69.0189 69.4454 69.1029C69.2625 69.187 69.0536 69.1949 68.8649 69.125L66.3584 68.1966C66.1696 68.1267 66.0163 67.9847 65.9323 67.8018C65.8483 67.6189 65.8403 67.41 65.9102 67.2213L66.8381 64.7159Z" fill="#FF9544"/>
<path d="M66.8381 64.7159C66.9081 64.5272 67.0501 64.3739 67.233 64.2899C67.4159 64.2058 67.6247 64.1979 67.8135 64.2678L70.32 65.1962C70.5088 65.2661 70.662 65.4081 70.7461 65.591C70.8301 65.7739 70.8381 65.9827 70.7681 66.1715L69.8402 68.6768C69.7703 68.8656 69.6283 69.0189 69.4454 69.1029C69.2625 69.187 69.0536 69.1949 68.8649 69.125L66.3584 68.1966C66.1696 68.1267 66.0163 67.9847 65.9323 67.8018C65.8483 67.6189 65.8403 67.41 65.9102 67.2213L66.8381 64.7159Z" fill="url(#paint3_linear_111_335)"/>
<path d="M75.5107 60.0245C75.5807 59.8357 75.7227 59.6824 75.9056 59.5984C76.0885 59.5144 76.2973 59.5064 76.4861 59.5763L78.9914 60.5042C79.1802 60.5742 79.3335 60.7162 79.4175 60.8991C79.5016 61.082 79.5095 61.2908 79.4396 61.4796L78.5117 63.9849C78.4417 64.1737 78.2997 64.327 78.1168 64.411C77.9339 64.4951 77.7251 64.503 77.5363 64.4331L75.031 63.5052C74.8422 63.4352 74.6889 63.2932 74.6049 63.1103C74.5209 62.9274 74.5129 62.7186 74.5828 62.5298L75.5107 60.0245Z" fill="#FFEC58"/>
<path d="M72.9366 66.9746C73.0065 66.7859 73.1485 66.6326 73.3315 66.5486C73.5144 66.4645 73.7232 66.4566 73.9119 66.5265L76.4173 67.4544C76.606 67.5243 76.7593 67.6664 76.8434 67.8493C76.9274 68.0322 76.9353 68.241 76.8654 68.4298L75.9375 70.9351C75.8676 71.1239 75.7256 71.2771 75.5426 71.3612C75.3597 71.4452 75.1509 71.4532 74.9622 71.3833L72.4568 70.4553C72.2681 70.3854 72.1148 70.2434 72.0307 70.0605C71.9467 69.8776 71.9388 69.6688 72.0087 69.48L72.9366 66.9746Z" fill="#38C6FF"/>
<path d="M81.608 62.2827C81.6779 62.094 81.82 61.9407 82.0029 61.8567C82.1858 61.7726 82.3946 61.7647 82.5834 61.8346L85.0899 62.763C85.2787 62.8329 85.4319 62.9749 85.516 63.1578C85.6 63.3407 85.6079 63.5495 85.538 63.7383L84.6101 66.2436C84.5402 66.4324 84.3982 66.5857 84.2153 66.6697C84.0323 66.7538 83.8235 66.7617 83.6348 66.6918L81.1282 65.7634C80.9395 65.6935 80.7862 65.5515 80.7022 65.3686C80.6181 65.1856 80.6102 64.9768 80.6801 64.7881L81.608 62.2827Z" fill="#FF9544"/>
<path d="M81.608 62.2827C81.6779 62.094 81.82 61.9407 82.0029 61.8567C82.1858 61.7726 82.3946 61.7647 82.5834 61.8346L85.0899 62.763C85.2787 62.8329 85.4319 62.9749 85.516 63.1578C85.6 63.3407 85.6079 63.5495 85.538 63.7383L84.6101 66.2436C84.5402 66.4324 84.3982 66.5857 84.2153 66.6697C84.0323 66.7538 83.8235 66.7617 83.6348 66.6918L81.1282 65.7634C80.9395 65.6935 80.7862 65.5515 80.7022 65.3686C80.6181 65.1856 80.6102 64.9768 80.6801 64.7881L81.608 62.2827Z" fill="url(#paint4_linear_111_335)"/>
<path d="M79.0339 69.2329C79.1038 69.0441 79.2458 68.8909 79.4287 68.8068C79.6116 68.7228 79.8204 68.7149 80.0092 68.7848L82.5157 69.7131C82.7045 69.783 82.8578 69.9251 82.9418 70.108C83.0258 70.2909 83.0338 70.4997 82.9639 70.6885L82.036 73.1938C81.966 73.3826 81.824 73.5358 81.6411 73.6199C81.4582 73.7039 81.2494 73.7119 81.0606 73.642L78.5541 72.7136C78.3653 72.6437 78.2121 72.5017 78.128 72.3187C78.044 72.1358 78.036 71.927 78.1059 71.7383L79.0339 69.2329Z" fill="#FFEC58"/>
<path d="M90.6998 53.0467L92.516 53.7194L82.9188 79.6316L81.1026 78.959L90.6998 53.0467Z" fill="url(#paint5_linear_111_335)"/>
<path d="M93.1583 54.7167L69.5059 45.9565L70.1759 44.1475C70.3259 43.7425 70.5542 43.371 70.8478 43.0542C71.1414 42.7374 71.4945 42.4815 71.8869 42.3012C72.2794 42.1209 72.7036 42.0196 73.1352 42.0032C73.5668 41.9868 73.9974 42.0556 74.4024 42.2056L91.8876 48.6816C92.2926 48.8316 92.6641 49.06 92.9809 49.3535C93.2977 49.6471 93.5536 50.0002 93.7339 50.3927C93.9142 50.7852 94.0155 51.2093 94.0319 51.6409C94.0483 52.0725 93.9795 52.5031 93.8295 52.9082L93.1583 54.7167Z" fill="url(#paint6_linear_111_335)"/>
<path d="M93.1583 54.7167L69.5059 45.9565L70.1759 44.1475C70.3259 43.7425 70.5542 43.371 70.8478 43.0542C71.1414 42.7374 71.4945 42.4815 71.8869 42.3012C72.2794 42.1209 72.7036 42.0196 73.1352 42.0032C73.5668 41.9868 73.9974 42.0556 74.4024 42.2056L91.8876 48.6816C92.2926 48.8316 92.6641 49.06 92.9809 49.3535C93.2977 49.6471 93.5536 50.0002 93.7339 50.3927C93.9142 50.7852 94.0155 51.2093 94.0319 51.6409C94.0483 52.0725 93.9795 52.5031 93.8295 52.9082L93.1583 54.7167Z" fill="url(#paint7_linear_111_335)"/>
<path d="M93.1583 54.7167L69.5059 45.9565L70.1759 44.1475C70.3259 43.7425 70.5542 43.371 70.8478 43.0542C71.1414 42.7374 71.4945 42.4815 71.8869 42.3012C72.2794 42.1209 72.7036 42.0196 73.1352 42.0032C73.5668 41.9868 73.9974 42.0556 74.4024 42.2056L91.8876 48.6816C92.2926 48.8316 92.6641 49.06 92.9809 49.3535C93.2977 49.6471 93.5536 50.0002 93.7339 50.3927C93.9142 50.7852 94.0155 51.2093 94.0319 51.6409C94.0483 52.0725 93.9795 52.5031 93.8295 52.9082L93.1583 54.7167Z" fill="url(#paint8_linear_111_335)"/>
<path d="M93.1583 54.7167L69.5059 45.9565L70.1759 44.1475C70.3259 43.7425 70.5542 43.371 70.8478 43.0542C71.1414 42.7374 71.4945 42.4815 71.8869 42.3012C72.2794 42.1209 72.7036 42.0196 73.1352 42.0032C73.5668 41.9868 73.9974 42.0556 74.4024 42.2056L91.8876 48.6816C92.2926 48.8316 92.6641 49.06 92.9809 49.3535C93.2977 49.6471 93.5536 50.0002 93.7339 50.3927C93.9142 50.7852 94.0155 51.2093 94.0319 51.6409C94.0483 52.0725 93.9795 52.5031 93.8295 52.9082L93.1583 54.7167Z" fill="url(#paint9_linear_111_335)"/>
<path d="M93.1583 54.7167L69.5059 45.9565L70.1759 44.1475C70.3259 43.7425 70.5542 43.371 70.8478 43.0542C71.1414 42.7374 71.4945 42.4815 71.8869 42.3012C72.2794 42.1209 72.7036 42.0196 73.1352 42.0032C73.5668 41.9868 73.9974 42.0556 74.4024 42.2056L91.8876 48.6816C92.2926 48.8316 92.6641 49.06 92.9809 49.3535C93.2977 49.6471 93.5536 50.0002 93.7339 50.3927C93.9142 50.7852 94.0155 51.2093 94.0319 51.6409C94.0483 52.0725 93.9795 52.5031 93.8295 52.9082L93.1583 54.7167Z" fill="url(#paint10_radial_111_335)"/>
<path d="M84.4952 78.107L83.8453 79.8614C83.6953 80.2665 83.467 80.638 83.1734 80.9548C82.8799 81.2716 82.5267 81.5274 82.1343 81.7078C81.7418 81.8881 81.3177 81.9893 80.8861 82.0058C80.4545 82.0222 80.0238 81.9534 79.6187 81.8033L62.1348 75.3278C61.7298 75.1778 61.3583 74.9495 61.0415 74.6559C60.7247 74.3623 60.4689 74.0092 60.2885 73.6167C60.1082 73.2242 60.007 72.8001 59.9906 72.3685C59.9742 71.9369 60.0429 71.5063 60.1929 71.1012L60.8427 69.3468L84.4952 78.107Z" fill="url(#paint11_linear_111_335)"/>
<path d="M84.4952 78.107L83.8453 79.8614C83.6953 80.2665 83.467 80.638 83.1734 80.9548C82.8799 81.2716 82.5267 81.5274 82.1343 81.7078C81.7418 81.8881 81.3177 81.9893 80.8861 82.0058C80.4545 82.0222 80.0238 81.9534 79.6187 81.8033L62.1348 75.3278C61.7298 75.1778 61.3583 74.9495 61.0415 74.6559C60.7247 74.3623 60.4689 74.0092 60.2885 73.6167C60.1082 73.2242 60.007 72.8001 59.9906 72.3685C59.9742 71.9369 60.0429 71.5063 60.1929 71.1012L60.8427 69.3468L84.4952 78.107Z" fill="url(#paint12_linear_111_335)"/>
<path d="M84.4952 78.107L83.8453 79.8614C83.6953 80.2665 83.467 80.638 83.1734 80.9548C82.8799 81.2716 82.5267 81.5274 82.1343 81.7078C81.7418 81.8881 81.3177 81.9893 80.8861 82.0058C80.4545 82.0222 80.0238 81.9534 79.6187 81.8033L62.1348 75.3278C61.7298 75.1778 61.3583 74.9495 61.0415 74.6559C60.7247 74.3623 60.4689 74.0092 60.2885 73.6167C60.1082 73.2242 60.007 72.8001 59.9906 72.3685C59.9742 71.9369 60.0429 71.5063 60.1929 71.1012L60.8427 69.3468L84.4952 78.107Z" fill="url(#paint13_radial_111_335)"/>
<path d="M84.4952 78.107L83.8453 79.8614C83.6953 80.2665 83.467 80.638 83.1734 80.9548C82.8799 81.2716 82.5267 81.5274 82.1343 81.7078C81.7418 81.8881 81.3177 81.9893 80.8861 82.0058C80.4545 82.0222 80.0238 81.9534 79.6187 81.8033L62.1348 75.3278C61.7298 75.1778 61.3583 74.9495 61.0415 74.6559C60.7247 74.3623 60.4689 74.0092 60.2885 73.6167C60.1082 73.2242 60.007 72.8001 59.9906 72.3685C59.9742 71.9369 60.0429 71.5063 60.1929 71.1012L60.8427 69.3468L84.4952 78.107Z" fill="url(#paint14_linear_111_335)"/>
<defs>
<linearGradient id="paint0_linear_111_335" x1="47.0171" y1="15.8778" x2="47.0171" y2="70.3958" gradientUnits="userSpaceOnUse">
<stop stop-color="#62326D"/>
<stop offset="1" stop-color="#434486"/>
</linearGradient>
<linearGradient id="paint1_linear_111_335" x1="2.6885e-08" y1="58.0983" x2="10.8965" y2="58.5673" gradientUnits="userSpaceOnUse">
<stop offset="0.031" stop-color="#412C4C"/>
<stop offset="1" stop-color="#412C4C" stop-opacity="0"/>
</linearGradient>
<linearGradient id="paint2_linear_111_335" x1="4.42781" y1="61.3149" x2="34.1452" y2="61.3149" gradientUnits="userSpaceOnUse">
<stop offset="0.333" stop-color="#FF945C"/>
<stop offset="1" stop-color="#FF945C" stop-opacity="0"/>
</linearGradient>
<linearGradient id="paint3_linear_111_335" x1="4.42781" y1="61.3086" x2="34.1452" y2="61.3086" gradientUnits="userSpaceOnUse">
<stop offset="0.333" stop-color="#FF945C"/>
<stop offset="1" stop-color="#FF945C" stop-opacity="0"/>
</linearGradient>
<linearGradient id="paint4_linear_111_335" x1="4.4562" y1="61.3086" x2="34.1736" y2="61.3086" gradientUnits="userSpaceOnUse">
<stop offset="0.333" stop-color="#FF945C"/>
<stop offset="1" stop-color="#FF945C" stop-opacity="0"/>
</linearGradient>
<linearGradient id="paint5_linear_111_335" x1="46.9864" y1="0" x2="46.9864" y2="82.009" gradientUnits="userSpaceOnUse">
<stop stop-color="#674876"/>
<stop offset="1" stop-color="#555187"/>
</linearGradient>
<linearGradient id="paint6_linear_111_335" x1="47.0171" y1="0" x2="47.0171" y2="82.009" gradientUnits="userSpaceOnUse">
<stop stop-color="#636AB6"/>
<stop offset="1" stop-color="#6C6EBE"/>
</linearGradient>
<linearGradient id="paint7_linear_111_335" x1="52.4687" y1="85.1104" x2="52.4687" y2="71.4323" gradientUnits="userSpaceOnUse">
<stop stop-color="#6062B1"/>
<stop offset="1" stop-color="#6062B1" stop-opacity="0"/>
</linearGradient>
<linearGradient id="paint8_linear_111_335" x1="0.00471586" y1="82.009" x2="15.1851" y2="82.009" gradientUnits="userSpaceOnUse">
<stop offset="0.136" stop-color="#484B86"/>
<stop offset="1" stop-color="#5E61AD" stop-opacity="0"/>
</linearGradient>
<linearGradient id="paint9_linear_111_335" x1="94.0295" y1="82.009" x2="80.1743" y2="82.009" gradientUnits="userSpaceOnUse">
<stop offset="0.128" stop-color="#7277C8"/>
<stop offset="1" stop-color="#7277C8" stop-opacity="0"/>
</linearGradient>
<radialGradient id="paint10_radial_111_335" cx="0" cy="0" r="1" gradientUnits="userSpaceOnUse" gradientTransform="translate(94.0295 76.4026) rotate(180) scale(3.09478 63.0598)">
<stop stop-color="#6C6FB4"/>
<stop offset="1" stop-color="#6C6FB4" stop-opacity="0"/>
</radialGradient>
<linearGradient id="paint11_linear_111_335" x1="47.0195" y1="0" x2="47.0195" y2="81.9889" gradientUnits="userSpaceOnUse">
<stop stop-color="#6B4390"/>
<stop offset="1" stop-color="#76509E"/>
</linearGradient>
<linearGradient id="paint12_linear_111_335" x1="0.0047161" y1="25.1315" x2="11.3564" y2="25.1315" gradientUnits="userSpaceOnUse">
<stop offset="0.164" stop-color="#4F3D6C"/>
<stop offset="1" stop-color="#6E4693" stop-opacity="0"/>
</linearGradient>
<radialGradient id="paint13_radial_111_335" cx="0" cy="0" r="1" gradientUnits="userSpaceOnUse" gradientTransform="translate(86.2244 -6.89607) rotate(90) scale(62.2004 7.66366)">
<stop stop-color="#6B5094"/>
<stop offset="1" stop-color="#6B5094" stop-opacity="0"/>
</radialGradient>
<linearGradient id="paint14_linear_111_335" x1="72.4232" y1="73.2567" x2="72.1622" y2="73.9614" gradientUnits="userSpaceOnUse">
<stop offset="0.158" stop-color="#5E3D7F"/>
<stop offset="1" stop-color="#5E3D7F" stop-opacity="0"/>
</linearGradient>
</defs>
</svg>
