<svg width="96" height="83" viewBox="0 0 96 83" fill="none" xmlns="http://www.w3.org/2000/svg">
<path d="M80.9891 62.4218C78.7001 62.3281 81.8719 37.5703 81.8719 37.5703C81.8719 37.5703 82.4891 37.539 83.4422 37.6249C79.5985 21.5234 66.6844 8.99995 46.7157 8.99995C26.3094 8.99995 15.4891 21.539 11.6532 37.0546C11.9969 37.039 12.1922 37.0468 12.1922 37.0468C12.1922 37.0468 16.075 62.8593 13.3172 62.4999C12.8875 62.4453 12.2704 62.3593 11.5204 62.2031C15.3407 75.2343 26.6454 82.8906 47.6688 82.9531C66.8641 83.0156 78.2313 75.2031 82.5985 62.2968C81.9032 62.4062 81.3485 62.4374 80.9891 62.4218ZM70.3563 63.8046C67.161 69.9296 58.0985 74.2734 47.2235 74.0781C33.2391 73.8203 24.6766 69.6796 22.3485 62.7734C20.075 56.0468 24.9579 52.3281 24.7001 47.1562C24.4422 41.9765 19.4344 33.7812 26.1063 28.8593C35.8016 21.7031 40.0204 31.3984 46.7547 31.1874C53.0985 30.9921 59.9735 22.2812 67.5985 29.2421C74.5907 35.6249 69.0672 41.539 69.2391 47.5781C69.3797 52.5859 74.3172 56.2031 70.3563 63.8046Z" fill="#AB8DC3"/>
<path d="M67.5907 29.2421C59.9735 22.2812 53.0907 30.9921 46.7469 31.1874C40.0126 31.3906 35.7938 21.7031 26.0985 28.8593C19.4344 33.7812 24.4344 41.9765 24.6922 47.1562C24.95 52.3359 20.0672 56.0468 22.3407 62.7734C24.6688 69.6796 33.2391 73.8203 47.2157 74.0781C58.0907 74.2812 67.1532 69.9374 70.3485 63.8046C74.3094 56.2031 69.3719 52.5859 69.2235 47.5781C69.0594 41.539 74.5829 35.6249 67.5907 29.2421ZM53.5204 42.6406C53.7391 39.7656 55.6532 37.039 58.7079 37.3359C61.1141 37.5703 62.6219 39.4453 62.536 42.8124C62.4266 47.1718 59.7313 48.5624 57.3251 48.3828C54.9188 48.2031 53.3094 45.5156 53.5204 42.6406ZM47.1063 48.1718C50.4032 48.2343 51.6141 48.2421 51.5047 49.8906C51.4422 50.9296 49.3016 52.9921 47.2313 53.0312C45.4813 53.0624 42.8954 51.3124 42.7313 49.7968C42.5594 48.0781 43.8719 48.1093 47.1063 48.1718ZM34.7704 37.5937C37.3172 37.3906 39.6454 38.8124 40.0047 42.3984C40.3876 46.1796 38.2938 48.7187 35.7469 48.9765C33.2079 49.2343 30.8875 46.9609 30.575 43.8984C30.2704 40.8359 31.536 37.8515 34.7704 37.5937ZM63.0204 60.1796C62.8485 63.4609 57.2391 67.3828 47.0126 67.2968C36.3094 67.2031 30.9188 63.539 30.786 60.3906C30.661 57.2812 37.8172 55.3671 46.6219 55.4687C60.7313 55.6484 63.1454 57.8515 63.0204 60.1796Z" fill="#FFE4BE"/>
<path d="M35.7547 48.9765C38.2938 48.7187 40.3954 46.1796 40.0126 42.3984C39.6454 38.8124 37.3251 37.3906 34.7782 37.5937C31.5438 37.8515 30.2782 40.8359 30.5907 43.8984C30.8954 46.9609 33.2079 49.2343 35.7547 48.9765ZM57.3172 48.3906C59.7235 48.5703 62.4188 47.1796 62.5282 42.8203C62.6141 39.4453 61.1063 37.5703 58.7079 37.3359C55.6532 37.039 53.7391 39.7656 53.5204 42.6406C53.3094 45.5156 54.911 48.2109 57.3172 48.3906ZM47.2391 53.0312C49.3094 52.9921 51.4501 50.9296 51.5126 49.8906C51.6141 48.2421 50.411 48.2421 47.1141 48.1718C43.8797 48.1093 42.5594 48.0781 42.7469 49.789C42.9032 51.3124 45.4891 53.0625 47.2391 53.0312Z" fill="#8D6E63"/>
<path d="M46.6219 55.4765C37.8172 55.3671 30.661 57.289 30.786 60.3984C30.9188 63.5468 36.3094 67.2109 47.0126 67.3046C57.2391 67.3906 62.8485 63.4609 63.0204 60.1874C63.1454 57.8515 60.7313 55.6484 46.6219 55.4765Z" fill="#CE4D5E"/>
<path d="M93.825 48.9453C93.9579 39.6328 86.7079 37.9218 83.4344 37.6249C83.8172 39.2265 84.1141 40.8593 84.3094 42.5156C86.5438 42.9062 89.9266 44.4687 89.7704 49.3906C89.6219 54.0703 86.0438 56.3203 83.9422 56.9296C83.6063 58.8046 83.1532 60.6015 82.5751 62.3046C86.2704 61.7734 93.6766 59.0859 93.825 48.9453Z" fill="#AB8DC3"/>
<path d="M82.5282 57.0312C82.1219 56.7656 82.5438 54.0078 82.6141 50.1718C82.6766 46.6015 82.1922 42.6562 82.4422 42.4921C82.5829 42.3984 83.3407 42.3515 84.3172 42.5234C84.1184 40.8779 83.8263 39.2451 83.4422 37.6328C82.4891 37.5468 81.8719 37.5781 81.8719 37.5781C81.8719 37.5781 78.7079 62.3359 80.9891 62.4296C81.3485 62.4453 81.9032 62.4218 82.5907 62.3203C83.1688 60.6171 83.6219 58.8203 83.9579 56.9453C83.2547 57.1328 82.7157 57.1562 82.5282 57.0312ZM3.98911 48.9609C3.98911 42.5781 9.43442 41.8124 10.6532 42.1171C10.9032 40.4062 11.2391 38.7187 11.6454 37.0624C9.34067 37.164 0.387549 38.2265 0.0125487 48.5781C-0.354639 58.6249 7.42661 61.3828 11.5047 62.2187C11.0125 60.539 10.6454 58.7734 10.3954 56.914C8.2938 56.4687 3.98911 54.5156 3.98911 48.9609Z" fill="#AB8DC3"/>
<path d="M12.1844 37.0468C12.1844 37.0468 11.9891 37.039 11.6454 37.0546C11.2343 38.7228 10.9032 40.4096 10.6532 42.1093C10.7704 42.1406 10.8641 42.1718 10.8954 42.2187C10.9891 42.3593 10.8719 45.7812 11.0672 49.2968C11.2782 53.0312 11.8016 56.8671 11.4969 56.9765C11.3563 57.0312 10.95 57.0078 10.4032 56.8984C10.6532 58.7499 11.0204 60.5234 11.5125 62.2031C12.2625 62.3515 12.8797 62.4453 13.3094 62.4999C16.0672 62.8671 12.1844 37.0468 12.1844 37.0468Z" fill="#AB8DC3"/>
<path d="M3.98911 48.9609C3.98911 54.5156 8.2938 56.4687 10.4032 56.9062C10.0047 53.9218 9.91099 50.7187 10.1141 47.3203C10.2157 45.5703 10.3954 43.8359 10.6532 42.1171C9.43442 41.8124 3.98911 42.5781 3.98911 48.9609Z" fill="#FFE4BE"/>
<path d="M10.4032 56.9062C10.95 57.0156 11.3563 57.039 11.4969 56.9843C11.8016 56.8671 11.2782 53.039 11.0672 49.3046C10.8641 45.789 10.9891 42.3671 10.8954 42.2265C10.8641 42.1796 10.7704 42.1484 10.6532 42.1171C10.4032 43.8359 10.2157 45.5703 10.1141 47.3203C9.91099 50.7265 10.0047 53.9218 10.4032 56.9062ZM83.95 56.9374C86.0516 56.3281 89.6297 54.0781 89.7782 49.3984C89.9344 44.4765 86.5438 42.914 84.3172 42.5234C84.4501 43.6249 84.5516 44.7343 84.5985 45.8593C84.7782 49.7968 84.5594 53.4999 83.95 56.9374Z" fill="#FFE4BE"/>
<path d="M82.4422 42.4843C82.1922 42.6484 82.6766 46.5937 82.6141 50.164C82.5438 54.0078 82.1219 56.7578 82.5282 57.0234C82.7235 57.1484 83.2547 57.1328 83.9501 56.9296C84.5594 53.4999 84.7782 49.7968 84.5985 45.8515C84.5438 44.7265 84.4501 43.6171 84.3172 42.5156C83.3329 42.3437 82.5751 42.3906 82.4422 42.4843Z" fill="#FFE4BE"/>
<path d="M95.606 26.7718C96.163 27.3609 96.0978 28.2982 95.468 28.8087C87.6649 35.1327 76.184 34.4709 69.1689 27.0512C62.1538 19.6316 62.1359 8.13162 68.887 0.69496C69.4319 0.094669 70.3714 0.0820642 70.9284 0.671183L95.606 26.7718Z" fill="#16992B"/>
<path d="M95.0911 26.2271C88.1844 32.7572 77.2917 32.452 70.7615 25.5453C64.2314 18.6387 64.5366 7.74595 71.4433 1.21581L95.0911 26.2271Z" fill="#F4C3C3"/>
<path d="M93.9693 25.0406C87.7178 30.9512 77.8586 30.675 71.948 24.4235C66.0373 18.1721 66.3136 8.31286 72.565 2.40223L93.9693 25.0406Z" fill="#F44D61"/>
<path d="M75.2664 8.28664C75.2664 8.28664 75.2591 8.29886 75.2451 8.31899C75.2311 8.33747 75.211 8.37032 75.1844 8.40153C75.158 8.43387 75.1261 8.47609 75.089 8.51611C75.0047 8.60932 74.9123 8.69488 74.8129 8.77178C74.7592 8.81305 74.7023 8.85404 74.6429 8.88985C74.5838 8.92845 74.522 8.96113 74.4591 8.99178C74.3962 9.02217 74.3319 9.0492 74.2672 9.07157C74.138 9.11764 74.0073 9.14574 73.8834 9.15495C73.7686 9.16423 73.6532 9.15669 73.5406 9.13259C73.4543 9.11399 73.3708 9.08429 73.2922 9.04425C73.2618 9.02945 73.2375 9.01223 73.2212 9.00273C73.2047 8.99237 73.1958 8.98502 73.1958 8.98502C72.8343 8.6879 72.7821 8.15405 73.0793 7.79255C73.0838 7.78703 73.0909 7.77872 73.0955 7.7734C73.0955 7.7734 73.1031 7.76471 73.1176 7.75177C73.1322 7.73969 73.1533 7.71875 73.1808 7.69913C73.2518 7.64669 73.3293 7.60367 73.4113 7.57113C73.5183 7.52884 73.631 7.50241 73.7457 7.49268C73.8694 7.4814 74.003 7.4876 74.138 7.51178C74.2063 7.52356 74.2739 7.53929 74.3404 7.5589C74.4076 7.57879 74.4739 7.60084 74.5386 7.62922C74.603 7.65475 74.6659 7.6858 74.7257 7.71771C74.7855 7.74961 74.8424 7.78422 74.8952 7.81918C74.948 7.85428 74.9966 7.88992 75.04 7.92448C75.0833 7.95778 75.1216 7.9942 75.153 8.02178C75.1843 8.04824 75.2096 8.07731 75.2265 8.0932C75.2435 8.11075 75.2527 8.12164 75.2527 8.12164C75.2931 8.1692 75.2966 8.2358 75.2664 8.28664ZM79.4558 22.4972C79.4558 22.4972 79.4666 22.5065 79.4862 22.5212C79.5054 22.5342 79.5349 22.559 79.57 22.5802C79.6053 22.6025 79.6489 22.6324 79.6969 22.6585C79.8064 22.7202 79.9212 22.772 80.0398 22.8134C80.1039 22.8355 80.1708 22.8563 80.2386 22.8713C80.307 22.8892 80.3759 22.9006 80.4452 22.9097C80.5146 22.9185 80.5841 22.9237 80.6526 22.9244C80.7897 22.927 80.9225 22.9122 81.043 22.8816C81.1548 22.8539 81.2619 22.8101 81.361 22.7516C81.4369 22.7065 81.5066 22.6519 81.5686 22.589C81.5926 22.5653 81.6102 22.5413 81.6227 22.5271C81.635 22.512 81.6411 22.5022 81.6411 22.5022C81.6449 22.4962 81.6505 22.4869 81.6542 22.4807C81.8908 22.0771 81.7554 21.558 81.3516 21.3214C81.3516 21.3214 81.3417 21.3155 81.3238 21.3079C81.3061 21.3011 81.2794 21.2879 81.2472 21.2781C81.1632 21.2509 81.0761 21.2347 80.988 21.2299C80.873 21.2238 80.7578 21.2345 80.6459 21.2617C80.525 21.2902 80.4003 21.3385 80.2799 21.4043C80.2189 21.4372 80.1598 21.4736 80.103 21.5133C80.0456 21.5534 79.9898 21.5954 79.9374 21.6428C79.885 21.6878 79.8352 21.7356 79.7881 21.7861C79.7429 21.834 79.7 21.8841 79.6596 21.9362C79.6229 21.9833 79.5882 22.0319 79.5556 22.082C79.5251 22.1273 79.5004 22.174 79.4794 22.2101C79.4581 22.2451 79.4434 22.2807 79.4324 22.3011C79.4218 22.3232 79.4165 22.3364 79.4165 22.3364C79.4054 22.364 79.4033 22.3943 79.4103 22.4232C79.4174 22.452 79.4333 22.4779 79.4558 22.4972ZM73.2829 21.2242C73.2829 21.2242 73.2756 21.2364 73.2644 21.2581C73.2548 21.2792 73.2353 21.3125 73.2204 21.3506C73.2043 21.3892 73.1822 21.4372 73.1645 21.4889C73.1443 21.5451 73.1266 21.6022 73.1114 21.6599C73.0944 21.7236 73.0805 21.7881 73.0697 21.8531C73.058 21.9211 73.0501 21.9898 73.046 22.0587C73.0399 22.1291 73.0403 22.1989 73.043 22.2689C73.0458 22.3381 73.0526 22.4072 73.0634 22.4757C73.0839 22.6113 73.1209 22.7398 73.1714 22.8534C73.2175 22.9589 73.2787 23.0571 73.3531 23.1449C73.4103 23.2121 73.4759 23.2717 73.5484 23.3221C73.5758 23.3418 73.6024 23.3551 73.6185 23.365C73.6354 23.3746 73.6461 23.379 73.6461 23.379C73.6527 23.3817 73.6628 23.3857 73.6695 23.3883C74.1073 23.5535 74.5961 23.3325 74.7613 22.8948C74.7613 22.8948 74.7654 22.884 74.7699 22.865C74.7737 22.8465 74.7821 22.818 74.7865 22.7845C74.7968 22.7167 74.802 22.6241 74.7903 22.5208C74.777 22.4065 74.747 22.2948 74.7014 22.1891C74.6528 22.0747 74.5842 21.96 74.4991 21.8523C74.4564 21.7977 74.4106 21.7456 74.3619 21.6962C74.3126 21.6465 74.2619 21.5985 74.2063 21.5549C74.1531 21.5108 74.0976 21.4697 74.0399 21.4318C73.9351 21.3624 73.8244 21.3024 73.7091 21.2525C73.6592 21.2301 73.609 21.2135 73.5699 21.1989C73.5318 21.1838 73.4943 21.1753 73.4723 21.1679C73.4599 21.1644 73.4474 21.1611 73.4348 21.1583C73.4058 21.1521 73.3756 21.1551 73.3483 21.1669C73.3211 21.1787 73.2982 21.1987 73.2829 21.2242ZM73.0012 14.322C73.0012 14.322 72.9874 14.3257 72.9643 14.3336C72.9427 14.3421 72.9057 14.3527 72.8684 14.3697C72.8302 14.3863 72.7809 14.4056 72.7323 14.4305C72.6197 14.4864 72.5123 14.5521 72.4114 14.6269C72.3557 14.6678 72.3024 14.7118 72.2516 14.7586C72.1984 14.805 72.1502 14.8556 72.1037 14.9079C72.0576 14.9597 72.0146 15.0141 71.9749 15.0709C71.8955 15.1829 71.833 15.301 71.7906 15.4179C71.7505 15.5258 71.7265 15.639 71.7192 15.7538C71.7129 15.8576 71.723 15.9498 71.7368 16.0169C71.7429 16.0501 71.7529 16.0782 71.7576 16.0965C71.7631 16.1151 71.7677 16.1257 71.7677 16.1257C71.7706 16.1322 71.7751 16.1422 71.7782 16.1486C71.9788 16.5714 72.4842 16.7514 72.9068 16.5508C72.9068 16.5508 72.9173 16.5458 72.9336 16.5354C72.9492 16.5246 72.9751 16.51 73.0014 16.4889C73.0712 16.4348 73.1336 16.3718 73.1871 16.3017C73.2568 16.2101 73.3128 16.1088 73.3533 16.0011C73.3977 15.885 73.4279 15.7548 73.4412 15.6183C73.4485 15.5502 73.4515 15.4806 73.4508 15.4107C73.4498 15.3407 73.4465 15.2709 73.4368 15.2009C73.4291 15.1323 73.4176 15.0642 73.4023 14.9968C73.3752 14.8741 73.3371 14.7541 73.2885 14.6382C73.2682 14.5875 73.2436 14.5407 73.2255 14.5031C73.2085 14.4658 73.1874 14.4336 73.1767 14.413C73.1703 14.4018 73.1635 14.3908 73.1565 14.38C73.1398 14.3554 73.116 14.3366 73.0881 14.3262C73.0603 14.3157 73.0299 14.3143 73.0012 14.322ZM81.1073 16.1062C81.1073 16.1062 81.1046 16.0923 81.0982 16.0686C81.0912 16.0465 81.0834 16.0088 81.0689 15.9704C81.0549 15.931 81.0392 15.8806 81.0177 15.8304C80.9949 15.7751 80.9699 15.7209 80.9425 15.6678C80.9125 15.6092 80.8796 15.5521 80.844 15.4966C80.8074 15.4396 80.7677 15.3818 80.7238 15.3281C80.6811 15.2717 80.634 15.2202 80.5851 15.1701C80.5366 15.1205 80.4853 15.0738 80.4314 15.0302C80.3253 14.9433 80.2117 14.8727 80.0981 14.8223C79.9933 14.7748 79.882 14.7429 79.768 14.7276C79.6805 14.716 79.5919 14.7158 79.5043 14.727C79.4707 14.7307 79.4421 14.7386 79.4235 14.7421C79.4134 14.7442 79.4035 14.7469 79.3937 14.7502C79.387 14.7526 79.3767 14.7564 79.3702 14.759C78.9345 14.9297 78.7197 15.4213 78.8904 15.857C78.8904 15.857 78.8946 15.8677 78.9039 15.8848C78.9135 15.9011 78.9264 15.9279 78.9456 15.9556C78.9948 16.029 79.0532 16.0956 79.1194 16.1539C79.2059 16.2298 79.3031 16.2927 79.4078 16.3406C79.5205 16.3929 79.6483 16.4322 79.7835 16.455C79.8509 16.467 79.9202 16.4748 79.99 16.4789C80.0599 16.4828 80.1297 16.4844 80.2002 16.4795C80.2692 16.4766 80.338 16.4699 80.4062 16.4593C80.4714 16.4497 80.5361 16.4369 80.6 16.421C80.6616 16.4058 80.7194 16.3887 80.7719 16.3707C80.8239 16.354 80.8723 16.3326 80.9111 16.3173C80.9495 16.303 80.983 16.2841 81.0044 16.2749C81.0263 16.2641 81.0387 16.257 81.0387 16.257C81.0644 16.2421 81.0848 16.2196 81.0971 16.1926C81.1094 16.1656 81.1129 16.1354 81.1073 16.1062ZM86.4828 22.7878C86.4828 22.7878 86.4953 22.7946 86.5176 22.8049C86.539 22.8137 86.5731 22.8317 86.6118 22.8452C86.651 22.8596 86.6998 22.8799 86.7522 22.8954C86.8051 22.9121 86.8633 22.9279 86.9252 22.9417C86.987 22.9554 87.0526 22.9674 87.1198 22.9756C87.1871 22.9839 87.2569 22.9903 87.3263 22.9911C87.3969 22.9943 87.4666 22.9912 87.5364 22.9856C87.6055 22.9801 87.6742 22.9705 87.7422 22.957C87.8769 22.9311 88.0038 22.889 88.1153 22.834C88.2189 22.7838 88.3145 22.7187 88.3993 22.6408C88.4642 22.581 88.521 22.5131 88.5685 22.4386C88.5871 22.4105 88.5993 22.3834 88.6086 22.3668C88.6175 22.3495 88.6214 22.3387 88.6214 22.3387C88.6238 22.332 88.6275 22.3217 88.6298 22.315C88.7774 21.871 88.5371 21.3913 88.0931 21.2438C88.0931 21.2438 88.0821 21.2401 88.0631 21.2363C88.0444 21.2334 88.0155 21.226 87.9819 21.223C87.8942 21.2139 87.8056 21.2161 87.7183 21.2297C87.6047 21.2476 87.4942 21.282 87.3904 21.3318C87.2781 21.3849 87.1661 21.458 87.0621 21.5474C87.0092 21.5922 86.9589 21.64 86.9116 21.6907C86.8638 21.7419 86.8179 21.7946 86.7766 21.8518C86.7346 21.9067 86.6958 21.9638 86.6602 22.023C86.595 22.1304 86.5395 22.2434 86.4943 22.3607C86.4738 22.4114 86.4593 22.4622 86.4463 22.5019C86.4327 22.5405 86.4257 22.5784 86.4192 22.6007C86.4134 22.6245 86.4109 22.6385 86.4109 22.6385C86.4059 22.6678 86.4101 22.6979 86.423 22.7246C86.4359 22.7514 86.4568 22.7734 86.4828 22.7878ZM83.494 25.9909C83.494 25.9909 83.496 26.0051 83.5011 26.0289C83.507 26.0514 83.5131 26.0895 83.5255 26.1285C83.5375 26.1685 83.5507 26.2197 83.5698 26.2709C83.5882 26.3232 83.6106 26.3792 83.6367 26.437C83.6629 26.4946 83.6928 26.5542 83.7266 26.6129C83.7606 26.673 83.7979 26.7312 83.8383 26.7872C83.8781 26.8455 83.9226 26.8993 83.9689 26.9518C84.0154 27.004 84.0644 27.0537 84.1155 27.0991C84.2172 27.1913 84.3271 27.2673 84.438 27.3234C84.5404 27.376 84.6499 27.4133 84.7631 27.4342C84.8654 27.4528 84.9581 27.4538 85.0264 27.448C85.0601 27.4459 85.0891 27.4394 85.1079 27.4368C85.1181 27.4352 85.1282 27.433 85.1381 27.4302C85.1449 27.4282 85.1553 27.4249 85.162 27.4226C85.6056 27.2737 85.8445 26.7933 85.6956 26.3498C85.6956 26.3498 85.6919 26.3389 85.6834 26.3213C85.6746 26.3046 85.6631 26.2771 85.6453 26.2485C85.5998 26.1728 85.5447 26.1034 85.4815 26.0419C85.3988 25.9618 85.3049 25.8942 85.2028 25.8411C85.0928 25.7832 84.9671 25.7377 84.8331 25.7083C84.7654 25.6929 84.697 25.6816 84.6281 25.6742C84.5585 25.6668 84.4888 25.6617 84.4182 25.6631C84.3489 25.6619 84.2789 25.6665 84.2114 25.673C84.0864 25.6855 83.9627 25.7091 83.8418 25.7434C83.7891 25.7576 83.7397 25.7765 83.7002 25.7899C83.6611 25.8023 83.6266 25.8195 83.6049 25.8277C83.5824 25.8374 83.5698 25.8439 83.5698 25.8439C83.5434 25.8575 83.522 25.8789 83.5084 25.9053C83.4948 25.9317 83.4898 25.9616 83.494 25.9909Z" fill="#442A34"/>
</svg>
