<svg width="88" height="88" viewBox="0 0 88 88" fill="none" xmlns="http://www.w3.org/2000/svg">
<path d="M83.3091 28.0415C81.7641 27.1905 79.7134 26.6993 77.9536 26.8791C76.0414 19.4969 72.0022 12.5367 66.4942 7.76287C60.5566 2.60846 52.1942 -0.0206341 43.998 0.000121942C35.8088 -0.0206341 27.4394 2.60846 21.5018 7.76287C15.9869 12.5367 11.9477 19.4969 10.0424 26.8791C8.28959 26.6993 6.23882 27.1905 4.68688 28.0415C0.342841 30.4353 -0.654833 36.1917 0.370554 41.014C1.18809 44.8538 3.41207 47.7389 7.9986 48.8874C8.88542 49.1088 9.68911 49.1296 10.3889 49.0673C11.6706 53.1009 13.8114 56.8024 17.1994 59.8604C21.2247 63.4997 26.2408 65.9627 31.4024 67.3049C33.37 67.8169 38.4415 69 43.7555 69C49.0764 69 54.6399 67.8169 56.6006 67.3049C61.7691 65.9627 66.7782 63.4997 70.8036 59.8604C74.1915 56.7955 76.3323 53.1009 77.6141 49.0673C78.3138 49.1296 79.1175 49.1088 79.9974 48.8874C84.5839 47.7389 86.8148 44.8538 87.6324 41.014C88.6508 36.1917 87.6601 30.4423 83.3091 28.0415Z" fill="#F3805A"/>
<path d="M4.16726 38.5233C3.67535 33.3758 6.96629 32.1304 9.13484 31.8675C9.03092 32.6839 8.91314 33.5003 8.87157 34.3167C8.67758 37.7484 8.77457 41.1939 9.30805 44.5079C6.36353 44.9023 4.53446 42.377 4.16726 38.5233ZM59.074 59.4038C54.5983 61.687 49.1111 62.5587 43.998 62.4549C38.8849 62.5587 33.3977 61.687 28.922 59.4038C24.3909 57.093 19.8668 52.9764 20.1993 46.8741C20.3171 44.6394 21.4048 42.5638 21.682 40.3429C21.973 38.0044 21.9453 34.9532 21.3286 32.677C20.5388 29.7504 20.1578 26.8238 21.2455 23.9318C22.4025 20.8322 24.4533 18.1755 27.384 17.1169C28.4232 16.7433 29.5733 16.771 30.6472 16.6879C35.2891 16.3143 39.3838 21.3235 44.0119 21.1712C48.633 21.3235 52.7277 16.3143 57.3696 16.6879C58.4435 16.7779 59.5936 16.7433 60.6328 17.1169C63.5566 18.1755 65.6143 20.8322 66.7782 23.9318C67.8521 26.8238 67.478 29.7573 66.6951 32.677C66.0715 34.9532 66.0438 37.9974 66.3348 40.3429C66.6119 42.5707 67.6997 44.6463 67.8175 46.8741C68.1292 52.9833 63.6051 57.0999 59.074 59.4038ZM83.8357 38.5233C83.4616 42.377 81.6325 44.9092 78.688 44.5079C79.2284 41.2008 79.3254 37.7553 79.1314 34.3167C79.0829 33.5003 78.9651 32.6839 78.8681 31.8675C81.0367 32.1373 84.3276 33.3758 83.8357 38.5233Z" fill="#FFE4BE"/>
<path d="M56.8292 46.0369C52.4782 44.5425 43.1597 44.4456 37.042 45.1583C22.3055 46.8741 27.2385 53.3638 36.0998 55.8338C38.7879 56.581 42.2798 57.0445 46.2081 56.7886C52.6376 56.3803 54.917 55.1419 57.1825 53.6336C60.813 51.2121 62.1155 47.8496 56.8292 46.0369Z" fill="#CE4D5E"/>
<path d="M33.1344 37.5062C35.4901 37.5062 37.4023 35.2023 37.4023 32.3726C37.4023 29.529 35.4901 27.232 33.1344 27.232C30.7858 27.232 28.8735 29.529 28.8735 32.3726C28.8735 35.2092 30.7858 37.5062 33.1344 37.5062ZM54.8616 37.5062C57.2103 37.5062 59.1225 35.2023 59.1225 32.3726C59.1225 29.529 57.2103 27.232 54.8616 27.232C52.499 27.232 50.6007 29.529 50.6007 32.3726C50.6007 35.2092 52.5059 37.5062 54.8616 37.5062ZM42.2729 41.9342C42.8618 42.2178 43.6239 42.3839 44.4899 42.287C45.8964 42.1348 46.3952 41.6782 46.8871 41.1178C47.6769 40.2183 47.9679 38.973 46.8109 38.2949C45.8548 37.7415 43.8109 37.7069 42.4807 37.9767C39.2521 38.6132 40.3329 41.0209 42.2729 41.9342Z" fill="#2F2F2F"/>
<path d="M29.13 66.856L29.126 66.854C29.126 66.854 27.075 79.271 27.075 81.061C27.075 82.885 28.418 84.363 30.075 84.363C30.755 84.363 31.375 84.105 31.878 83.685L42.044 74.747L29.13 66.856ZM60.82 66.856L60.824 66.854C60.824 66.854 62.875 79.271 62.875 81.061C62.875 82.885 61.532 84.363 59.875 84.363C59.195 84.363 58.575 84.105 58.072 83.685L47.906 74.747L60.82 66.856Z" fill="#31373D"/>
<path d="M52.9751 76.051C57.6695 76.051 61.4751 72.2454 61.4751 67.551C61.4751 62.8566 57.6695 59.051 52.9751 59.051C48.2807 59.051 44.4751 62.8566 44.4751 67.551C44.4751 72.2454 48.2807 76.051 52.9751 76.051Z" fill="#14171A"/>
<path d="M36.9751 76.051C41.6695 76.051 45.4751 72.2454 45.4751 67.551C45.4751 62.8566 41.6695 59.051 36.9751 59.051C32.2807 59.051 28.4751 62.8566 28.4751 67.551C28.4751 72.2454 32.2807 76.051 36.9751 76.051Z" fill="#14171A"/>
<path d="M36.9751 59.051H52.9751V75.921H36.9751V59.051Z" fill="#14171A"/>
<path d="M40.075 80.301C42.8364 80.301 45.075 78.0624 45.075 75.301C45.075 72.5396 42.8364 70.301 40.075 70.301C37.3135 70.301 35.075 72.5396 35.075 75.301C35.075 78.0624 37.3135 80.301 40.075 80.301Z" fill="#14171A"/>
<path d="M49.875 80.301C52.6364 80.301 54.875 78.0624 54.875 75.301C54.875 72.5396 52.6364 70.301 49.875 70.301C47.1136 70.301 44.875 72.5396 44.875 75.301C44.875 78.0624 47.1136 80.301 49.875 80.301Z" fill="#14171A"/>
<path d="M49.875 78.301C51.5319 78.301 52.875 76.9579 52.875 75.301C52.875 73.6442 51.5319 72.301 49.875 72.301C48.2181 72.301 46.875 73.6442 46.875 75.301C46.875 76.9579 48.2181 78.301 49.875 78.301Z" fill="#67757F"/>
<path d="M40.075 78.301C41.7318 78.301 43.075 76.9579 43.075 75.301C43.075 73.6442 41.7318 72.301 40.075 72.301C38.4181 72.301 37.075 73.6442 37.075 75.301C37.075 76.9579 38.4181 78.301 40.075 78.301Z" fill="#67757F"/>
<path d="M52.7351 64.736C53.6204 64.736 54.3381 64.0183 54.3381 63.133C54.3381 62.2477 53.6204 61.53 52.7351 61.53C51.8498 61.53 51.1321 62.2477 51.1321 63.133C51.1321 64.0183 51.8498 64.736 52.7351 64.736Z" fill="#FFCC4D"/>
<path d="M52.7351 71.21C53.6204 71.21 54.3381 70.4923 54.3381 69.607C54.3381 68.7217 53.6204 68.004 52.7351 68.004C51.8498 68.004 51.1321 68.7217 51.1321 69.607C51.1321 70.4923 51.8498 71.21 52.7351 71.21Z" fill="#77B255"/>
<path d="M49.498 67.973C50.3833 67.973 51.101 67.2553 51.101 66.37C51.101 65.4847 50.3833 64.767 49.498 64.767C48.6127 64.767 47.895 65.4847 47.895 66.37C47.895 67.2553 48.6127 67.973 49.498 67.973Z" fill="#50A5E6"/>
<path d="M55.9719 67.973C56.8572 67.973 57.5749 67.2553 57.5749 66.37C57.5749 65.4847 56.8572 64.767 55.9719 64.767C55.0866 64.767 54.3689 65.4847 54.3689 66.37C54.3689 67.2553 55.0866 67.973 55.9719 67.973Z" fill="#DD2E44"/>
<path d="M38.148 64.514V62.346C38.148 62.2121 38.0948 62.0836 38.0001 61.9889C37.9054 61.8942 37.7769 61.841 37.643 61.841H36.085C35.9511 61.841 35.8226 61.8942 35.7279 61.9889C35.6332 62.0836 35.58 62.2121 35.58 62.346V64.514L36.864 65.799L38.148 64.514ZM35.579 68.144V70.312C35.579 70.591 35.805 70.817 36.084 70.817H37.642C37.7759 70.817 37.9044 70.7638 37.9991 70.6691C38.0938 70.5744 38.147 70.4459 38.147 70.312V68.144L36.863 66.859L35.579 68.144ZM40.848 65.044H38.68L37.395 66.329L38.68 67.614H40.848C40.9819 67.6137 41.1101 67.5605 41.2048 67.4658C41.2994 67.3712 41.3527 67.2429 41.353 67.109V65.55C41.353 65.416 41.2998 65.2874 41.2051 65.1926C41.1105 65.0977 40.982 65.0443 40.848 65.044ZM35.049 65.044H32.88C32.7461 65.0443 32.6179 65.0976 32.5232 65.1922C32.4286 65.2869 32.3753 65.4152 32.375 65.549V67.107C32.375 67.386 32.601 67.612 32.88 67.612H35.048L36.333 66.327L35.049 65.044Z" fill="#8899A6"/>
</svg>
