<svg width="94" height="85" viewBox="0 0 94 85" fill="none" xmlns="http://www.w3.org/2000/svg">
<path d="M80.9891 64.4219C78.7001 64.3281 81.8719 39.5703 81.8719 39.5703C81.8719 39.5703 82.4891 39.5391 83.4422 39.625C79.5985 23.5235 66.6844 11 46.7157 11C26.3094 11 15.4891 23.5391 11.6532 39.0547C11.9969 39.0391 12.1922 39.0469 12.1922 39.0469C12.1922 39.0469 16.075 64.8594 13.3172 64.5C12.8875 64.4453 12.2704 64.3594 11.5204 64.2032C15.3407 77.2344 26.6454 84.8907 47.6688 84.9532C66.8641 85.0157 78.2313 77.2032 82.5985 64.2969C81.9032 64.4063 81.3485 64.4375 80.9891 64.4219ZM70.3563 65.8047C67.161 71.9297 58.0985 76.2735 47.2235 76.0782C33.2391 75.8203 24.6766 71.6797 22.3485 64.7735C20.075 58.0469 24.9579 54.3281 24.7001 49.1563C24.4422 43.9766 19.4344 35.7813 26.1063 30.8594C35.8016 23.7032 40.0204 33.3985 46.7547 33.1875C53.0985 32.9922 59.9735 24.2813 67.5985 31.2422C74.5907 37.625 69.0672 43.5391 69.2391 49.5781C69.3797 54.586 74.3172 58.2032 70.3563 65.8047Z" fill="#FFB0D7"/>
<path d="M67.5907 31.2422C59.9735 24.2813 53.0907 32.9922 46.7469 33.1875C40.0126 33.3907 35.7938 23.7032 26.0985 30.8594C19.4344 35.7813 24.4344 43.9766 24.6922 49.1563C24.95 54.336 20.0672 58.0469 22.3407 64.7735C24.6688 71.6797 33.2391 75.8203 47.2157 76.0782C58.0907 76.2813 67.1532 71.9375 70.3485 65.8047C74.3094 58.2032 69.3719 54.586 69.2235 49.5782C69.0594 43.5391 74.5829 37.625 67.5907 31.2422ZM53.5204 44.6407C53.7391 41.7657 55.6532 39.0391 58.7079 39.336C61.1141 39.5703 62.6219 41.4453 62.536 44.8125C62.4266 49.1719 59.7313 50.5625 57.3251 50.3828C54.9188 50.2031 53.3094 47.5157 53.5204 44.6407ZM47.1063 50.1719C50.4032 50.2344 51.6141 50.2422 51.5047 51.8906C51.4422 52.9297 49.3016 54.9922 47.2313 55.0313C45.4813 55.0625 42.8954 53.3125 42.7313 51.7969C42.5594 50.0782 43.8719 50.1094 47.1063 50.1719ZM34.7704 39.5938C37.3172 39.3907 39.6454 40.8125 40.0047 44.3985C40.3876 48.1797 38.2938 50.7188 35.7469 50.9766C33.2079 51.2344 30.8875 48.961 30.575 45.8985C30.2704 42.836 31.536 39.8516 34.7704 39.5938ZM63.0204 62.1797C62.8485 65.461 57.2391 69.3828 47.0126 69.2969C36.3094 69.2032 30.9188 65.5391 30.786 62.3907C30.661 59.2813 37.8172 57.3672 46.6219 57.4688C60.7313 57.6485 63.1454 59.8516 63.0204 62.1797Z" fill="#FFE4BE"/>
<path d="M35.7547 50.9766C38.2938 50.7188 40.3954 48.1797 40.0126 44.3985C39.6454 40.8125 37.325 39.3907 34.7782 39.5938C31.5438 39.8516 30.2782 42.836 30.5907 45.8985C30.8954 48.961 33.2079 51.2344 35.7547 50.9766ZM57.3172 50.3907C59.7235 50.5703 62.4188 49.1797 62.5282 44.8203C62.6141 41.4453 61.1063 39.5703 58.7079 39.336C55.6532 39.0391 53.7391 41.7657 53.5204 44.6407C53.3094 47.5157 54.911 50.211 57.3172 50.3907ZM47.2391 55.0313C49.3094 54.9922 51.4501 52.9297 51.5126 51.8907C51.6141 50.2422 50.411 50.2422 47.1141 50.1719C43.8797 50.1094 42.5594 50.0782 42.7469 51.7891C42.9032 53.3125 45.4891 55.0625 47.2391 55.0313Z" fill="#8D6E63"/>
<path d="M46.6219 57.4766C37.8172 57.3672 30.661 59.2891 30.786 62.3985C30.9188 65.5469 36.3094 69.211 47.0126 69.3047C57.2391 69.3906 62.8485 65.461 63.0204 62.1875C63.1454 59.8516 60.7313 57.6485 46.6219 57.4766Z" fill="#CE4D5E"/>
<path d="M93.825 50.9453C93.9579 41.6328 86.7079 39.9219 83.4344 39.625C83.8172 41.2266 84.1141 42.8594 84.3094 44.5157C86.5438 44.9063 89.9266 46.4688 89.7704 51.3906C89.6219 56.0703 86.0438 58.3203 83.9422 58.9297C83.6063 60.8047 83.1532 62.6016 82.5751 64.3047C86.2704 63.7735 93.6766 61.086 93.825 50.9453Z" fill="#FFB0D7"/>
<path d="M82.5282 59.0313C82.1219 58.7657 82.5438 56.0078 82.6141 52.1719C82.6766 48.6016 82.1922 44.6563 82.4422 44.4922C82.5829 44.3985 83.3407 44.3516 84.3172 44.5235C84.1184 42.878 83.8263 41.2452 83.4422 39.6328C82.4891 39.5469 81.8719 39.5782 81.8719 39.5782C81.8719 39.5782 78.7079 64.336 80.9891 64.4297C81.3485 64.4453 81.9032 64.4219 82.5907 64.3203C83.1688 62.6172 83.6219 60.8203 83.9579 58.9453C83.2547 59.1328 82.7157 59.1563 82.5282 59.0313ZM3.98911 50.961C3.98911 44.5782 9.43442 43.8125 10.6532 44.1172C10.9032 42.4063 11.2391 40.7188 11.6454 39.0625C9.34067 39.1641 0.387549 40.2266 0.0125487 50.5782C-0.354639 60.625 7.42661 63.3828 11.5047 64.2188C11.0125 62.5391 10.6454 60.7735 10.3954 58.9141C8.2938 58.4688 3.98911 56.5157 3.98911 50.961Z" fill="#FFB0D7"/>
<path d="M12.1844 39.0469C12.1844 39.0469 11.9891 39.0391 11.6454 39.0547C11.2343 40.7228 10.9032 42.4097 10.6532 44.1094C10.7704 44.1407 10.8641 44.1719 10.8954 44.2188C10.9891 44.3594 10.8719 47.7813 11.0672 51.2969C11.2782 55.0313 11.8016 58.8672 11.4969 58.9766C11.3563 59.0313 10.95 59.0078 10.4032 58.8985C10.6532 60.75 11.0204 62.5235 11.5125 64.2032C12.2625 64.3516 12.8797 64.4453 13.3094 64.5C16.0672 64.8672 12.1844 39.0469 12.1844 39.0469Z" fill="#FFB0D7"/>
<path d="M3.98911 50.961C3.98911 56.5157 8.2938 58.4688 10.4032 58.9063C10.0047 55.9219 9.91099 52.7188 10.1141 49.3203C10.2157 47.5703 10.3954 45.836 10.6532 44.1172C9.43442 43.8125 3.98911 44.5782 3.98911 50.961Z" fill="#FFE4BE"/>
<path d="M10.4032 58.9063C10.95 59.0157 11.3563 59.0391 11.4969 58.9844C11.8016 58.8672 11.2782 55.0391 11.0672 51.3047C10.8641 47.7891 10.9891 44.3672 10.8954 44.2266C10.8641 44.1797 10.7704 44.1485 10.6532 44.1172C10.4032 45.836 10.2157 47.5703 10.1141 49.3203C9.91099 52.7266 10.0047 55.9219 10.4032 58.9063ZM83.95 58.9375C86.0516 58.3282 89.6297 56.0782 89.7782 51.3985C89.9344 46.4766 86.5438 44.9141 84.3172 44.5235C84.4501 45.625 84.5516 46.7344 84.5985 47.8594C84.7782 51.7969 84.5594 55.5 83.95 58.9375Z" fill="#FFE4BE"/>
<path d="M82.4422 44.4844C82.1922 44.6485 82.6766 48.5938 82.6141 52.1641C82.5438 56.0078 82.1219 58.7578 82.5282 59.0235C82.7235 59.1485 83.2547 59.1328 83.9501 58.9297C84.5594 55.5 84.7782 51.7969 84.5985 47.8516C84.5438 46.7266 84.4501 45.6172 84.3172 44.5157C83.3329 44.3438 82.5751 44.3906 82.4422 44.4844Z" fill="#FFE4BE"/>
<path d="M46.9759 10.3979C46.9759 10.3979 44.0946 11.1692 41.6758 12.7188C39.6849 13.9915 37.8725 15.9408 37.8725 15.9408L38.3184 20.7752L39.7175 21.8625L45.7178 16.6067C45.7178 16.6067 46.5901 14.4163 46.9121 12.9118C47.0803 12.1365 47.1721 11.3765 47.1721 11.3765L46.9759 10.3979ZM49.4033 11.0341C49.4033 11.0341 49.9734 13.3119 50.1814 14.2146C50.4178 15.2346 50.8766 16.8937 50.8766 16.8937L56.7159 21.1646L59.0036 16.832C59.0036 16.832 57.7715 15.2603 57.1083 14.4385C56.4451 13.6166 52.6509 10.9202 52.6509 10.9202L49.4033 11.0341Z" fill="#FCDD45"/>
<path d="M34.0489 23.2841C34.0489 23.2841 34.278 21.4194 35.847 18.7709C37.416 16.1223 38.1752 15.6676 38.1752 15.6676C38.1752 15.6676 39.0641 15.473 39.851 15.3884C40.7004 15.2966 41.4061 15.3849 41.4061 15.3849C41.4061 15.3849 40.3203 16.6698 39.7 17.9148C39.0797 19.1597 38.6913 20.3398 39.1313 20.5768C39.5685 20.8138 40.0819 19.2303 41.0501 17.7943C42.0683 16.2802 42.8395 15.5402 42.8395 15.5402C42.8395 15.5402 43.6002 15.5749 44.3907 15.8221C45.2652 16.0949 45.7457 16.5472 45.7457 16.5472C45.7457 16.5472 44.1233 20.7366 43.2315 23.1632C42.3397 25.5898 41.0566 28.8077 40.7533 28.9205C40.45 29.0334 39.938 28.0885 39.6219 27.3421C39.3057 26.5956 38.2472 22.6338 38.1755 22.7035C38.1039 22.7733 34.0489 23.2841 34.0489 23.2841ZM50.8742 16.8746C50.8742 16.8746 51.5626 16.4245 52.1224 16.2444C52.6821 16.0671 53.6709 15.9227 53.6709 15.9227C53.6709 15.9227 54.2479 17.0887 54.6993 17.8859C55.1535 18.6804 55.8872 20.3161 56.3769 20.0889C56.8666 19.8644 56.2635 18.2142 55.9118 17.4836C55.5918 16.8186 55.0276 15.9166 55.0276 15.9166C55.0276 15.9166 55.7492 15.8339 57.0668 16.1072C58.3871 16.3805 59.0063 16.8293 59.0063 16.8293C59.0063 16.8293 60.205 18.6615 60.8479 19.7794C61.7032 21.2699 62.7675 23.7963 62.7675 23.7963L57.9102 24.1277L55.4 29.4334C55.4 29.4334 55.0627 29.4506 54.8767 29.3339C54.6934 29.2145 53.8479 26.7916 53.3913 25.3718C52.6739 23.1301 50.8742 16.8746 50.8742 16.8746Z" fill="#FFED90"/>
<path d="M57.6364 23.6619C57.4465 23.8333 55.5728 28.3129 55.5166 28.4453C55.2274 29.132 54.842 29.2845 54.842 29.2845C54.842 29.2845 55.1645 29.7619 55.7239 29.6063C56.1551 29.487 58.2644 24.6735 58.2644 24.6735C58.2644 24.6735 61.9579 24.7587 62.4993 24.5322C63.1062 24.2793 62.7595 23.7826 62.7595 23.7826C62.7595 23.7826 57.8897 23.4315 57.6364 23.6619ZM34.0585 23.1809C34.0585 23.1809 35.1539 22.9972 36.1632 22.7444C37.1725 22.4916 38.466 22.1311 38.466 22.1311C38.466 22.1311 39.4451 24.9228 39.737 25.8592C40.0289 26.7957 40.7945 28.8912 40.7945 28.8912C40.7945 28.8912 40.4442 29.2589 39.951 28.9451C39.49 28.6507 38.6343 26.1815 38.4094 25.526C38.1215 24.6956 37.7493 23.4645 37.7493 23.4645C37.7493 23.4645 36.6899 23.8009 35.8098 23.9494C34.9297 24.098 34.3328 24.2068 34.1022 23.9699C33.8716 23.7357 34.0585 23.1809 34.0585 23.1809ZM43.2846 4.50296L38.2598 3.14114L34.6572 5.99067L33.0833 13.038L33.8722 14.408C33.8722 14.408 34.7385 15.0884 37.2086 14.5726C39.6787 14.054 45.2689 11.987 45.2689 11.987C45.2689 11.987 45.9744 12.2901 46.6093 12.3857C47.2442 12.4813 48.3318 12.2676 48.3318 12.2676C48.3318 12.2676 49.6933 12.5088 50.5068 12.4627C51.3176 12.4166 51.6667 12.3343 51.6667 12.3343C51.6667 12.3343 54.3141 13.7891 56.9678 14.5779C59.6214 15.3668 61.6768 15.5658 62.1423 15.5177C62.8665 15.4404 63.2309 14.2274 63.2309 14.2274L62.976 11.5569L59.2069 3.15981L51.0918 5.36944L50.5924 5.91459L48.4827 5.3098L45.602 5.83644L45.2462 5.40754L43.2846 4.50296Z" fill="#FCDD45"/>
<path d="M45.5055 5.72912C45.5055 5.72912 45.8397 4.73859 48.2561 4.77116C50.5095 4.80154 50.8019 5.69721 50.8019 5.69721C50.8019 5.69721 51.0691 7.65825 50.7799 9.3508C50.5229 10.8644 49.6617 12.4377 49.6617 12.4377C49.6617 12.4377 49.1026 12.5688 48.2406 12.5817C47.4275 12.5925 46.5659 12.377 46.5659 12.377C46.5659 12.377 45.8176 11.0157 45.517 9.3152C45.2293 7.66924 45.5055 5.72912 45.5055 5.72912Z" fill="#FFED90"/>
<path d="M46.906 8.92884C47.3669 9.02749 47.6473 7.78884 47.9427 7.45298C48.4065 6.9291 49.4869 7.04697 49.4775 6.33727C49.4714 5.77714 47.4145 5.49114 46.6585 6.51948C46.1322 7.23827 46.1714 8.77213 46.906 8.92884Z" fill="white"/>
<path d="M51.0891 5.3694C51.0891 5.3694 51.3912 5.74865 51.6539 6.42642C51.8484 6.92384 52.0561 7.64981 52.0561 7.64981C52.0561 7.64981 53.0681 6.79076 53.9307 6.32934C54.7906 5.86788 58.8901 4.4741 58.9695 6.45164C59.0321 8.05922 56.0263 7.98607 54.6078 8.54059C53.6102 8.9295 52.249 9.67238 52.249 9.67238L52.227 11.3087C52.227 11.3087 52.87 12.0134 54.3959 12.1617C55.9218 12.3101 59.8393 12.3167 60.6108 12.3597C62.2163 12.4493 62.7693 13.1772 62.7577 14.0334C62.7462 14.8869 62.4398 15.2335 62.5388 15.3463C62.6673 15.4948 63.3459 14.9684 63.7288 13.5898C64.1117 12.2111 64.4265 9.62992 64.3477 7.41315C64.2552 4.79382 63.786 1.28313 62.626 0.615012C61.4659 -0.0531065 58.0456 0.770759 56.0335 1.60001C52.649 2.99528 51.0891 5.3694 51.0891 5.3694ZM44.3351 7.44513C44.3351 7.44513 44.4688 6.80261 44.7122 6.29478C44.9024 5.8977 45.2488 5.41029 45.2488 5.41029C45.2488 5.41029 44.6299 3.72996 42.2861 2.34175C39.9423 0.953539 35.0149 -0.173167 33.433 0.403615C32.6462 0.689343 31.8607 2.68785 31.5886 5.73453C31.3545 8.37936 31.5727 11.5523 32.3861 13.1265C32.9981 14.3119 34.5792 15.2086 35.0695 14.7313C35.3092 14.498 33.5154 13.6528 35.2506 12.5942C36.2566 11.9824 38.164 12.0625 39.8209 11.9761C41.4777 11.8897 42.1833 11.9808 43.0561 11.775C43.9288 11.5693 44.4741 11.2504 44.4741 11.2504C44.4741 11.2504 44.2794 10.5681 44.243 10.2414C44.192 9.79485 44.1615 9.43014 44.1615 9.43014C44.1615 9.43014 43.5924 9.09894 42.0899 8.82857C40.6172 8.56132 38.1919 8.583 38.1785 6.95705C38.1601 4.89333 40.5342 5.44189 41.6398 5.91624C42.7453 6.3906 44.201 7.30739 44.3351 7.44513Z" fill="#FFED90"/>
</svg>
