<svg width="96" height="78" viewBox="0 0 96 78" fill="none" xmlns="http://www.w3.org/2000/svg">
<path d="M82.9891 53.4219C80.7001 53.3281 83.8719 28.5703 83.8719 28.5703C83.8719 28.5703 84.4891 28.5391 85.4422 28.625C81.5985 12.5234 68.6844 0 48.7157 0C28.3094 0 17.4891 12.5391 13.6532 28.0547C13.9969 28.0391 14.1922 28.0469 14.1922 28.0469C14.1922 28.0469 18.0751 53.8594 15.3172 53.5C14.8876 53.4453 14.2704 53.3594 13.5204 53.2031C17.3407 66.2344 28.6454 73.8906 49.6688 73.9531C68.8641 74.0156 80.2313 66.2031 84.5985 53.2969C83.9032 53.4062 83.3485 53.4375 82.9891 53.4219ZM72.3563 54.8047C69.161 60.9297 60.0985 65.2734 49.2235 65.0781C35.2391 64.8203 26.6766 60.6797 24.3485 53.7734C22.0751 47.0469 26.9579 43.3281 26.7001 38.1562C26.4422 32.9766 21.4344 24.7812 28.1063 19.8594C37.8016 12.7031 42.0204 22.3984 48.7547 22.1875C55.0985 21.9922 61.9735 13.2813 69.5985 20.2422C76.5907 26.625 71.0672 32.5391 71.2391 38.5781C71.3797 43.5859 76.3172 47.2031 72.3563 54.8047Z" fill="#CE4D5E"/>
<path d="M69.5907 20.2422C61.9735 13.2812 55.0907 21.9922 48.7469 22.1875C42.0126 22.3906 37.7938 12.7031 28.0985 19.8594C21.4344 24.7812 26.4344 32.9766 26.6922 38.1562C26.95 43.3359 22.0672 47.0469 24.3407 53.7734C26.6688 60.6797 35.2391 64.8203 49.2157 65.0781C60.0907 65.2812 69.1532 60.9375 72.3485 54.8047C76.3094 47.2031 71.3719 43.5859 71.2235 38.5781C71.0594 32.5391 76.5829 26.625 69.5907 20.2422ZM55.5204 33.6406C55.7391 30.7656 57.6532 28.0391 60.7079 28.3359C63.1141 28.5703 64.6219 30.4453 64.536 33.8125C64.4266 38.1719 61.7313 39.5625 59.3251 39.3828C56.9188 39.2031 55.3094 36.5156 55.5204 33.6406ZM49.1063 39.1719C52.4032 39.2344 53.6141 39.2422 53.5047 40.8906C53.4422 41.9297 51.3016 43.9922 49.2313 44.0312C47.4813 44.0625 44.8954 42.3125 44.7313 40.7969C44.5594 39.0781 45.8719 39.1094 49.1063 39.1719ZM36.7704 28.5938C39.3172 28.3906 41.6454 29.8125 42.0047 33.3984C42.3876 37.1797 40.2938 39.7188 37.7469 39.9766C35.2079 40.2344 32.8876 37.9609 32.5751 34.8984C32.2704 31.8359 33.536 28.8516 36.7704 28.5938ZM65.0204 51.1797C64.8485 54.4609 59.2391 58.3828 49.0126 58.2969C38.3094 58.2031 32.9188 54.5391 32.786 51.3906C32.661 48.2812 39.8172 46.3672 48.6219 46.4688C62.7313 46.6484 65.1454 48.8516 65.0204 51.1797Z" fill="#FFE4BE"/>
<path d="M37.7547 39.9766C40.2938 39.7188 42.3954 37.1797 42.0126 33.3984C41.6454 29.8125 39.3251 28.3906 36.7782 28.5938C33.5438 28.8516 32.2782 31.8359 32.5907 34.8984C32.8954 37.9609 35.2079 40.2344 37.7547 39.9766ZM59.3172 39.3906C61.7235 39.5703 64.4188 38.1797 64.5282 33.8203C64.6141 30.4453 63.1063 28.5703 60.7079 28.3359C57.6532 28.0391 55.7391 30.7656 55.5204 33.6406C55.3094 36.5156 56.911 39.2109 59.3172 39.3906ZM49.2391 44.0313C51.3094 43.9922 53.4501 41.9297 53.5126 40.8906C53.6141 39.2422 52.411 39.2422 49.1141 39.1719C45.8797 39.1094 44.5594 39.0781 44.7469 40.7891C44.9032 42.3125 47.4891 44.0625 49.2391 44.0313Z" fill="#393531"/>
<path d="M48.6219 46.4766C39.8172 46.3672 32.661 48.2891 32.786 51.3984C32.9188 54.5469 38.3094 58.2109 49.0126 58.3047C59.2391 58.3906 64.8485 54.4609 65.0204 51.1875C65.1454 48.8516 62.7313 46.6484 48.6219 46.4766Z" fill="#CE4D5E"/>
<path d="M95.825 39.9453C95.9579 30.6328 88.7079 28.9219 85.4344 28.625C85.8172 30.2266 86.1141 31.8594 86.3094 33.5156C88.5438 33.9062 91.9266 35.4687 91.7704 40.3906C91.6219 45.0703 88.0438 47.3203 85.9422 47.9297C85.6063 49.8047 85.1532 51.6016 84.5751 53.3047C88.2704 52.7734 95.6766 50.0859 95.825 39.9453Z" fill="#CE4D5E"/>
<path d="M84.5282 48.0312C84.1219 47.7656 84.5438 45.0078 84.6141 41.1719C84.6766 37.6016 84.1922 33.6562 84.4422 33.4922C84.5829 33.3984 85.3407 33.3516 86.3172 33.5234C86.1184 31.878 85.8263 30.2451 85.4422 28.6328C84.4891 28.5469 83.8719 28.5781 83.8719 28.5781C83.8719 28.5781 80.7079 53.3359 82.9891 53.4297C83.3485 53.4453 83.9032 53.4219 84.5907 53.3203C85.1688 51.6172 85.6219 49.8203 85.9579 47.9453C85.2547 48.1328 84.7157 48.1562 84.5282 48.0312ZM5.98911 39.9609C5.98911 33.5781 11.4344 32.8125 12.6532 33.1172C12.9032 31.4062 13.2391 29.7188 13.6454 28.0625C11.3407 28.1641 2.38755 29.2266 2.01255 39.5781C1.64536 49.625 9.42661 52.3828 13.5047 53.2188C13.0126 51.5391 12.6454 49.7734 12.3954 47.9141C10.2938 47.4688 5.98911 45.5156 5.98911 39.9609Z" fill="#CE4D5E"/>
<path d="M14.1844 28.0469C14.1844 28.0469 13.9891 28.0391 13.6454 28.0547C13.2343 29.7228 12.9032 31.4096 12.6532 33.1094C12.7704 33.1406 12.8641 33.1719 12.8954 33.2188C12.9891 33.3594 12.8719 36.7812 13.0672 40.2969C13.2782 44.0312 13.8016 47.8672 13.4969 47.9766C13.3563 48.0312 12.9501 48.0078 12.4032 47.8984C12.6532 49.75 13.0204 51.5234 13.5126 53.2031C14.2626 53.3516 14.8797 53.4453 15.3094 53.5C18.0672 53.8672 14.1844 28.0469 14.1844 28.0469Z" fill="#CE4D5E"/>
<path d="M5.98911 39.9609C5.98911 45.5156 10.2938 47.4688 12.4032 47.9062C12.0047 44.9219 11.911 41.7188 12.1141 38.3203C12.2157 36.5703 12.3954 34.8359 12.6532 33.1172C11.4344 32.8125 5.98911 33.5781 5.98911 39.9609Z" fill="#FFE4BE"/>
<path d="M12.4032 47.9062C12.9501 48.0156 13.3563 48.0391 13.4969 47.9844C13.8016 47.8672 13.2782 44.0391 13.0672 40.3047C12.8641 36.7891 12.9891 33.3672 12.8954 33.2266C12.8641 33.1797 12.7704 33.1484 12.6532 33.1172C12.4032 34.8359 12.2157 36.5703 12.1141 38.3203C11.911 41.7266 12.0047 44.9219 12.4032 47.9062ZM85.95 47.9375C88.0516 47.3281 91.6297 45.0781 91.7782 40.3984C91.9344 35.4766 88.5438 33.9141 86.3172 33.5234C86.4501 34.625 86.5516 35.7344 86.5985 36.8594C86.7782 40.7969 86.5594 44.5 85.95 47.9375Z" fill="#FFE4BE"/>
<path d="M84.4422 33.4844C84.1922 33.6484 84.6766 37.5937 84.6141 41.1641C84.5438 45.0078 84.1219 47.7578 84.5282 48.0234C84.7235 48.1484 85.2547 48.1328 85.9501 47.9297C86.5594 44.5 86.7782 40.7969 86.5985 36.8516C86.5438 35.7266 86.4501 34.6172 86.3172 33.5156C85.3329 33.3438 84.5751 33.3906 84.4422 33.4844Z" fill="#FFE4BE"/>
<path d="M25.0521 76.9567L6.26416 68.8247L3.76649 64.2306L23.5197 48.9308L27.2589 51.8972L29.7456 73.4737C30.043 76.0542 27.436 77.9888 25.0521 76.9567Z" fill="#FCD53F"/>
<path d="M27.3259 52.4784C17.7133 53.9883 10.0069 60.4526 6.53224 68.9399L2.57514 67.2273C0.844439 66.4778 0.0504481 64.4425 0.992186 62.8075C7.30536 51.8595 17.7663 47.5408 23.1132 45.9835C24.9396 45.4514 26.6661 46.754 26.8841 48.645L27.3259 52.4784Z" fill="#F3AD61"/>
<path d="M25.9253 59.9781C26.0449 61.0155 25.7474 62.0579 25.0984 62.876C24.4494 63.6941 23.502 64.2209 22.4645 64.3405C21.4271 64.4601 20.3847 64.1626 19.5666 63.5136C18.7485 62.8646 18.2217 61.9171 18.1021 60.8797C17.9825 59.8423 18.28 58.7998 18.929 57.9817C19.578 57.1636 20.5255 56.6368 21.5629 56.5173C22.6003 56.3977 23.6428 56.6952 24.4609 57.3442C25.279 57.9932 25.8058 58.9406 25.9253 59.9781ZM17.7573 67.7141C17.8427 68.4551 17.6303 69.1997 17.1667 69.7841C16.7031 70.3685 16.0264 70.7447 15.2853 70.8301C14.5443 70.9155 13.7997 70.7031 13.2154 70.2395C12.631 69.7759 12.2547 69.0992 12.1693 68.3581C12.0839 67.6171 12.2964 66.8725 12.76 66.2882C13.2236 65.7038 13.9003 65.3275 14.6413 65.2421C15.3823 65.1567 16.1269 65.3692 16.7113 65.8328C17.2957 66.2964 17.6719 66.9731 17.7573 67.7141ZM23.925 72.0993C24.5178 72.031 25.0592 71.73 25.43 71.2625C25.8009 70.795 25.9709 70.1993 25.9026 69.6065C25.8342 69.0137 25.5332 68.4723 25.0657 68.1014C24.5982 67.7305 24.0026 67.5606 23.4097 67.6289C22.8169 67.6972 22.2755 67.9982 21.9047 68.4657C21.5338 68.9332 21.3638 69.5289 21.4322 70.1217C21.5005 70.7145 21.8015 71.2559 22.269 71.6268C22.7365 71.9977 23.3322 72.1676 23.925 72.0993Z" fill="#F8312F"/>
</svg>
