<svg width="94" height="74" viewBox="0 0 94 74" fill="none" xmlns="http://www.w3.org/2000/svg">
<path d="M80.9891 53.4219C78.7001 53.3281 81.8719 28.5703 81.8719 28.5703C81.8719 28.5703 82.4891 28.5391 83.4422 28.625C79.5985 12.5234 66.6844 0 46.7157 0C26.3094 0 15.4891 12.5391 11.6532 28.0547C11.9969 28.0391 12.1922 28.0469 12.1922 28.0469C12.1922 28.0469 16.075 53.8594 13.3172 53.5C12.8875 53.4453 12.2704 53.3594 11.5204 53.2031C15.3407 66.2344 26.6454 73.8906 47.6688 73.9531C66.8641 74.0156 78.2313 66.2031 82.5985 53.2969C81.9032 53.4062 81.3485 53.4375 80.9891 53.4219ZM70.3563 54.8047C67.161 60.9297 58.0985 65.2734 47.2235 65.0781C33.2391 64.8203 24.6766 60.6797 22.3485 53.7734C20.075 47.0469 24.9579 43.3281 24.7001 38.1562C24.4422 32.9766 19.4344 24.7812 26.1063 19.8594C35.8016 12.7031 40.0204 22.3984 46.7547 22.1875C53.0985 21.9922 59.9735 13.2813 67.5985 20.2422C74.5907 26.625 69.0672 32.5391 69.2391 38.5781C69.3797 43.5859 74.3172 47.2031 70.3563 54.8047Z" fill="#B5885D"/>
<path d="M67.5907 20.2422C59.9735 13.2812 53.0907 21.9922 46.7469 22.1875C40.0126 22.3906 35.7938 12.7031 26.0985 19.8594C19.4344 24.7812 24.4344 32.9766 24.6922 38.1562C24.95 43.3359 20.0672 47.0469 22.3407 53.7734C24.6688 60.6797 33.2391 64.8203 47.2157 65.0781C58.0907 65.2812 67.1532 60.9375 70.3485 54.8047C74.3094 47.2031 69.3719 43.5859 69.2235 38.5781C69.0594 32.5391 74.5829 26.625 67.5907 20.2422ZM53.5204 33.6406C53.7391 30.7656 55.6532 28.0391 58.7079 28.3359C61.1141 28.5703 62.6219 30.4453 62.536 33.8125C62.4266 38.1719 59.7313 39.5625 57.3251 39.3828C54.9188 39.2031 53.3094 36.5156 53.5204 33.6406ZM47.1063 39.1719C50.4032 39.2344 51.6141 39.2422 51.5047 40.8906C51.4422 41.9297 49.3016 43.9922 47.2313 44.0312C45.4813 44.0625 42.8954 42.3125 42.7313 40.7969C42.5594 39.0781 43.8719 39.1094 47.1063 39.1719ZM34.7704 28.5938C37.3172 28.3906 39.6454 29.8125 40.0047 33.3984C40.3876 37.1797 38.2938 39.7188 35.7469 39.9766C33.2079 40.2344 30.8875 37.9609 30.575 34.8984C30.2704 31.8359 31.536 28.8516 34.7704 28.5938ZM63.0204 51.1797C62.8485 54.4609 57.2391 58.3828 47.0126 58.2969C36.3094 58.2031 30.9188 54.5391 30.786 51.3906C30.661 48.2812 37.8172 46.3672 46.6219 46.4688C60.7313 46.6484 63.1454 48.8516 63.0204 51.1797Z" fill="#FFE4BE"/>
<path d="M35.7547 39.9766C38.2938 39.7188 40.3954 37.1797 40.0126 33.3984C39.6454 29.8125 37.3251 28.3906 34.7782 28.5938C31.5438 28.8516 30.2782 31.8359 30.5907 34.8984C30.8954 37.9609 33.2079 40.2344 35.7547 39.9766ZM57.3172 39.3906C59.7235 39.5703 62.4188 38.1797 62.5282 33.8203C62.6141 30.4453 61.1063 28.5703 58.7079 28.3359C55.6532 28.0391 53.7391 30.7656 53.5204 33.6406C53.3094 36.5156 54.911 39.2109 57.3172 39.3906ZM47.2391 44.0313C49.3094 43.9922 51.4501 41.9297 51.5126 40.8906C51.6141 39.2422 50.411 39.2422 47.1141 39.1719C43.8797 39.1094 42.5594 39.0781 42.7469 40.7891C42.9032 42.3125 45.4891 44.0625 47.2391 44.0313Z" fill="#393531"/>
<path d="M46.6219 46.4766C37.8172 46.3672 30.661 48.2891 30.786 51.3984C30.9188 54.5469 36.3094 58.2109 47.0126 58.3047C57.2391 58.3906 62.8485 54.4609 63.0204 51.1875C63.1454 48.8516 60.7313 46.6484 46.6219 46.4766Z" fill="#CE4D5E"/>
<path d="M93.825 39.9453C93.9579 30.6328 86.7079 28.9219 83.4344 28.625C83.8172 30.2266 84.1141 31.8594 84.3094 33.5156C86.5438 33.9062 89.9266 35.4687 89.7704 40.3906C89.6219 45.0703 86.0438 47.3203 83.9422 47.9297C83.6063 49.8047 83.1532 51.6016 82.5751 53.3047C86.2704 52.7734 93.6766 50.0859 93.825 39.9453Z" fill="#B5885D"/>
<path d="M82.5282 48.0312C82.1219 47.7656 82.5438 45.0078 82.6141 41.1719C82.6766 37.6016 82.1922 33.6562 82.4422 33.4922C82.5829 33.3984 83.3407 33.3516 84.3172 33.5234C84.1184 31.878 83.8263 30.2451 83.4422 28.6328C82.4891 28.5469 81.8719 28.5781 81.8719 28.5781C81.8719 28.5781 78.7079 53.3359 80.9891 53.4297C81.3485 53.4453 81.9032 53.4219 82.5907 53.3203C83.1688 51.6172 83.6219 49.8203 83.9579 47.9453C83.2547 48.1328 82.7157 48.1562 82.5282 48.0312ZM3.98911 39.9609C3.98911 33.5781 9.43442 32.8125 10.6532 33.1172C10.9032 31.4062 11.2391 29.7188 11.6454 28.0625C9.34067 28.1641 0.387549 29.2266 0.0125487 39.5781C-0.354639 49.625 7.42661 52.3828 11.5047 53.2188C11.0125 51.5391 10.6454 49.7734 10.3954 47.9141C8.2938 47.4688 3.98911 45.5156 3.98911 39.9609Z" fill="#B5885D"/>
<path d="M12.1844 28.0469C12.1844 28.0469 11.9891 28.0391 11.6454 28.0547C11.2343 29.7228 10.9032 31.4096 10.6532 33.1094C10.7704 33.1406 10.8641 33.1719 10.8954 33.2188C10.9891 33.3594 10.8719 36.7812 11.0672 40.2969C11.2782 44.0312 11.8016 47.8672 11.4969 47.9766C11.3563 48.0312 10.95 48.0078 10.4032 47.8984C10.6532 49.75 11.0204 51.5234 11.5125 53.2031C12.2625 53.3516 12.8797 53.4453 13.3094 53.5C16.0672 53.8672 12.1844 28.0469 12.1844 28.0469Z" fill="#B5885D"/>
<path d="M3.98911 39.9609C3.98911 45.5156 8.2938 47.4688 10.4032 47.9062C10.0047 44.9219 9.91099 41.7188 10.1141 38.3203C10.2157 36.5703 10.3954 34.8359 10.6532 33.1172C9.43442 32.8125 3.98911 33.5781 3.98911 39.9609Z" fill="#FFE4BE"/>
<path d="M10.4032 47.9062C10.95 48.0156 11.3563 48.0391 11.4969 47.9844C11.8016 47.8672 11.2782 44.0391 11.0672 40.3047C10.8641 36.7891 10.9891 33.3672 10.8954 33.2266C10.8641 33.1797 10.7704 33.1484 10.6532 33.1172C10.4032 34.8359 10.2157 36.5703 10.1141 38.3203C9.91099 41.7266 10.0047 44.9219 10.4032 47.9062ZM83.95 47.9375C86.0516 47.3281 89.6297 45.0781 89.7782 40.3984C89.9344 35.4766 86.5438 33.9141 84.3172 33.5234C84.4501 34.625 84.5516 35.7344 84.5985 36.8594C84.7782 40.7969 84.5594 44.5 83.95 47.9375Z" fill="#FFE4BE"/>
<path d="M82.4422 33.4844C82.1922 33.6484 82.6766 37.5937 82.6141 41.1641C82.5438 45.0078 82.1219 47.7578 82.5282 48.0234C82.7235 48.1484 83.2547 48.1328 83.9501 47.9297C84.5594 44.5 84.7782 40.7969 84.5985 36.8516C84.5438 35.7266 84.4501 34.6172 84.3172 33.5156C83.3329 33.3438 82.5751 33.3906 82.4422 33.4844Z" fill="#FFE4BE"/>
</svg>
