<svg width="94" height="82" viewBox="0 0 94 82" fill="none" xmlns="http://www.w3.org/2000/svg">
<path d="M80.9891 61.4219C78.7001 61.3282 81.8719 36.5704 81.8719 36.5704C81.8719 36.5704 82.4891 36.5391 83.4422 36.6251C79.5985 20.5235 66.6844 8.00006 46.7157 8.00006C26.3094 8.00006 15.4891 20.5391 11.6532 36.0548C11.9969 36.0391 12.1922 36.0469 12.1922 36.0469C12.1922 36.0469 16.075 61.8594 13.3172 61.5001C12.8875 61.4454 12.2704 61.3594 11.5204 61.2032C15.3407 74.2344 26.6454 81.8907 47.6688 81.9532C66.8641 82.0157 78.2313 74.2032 82.5985 61.2969C81.9032 61.4063 81.3485 61.4376 80.9891 61.4219ZM70.3563 62.8047C67.161 68.9297 58.0985 73.2735 47.2235 73.0782C33.2391 72.8204 24.6766 68.6797 22.3485 61.7735C20.075 55.0469 24.9579 51.3282 24.7001 46.1563C24.4422 40.9766 19.4344 32.7813 26.1063 27.8594C35.8016 20.7032 40.0204 30.3985 46.7547 30.1876C53.0985 29.9922 59.9735 21.2813 67.5985 28.2423C74.5907 34.6251 69.0672 40.5391 69.2391 46.5782C69.3797 51.586 74.3172 55.2032 70.3563 62.8047Z" fill="#FCDD45" fill-opacity="0.87"/>
<path d="M67.5907 28.2422C59.9735 21.2813 53.0907 29.9922 46.7469 30.1876C40.0126 30.3907 35.7938 20.7032 26.0985 27.8594C19.4344 32.7813 24.4344 40.9766 24.6922 46.1563C24.95 51.336 20.0672 55.0469 22.3407 61.7735C24.6688 68.6797 33.2391 72.8204 47.2157 73.0782C58.0907 73.2813 67.1532 68.9376 70.3485 62.8047C74.3094 55.2032 69.3719 51.586 69.2235 46.5782C69.0594 40.5391 74.5829 34.6251 67.5907 28.2422ZM53.5204 41.6407C53.7391 38.7657 55.6532 36.0391 58.7079 36.336C61.1141 36.5704 62.6219 38.4454 62.536 41.8126C62.4266 46.1719 59.7313 47.5626 57.3251 47.3829C54.9188 47.2032 53.3094 44.5157 53.5204 41.6407ZM47.1063 47.1719C50.4032 47.2344 51.6141 47.2422 51.5047 48.8907C51.4422 49.9297 49.3016 51.9922 47.2313 52.0313C45.4813 52.0626 42.8954 50.3126 42.7313 48.7969C42.5594 47.0782 43.8719 47.1094 47.1063 47.1719ZM34.7704 36.5938C37.3172 36.3907 39.6454 37.8126 40.0047 41.3985C40.3876 45.1797 38.2938 47.7188 35.7469 47.9766C33.2079 48.2344 30.8875 45.961 30.575 42.8985C30.2704 39.836 31.536 36.8516 34.7704 36.5938ZM63.0204 59.1797C62.8485 62.461 57.2391 66.3829 47.0126 66.2969C36.3094 66.2032 30.9188 62.5391 30.786 59.3907C30.661 56.2813 37.8172 54.3672 46.6219 54.4688C60.7313 54.6485 63.1454 56.8516 63.0204 59.1797Z" fill="#C8954E"/>
<path d="M35.7547 47.9766C38.2938 47.7188 40.3954 45.1797 40.0126 41.3985C39.6454 37.8126 37.325 36.3907 34.7782 36.5938C31.5438 36.8516 30.2782 39.836 30.5907 42.8985C30.8954 45.961 33.2079 48.2344 35.7547 47.9766ZM57.3172 47.3907C59.7235 47.5704 62.4188 46.1797 62.5282 41.8204C62.6141 38.4454 61.1063 36.5704 58.7079 36.336C55.6532 36.0391 53.7391 38.7657 53.5204 41.6407C53.3094 44.5157 54.911 47.211 57.3172 47.3907ZM47.2391 52.0313C49.3094 51.9923 51.4501 49.9297 51.5126 48.8907C51.6141 47.2422 50.411 47.2422 47.1141 47.1719C43.8797 47.1094 42.5594 47.0782 42.7469 48.7891C42.9032 50.3126 45.4891 52.0626 47.2391 52.0313Z" fill="#FEE9A8"/>
<path d="M46.6219 54.4766C37.8172 54.3672 30.661 56.2891 30.786 59.3985C30.9188 62.5469 36.3094 66.211 47.0126 66.3047C57.2391 66.3907 62.8485 62.461 63.0204 59.1876C63.1454 56.8516 60.7313 54.6485 46.6219 54.4766Z" fill="#CE4D5E"/>
<path d="M93.825 47.9454C93.9579 38.6329 86.7079 36.9219 83.4344 36.6251C83.8172 38.2266 84.1141 39.8594 84.3094 41.5157C86.5438 41.9063 89.9266 43.4688 89.7704 48.3907C89.6219 53.0704 86.0438 55.3204 83.9422 55.9297C83.6063 57.8047 83.1532 59.6016 82.5751 61.3047C86.2704 60.7735 93.6766 58.086 93.825 47.9454Z" fill="#FCDD45" fill-opacity="0.87"/>
<path d="M82.5282 56.0313C82.1219 55.7657 82.5438 53.0079 82.6141 49.1719C82.6766 45.6016 82.1922 41.6563 82.4422 41.4922C82.5829 41.3985 83.3407 41.3516 84.3172 41.5235C84.1184 39.878 83.8263 38.2452 83.4422 36.6329C82.4891 36.5469 81.8719 36.5782 81.8719 36.5782C81.8719 36.5782 78.7079 61.336 80.9891 61.4297C81.3485 61.4454 81.9032 61.4219 82.5907 61.3204C83.1688 59.6172 83.6219 57.8204 83.9579 55.9454C83.2547 56.1329 82.7157 56.1563 82.5282 56.0313ZM3.98911 47.961C3.98911 41.5782 9.43442 40.8126 10.6532 41.1172C10.9032 39.4063 11.2391 37.7188 11.6454 36.0626C9.34067 36.1641 0.387549 37.2266 0.0125487 47.5782C-0.354639 57.6251 7.42661 60.3829 11.5047 61.2188C11.0125 59.5391 10.6454 57.7735 10.3954 55.9141C8.2938 55.4688 3.98911 53.5157 3.98911 47.961Z" fill="#FCDD45" fill-opacity="0.87"/>
<path d="M12.1844 36.0469C12.1844 36.0469 11.9891 36.0391 11.6454 36.0547C11.2343 37.7229 10.9032 39.4097 10.6532 41.1094C10.7704 41.1407 10.8641 41.1719 10.8954 41.2188C10.9891 41.3594 10.8719 44.7813 11.0672 48.2969C11.2782 52.0313 11.8016 55.8672 11.4969 55.9766C11.3563 56.0313 10.95 56.0079 10.4032 55.8985C10.6532 57.7501 11.0204 59.5235 11.5125 61.2032C12.2625 61.3516 12.8797 61.4454 13.3094 61.5001C16.0672 61.8672 12.1844 36.0469 12.1844 36.0469Z" fill="#FCDD45" fill-opacity="0.87"/>
<path d="M3.98911 47.961C3.98911 53.5157 8.2938 55.4688 10.4032 55.9063C10.0047 52.9219 9.91099 49.7188 10.1141 46.3204C10.2157 44.5704 10.3954 42.836 10.6532 41.1172C9.43442 40.8126 3.98911 41.5782 3.98911 47.961Z" fill="#C8954E"/>
<path d="M10.4032 55.9063C10.95 56.0157 11.3563 56.0391 11.4969 55.9844C11.8016 55.8672 11.2782 52.0391 11.0672 48.3047C10.8641 44.7891 10.9891 41.3672 10.8954 41.2266C10.8641 41.1797 10.7704 41.1485 10.6532 41.1172C10.4032 42.836 10.2157 44.5704 10.1141 46.3204C9.91099 49.7266 10.0047 52.9219 10.4032 55.9063ZM83.95 55.9376C86.0516 55.3282 89.6297 53.0782 89.7782 48.3985C89.9344 43.4766 86.5438 41.9141 84.3172 41.5235C84.4501 42.6251 84.5516 43.7344 84.5985 44.8594C84.7782 48.7969 84.5594 52.5001 83.95 55.9376Z" fill="#C8954E"/>
<path d="M82.4422 41.4844C82.1922 41.6485 82.6766 45.5938 82.6141 49.1641C82.5438 53.0079 82.1219 55.7579 82.5282 56.0235C82.7235 56.1485 83.2547 56.1329 83.9501 55.9297C84.5594 52.5001 84.7782 48.7969 84.5985 44.8516C84.5438 43.7266 84.4501 42.6172 84.3172 41.5157C83.3329 41.3438 82.5751 41.3907 82.4422 41.4844Z" fill="#C8954E"/>
<path d="M66.8664 20.3821C66.6691 21.3101 66.7165 22.2505 66.982 23.2852C67.1201 23.8175 67.2966 24.3391 67.5102 24.8458C67.861 25.6865 68.0906 26.5967 68.6212 27.3484C68.8131 27.617 68.9347 27.963 69.1866 28.1808C69.4349 28.3997 69.6644 28.3036 69.9679 28.3194C70.1666 28.3333 70.363 28.3703 70.5531 28.4294C71.2134 28.6201 71.7148 29.0949 72.124 29.6274C72.3667 29.9445 72.5783 30.2834 72.7749 30.6294C72.9068 30.8623 73.0076 31.1864 73.2835 31.2922C73.5883 31.4095 73.9862 31.259 74.3024 31.2667C75.2613 31.292 75.8509 32.099 76.4713 32.7109C76.6781 32.9149 76.8146 33.1501 77.148 33.0597C77.6463 32.9217 78.1678 32.9222 78.6654 33.0635C79.1063 33.191 79.5208 33.3947 79.9273 33.603C80.134 33.7089 80.7473 34.1674 80.9791 34.0956C81.0749 34.0654 81.114 33.9581 81.1416 33.8738C81.4979 32.7771 80.372 31.2531 81.4944 30.0539C81.6061 29.9337 81.6175 29.8241 81.5792 29.658C81.4052 28.8966 80.6245 27.4898 81.1301 26.7587C81.2695 26.5601 81.596 26.5701 81.7135 26.4095C81.7849 26.3125 81.7039 26.1049 81.6692 26.0011C81.5985 25.8073 81.5429 25.6066 81.4791 25.4105C81.4062 25.1752 81.3331 24.9399 81.2694 24.7034C81.1407 24.2443 81.027 23.7841 80.9503 23.3134C80.9084 23.0503 80.8399 22.7423 80.8938 22.4665C80.9683 22.1029 81.2589 21.971 81.0185 21.6205C80.7052 21.1674 80.1706 20.9096 79.7674 20.5501C79.2799 20.1169 78.8166 19.6524 78.3233 19.225C77.1253 18.1868 75.819 17.1869 74.4333 16.4156C73.4725 15.8791 72.2003 15.4411 71.0928 15.6444C70.0869 15.8292 69.2188 16.4834 68.5551 17.2309C68.1956 17.6398 67.8258 18.1042 67.5668 18.5834C67.2237 19.1908 66.9937 19.7854 66.8664 20.3821ZM58.0785 14.4196C57.9204 14.4186 57.752 14.4269 57.6113 14.4663C56.6109 14.5761 55.6143 14.8174 54.6767 15.2236C54.5994 15.263 54.4898 15.2689 54.4576 15.3624C54.4082 15.5021 54.5365 15.6842 54.5332 15.8354C54.5173 16.0062 54.4424 16.1275 54.3549 16.2453C54.106 16.5537 53.7301 16.7353 53.4096 16.9446C53.1778 17.0972 52.8883 17.1864 52.697 17.3967C52.477 17.6589 52.7049 18.1387 52.6154 18.4919C52.3099 19.6427 51.1774 20.1565 50.8199 21.2267C50.7705 21.3664 50.7141 21.4853 50.847 21.6294C51.0792 21.8633 51.4912 21.9101 51.7775 21.9893C52.3188 22.1006 52.9399 22.2948 53.4791 22.5318C54.0125 22.763 54.4354 23.1814 54.9203 23.4115C55.0358 23.4633 55.1246 23.4759 55.2469 23.4561C55.4442 23.4247 55.6565 23.4325 55.8457 23.3884C55.9807 23.3548 56.0798 23.2716 56.2217 23.276C56.6025 23.2351 57.0261 23.328 57.3575 23.4961C57.4603 23.556 57.5711 23.5881 57.6542 23.6584C57.8795 23.8139 57.9223 23.9419 58.1842 23.8966C58.3907 23.8813 58.5763 23.7403 58.7643 23.6754C59.4022 23.5004 60.0289 23.5907 60.5625 23.9604C60.864 24.1828 61.9215 23.721 62.2283 23.5625C63.1657 23.064 63.9008 22.208 64.2906 21.0674C64.7609 19.7882 64.535 18.2573 63.742 17.1644C62.3584 15.2726 60.2604 14.3106 58.0785 14.4196Z" fill="#90D0A3"/>
<path d="M60.4868 2.77922C60.4868 2.77922 61.3861 1.29874 62.9411 0.914788C64.4949 0.533148 66.3274 -0.309265 69.753 0.296745C71.5304 0.611783 72.3151 1.50737 72.7789 1.41561C72.7789 1.41561 75.1829 0.87248 76.1996 0.943867C77.2175 1.01871 80.1005 1.43503 82.9998 3.76798C84.4449 4.92927 84.9616 6.5764 85.2026 8.22157C85.4425 9.8806 84.942 11.0178 84.3736 12.2798C84.3736 12.2798 86.5718 15.8807 86.8557 16.8323C87.5163 19.0412 86.6892 20.1281 83.8837 22.5469C81.6614 24.4606 80.9714 26.302 77.4302 28.1955C73.8935 30.0856 70.4591 29.8211 69.6174 29.3872C67.9442 28.5274 67.5203 28.1402 66.9178 28.0821C66.3166 28.0275 64.1475 28.238 62.421 27.1556C60.6922 26.0719 58.5494 23.4472 58.6163 20.7274C58.6163 20.7274 58.7911 20.2379 58.1069 19.4414C57.4239 18.6368 54.4518 14.4196 55.5507 12.0642C56.652 9.70998 57.8734 9.25491 58.223 8.32787C58.5714 7.39736 58.0529 6.14718 60.4868 2.77922Z" fill="#FFB0D7"/>
<path d="M69.401 2.91198C68.9924 2.87558 64.763 2.6387 63.4449 4.17857C62.2685 5.55556 61.8725 7.13117 62.842 9.14235C62.9554 9.37761 63.1348 9.76394 63.5855 10.2826C63.5855 10.2826 63.908 10.7172 64.0536 9.96238C64.2014 9.20868 64.2104 8.09745 65.0163 6.70017C65.8223 5.30289 67.3604 4.40893 67.7756 4.17761C68.0581 4.02147 68.7926 3.6178 69.2586 3.44642C69.8295 3.23798 69.8072 2.94723 69.401 2.91198ZM73.308 6.42755C73.308 6.42755 73.6143 6.84256 73.057 6.83867C72.502 6.83592 70.1202 6.75591 68.1535 8.27238C68.1535 8.27238 67.5678 8.59162 67.4337 8.44986C67.2997 8.3081 67.4736 8.02862 67.7639 7.69477C67.7639 7.69477 69.431 5.59364 70.5039 5.46533C71.5769 5.33702 72.6624 5.9472 73.308 6.42755ZM69.7614 9.50616C69.6634 9.59282 69.5194 9.80072 69.8992 9.87177C70.2789 9.94282 71.9928 10.1541 72.5351 11.0731C73.0266 11.9033 73.0842 12.7363 72.9093 13.0758C72.7343 13.4153 73.0116 13.6745 73.4289 13.3867C73.4289 13.3867 75.648 11.6587 74.6094 9.82647C74.3399 9.34909 73.4348 8.95562 72.4158 8.90616C71.3068 8.8522 70.1567 9.16409 69.7614 9.50616ZM69.2751 10.9157C69.2751 10.9157 69.024 11.2403 69.5623 11.7162C69.932 12.0446 70.2819 12.2449 70.6062 12.3229C71.3346 12.4985 71.2125 12.6741 71.1203 12.7896C71.012 12.9317 70.8092 13.0958 70.462 13.1966C70.2105 13.2674 69.8101 13.2609 69.2041 13.1002C69.2041 13.1002 67.4932 12.5243 67.479 11.3496C67.4688 10.5603 68.1436 10.4094 69.0519 10.5594C69.2885 10.5938 69.4525 10.6986 69.2751 10.9157ZM67.4002 13.7579C67.4002 13.7579 67.0486 13.1503 67.0239 13.6915C66.9992 14.2327 67.1873 15.1279 68.38 16.518C69.0202 17.2637 69.4555 17.4894 69.87 17.6815C70.0478 17.7644 71.2283 18.716 73.1744 15.5229C73.4461 15.0818 73.1607 14.7867 72.8184 15.0687C72.6558 15.1982 71.4094 15.9464 70.5197 15.9094C69.4926 15.8646 68.1409 14.6028 67.4002 13.7579ZM77.317 11.1269C77.317 11.1269 77.4675 10.5878 77.8651 11.1147C78.2604 11.6403 79.2432 13.1161 78.6289 14.5858C78.1434 15.7507 77.1451 16.539 76.1845 16.951C75.9319 17.0587 75.128 17.3528 74.619 17.2865C74.619 17.2865 74.2681 17.1751 74.5539 16.8851C74.6772 16.7591 75.0542 16.5232 75.4634 16.1881C77.3527 14.6417 77.3391 13.0205 77.328 12.447C77.3145 11.8723 77.317 11.1269 77.317 11.1269ZM76.2405 4.04901C76.2405 4.04901 74.5803 3.37726 74.2233 3.8739C73.865 4.37286 75.067 4.95173 75.298 5.12452C75.5256 5.29847 76.6148 6.14404 76.7675 7.33007C76.9213 8.51956 78.1895 8.52024 79.057 9.24378C79.9211 9.96848 80.465 11.1736 80.6569 11.4538C80.8465 11.7328 81.4143 11.7967 81.3069 10.8264C81.1913 9.77991 80.9104 8.50981 80.093 7.25771C79.3461 6.1186 78.1584 4.99044 76.2405 4.04901ZM79.9174 16.0785C80.0443 16.0726 80.1714 16.1532 80.1637 16.4982C80.1496 17.1859 79.7919 18.9969 78.0175 20.0989C76.944 20.7661 75.9435 20.697 74.8369 20.7019C73.1337 20.7064 71.6631 20.3309 71.2648 20.1757C71.2648 20.1757 70.4497 19.8328 71.3254 19.6725C71.7499 19.5958 74.4411 19.7665 76.5181 18.8557C77.5249 18.4148 78.3122 17.8126 78.6187 17.4579C79.5635 16.3547 79.7882 16.0833 79.9174 16.0785ZM82.9231 19.4764C81.8992 21.8201 80.1932 23.2647 78.3085 23.8476C78.3085 23.8476 77.893 23.7962 78.2767 23.3907C78.6593 22.9875 80.1895 21.2361 81.1681 19.5444C81.9649 18.1714 82.5116 16.2067 82.6884 15.5164C82.7091 15.4345 82.876 15.14 82.9984 15.1779C83.123 15.217 83.4075 15.6643 83.4731 16.4293C83.5423 17.2624 83.3707 18.4511 82.9231 19.4764ZM77.1244 22.799C76.9667 23.1154 76.5189 23.9618 74.8109 24.7221C73.0995 25.4836 69.9043 25.4854 67.5105 24.1857C65.1145 22.8849 63.6066 21.3175 63.5301 21.043C63.4536 20.7684 63.6993 20.7266 63.9511 20.8751C64.204 21.0213 67.4684 22.8357 69.7665 23.3497C71.4448 23.7249 73.5507 23.7049 75.2694 23.2411C75.8312 23.0915 76.3502 22.8947 76.8022 22.6471C76.8679 22.6136 77.3534 22.3337 77.1244 22.799ZM60.3126 10.9203C60.3126 10.9203 60.4692 10.6755 60.6886 10.7387C60.9067 10.8042 61.0066 11.2748 61.0066 11.2748C61.0066 11.2748 61.1055 12.8291 62.1823 14.7812C63.339 16.8799 65.1506 17.7511 65.1506 17.7511C65.1506 17.7511 65.4058 17.9446 65.0749 18.14C64.7428 18.332 63.8626 18.4612 62.8014 17.9353C61.7392 17.4116 60.5156 16.2454 60.2064 15.3331C59.8948 14.4196 59.4029 13.2778 60.3126 10.9203Z" fill="#FF6FC8"/>
</svg>
