<svg width="88" height="78" viewBox="0 0 88 78" fill="none" xmlns="http://www.w3.org/2000/svg">
<path d="M83.3091 37.0415C81.7641 36.1905 79.7134 35.6993 77.9536 35.8792C76.0414 28.4969 72.0022 21.5368 66.4942 16.7629C60.5566 11.6085 52.1942 8.97937 43.998 9.00013C35.8088 8.97937 27.4394 11.6085 21.5018 16.7629C15.9869 21.5368 11.9477 28.4969 10.0424 35.8792C8.28959 35.6993 6.23882 36.1905 4.68688 37.0415C0.342841 39.4353 -0.654833 45.1917 0.370554 50.014C1.18809 53.8539 3.41207 56.7389 7.9986 57.8874C8.88542 58.1088 9.68911 58.1296 10.3889 58.0673C11.6706 62.1009 13.8114 65.8024 17.1994 68.8604C21.2247 72.4997 26.2408 74.9627 31.4024 76.3049C33.37 76.8169 38.4415 78 43.7555 78C49.0764 78 54.6399 76.8169 56.6006 76.3049C61.7691 74.9627 66.7782 72.4997 70.8036 68.8604C74.1915 65.7955 76.3323 62.1009 77.6141 58.0673C78.3138 58.1296 79.1175 58.1088 79.9974 57.8874C84.5839 56.7389 86.8148 53.8539 87.6324 50.014C88.6508 45.1917 87.6601 39.4423 83.3091 37.0415Z" fill="black"/>
<path d="M4.16726 47.5233C3.67535 42.3758 6.96629 41.1304 9.13484 40.8675C9.03092 41.6839 8.91314 42.5003 8.87157 43.3167C8.67758 46.7484 8.77457 50.1939 9.30805 53.5079C6.36353 53.9023 4.53446 51.377 4.16726 47.5233ZM59.074 68.4038C54.5983 70.687 49.1111 71.5587 43.998 71.4549C38.8849 71.5587 33.3977 70.687 28.922 68.4038C24.3909 66.093 19.8668 61.9764 20.1993 55.8741C20.3171 53.6394 21.4048 51.5638 21.682 49.3429C21.973 47.0044 21.9453 43.9532 21.3286 41.677C20.5388 38.7504 20.1578 35.8238 21.2455 32.9318C22.4025 29.8322 24.4533 27.1755 27.384 26.1169C28.4232 25.7433 29.5733 25.771 30.6472 25.688C35.2891 25.3143 39.3838 30.3235 44.0119 30.1713C48.633 30.3235 52.7277 25.3143 57.3696 25.688C58.4435 25.7779 59.5936 25.7433 60.6328 26.1169C63.5566 27.1755 65.6143 29.8322 66.7782 32.9318C67.8521 35.8238 67.478 38.7573 66.6951 41.677C66.0715 43.9532 66.0438 46.9975 66.3348 49.3429C66.6119 51.5707 67.6997 53.6463 67.8175 55.8741C68.1292 61.9833 63.6051 66.0999 59.074 68.4038ZM83.8357 47.5233C83.4616 51.377 81.6325 53.9092 78.688 53.5079C79.2284 50.2008 79.3254 46.7553 79.1314 43.3167C79.0829 42.5003 78.9651 41.6839 78.8681 40.8675C81.0367 41.1373 84.3276 42.3758 83.8357 47.5233Z" fill="#FFE4BE"/>
<path d="M56.8292 55.0369C52.4782 53.5425 43.1597 53.4457 37.042 54.1583C22.3055 55.8741 27.2385 62.3638 36.0998 64.8338C38.7879 65.581 42.2798 66.0445 46.2081 65.7886C52.6376 65.3804 54.917 64.1419 57.1825 62.6336C60.813 60.2121 62.1155 56.8496 56.8292 55.0369Z" fill="#CE4D5E"/>
<path d="M33.1344 46.5062C35.4901 46.5062 37.4023 44.2023 37.4023 41.3726C37.4023 38.529 35.4901 36.232 33.1344 36.232C30.7858 36.232 28.8735 38.529 28.8735 41.3726C28.8735 44.2092 30.7858 46.5062 33.1344 46.5062ZM54.8616 46.5062C57.2103 46.5062 59.1225 44.2023 59.1225 41.3726C59.1225 38.529 57.2103 36.232 54.8616 36.232C52.499 36.232 50.6007 38.529 50.6007 41.3726C50.6007 44.2092 52.5059 46.5062 54.8616 46.5062ZM42.2729 50.9342C42.8618 51.2178 43.6239 51.3839 44.4899 51.287C45.8964 51.1348 46.3952 50.6782 46.8871 50.1178C47.6769 49.2183 47.9679 47.973 46.8109 47.295C45.8548 46.7415 43.8109 46.7069 42.4807 46.9767C39.2521 47.6132 40.3329 50.0209 42.2729 50.9342Z" fill="#2F2F2F"/>
<path d="M65.2372 2.41151C69.9172 1.49067 71.3421 3.32512 73.6547 2.47217C75.9672 1.61923 73.7218 4.50884 73.1166 5.00573C72.5099 5.50262 67.237 8.4789 64.9504 7.38762C62.6639 6.29634 62.6523 2.91995 65.2372 2.41151Z" fill="#5C913B"/>
<path d="M67.8343 11.5556C67.722 11.5557 67.6113 11.5296 67.5109 11.4795C67.4105 11.4293 67.3231 11.3565 67.2558 11.2667C66.7596 10.6051 66.3111 9.85473 65.8366 9.05956C64.1986 6.31873 62.3418 3.21101 57.5657 2.14934C57.4717 2.13023 57.3824 2.09258 57.3031 2.03857C57.2238 1.98457 57.156 1.91531 57.1037 1.83482C57.0515 1.75434 57.0158 1.66425 56.9988 1.56981C56.9817 1.47538 56.9837 1.3785 57.0045 1.28483C57.0253 1.19117 57.0646 1.10259 57.1201 1.02427C57.1755 0.945954 57.246 0.879472 57.3274 0.828707C57.4089 0.777942 57.4996 0.743913 57.5943 0.728607C57.6891 0.713301 57.7859 0.717026 57.8792 0.739563C63.2626 1.93556 65.3773 5.47517 67.0767 8.31928C67.5317 9.08051 67.9606 9.79912 68.4113 10.4C68.4918 10.5073 68.5408 10.6348 68.5528 10.7683C68.5649 10.9018 68.5396 11.0361 68.4797 11.156C68.4198 11.2759 68.3277 11.3768 68.2137 11.4474C68.0997 11.518 67.9683 11.5554 67.8343 11.5556Z" fill="#77B255"/>
<path d="M81.7724 22.7746C81.7739 22.7623 81.7703 22.7543 81.7703 22.7435C83.7737 18.8905 83.682 11.8286 79.3537 7.49956C75.1641 3.31067 69.4737 3.29551 65.7998 4.56228C64.6594 5.00573 63.693 4.60995 63.0445 5.25923C62.4082 5.89551 62.791 7.22295 62.5288 8.0174C60.2401 11.7744 60.0697 17.4243 64.4702 21.8241C68.0538 25.4078 72.0087 26.7656 78.9002 25.3291C78.9002 25.3291 78.9035 25.3276 78.9059 25.3276C79.735 25.1702 81.0365 25.7053 81.4814 25.2597C82.265 24.4761 81.7045 23.5567 81.7724 22.7746Z" fill="#FFCC4D"/>
<path d="M62.9282 4.7544C62.9282 4.7544 59.8443 4.32828 57.9759 8.0759C56.1075 11.8228 58.3963 14.6662 58.1854 17.2142C57.9738 19.7636 59.3164 18.1278 60.0783 16.8928C60.8403 15.6578 63.1333 13.3575 63.6447 10.1985C64.1553 7.03806 63.5941 5.5344 62.9282 4.7544Z" fill="#77B255"/>
</svg>
