<svg width="185" height="157" viewBox="0 0 185 157" fill="none" xmlns="http://www.w3.org/2000/svg">
<path d="M120.859 108.99L109.23 87.963L80.5226 98.9408C80.5226 98.9408 79.1232 100.735 79.4204 103.879C79.5443 105.278 80.1759 109.226 80.1759 109.226L74.8257 110.042C74.8257 110.042 67.1596 116.429 69.5994 126.416C71.4571 134.003 73.4386 138.038 73.4386 138.038L72.3983 145.476C72.3983 145.476 89.4891 152.902 106.109 152.444C127.386 151.862 135.399 140.6 135.399 140.6L129.591 114.349L120.859 108.99Z" fill="#9269C7"/>
<path d="M71.5809 111.441C69.1164 113.755 68.7077 117.419 68.9058 118.706C69.3765 121.726 74.0207 130.03 79.1356 129.684C84.2504 129.337 81.8106 119.114 80.1759 115.401C78.5411 111.688 75.5316 107.716 71.5809 111.441ZM57.7473 151.503C57.5739 154.04 60.4223 153.941 65.7725 153.941C71.1227 153.941 84.0151 153.013 84.0151 153.013L82.9748 145.922C82.9748 145.922 79.7424 146.144 75.3087 143.719C73.5129 142.728 72.9309 141.454 72.9309 141.454C72.9309 141.454 58.094 146.404 57.7473 151.503Z" fill="#E9BDFF"/>
<path d="M96.2883 103.879C96.2883 103.879 90.5914 103.656 86.3434 108.594C83.6436 111.726 78.0952 126.775 82.1574 128.867C86.2196 130.959 89.0061 123.582 90.5294 120.154C91.9289 117.023 94.4801 113.421 96.6846 112.258C98.8891 111.094 100.747 109.82 100.747 109.82L96.2883 103.879ZM86.814 144.535C86.814 144.535 84.8325 144.535 82.8633 145.228C80.8818 145.922 69.8471 151.268 69.9585 154.177C70.07 157.085 76.8196 157.085 85.1793 156.961C93.5513 156.85 95.7558 155.216 96.4493 154.523C97.1428 153.83 99.8179 150.229 98.8891 149.758C97.9726 149.3 86.814 144.535 86.814 144.535Z" fill="#FFE4BE"/>
<path d="M117.838 91.2179C117.838 91.2179 124.352 85.5248 126.903 80.0668C129.454 74.6088 129.343 69.386 129.343 69.386C129.343 69.386 141.69 66.131 138.582 50.8709C135.956 37.95 125.504 40.6975 125.504 40.6975C125.504 40.6975 118.407 25.9449 99.3473 21.8854C80.2873 17.826 63.5928 27.232 56.5707 36.7495C48.434 47.7892 49.8335 61.9602 49.8335 61.9602C49.8335 61.9602 43.5544 61.3785 40.6564 66.9602C37.647 72.74 38.6749 82.1708 44.2604 86.4778C49.8335 90.7724 58.5523 89.609 58.5523 89.609C58.5523 89.609 64.596 96.119 71.5685 99.0151C78.7269 101.998 85.5137 102.381 93.7742 101.565C102.035 100.748 108.648 96.4532 108.648 96.4532C108.648 96.4532 108.301 98.7799 109.812 101.8C110.754 103.669 113.998 107.258 113.998 107.258C113.998 107.258 108.71 104.473 104.462 103.718C99.8551 102.901 96.9075 103.198 95.1613 104.238C93.8361 105.03 95.5452 111.33 97.4896 111.676C99.4712 112.023 102.716 111.094 108.413 113.297C114.11 115.5 121.429 120.736 123.287 121.899C125.145 123.062 128.922 125.03 129.219 127.592C129.442 129.56 126.259 132.122 120.674 126.429C115.324 120.971 110.159 115.748 104.338 115.042C98.5299 114.349 94.926 115.859 92.2509 121.664C88.8204 129.127 85.9719 138.162 85.3898 140.476C84.8077 142.803 83.1853 144.077 84.461 146.28C85.3527 147.815 95.1985 153.545 97.4772 153.372C100.388 153.137 102.704 147.221 103.409 146.169C104.103 145.129 105.614 142.914 105.614 142.914C105.614 142.914 110.729 154.993 121.541 153.954C132.352 152.914 133.863 146.169 133.863 146.169C133.863 146.169 142.273 146.59 151.177 144.053C163.116 140.649 171.277 129.746 173.841 112.258C175.699 99.5968 173.37 81.1312 167.451 65.6731C165.271 60.0047 162.707 53.2843 161.06 48.5937C156.837 36.6381 155.363 27.9994 162.224 25.4746C165.717 24.1874 167.958 25.7097 168.974 27.7023C170.361 30.4375 170.596 33.8286 175.005 35.5737C178.151 36.8114 182.102 35.8089 183.835 32.9004C186.015 29.2618 185.247 23.9399 180.578 17.9126C172.553 7.57834 159.19 8.55607 151.871 14.0759C144.044 19.9671 140.712 27.8137 144.551 42.5292C148.155 56.3537 156.081 73.9529 157.803 82.4926C160.131 93.9902 162.237 122.258 147.92 128.025C141.294 130.699 136.415 129.647 136.415 129.647C136.415 129.647 135.25 116.429 131.064 106.874C126.296 95.9705 117.838 91.2179 117.838 91.2179Z" fill="#E9BDFF"/>
<path d="M120.748 47.9625C120.55 48.21 121.875 51.8363 122.37 55.6235C122.928 59.8191 123.101 63.8785 123.46 64.0023C124.154 64.2374 134.458 61.6631 133.182 52.1333C131.907 42.6035 121.219 47.3808 120.748 47.9625ZM50.4279 67.7647C49.5115 67.0716 43.5544 68.7424 44.2728 75.5494C45.2016 84.3738 53.9204 84.3738 54.7378 83.7921C55.1589 83.4951 53.4993 79.4727 52.4095 75.5494C51.3568 71.7746 50.8862 68.0989 50.4279 67.7647ZM83.433 49.2868C77.8599 51.1432 70.07 42.1951 63.3204 49.2868C55.0598 57.9626 64.8808 65.7597 65.6487 71.8242C66.1193 75.5371 64.0263 78.3341 66.1193 84.5966C67.8655 89.8194 77.5627 97.5918 95.1985 94.015C111.707 90.661 115.584 80.2153 115.15 73.6435C114.667 66.3167 111.224 65.8959 110.531 62.1829C109.837 58.47 113.738 43.8411 102.394 40.8089C90.6409 37.6777 89.4396 47.2942 83.433 49.2868Z" fill="#FFE4BE"/>
<path d="M102.815 58.2349C103.509 62.4181 103.075 65.2028 100.115 65.8959C96.5732 66.7251 94.2696 64.3241 93.5761 60.0542C92.7215 54.8438 93.7742 52.3932 96.4865 51.8858C99.8303 51.267 101.948 52.9749 102.815 58.2349ZM79.2842 62.3315C80.0768 66.3167 80.213 69.8811 77.0178 70.6979C73.9588 71.4776 71.4199 69.5221 70.3053 65.2152C68.9925 60.1656 69.426 57.2448 72.3116 56.4156C75.2839 55.5492 78.0581 56.1433 79.2842 62.3315ZM83.4702 69.3117C83.5445 71.3167 86.9503 73.7425 88.9442 73.4331C91.0991 73.0865 93.1302 68.8291 92.4243 67.5667C91.5078 65.933 83.4083 67.48 83.4702 69.3117Z" fill="#8D6E63"/>
<path d="M75.3211 82.1089C75.6679 84.8936 81.6001 89.1016 92.4119 86.9852C103.57 84.807 105.23 78.0123 105.057 76.3539C104.883 74.6955 99.2111 73.8291 89.5387 75.4876C81.9469 76.7871 75.0362 79.8812 75.3211 82.1089Z" fill="#CE4D5E"/>
<path d="M117.648 16.0467C117.238 8.65694 113.324 2.68556 105.467 0.615812C97.6745 -1.43662 91.3244 1.80447 87.279 7.91209C82.7467 6.8738 79.0244 6.39787 75.7939 6.98888C72.4968 7.59551 70.7869 8.14159 69.0474 10.8388C65.7379 15.9678 71.7977 30.4856 91.386 36.6557C111.566 43.015 127.421 35.9218 130.445 27.4959C132.434 21.9565 126.831 18.8745 117.648 16.0467Z" fill="#FFE8A9"/>
<path d="M117.648 16.0467C117.246 8.73569 113.397 2.81338 105.7 0.684808C106.375 1.13378 107.201 1.85366 106.785 2.38106C106.269 3.03401 105.827 2.85827 104.768 3.06904C104.392 3.1466 104.377 3.47243 104.724 3.92856C105.051 4.35145 105.901 4.92068 107.722 5.3427C108.489 5.51758 108.581 6.13532 107.844 6.49107C106.697 7.03941 106.037 7.17799 105.276 7.29748C104.495 7.42686 104.692 8.14364 105.207 8.46367C105.685 8.77055 106.636 9.42355 108.558 9.47265C109.113 9.48748 109.136 10.2185 108.107 10.6694C107.156 11.0858 105.969 11.2619 105.448 11.3896C104.927 11.5224 105.104 11.9218 105.361 12.1623C106.372 13.0914 107.265 13.1614 108.704 13.4097C109.116 13.4797 109.136 14.0445 108.242 14.6088C107.547 15.0514 106.733 15.3605 105.6 15.5132C103.797 15.7587 102.53 17.2328 103.752 18.9131L102.611 24.2859C102.344 24.918 100.7 24.8522 100.882 25.277C101.285 26.2197 102.603 26.8027 104.043 27.3517C104.704 27.6051 104.554 28.226 104.101 28.5043C103.785 28.7019 102.476 29.0895 101.724 29.3195C101.401 29.4168 101.298 29.758 101.631 30.0883C102.087 30.551 103.344 30.9872 105.416 30.8721C105.806 30.8505 106.032 31.5068 105.418 31.9517C104.532 32.5947 104.123 32.7175 103.047 33.1095C102.257 33.3111 102.504 33.8065 103.059 34.1118C104.204 34.7407 106.183 34.599 107.299 34.6757C108.02 34.7269 107.757 35.6001 106.349 36.1184C105.683 36.366 105.055 36.4542 103.971 36.6761C103.286 36.8207 103.342 37.377 104.026 37.7703C104.742 38.1881 105.934 38.5804 107.627 38.7851C102.789 38.9847 97.453 38.3229 91.7975 36.5431C83.3918 33.8928 73.53 27.7578 69.9735 18.8759C68.2918 14.6702 69.32 10.4148 69.32 10.4148C69.1263 10.6698 66.7748 13.9566 68.8508 19.9345C69.9129 22.9904 74.429 32.8134 91.2912 38.1235C100.796 41.1179 109.195 41.3946 115.773 39.6585C129.789 35.9577 131.002 27.1987 131.002 27.1987C131.265 24.3211 130.434 22.377 128.268 20.3217C126.121 18.2995 121.553 17.2481 117.648 16.0467Z" fill="#EDB989"/>
<path d="M101.787 14.4031C101.211 14.1673 100.938 13.6563 100.788 13.3423C100.638 13.0282 100.768 12.5301 101.46 12.7332C102.28 12.9709 102.795 13.1831 103.934 13.1688C104.538 13.1614 104.557 14.0167 103.705 14.3671C103.177 14.5823 102.549 14.7187 101.787 14.4031ZM99.0022 27.9749C98.3371 27.7494 97.9644 27.3424 97.7765 26.8706C97.6233 26.4766 97.8754 26.1488 98.3233 26.2802C99.3107 26.5645 100.772 26.9742 100.772 26.9742C101.198 27.0356 101.553 27.6187 100.9 27.9007C100.351 28.1422 99.6799 28.2083 99.0022 27.9749ZM98.8438 32.4294C98.1387 32.2401 97.7186 31.8388 97.4963 31.359C97.3087 30.9569 97.6307 30.559 98.0907 30.7413C98.7248 30.9956 99.2634 31.1219 100.7 31.1774C101.153 31.1947 101.475 31.8877 100.814 32.2254C100.259 32.5112 99.5616 32.6265 98.8438 32.4294ZM100.707 36.4205C99.9598 36.2357 99.5117 35.8303 99.2577 35.331C99.0499 34.9122 99.6195 34.827 99.985 34.9078C99.985 34.9078 101.148 35.0435 102.464 35.1164C102.941 35.1442 103.303 35.8009 102.614 36.1776C102.041 36.5 101.471 36.6068 100.707 36.4205Z" fill="#EDB989"/>
<path d="M109.314 37.3684C108.498 37.0546 109.058 36.5634 109.43 36.5136C110.821 36.3326 111.006 36.1548 112.242 35.6876C112.753 35.4925 113.162 36.0522 112.699 36.6285C112.247 37.1858 110.767 37.9252 109.314 37.3684ZM109.534 33.6734C108.968 33.3172 109.469 33.0814 110.021 32.9896C111.046 32.819 111.199 32.5736 112.247 32.0646C112.673 31.857 113.158 32.4151 112.729 33.0692C112.214 33.8402 110.641 34.3703 109.534 33.6734Z" fill="#FFE8A9"/>
<path d="M101.111 9.39736C100.926 8.91416 101.196 8.57135 101.657 8.75875C102.408 9.07171 103.917 9.31968 103.917 9.31968C104.424 9.38337 104.637 9.8923 103.976 10.3645C103.314 10.8367 101.705 10.9401 101.111 9.39736Z" fill="#EDB989"/>
<path d="M110.784 8.30026C109.658 8.68267 108.998 8.25165 108.694 7.93056C108.392 7.61455 108.683 7.42806 109.022 7.39694C110.291 7.27136 110.819 6.87355 111.209 6.78729C111.456 6.73469 111.651 7.02772 111.702 7.26816C111.786 7.64093 111.666 8.00219 110.784 8.30026ZM112.536 12.0704C111.751 12.2974 111.107 12.0937 110.714 11.7131C110.272 11.29 110.568 11.0541 110.904 11.0128C111.886 10.8847 112.347 10.7068 113.403 10.1636C113.841 9.93716 113.96 10.5489 113.89 10.893C113.828 11.203 113.614 11.7584 112.536 12.0704ZM112.271 16.2596C111.463 16.3899 110.731 16.1533 110.377 15.7365C110.098 15.4043 110.325 15.1522 110.901 15.1407C111.89 15.113 112.542 14.8956 113.624 14.3947C114.01 14.2183 114.163 14.7518 113.915 15.256C113.672 15.759 113.324 16.0932 112.271 16.2596Z" fill="#FFE8A9"/>
<path d="M102.76 4.70603C103.672 4.94369 104.015 4.9545 104.389 5.00122C104.763 5.04795 104.878 5.62284 104.672 5.87516C104.412 6.18891 103.834 6.37803 103.263 6.27547C102.41 6.12101 102.013 5.52088 101.913 5.28618C101.82 5.05027 101.849 4.46837 102.76 4.70603Z" fill="#EDB989"/>
<path d="M117.711 17.5203C117.711 17.5203 117.413 18.9766 113.191 19.8109C111.175 20.2084 106.039 20.3865 100.115 18.6374C94.1962 16.8872 90.3318 15.1764 87.9237 12.4899C86.3199 10.7057 86.4123 9.31909 86.4123 9.31909C86.4123 9.31909 84.8832 10.876 84.5004 11.7236C83.7057 13.4791 84.4261 16.0992 86.1908 18.1734C88.6838 21.1033 92.5129 23.1663 98.4371 24.9154C104.361 26.6644 107.465 26.2215 110.537 25.877C113.252 25.5736 116.577 23.9931 117.372 21.4422C117.758 20.1964 117.711 17.5203 117.711 17.5203ZM113.336 27.725C115.014 35.102 118.555 42.4615 120.041 44.8213C120.225 45.1168 120.675 45.0275 120.745 44.6884L121.769 41.2778C121.779 41.2233 121.802 41.1718 121.834 41.1268C121.867 41.0817 121.909 41.0443 121.957 41.017C122.006 40.9898 122.06 40.9734 122.116 40.9689C122.171 40.9645 122.227 40.9722 122.28 40.9914L125.877 42.7863C126.204 42.9085 126.511 42.5624 126.352 42.2559L118.789 25.581C123.769 30.937 130.357 34.6368 132.414 35.256C132.494 35.2802 132.579 35.2824 132.661 35.2624C132.742 35.2424 132.816 35.2009 132.875 35.1423C132.935 35.0838 132.977 35.0103 132.998 34.9298C133.018 34.8493 133.017 34.7647 132.993 34.6851L131.745 31.8716C131.671 31.6309 131.806 31.379 132.048 31.3009L134.676 30.475C135.068 30.3507 135.116 29.8236 134.756 29.6286L118.557 21.0783L113.336 27.725Z" fill="#CE4D5E"/>
<path d="M107.057 19.9544C104.791 19.7529 102.55 19.3354 100.365 18.7079C99.1531 22.9203 100.896 25.4726 100.979 25.5713C103.194 26.0568 104.966 26.2055 106.511 26.1926C106.671 24.4783 106.937 21.4067 107.057 19.9544ZM113.657 29.0523C113.657 29.0523 114.508 32.335 115.079 33.7594C115.079 33.7594 118.915 29.7537 118.789 25.581C118.789 25.581 122.979 27.1133 126.899 25.4416L123.036 23.3705L119.67 22.6658L116.75 23.9903L113.657 29.0523Z" fill="#A52831"/>
<path d="M110.357 17.2458C108.126 16.2375 102.549 15.6055 102.555 19.0003C102.559 23.0458 104.257 26.8876 107.348 30.6447C108.588 32.154 109.592 31.9831 110.824 31.5653C115.054 30.1272 116.758 24.5257 116.758 24.5257C116.758 24.5257 118.805 23.6479 119.397 22.9718C122.509 23.7036 129.147 25.0167 128.267 20.3381C127.609 16.8435 123.121 7.82007 118.259 9.4707C116.167 10.1818 116.14 15.3255 115.462 17.7308C114.792 18.0329 113.982 18.6097 113.982 18.6097C113.982 18.6097 111.379 17.5598 110.357 17.2458Z" fill="#CE4D5E"/>
<path d="M116.079 17.801C116.079 17.801 117.602 11.7152 118.245 10.8659C118.948 9.93254 120.195 10.3281 119.919 11.6717C119.639 13.0216 116.642 18.6684 116.642 18.6684L116.079 17.801ZM114.581 19.2163C114.581 19.2163 107.598 17.0437 105.818 17.0206C104.738 17.0053 103.659 17.656 104.785 18.5257C105.912 19.3953 114.832 19.8615 114.832 19.8615L114.581 19.2163Z" fill="#A52831"/>
<path d="M116.684 24.3066C116.554 23.4879 115.953 20.8884 114.239 19.6673C113.581 19.1982 113.81 18.4299 114.552 18.0247C115.951 17.2615 116.64 17.2501 117.298 17.7192C120.419 19.943 119.659 22.6631 119.642 22.7961C119.584 23.4385 116.848 25.316 116.684 24.3066ZM108.321 22.8607C108.71 24.1077 109.46 25.329 110.194 26.4143C110.925 27.4412 112.092 28.6399 111.517 29.9302C111.238 30.533 110.277 31.0863 109.638 30.8813C107.962 30.3394 104.926 24.9414 104.256 21.8526C103.96 20.4926 104.614 19.7159 106.044 19.9286C107.857 20.2021 107.691 20.8482 108.321 22.8607Z" fill="#A52831"/>
<path d="M23.2225 149.801C23.2225 149.801 25.7163 149.604 25.8169 148.143L27.2344 144.026L21.07 138.294C21.07 138.294 16.5506 138.207 16.2925 138.207C16.03 138.207 14.8181 144.026 14.8181 144.026L16.9881 147.587L23.2225 149.801Z" fill="#FFE6E6"/>
<path d="M23.1743 123.507C23.0387 124.714 22.7806 125.769 21.9362 126.657C21.2581 127.366 20.5493 127.969 19.9237 128.726C18.1212 130.909 15.085 131.662 13.2212 133.95C11.9787 135.477 11.1343 137.349 10.7056 139.248C10.2243 141.383 9.92683 143.741 10.5218 145.841C11.34 148.72 13.8556 149.07 16.485 149.468C17.6925 149.652 18.9218 149.757 20.1468 149.792C21.1225 149.818 22.2512 149.941 23.2268 149.805C24.08 149.683 24.2418 148.528 24.01 147.849C23.765 147.119 23.03 146.843 22.3431 146.712C22.0062 146.646 21.6518 146.743 21.3106 146.686C20.6762 146.585 20.4093 146.169 20.3962 145.535C20.3831 144.669 20.0856 143.947 19.6875 143.19C19.5081 142.849 19.2062 142.547 18.9175 142.289C18.6243 142.018 18.1168 141.646 18.3968 141.173C18.8781 140.351 20.3393 141.108 20.8337 141.462C21.5993 142.004 22.1418 142.827 22.3781 143.733C22.715 144.988 22.9731 145.071 24.1456 145.518C24.8368 145.784 25.4756 146.226 25.7381 146.913C26.0575 147.766 25.5237 148.773 26.075 149.516C26.5081 150.111 27.3481 150.439 28.1181 150.409C30.1043 150.321 31.4343 149.836 31.0187 147.814C30.7562 146.546 30.8393 145.154 30.7606 143.838C30.7343 143.343 30.6862 142.586 31.1806 142.241C31.3731 142.101 31.64 142.079 31.8631 142.092C32.0162 142.096 32.4012 142.074 32.5456 142.123C32.97 142.258 32.8693 142.941 32.865 143.299C32.8606 143.991 32.8737 144.695 32.8912 145.378C32.9087 146.187 32.8212 146.988 32.8125 147.788C32.8081 148.313 32.76 148.961 33.1931 149.333C33.6875 149.77 34.4443 149.866 35.1181 149.888C35.9275 149.919 36.8506 149.858 37.5243 149.385C38.9025 148.414 38.4343 146.187 38.3075 144.888C38.2243 144.043 38.2856 143.164 38.3075 142.298C38.325 141.519 38.3468 140.736 38.3643 139.948C38.3731 139.624 38.4168 139.274 38.3993 138.942C38.3337 138.023 38.5218 137.083 38.5481 136.129C38.5918 134.379 38.6837 132.598 38.6837 130.818C38.6837 130.056 38.5525 129.221 38.3337 128.499C38.2156 128.114 38.0887 127.598 37.8831 127.261C37.5593 126.723 36.9993 126.241 36.5312 125.821C35.9275 125.283 35.21 125.012 34.5187 124.596C33.6218 124.054 32.6856 123.542 31.7143 123.126C30.0081 122.4 28.1837 121.779 26.2762 121.709C25.6068 121.683 25.1037 121.578 24.4562 121.429C23.8043 121.28 23.4806 121.718 23.3625 122.33C23.2618 122.711 23.2181 123.109 23.1743 123.507ZM30.1306 110.907C30.1306 110.907 31.0625 109.765 33.2325 106.628C34.5712 104.686 38.7931 99.2169 40.9281 100.35C44.2225 102.091 43.855 114.429 43.855 114.429L30.1306 110.907ZM28.7481 111.056C28.7481 111.056 27.5975 110.137 24.8237 107.512C23.1043 105.893 17.8412 101.426 15.9862 102.971C13.125 105.359 16.0518 117.351 16.0518 117.351L28.7481 111.056Z" fill="#37322C"/>
<path d="M14.302 122.698C14.1576 118.887 15.9339 114.757 19.062 111.983C21.5907 109.734 25.3445 108.33 29.1201 107.941C32.8957 107.538 36.8551 108.133 39.7951 109.8C43.4351 111.865 46.0251 115.531 46.6814 119.294C47.3026 122.864 46.9526 126.561 43.8682 129.413C42.1576 130.993 39.9482 132.178 37.6207 132.935C36.737 133.224 34.4445 133.919 31.9989 134.178C29.5445 134.436 26.937 134.256 26.0095 134.156C23.577 133.898 21.1664 133.202 19.167 132.016C15.5489 129.864 14.4376 126.32 14.302 122.698" fill="#37322C"/>
<path d="M35.9538 121.271C36.1025 122.676 37.2356 123.708 38.4825 123.577C39.7294 123.446 40.6263 122.203 40.4775 120.794C40.3288 119.386 39.1956 118.353 37.9488 118.484C36.7019 118.62 35.8094 119.863 35.9538 121.271ZM25.4319 122.378C25.5806 123.783 24.6881 125.029 23.4413 125.161C22.1944 125.292 21.0613 124.259 20.9125 122.855C20.7638 121.446 21.6563 120.199 22.9031 120.068C24.1544 119.941 25.2831 120.969 25.4319 122.378ZM31.185 128.302C31.2069 128.302 31.2331 128.302 31.255 128.298C31.6269 128.258 31.8981 127.926 31.8588 127.549L31.5963 125.051C31.5569 124.679 31.22 124.426 30.8481 124.448C30.4763 124.487 30.205 124.819 30.2444 125.196L30.5069 127.689C30.5463 128.039 30.8394 128.302 31.185 128.302Z" fill="#FFE6E6"/>
<path d="M33.1668 129.934C33.8537 129.929 34.5449 129.719 35.0481 129.334C35.4462 129.028 36.0806 128.101 35.4287 127.746C35.3237 127.689 35.2056 127.659 35.0874 127.646C34.8993 127.619 34.7462 127.668 34.5887 127.786C34.3349 127.974 34.1206 128.311 33.8056 128.372C32.8212 128.573 31.9724 128.07 31.7362 127.081C31.6749 126.814 31.6531 126.688 31.3381 126.657C30.5724 126.587 30.3887 127.549 30.5987 128.123C30.7868 128.634 31.0318 129.186 31.5087 129.492C31.9987 129.803 32.5893 129.938 33.1668 129.934Z" fill="#FFE6E6"/>
<path d="M29.5837 130.258C28.9056 130.38 28.1881 130.297 27.6194 130.013C27.1731 129.781 26.3769 128.989 26.9544 128.521C27.3175 128.228 27.6369 128.346 27.9912 128.573C28.8925 129.155 30.1262 128.744 30.4281 127.694C30.4937 127.453 30.4019 127.073 30.5112 126.858C30.5637 126.758 30.6469 126.779 30.7694 126.736C30.8525 126.705 30.905 126.67 30.9969 126.666C31.4212 126.639 31.6662 127.094 31.7319 127.453C31.7669 127.646 31.8062 127.808 31.7756 128C31.6837 128.543 31.5437 129.124 31.1281 129.514C30.7081 129.916 30.1525 130.153 29.5837 130.258Z" fill="#FFE6E6"/>
<path d="M33.25 125.213C33.2632 125.681 32.9963 126.197 32.5457 126.547C32.1782 126.832 31.6357 127.016 31.0975 127.068C30.5594 127.125 29.9906 127.059 29.575 126.862C29.0588 126.613 28.6913 126.167 28.6081 125.703C28.525 125.266 28.5819 124.802 29.0325 124.443C29.2775 124.242 29.5969 124.093 29.9338 123.997C30.0563 123.957 30.3888 123.866 30.7388 123.831C31.0931 123.791 31.465 123.809 31.5963 123.822C31.9419 123.848 32.2875 123.931 32.5719 124.071C33.0838 124.329 33.2369 124.762 33.25 125.213Z" fill="#FFE6E6"/>
<path d="M13.2826 143.422C12.7489 143.068 12.1889 143.225 11.5939 143.295C9.03011 143.593 6.12511 145.841 6.02011 148.519C5.89324 151.958 8.95136 154.443 11.9964 155.261C14.2145 155.856 16.6164 155.856 18.9001 155.764C19.8976 155.724 21.7001 155.891 22.5795 155.331C22.8945 155.134 23.1701 154.723 23.3145 154.386C23.8439 153.156 22.7764 152.299 21.6345 152.303C20.8032 152.308 19.972 152.321 19.1364 152.312C17.3164 152.299 15.4876 152.434 13.6895 152.076C12.0532 151.752 9.65574 150.47 9.75636 148.475C9.83074 147.009 11.4582 146.721 12.6307 146.546C12.9282 146.502 13.2214 146.406 13.5626 146.397C14.232 146.379 14.2014 145.749 14.1532 145.259C14.0832 144.564 13.9739 143.982 13.392 143.505C13.3701 143.479 13.3264 143.448 13.2826 143.422ZM45.6095 121.753C45.6532 121.753 45.697 121.748 45.7407 121.739L49.337 121.035C49.7045 120.965 49.9451 120.606 49.8707 120.239C49.8007 119.871 49.4332 119.626 49.0745 119.705L45.4782 120.414C45.1107 120.484 44.8701 120.843 44.9445 121.206C45.0101 121.525 45.2945 121.753 45.6095 121.753ZM49.3064 124.509C49.6432 124.509 49.932 124.259 49.9757 123.918C50.0282 123.546 49.7657 123.209 49.3939 123.157L45.7582 122.68C45.3951 122.628 45.0495 122.89 44.997 123.262C44.9489 123.634 45.2114 123.975 45.5789 124.023L49.2145 124.5C49.2451 124.509 49.2714 124.509 49.3064 124.509ZM48.2345 127.571C48.5276 127.571 48.7989 127.379 48.8864 127.077C48.9914 126.718 48.7814 126.346 48.4182 126.241L44.8964 125.235C44.5376 125.134 44.1614 125.34 44.0564 125.703C43.9557 126.062 44.1614 126.438 44.5245 126.539L48.0464 127.545C48.112 127.563 48.1732 127.571 48.2345 127.571ZM15.877 124.373C16.2182 124.373 16.5114 124.115 16.5507 123.769C16.5704 123.591 16.5183 123.412 16.4059 123.271C16.2935 123.131 16.13 123.041 15.9514 123.021L12.307 122.614C11.9439 122.584 11.5982 122.842 11.5589 123.214C11.5151 123.59 11.7864 123.923 12.1582 123.962L15.8026 124.369C15.8289 124.369 15.8551 124.373 15.877 124.373ZM12.4295 127.431C12.4776 127.431 12.5257 127.427 12.5782 127.414L16.157 126.631C16.3319 126.592 16.4844 126.486 16.5812 126.335C16.6779 126.184 16.711 126.001 16.6732 125.826C16.5901 125.463 16.2314 125.231 15.8682 125.309L12.2851 126.093C11.922 126.171 11.6857 126.534 11.7689 126.898C11.8345 127.213 12.1189 127.431 12.4295 127.431ZM13.7464 130.389C13.8251 130.389 13.9082 130.376 13.987 130.345L17.4126 129.05C17.7626 128.919 17.942 128.525 17.8064 128.175C17.6751 127.825 17.2814 127.65 16.9314 127.781L13.5014 129.076C13.1514 129.212 12.9764 129.601 13.1076 129.951C13.2126 130.223 13.4707 130.389 13.7464 130.389Z" fill="#37322C"/>
<path d="M40.25 105.477C40.5694 106.309 41.2125 108.702 40.81 110.404C40.6919 110.911 40.0444 111.139 39.585 110.92C38.6269 110.461 37.1306 109.651 36.5706 109.371C35.6169 108.903 35.2887 108.321 35.805 107.608C36.4612 106.698 38.0975 104.812 39.0644 104.629C39.6156 104.524 40.04 104.939 40.25 105.477ZM17.675 107.779C17.4956 108.654 17.2681 111.117 17.9506 112.736C18.1519 113.212 18.83 113.331 19.2456 113.037C20.1119 112.425 21.4462 111.375 21.9581 111.007C22.8156 110.386 23.0475 109.756 22.4175 109.139C21.6212 108.352 19.6919 106.764 18.7075 106.746C18.1431 106.733 17.7887 107.214 17.675 107.779Z" fill="#CE4D5E"/>
</svg>
