<svg width="61" height="61" viewBox="0 0 61 61" fill="none" xmlns="http://www.w3.org/2000/svg">
<circle cx="30.5" cy="30.5" r="30.5" fill="#FFF1AC"/>
<path d="M12.0497 54.118C12.0497 54.118 12.8067 54.0583 12.8373 53.6147L13.2676 52.3649L11.3963 50.6251C11.3963 50.6251 10.0243 50.5985 9.94594 50.5985C9.86625 50.5985 9.49836 52.3649 9.49836 52.3649L10.1571 53.446L12.0497 54.118Z" fill="#FFE6E6"/>
<path d="M12.0351 46.136C11.994 46.5026 11.9156 46.8227 11.6593 47.0923C11.4534 47.3074 11.2383 47.4907 11.0483 47.7205C10.5012 48.3832 9.57943 48.6117 9.01365 49.3063C8.63646 49.7698 8.38013 50.3382 8.24998 50.9146C8.10388 51.5627 8.01357 52.2786 8.1942 52.9161C8.44256 53.79 9.20623 53.8963 10.0044 54.0171C10.371 54.0729 10.7442 54.1048 11.1161 54.1154C11.4122 54.1234 11.7549 54.1606 12.0511 54.1194C12.3101 54.0822 12.3592 53.7316 12.2888 53.5257C12.2144 53.3039 11.9913 53.2202 11.7828 53.1804C11.6805 53.1605 11.5729 53.1897 11.4694 53.1724C11.2768 53.1419 11.1958 53.0157 11.1918 52.8231C11.1878 52.5602 11.0975 52.341 10.9766 52.1113C10.9222 52.0077 10.8305 51.916 10.7429 51.8377C10.6539 51.7553 10.4998 51.6424 10.5848 51.499C10.7309 51.2493 11.1745 51.4791 11.3246 51.5866C11.557 51.7513 11.7217 52.001 11.7934 52.2759C11.8957 52.6571 11.974 52.6824 12.33 52.8178C12.5398 52.8988 12.7337 53.033 12.8134 53.2415C12.9104 53.5005 12.7483 53.8059 12.9157 54.0317C13.0472 54.2124 13.3022 54.312 13.5359 54.3027C14.1389 54.2761 14.5426 54.1287 14.4165 53.5151C14.3368 53.1299 14.362 52.7076 14.3381 52.3078C14.3301 52.1577 14.3155 51.928 14.4656 51.8231C14.524 51.7806 14.6051 51.7739 14.6728 51.7779C14.7193 51.7792 14.8362 51.7726 14.88 51.7872C15.0088 51.8284 14.9783 52.0356 14.9769 52.1445C14.9756 52.3543 14.9796 52.5681 14.9849 52.7753C14.9902 53.021 14.9637 53.2641 14.961 53.5071C14.9597 53.6665 14.9451 53.8631 15.0765 53.9759C15.2266 54.1088 15.4564 54.138 15.6609 54.1446C15.9066 54.1539 16.1869 54.1353 16.3914 53.9919C16.8097 53.697 16.6676 53.021 16.6291 52.6266C16.6039 52.3702 16.6225 52.1033 16.6291 51.8403C16.6344 51.6039 16.6411 51.3662 16.6464 51.1271C16.649 51.0288 16.6623 50.9226 16.657 50.8217C16.6371 50.5427 16.6942 50.2572 16.7022 49.9677C16.7154 49.4364 16.7433 48.8959 16.7433 48.3553C16.7433 48.1242 16.7035 47.8706 16.6371 47.6514C16.6012 47.5345 16.5627 47.3778 16.5003 47.2756C16.402 47.1122 16.232 46.9661 16.0899 46.8386C15.9066 46.6752 15.6888 46.5929 15.479 46.4667C15.2067 46.302 14.9225 46.1467 14.6276 46.0205C14.1097 45.8 13.5558 45.6114 12.9768 45.5902C12.7736 45.5822 12.6208 45.5503 12.4243 45.5052C12.2264 45.46 12.1281 45.5928 12.0922 45.7788C12.0617 45.8943 12.0484 46.0152 12.0351 46.136ZM14.1469 42.311C14.1469 42.311 14.4297 41.9644 15.0885 41.0121C15.4949 40.4224 16.7765 38.7623 17.4247 39.1063C18.4247 39.6349 18.3132 43.3802 18.3132 43.3802L14.1469 42.311ZM13.7272 42.3562C13.7272 42.3562 13.3779 42.0773 12.5358 41.2804C12.0139 40.789 10.4162 39.433 9.85303 39.9018C8.98443 40.627 9.87295 44.2674 9.87295 44.2674L13.7272 42.3562Z" fill="#37322C"/>
<path d="M9.34167 45.8903C9.29784 44.7335 9.83706 43.4798 10.7867 42.6377C11.5543 41.9551 12.6939 41.5287 13.84 41.4105C14.9862 41.2884 16.1882 41.469 17.0807 41.975C18.1857 42.6019 18.9719 43.7148 19.1711 44.857C19.3597 45.9408 19.2535 47.063 18.3171 47.929C17.7978 48.4084 17.1271 48.7684 16.4206 48.9981C16.1523 49.0858 15.4564 49.2969 14.7139 49.3753C13.9689 49.4537 13.1773 49.3992 12.8957 49.3687C12.1573 49.2903 11.4255 49.0791 10.8185 48.7192C9.72018 48.0658 9.38284 46.99 9.34167 45.8903Z" fill="#37322C"/>
<path d="M15.9145 45.4573C15.9597 45.8837 16.3037 46.1971 16.6822 46.1573C17.0607 46.1174 17.333 45.7402 17.2878 45.3126C17.2427 44.8849 16.8987 44.5715 16.5202 44.6113C16.1417 44.6525 15.8707 45.0297 15.9145 45.4573ZM12.7204 45.7934C12.7656 46.2197 12.4946 46.5982 12.1161 46.638C11.7376 46.6779 11.3936 46.3644 11.3485 45.9381C11.3033 45.5105 11.5742 45.1319 11.9527 45.0921C12.3326 45.0536 12.6752 45.3657 12.7204 45.7934ZM14.4669 47.5916C14.4735 47.5916 14.4815 47.5916 14.4881 47.5903C14.601 47.5784 14.6834 47.4774 14.6714 47.3632L14.5917 46.6048C14.5798 46.4919 14.4775 46.4149 14.3646 46.4216C14.2517 46.4335 14.1694 46.5344 14.1813 46.6487L14.261 47.4057C14.273 47.5119 14.362 47.5916 14.4669 47.5916Z" fill="#FFE6E6"/>
<path d="M15.0685 48.087C15.277 48.0857 15.4868 48.0219 15.6395 47.9051C15.7604 47.8121 15.953 47.5305 15.7551 47.423C15.7232 47.4057 15.6874 47.3964 15.6515 47.3924C15.5944 47.3844 15.5479 47.3991 15.5001 47.4349C15.4231 47.492 15.358 47.5943 15.2624 47.6129C14.9635 47.674 14.7059 47.5212 14.6342 47.2211C14.6156 47.1401 14.6089 47.1016 14.5133 47.0923C14.2809 47.071 14.2251 47.3632 14.2888 47.5372C14.346 47.6926 14.4203 47.8599 14.5651 47.9529C14.7138 48.0472 14.8931 48.0883 15.0685 48.087Z" fill="#FFE6E6"/>
<path d="M13.9807 48.1853C13.7748 48.2225 13.557 48.1972 13.3844 48.1109C13.2489 48.0405 13.0072 47.8001 13.1825 47.658C13.2927 47.569 13.3897 47.6049 13.4972 47.674C13.7708 47.8506 14.1454 47.7258 14.237 47.407C14.2569 47.334 14.229 47.2184 14.2622 47.1533C14.2782 47.1228 14.3034 47.1294 14.3406 47.1162C14.3658 47.1069 14.3818 47.0962 14.4097 47.0949C14.5385 47.0869 14.6129 47.2251 14.6328 47.334C14.6434 47.3924 14.6554 47.4415 14.6461 47.5C14.6182 47.6647 14.5757 47.8413 14.4495 47.9595C14.322 48.0817 14.1533 48.1534 13.9807 48.1853Z" fill="#FFE6E6"/>
<path d="M15.0939 46.654C15.0978 46.7961 15.0168 46.9528 14.88 47.0591C14.7685 47.1454 14.6038 47.2012 14.4404 47.2171C14.2771 47.2344 14.1044 47.2145 13.9782 47.1547C13.8215 47.079 13.7099 46.9435 13.6847 46.8027C13.6595 46.6699 13.6767 46.5291 13.8135 46.4202C13.8879 46.3591 13.9849 46.314 14.0871 46.2848C14.1243 46.2728 14.2253 46.2449 14.3315 46.2343C14.4391 46.2224 14.552 46.2277 14.5918 46.2316C14.6967 46.2396 14.8017 46.2649 14.888 46.3074C15.0434 46.3857 15.0899 46.5172 15.0939 46.654Z" fill="#FFE6E6"/>
<path d="M9.03208 52.1816C8.87005 52.0741 8.70005 52.1219 8.51943 52.1431C7.74115 52.2334 6.85927 52.9161 6.8274 53.7289C6.78888 54.7728 7.71724 55.5272 8.64161 55.7755C9.31497 55.9562 10.0441 55.9562 10.7374 55.9283C11.0402 55.9163 11.5874 55.9668 11.8543 55.7968C11.95 55.737 12.0336 55.6122 12.0775 55.5099C12.2382 55.1367 11.9141 54.8764 11.5675 54.8777C11.3151 54.8791 11.0628 54.883 10.8091 54.8804C10.2566 54.8764 9.70146 54.9176 9.1556 54.8087C8.65888 54.7104 7.93107 54.3212 7.96161 53.7156C7.98419 53.2707 8.47826 53.183 8.83419 53.1299C8.92451 53.1166 9.01349 53.0874 9.11708 53.0848C9.32029 53.0794 9.31099 52.8882 9.29638 52.7394C9.27513 52.5283 9.24193 52.3516 9.06529 52.2069C9.05865 52.1989 9.04536 52.1896 9.03208 52.1816ZM18.8456 45.6034C18.8589 45.6034 18.8722 45.6021 18.8854 45.5994L19.9772 45.3856C20.0887 45.3644 20.1618 45.2555 20.1392 45.1439C20.1179 45.0323 20.0064 44.958 19.8975 44.9819L18.8058 45.197C18.6942 45.2183 18.6211 45.3272 18.6437 45.4374C18.6636 45.5344 18.75 45.6034 18.8456 45.6034ZM19.9679 46.4401C20.0701 46.4401 20.1578 46.3644 20.1711 46.2608C20.187 46.148 20.1073 46.0457 19.9944 46.0298L18.8908 45.885C18.7805 45.8691 18.6756 45.9487 18.6597 46.0616C18.6451 46.1745 18.7247 46.2781 18.8363 46.2927L19.94 46.4375C19.9493 46.4401 19.9572 46.4401 19.9679 46.4401ZM19.6425 47.3698C19.7315 47.3698 19.8138 47.3114 19.8404 47.2198C19.8722 47.1108 19.8085 46.998 19.6983 46.9661L18.6291 46.6606C18.5202 46.6301 18.406 46.6925 18.3741 46.8027C18.3436 46.9116 18.406 47.0258 18.5162 47.0564L19.5854 47.3619C19.6053 47.3672 19.6239 47.3698 19.6425 47.3698ZM9.81966 46.399C9.92325 46.399 10.0122 46.3206 10.0242 46.2157C10.0302 46.1615 10.0143 46.1071 9.98022 46.0645C9.94611 46.0219 9.89647 45.9946 9.84224 45.9886L8.73591 45.8651C8.62568 45.8558 8.52075 45.9341 8.5088 46.047C8.49552 46.1612 8.57786 46.2622 8.69075 46.2741L9.79708 46.3976C9.80505 46.3976 9.81302 46.399 9.81966 46.399ZM8.7731 47.3273C8.78771 47.3273 8.80232 47.326 8.81825 47.322L9.90466 47.0843C9.95777 47.0725 10.0041 47.0402 10.0334 46.9944C10.0628 46.9486 10.0728 46.8931 10.0614 46.8399C10.0361 46.7297 9.92724 46.6593 9.817 46.6832L8.72927 46.9209C8.61904 46.9448 8.54732 47.0551 8.57255 47.1653C8.59247 47.2609 8.6788 47.3273 8.7731 47.3273ZM9.17286 48.2251C9.19677 48.2251 9.222 48.2212 9.24591 48.2119L10.2858 47.8187C10.3921 47.7789 10.4465 47.6594 10.4054 47.5531C10.3655 47.4469 10.246 47.3937 10.1397 47.4336L9.09849 47.8267C8.99224 47.8679 8.93911 47.9861 8.97896 48.0923C9.01083 48.1747 9.08919 48.2251 9.17286 48.2251Z" fill="#37322C"/>
<path d="M17.2187 40.6628C17.3157 40.9152 17.5109 41.6416 17.3887 42.1583C17.3529 42.3123 17.1563 42.3814 17.0169 42.315C16.726 42.1756 16.2718 41.9298 16.1018 41.8448C15.8122 41.7027 15.7126 41.5261 15.8694 41.3096C16.0686 41.0334 16.5653 40.4609 16.8588 40.4052C17.0262 40.3733 17.155 40.4995 17.2187 40.6628ZM10.3656 41.3614C10.3112 41.627 10.2421 42.3748 10.4493 42.8662C10.5104 43.0109 10.7162 43.0468 10.8424 42.9578C11.1054 42.7719 11.5104 42.4531 11.6658 42.3416C11.9262 42.153 11.9965 41.9617 11.8053 41.7745C11.5636 41.5354 10.9779 41.0533 10.679 41.048C10.5077 41.044 10.4001 41.1901 10.3656 41.3614Z" fill="#CE4D5E"/>
<path d="M39.0316 40.6843L35.3335 33.9763L26.2044 37.4783C26.2044 37.4783 25.7593 38.0508 25.8538 39.0537C25.8932 39.4998 26.0941 40.7593 26.0941 40.7593L24.3927 41.0199C24.3927 41.0199 21.9549 43.0572 22.7307 46.2434C23.3215 48.6637 23.9516 49.9508 23.9516 49.9508L23.6208 52.3237C23.6208 52.3237 29.0557 54.6926 34.341 54.5465C41.1072 54.361 43.6553 50.7681 43.6553 50.7681L41.8082 42.3939L39.0316 40.6843Z" fill="#9269C7"/>
<path d="M23.3609 41.466C22.5771 42.2044 22.4472 43.373 22.5102 43.7837C22.6598 44.747 24.1367 47.3963 25.7633 47.2857C27.3898 47.1752 26.614 43.914 26.0941 42.7295C25.5742 41.545 24.6172 40.2776 23.3609 41.466ZM18.9617 54.2465C18.9066 55.0559 19.8124 55.0243 21.5138 55.0243C23.2151 55.0243 27.315 54.7282 27.315 54.7282L26.9842 52.4658C26.9842 52.4658 25.9562 52.5369 24.5463 51.763C23.9752 51.4472 23.7901 51.0405 23.7901 51.0405C23.7901 51.0405 19.072 52.6198 18.9617 54.2465Z" fill="#E9BDFF"/>
<path d="M31.2179 39.0537C31.2179 39.0537 29.4063 38.9826 28.0554 40.558C27.1968 41.5569 25.4324 46.3579 26.7242 47.0252C28.016 47.6924 28.9021 45.3393 29.3866 44.2456C29.8316 43.2467 30.6429 42.0978 31.3439 41.7266C32.045 41.3555 32.6357 40.9488 32.6357 40.9488L31.2179 39.0537ZM28.2051 52.0236C28.2051 52.0236 27.5749 52.0236 26.9487 52.2447C26.3186 52.4658 22.8095 54.1715 22.8449 55.0993C22.8804 56.0271 25.0268 56.0271 27.6852 55.9876C30.3475 55.9521 31.0486 55.4309 31.2691 55.2098C31.4897 54.9887 32.3403 53.8398 32.045 53.6898C31.7535 53.5437 28.2051 52.0236 28.2051 52.0236Z" fill="#FFE4BE"/>
<path d="M38.0707 35.0146C38.0707 35.0146 40.1423 33.1985 40.9536 31.4573C41.7649 29.7161 41.7294 28.05 41.7294 28.05C41.7294 28.05 45.656 27.0116 44.6674 22.1434C43.8325 18.0214 40.5085 18.898 40.5085 18.898C40.5085 18.898 38.2518 14.1917 32.1907 12.8966C26.1295 11.6016 20.8206 14.6023 18.5876 17.6385C16.0001 21.1603 16.4451 25.681 16.4451 25.681C16.4451 25.681 14.4483 25.4955 13.5268 27.2761C12.5697 29.1199 12.8966 32.1285 14.6728 33.5025C16.4451 34.8725 19.2177 34.5014 19.2177 34.5014C19.2177 34.5014 21.1396 36.5781 23.3569 37.502C25.6333 38.4536 27.7915 38.5759 30.4184 38.3154C33.0453 38.0548 35.1484 36.6847 35.1484 36.6847C35.1484 36.6847 35.0381 37.427 35.5186 38.3904C35.8179 38.9866 36.8498 40.1315 36.8498 40.1315C36.8498 40.1315 35.1681 39.2432 33.8172 39.0024C32.3522 38.7418 31.4148 38.8365 30.8595 39.1682C30.4381 39.4209 30.9816 41.4305 31.5999 41.5411C32.2301 41.6516 33.2619 41.3555 35.0736 42.0583C36.8852 42.7611 39.2128 44.4312 39.8036 44.8023C40.3943 45.1734 41.5955 45.8012 41.69 46.6185C41.7609 47.2463 40.7488 48.0635 38.9726 46.2474C37.2712 44.5062 35.6289 42.84 33.7778 42.615C31.9308 42.3939 30.7847 42.8756 29.934 44.7273C28.8431 47.1081 27.9372 49.9903 27.7521 50.7286C27.567 51.4709 27.0511 51.8775 27.4568 52.5803C27.7403 53.0699 30.8713 54.8979 31.596 54.8427C32.5215 54.7676 33.258 52.8804 33.4825 52.5448C33.703 52.2131 34.1835 51.5064 34.1835 51.5064C34.1835 51.5064 35.81 55.3599 39.2482 55.0282C42.6864 54.6966 43.1669 52.5448 43.1669 52.5448C43.1669 52.5448 45.8411 52.679 48.6728 51.8696C52.4693 50.7839 55.0647 47.3055 55.88 41.7266C56.4707 37.6876 55.7303 31.7968 53.8478 26.8655C53.1546 25.0572 52.3394 22.9133 51.8156 21.4169C50.4726 17.6029 50.0039 14.8471 52.1858 14.0416C53.2964 13.631 54.0092 14.1166 54.3322 14.7523C54.7733 15.6249 54.8481 16.7067 56.2502 17.2634C57.2505 17.6582 58.5069 17.3384 59.0582 16.4106C59.7514 15.2498 59.5072 13.552 58.0224 11.6293C55.4704 8.33249 51.2209 8.6444 48.8933 10.4053C46.4043 12.2847 45.3448 14.7878 46.5657 19.4823C47.7118 23.8925 50.2323 29.5069 50.7798 32.2311C51.5202 35.899 52.1897 44.9168 47.637 46.7567C45.5299 47.6095 43.9782 47.2739 43.9782 47.2739C43.9782 47.2739 43.608 43.0572 42.2768 40.0092C40.7606 36.5308 38.0707 35.0146 38.0707 35.0146Z" fill="#E9BDFF"/>
<path d="M38.9962 21.2156C38.9332 21.2945 39.3546 22.4514 39.5121 23.6595C39.6893 24.998 39.7445 26.293 39.8587 26.3325C40.0792 26.4075 43.356 25.5863 42.9503 22.5461C42.5447 19.506 39.1458 21.03 38.9962 21.2156ZM16.6341 27.5327C16.3427 27.3116 14.4483 27.8447 14.6768 30.0162C14.9721 32.8313 17.7447 32.8313 18.0047 32.6457C18.1386 32.5509 17.6108 31.2678 17.2643 30.0162C16.9295 28.812 16.7798 27.6393 16.6341 27.5327ZM27.1299 21.638C25.3576 22.2303 22.8804 19.3757 20.734 21.638C18.1071 24.4057 21.2302 26.8931 21.4744 28.8278C21.624 30.0122 20.9585 30.9045 21.624 32.9023C22.1794 34.5685 25.2631 37.048 30.8713 35.9069C36.1212 34.837 37.3539 31.5047 37.216 29.4081C37.0624 27.0708 35.9676 26.9366 35.747 25.7521C35.5265 24.5676 36.7671 19.9008 33.1595 18.9335C29.422 17.9346 29.04 21.0024 27.1299 21.638Z" fill="#FFE4BE"/>
<path d="M33.2934 24.4926C33.514 25.8271 33.3761 26.7155 32.4349 26.9366C31.3085 27.2011 30.576 26.4351 30.3554 25.073C30.0837 23.4108 30.4184 22.629 31.2809 22.4672C32.3443 22.2697 33.0177 22.8146 33.2934 24.4926ZM25.8105 25.7995C26.0626 27.0708 26.1059 28.2079 25.0898 28.4685C24.117 28.7172 23.3097 28.0934 22.9552 26.7194C22.5377 25.1085 22.6756 24.1767 23.5932 23.9122C24.5384 23.6358 25.4206 23.8253 25.8105 25.7995ZM27.1417 28.0263C27.1653 28.6659 28.2484 29.4397 28.8825 29.341C29.5677 29.2305 30.2136 27.8723 29.9891 27.4696C29.6977 26.9484 27.122 27.4419 27.1417 28.0263Z" fill="#8D6E63"/>
<path d="M24.5502 32.1087C24.6605 32.9971 26.547 34.3395 29.9852 33.6643C33.5337 32.9695 34.0614 30.8019 34.0063 30.2728C33.9511 29.7437 32.1474 29.4674 29.0715 29.9964C26.6573 30.411 24.4597 31.3981 24.5502 32.1087Z" fill="#CE4D5E"/>
<path d="M49.9372 23.9163C49.9372 23.9163 49.1789 24.3615 48.6119 24.9939C48.1449 25.5136 47.7807 26.2133 47.7807 26.2133L48.2796 27.5643L48.7604 27.7671L50.0584 25.7938C50.0584 25.7938 50.1372 25.0981 50.1127 24.6418C50.1007 24.4065 50.0682 24.1816 50.0682 24.1816L49.9372 23.9163ZM50.675 23.9098C50.675 23.9098 51.0123 24.5184 51.1408 24.7609C51.2865 25.0349 51.5445 25.4747 51.5445 25.4747L53.5305 26.2446L53.846 24.8248C53.846 24.8248 53.3753 24.4701 53.1238 24.2862C52.8723 24.1022 51.5879 23.6245 51.5879 23.6245L50.675 23.9098Z" fill="#AF3747"/>
<path d="M47.2613 28.6155C47.2613 28.6155 47.1826 28.0632 47.4239 27.182C47.6652 26.3008 47.8456 26.1114 47.8456 26.1114C47.8456 26.1114 48.0829 25.9865 48.2996 25.901C48.5336 25.8086 48.7407 25.779 48.7407 25.779C48.7407 25.779 48.5315 26.2318 48.4514 26.6369C48.3712 27.042 48.3519 27.4104 48.495 27.4442C48.6374 27.4781 48.6611 26.9843 48.8252 26.4973C48.9976 25.9841 49.1594 25.712 49.1594 25.712C49.1594 25.712 49.378 25.6628 49.6213 25.6722C49.8905 25.6823 50.0617 25.7746 50.0617 25.7746C50.0617 25.7746 49.924 27.1016 49.8578 27.8665C49.7917 28.6314 49.6754 29.6536 49.598 29.7095C49.5206 29.7654 49.3026 29.5344 49.1554 29.3451C49.0081 29.1557 48.4026 28.1025 48.3876 28.1281C48.3727 28.1536 47.2613 28.6155 47.2613 28.6155ZM51.5423 25.4694C51.5423 25.4694 51.703 25.2868 51.848 25.1917C51.9932 25.0973 52.2627 24.979 52.2627 24.979C52.2627 24.979 52.5162 25.2683 52.7057 25.4617C52.8958 25.6541 53.23 26.0658 53.3515 25.9626C53.4731 25.8602 53.1749 25.4341 53.0188 25.2521C52.8768 25.0864 52.6472 24.8717 52.6472 24.8717C52.6472 24.8717 52.8456 24.7919 53.2406 24.7677C53.6363 24.7433 53.8466 24.8238 53.8466 24.8238C53.8466 24.8238 54.3279 25.2557 54.5964 25.5261C54.954 25.8868 55.4506 26.5281 55.4506 26.5281L54.0977 27.001L53.794 28.717C53.794 28.717 53.6996 28.7482 53.6378 28.7292C53.5766 28.7092 53.1501 28.0806 52.9111 27.7091C52.5349 27.1224 51.5423 25.4694 51.5423 25.4694Z" fill="#CE4D5E"/>
<path d="M53.9841 26.8888C53.9434 26.9527 53.7567 28.3824 53.751 28.4247C53.7218 28.644 53.6242 28.7177 53.6242 28.7177C53.6242 28.7177 53.7525 28.8295 53.8993 28.7414C54.0124 28.6736 54.2403 27.1299 54.2403 27.1299C54.2403 27.1299 55.295 26.8669 55.4311 26.7599C55.5839 26.6402 55.4473 26.5248 55.4473 26.5248C55.4473 26.5248 54.0382 26.803 53.9841 26.8888ZM47.256 28.5852C47.256 28.5852 47.5527 28.4473 47.8197 28.2963C48.0866 28.1454 48.426 27.9414 48.426 27.9414C48.426 27.9414 48.9189 28.6654 49.0738 28.9111C49.2288 29.1568 49.6074 29.6979 49.6074 29.6979C49.6074 29.6979 49.5364 29.8305 49.3722 29.7789C49.2187 29.7304 48.7857 29.0893 48.6714 28.9189C48.5257 28.7033 48.3253 28.3793 48.3253 28.3793C48.3253 28.3793 48.0506 28.5582 47.8122 28.6692C47.5739 28.7803 47.4129 28.8579 47.3292 28.8079C47.2457 28.7588 47.256 28.5852 47.256 28.5852ZM48.4356 22.5139L46.9047 22.5144L46.1019 23.6115L46.198 25.7538L46.5275 26.0851C46.5275 26.0851 46.8257 26.2128 47.4869 25.8728C48.1479 25.5319 49.5752 24.5046 49.5752 24.5046C49.5752 24.5046 49.7987 24.5366 49.9862 24.5146C50.1738 24.4926 50.466 24.3467 50.466 24.3467C50.466 24.3467 50.8709 24.31 51.0982 24.2335C51.3248 24.1571 51.4175 24.1064 51.4175 24.1064C51.4175 24.1064 52.2808 24.3174 53.0947 24.3371C53.9085 24.3567 54.5071 24.2539 54.6355 24.2039C54.8351 24.1254 54.845 23.7494 54.845 23.7494L54.567 23.0038L52.8506 20.8902L50.7179 22.1548L50.6181 22.3499L49.9729 22.3407L49.1959 22.7158L49.0619 22.6205L48.4356 22.5139Z" fill="#B73B4C"/>
<path d="M49.1603 22.6925C49.1603 22.6925 49.1788 22.3826 49.8671 22.204C50.5089 22.0374 50.6609 22.2713 50.6609 22.2713C50.6609 22.2713 50.8877 22.8126 50.936 23.3203C50.9797 23.7741 50.8565 24.292 50.8565 24.292C50.8565 24.292 50.7079 24.3731 50.4643 24.4439C50.2344 24.5102 49.9733 24.5155 49.9733 24.5155C49.9733 24.5155 49.656 24.1835 49.4398 23.7195C49.2313 23.2701 49.1603 22.6925 49.1603 22.6925Z" fill="#CE4D5E"/>
<path d="M49.8042 23.5007C49.9426 23.4931 49.9267 23.1163 49.9847 22.997C50.076 22.8108 50.3916 22.7605 50.3343 22.5578C50.2894 22.3977 49.6837 22.4758 49.5483 22.8294C49.4544 23.0763 49.5836 23.5129 49.8042 23.5007Z" fill="#FCB4B9"/>
<path d="M50.7171 22.155C50.7171 22.155 50.832 22.2402 50.9588 22.4141C51.0523 22.5415 51.1672 22.7334 51.1672 22.7334C51.1672 22.7334 51.3882 22.4085 51.5975 22.2091C51.8059 22.0099 52.8619 21.2915 53.0368 21.8521C53.1784 22.3081 52.3197 22.5209 51.9599 22.7902C51.7068 22.9793 51.3777 23.2981 51.3777 23.2981L51.4975 23.7689C51.4975 23.7689 51.7342 23.9208 52.1787 23.8446C52.6231 23.7684 53.7354 23.4655 53.9576 23.4179C54.4202 23.3186 54.6331 23.4843 54.6958 23.7306C54.7583 23.9761 54.698 24.0993 54.7348 24.1239C54.7827 24.1565 54.9348 23.9528 54.9372 23.5279C54.9397 23.1029 54.8302 22.3386 54.6371 21.7093C54.4091 20.9658 54.0055 19.996 53.6249 19.8948C53.2442 19.7935 52.337 20.2957 51.8299 20.69C50.9769 21.3532 50.7171 22.155 50.7171 22.155ZM48.9603 23.2754C48.9603 23.2754 48.9488 23.0809 48.9787 22.9164C49.0021 22.7878 49.0629 22.6211 49.0629 22.6211C49.0629 22.6211 48.7578 22.1876 47.9857 21.9721C47.2137 21.7565 45.7286 21.8169 45.3241 22.1053C45.1228 22.2484 45.0539 22.8823 45.2113 23.7768C45.3486 24.5531 45.6549 25.4455 46.007 25.8334C46.272 26.1256 46.7897 26.2596 46.8921 26.0847C46.9422 25.9992 46.368 25.8964 46.7789 25.458C47.0173 25.2044 47.5647 25.079 48.0282 24.9253C48.4918 24.7717 48.699 24.7429 48.9309 24.616C49.1627 24.4891 49.2929 24.3553 49.2929 24.3553C49.2929 24.3553 49.1851 24.1749 49.1496 24.0841C49.1007 23.9601 49.064 23.8579 49.064 23.8579C49.064 23.8579 48.8769 23.8072 48.4297 23.8466C47.9912 23.8846 47.3046 24.0795 47.1756 23.6145C47.0114 23.0244 47.7274 22.9969 48.0777 23.0469C48.4279 23.0969 48.9117 23.2464 48.9603 23.2754Z" fill="#CE4D5E"/>
<path d="M37.9488 11.0621C37.8208 8.73094 36.5975 6.84719 34.1423 6.19427C31.7069 5.5468 29.7223 6.56924 28.4581 8.49596C27.0416 8.16842 25.8784 8.01829 24.8688 8.20473C23.8384 8.39609 23.304 8.56836 22.7604 9.41923C21.7261 11.0372 23.6199 15.617 29.7416 17.5635C36.0481 19.5696 41.0033 17.332 41.9482 14.6739C42.5698 12.9264 40.8189 11.9542 37.9488 11.0621Z" fill="#FFE8A9"/>
<path d="M37.9488 11.0621C37.8233 8.75578 36.6206 6.88751 34.215 6.21603C34.4259 6.35767 34.684 6.58476 34.5541 6.75113C34.393 6.95712 34.2548 6.90168 33.9238 6.96816C33.8061 6.99263 33.8016 7.09542 33.9099 7.23931C34.0123 7.37272 34.2778 7.55229 34.8469 7.68542C35.0865 7.74059 35.1155 7.93546 34.8849 8.04769C34.5266 8.22067 34.3204 8.26438 34.0824 8.30208C33.8384 8.34289 33.9001 8.56901 34.0608 8.66997C34.2104 8.76678 34.5075 8.97277 35.1081 8.98826C35.2817 8.99294 35.2887 9.22354 34.9671 9.36579C34.67 9.49715 34.2992 9.55271 34.1362 9.59299C33.9736 9.63488 34.0286 9.76086 34.109 9.83675C34.425 10.1298 34.7041 10.1519 35.1538 10.2302C35.2824 10.2523 35.2889 10.4305 35.0095 10.6085C34.7921 10.7481 34.5378 10.8457 34.1839 10.8938C33.6204 10.9713 33.2243 11.4363 33.6062 11.9664L33.2495 13.6613C33.1663 13.8607 32.6524 13.8399 32.7093 13.9739C32.8352 14.2713 33.2471 14.4552 33.6972 14.6284C33.9037 14.7084 33.8568 14.9042 33.7152 14.992C33.6166 15.0544 33.2074 15.1766 32.9725 15.2492C32.8715 15.2799 32.8394 15.3875 32.9434 15.4917C33.086 15.6377 33.4786 15.7753 34.1262 15.739C34.248 15.7322 34.3187 15.9392 34.1269 16.0795C33.85 16.2824 33.7222 16.3211 33.386 16.4448C33.1389 16.5084 33.2163 16.6647 33.3895 16.761C33.7474 16.9594 34.3659 16.9147 34.7149 16.9389C34.9402 16.955 34.8579 17.2305 34.4179 17.394C34.2097 17.4721 34.0133 17.4999 33.6747 17.5699C33.4605 17.6155 33.4782 17.791 33.6918 17.9151C33.9156 18.0469 34.288 18.1706 34.8173 18.2352C33.3051 18.2982 31.6376 18.0894 29.8702 17.528C27.2433 16.6919 24.1613 14.7565 23.0498 11.9546C22.5242 10.6279 22.8455 9.28549 22.8455 9.28549C22.785 9.36593 22.0501 10.4028 22.6989 12.2886C23.0308 13.2526 24.4422 16.3514 29.712 18.0265C32.6824 18.9711 35.3071 19.0584 37.3629 18.5107C41.7433 17.3433 42.1223 14.5801 42.1223 14.5801C42.2044 13.6724 41.945 13.0591 41.268 12.4107C40.5969 11.7728 39.1694 11.4411 37.9488 11.0621Z" fill="#EDB989"/>
<path d="M32.9921 10.5436C32.8122 10.4692 32.7269 10.308 32.6799 10.209C32.6329 10.1099 32.6736 9.95277 32.89 10.0168C33.1461 10.0918 33.3073 10.1588 33.663 10.1542C33.8518 10.1519 33.8579 10.4217 33.5914 10.5323C33.4264 10.6002 33.2303 10.6432 32.9921 10.5436ZM32.1218 14.825C31.9139 14.7539 31.7975 14.6255 31.7387 14.4766C31.6909 14.3524 31.7696 14.2489 31.9096 14.2904C32.2182 14.3801 32.6748 14.5093 32.6748 14.5093C32.8079 14.5287 32.9188 14.7126 32.7149 14.8016C32.5434 14.8778 32.3336 14.8986 32.1218 14.825ZM32.0723 16.2302C31.8519 16.1705 31.7206 16.0439 31.6512 15.8926C31.5926 15.7657 31.6932 15.6402 31.8369 15.6977C32.0351 15.7779 32.2034 15.8178 32.6523 15.8353C32.7939 15.8407 32.8945 16.0594 32.6879 16.1659C32.5147 16.2561 32.2966 16.2924 32.0723 16.2302ZM32.6546 17.4893C32.4211 17.431 32.281 17.3031 32.2017 17.1456C32.1367 17.0135 32.3147 16.9866 32.4289 17.0121C32.4289 17.0121 32.7924 17.0549 33.2037 17.0779C33.3529 17.0867 33.4659 17.2938 33.2504 17.4127C33.0715 17.5144 32.8934 17.548 32.6546 17.4893Z" fill="#EDB989"/>
<path d="M35.3445 17.7883C35.0895 17.6893 35.2643 17.5343 35.3807 17.5187C35.8154 17.4615 35.8732 17.4055 36.2595 17.2581C36.4192 17.1965 36.547 17.3731 36.4022 17.5549C36.2609 17.7307 35.7984 17.964 35.3445 17.7883ZM35.4132 16.6227C35.2362 16.5103 35.3929 16.4359 35.5653 16.407C35.8857 16.3531 35.9335 16.2757 36.2609 16.1152C36.3943 16.0497 36.5457 16.2257 36.4116 16.4321C36.2508 16.6753 35.7592 16.8425 35.4132 16.6227Z" fill="#FFE8A9"/>
<path d="M32.7808 8.96451C32.7229 8.81208 32.8073 8.70393 32.9515 8.76305C33.1861 8.86178 33.6577 8.94 33.6577 8.94C33.8163 8.9601 33.8829 9.12064 33.6762 9.2696C33.4694 9.41856 32.9664 9.45117 32.7808 8.96451Z" fill="#EDB989"/>
<path d="M35.804 8.61842C35.4519 8.73905 35.2457 8.60308 35.1508 8.50179C35.0563 8.4021 35.1473 8.34327 35.2532 8.33345C35.6497 8.29384 35.8146 8.16834 35.9367 8.14113C36.014 8.12454 36.0747 8.21698 36.0908 8.29283C36.1168 8.41042 36.0794 8.52439 35.804 8.61842ZM36.3513 9.80776C36.106 9.87938 35.9049 9.81511 35.7819 9.69504C35.6439 9.56156 35.7363 9.48714 35.8415 9.47411C36.1482 9.43372 36.2922 9.37758 36.6222 9.20623C36.7593 9.1348 36.7963 9.32777 36.7745 9.43634C36.7552 9.53413 36.6883 9.70934 36.3513 9.80776ZM36.2685 11.1293C36.0161 11.1704 35.7872 11.0958 35.6767 10.9643C35.5895 10.8595 35.6604 10.78 35.8404 10.7763C36.1495 10.7676 36.3532 10.699 36.6914 10.541C36.8119 10.4853 36.86 10.6536 36.7824 10.8127C36.7065 10.9714 36.5978 11.0768 36.2685 11.1293Z" fill="#FFE8A9"/>
<path d="M33.2963 7.48457C33.5811 7.55955 33.6885 7.56296 33.8052 7.5777C33.922 7.59244 33.958 7.77379 33.8938 7.85339C33.8123 7.95237 33.6319 8.01203 33.4535 7.97967C33.1867 7.93095 33.0626 7.74163 33.0316 7.66759C33.0023 7.59317 33.0114 7.4096 33.2963 7.48457Z" fill="#EDB989"/>
<path d="M37.9687 11.527C37.9687 11.527 37.8757 11.9864 36.5561 12.2496C35.9261 12.375 34.3211 12.4312 32.4696 11.8794C30.6198 11.3273 29.4121 10.7876 28.6596 9.94009C28.1583 9.37725 28.1872 8.93982 28.1872 8.93982C28.1872 8.93982 27.7094 9.43098 27.5897 9.69834C27.3414 10.2521 27.5665 11.0787 28.118 11.733C28.8971 12.6573 30.0938 13.3081 31.9452 13.8599C33.7966 14.4116 34.7665 14.2719 35.7267 14.1632C36.5751 14.0675 37.6143 13.5689 37.8627 12.7642C37.9832 12.3712 37.9687 11.527 37.9687 11.527ZM36.6013 14.7462C37.1258 17.0734 38.2324 19.395 38.6969 20.1394C38.7543 20.2326 38.8948 20.2045 38.917 20.0975L39.2368 19.0216C39.2401 19.0044 39.2471 18.9881 39.2572 18.9739C39.2674 18.9597 39.2806 18.9479 39.2958 18.9393C39.3109 18.9307 39.3278 18.9255 39.3452 18.9241C39.3626 18.9227 39.3801 18.9252 39.3965 18.9312L40.5208 19.4975C40.6229 19.536 40.7189 19.4268 40.6691 19.3301L38.3055 14.0698C39.8618 15.7594 41.9208 16.9266 42.5637 17.1219C42.5887 17.1296 42.6153 17.1303 42.6407 17.124C42.6661 17.1176 42.6893 17.1045 42.7078 17.0861C42.7264 17.0676 42.7396 17.0444 42.746 17.019C42.7525 16.9936 42.752 16.9669 42.7445 16.9418L42.3545 16.0543C42.3316 15.9784 42.3737 15.8989 42.4491 15.8742L43.2704 15.6137C43.3931 15.5745 43.408 15.4082 43.2955 15.3467L38.2331 12.6494L36.6013 14.7462Z" fill="#CE4D5E"/>
<path d="M34.639 12.2949C33.9309 12.2313 33.2305 12.0996 32.5476 11.9016C32.169 13.2305 32.7137 14.0356 32.7397 14.0668C33.4318 14.2199 33.9857 14.2668 34.4684 14.2628C34.5186 13.722 34.6015 12.753 34.639 12.2949ZM36.7016 15.1649C36.7016 15.1649 36.9675 16.2005 37.1461 16.6498C37.1461 16.6498 38.345 15.3862 38.3055 14.0698C38.3055 14.0698 39.6149 14.5532 40.8401 14.0259L39.6327 13.3725L38.581 13.1502L37.6682 13.568L36.7016 15.1649Z" fill="#A52831"/>
<path d="M35.6705 11.4404C34.9733 11.1223 33.2302 10.9229 33.2322 11.9939C33.2335 13.2701 33.7641 14.482 34.7299 15.6673C35.1176 16.1434 35.4313 16.0895 35.8163 15.9576C37.1383 15.504 37.6708 13.7369 37.6708 13.7369C37.6708 13.7369 38.3107 13.46 38.4955 13.2467C39.4681 13.4776 41.5425 13.8918 41.2676 12.4159C41.062 11.3135 39.6593 8.46694 38.14 8.98764C37.486 9.21197 37.4775 10.8346 37.2656 11.5934C37.0564 11.6887 36.8034 11.8707 36.8034 11.8707C36.8034 11.8707 35.9897 11.5394 35.6705 11.4404Z" fill="#CE4D5E"/>
<path d="M37.4586 11.6155C37.4586 11.6155 37.9347 9.69569 38.1354 9.42779C38.3552 9.13334 38.7448 9.25811 38.6586 9.68198C38.5712 10.1078 37.6346 11.8892 37.6346 11.8892L37.4586 11.6155ZM36.9905 12.062C36.9905 12.062 34.8083 11.3767 34.2519 11.3693C33.9142 11.3645 33.577 11.5698 33.9291 11.8441C34.2812 12.1185 37.0688 12.2655 37.0688 12.2655L36.9905 12.062Z" fill="#A52831"/>
<path d="M37.6477 13.6678C37.6072 13.4095 37.4191 12.5895 36.8836 12.2043C36.678 12.0563 36.7494 11.8139 36.9814 11.6861C37.4185 11.4453 37.6341 11.4418 37.8397 11.5897C38.815 12.2913 38.5774 13.1494 38.5721 13.1913C38.5539 13.394 37.699 13.9862 37.6477 13.6678ZM35.0342 13.2117C35.1556 13.6051 35.3901 13.9903 35.6195 14.3327C35.848 14.6566 36.2127 15.0348 36.033 15.4418C35.9459 15.632 35.6454 15.8065 35.4458 15.7419C34.9219 15.5709 33.973 13.8681 33.7637 12.8937C33.6711 12.4646 33.8755 12.2196 34.3225 12.2867C34.8891 12.373 34.8373 12.5768 35.0342 13.2117Z" fill="#A52831"/>
</svg>
